%TF.GenerationSoftware,KiCad,Pcbnew,10.0.3*%
%TF.CreationDate,2026-06-06T20:05:57+05:30*%
%TF.ProjectId,group_project,67726f75-705f-4707-926f-6a6563742e6b,rev?*%
%TF.SameCoordinates,Original*%
%TF.FileFunction,Soldermask,Top*%
%TF.FilePolarity,Negative*%
%FSLAX46Y46*%
G04 Gerber Fmt 4.6, Leading zero omitted, Abs format (unit mm)*
G04 Created by KiCad (PCBNEW 10.0.3) date 2026-06-06 20:05:57*
%MOMM*%
%LPD*%
G01*
G04 APERTURE LIST*
%ADD10C,1.400000*%
%ADD11C,1.500000*%
%ADD12R,2.000000X1.905000*%
%ADD13O,2.000000X1.905000*%
%ADD14C,2.000000*%
G04 APERTURE END LIST*
D10*
%TO.C,R12*%
X140929416Y-105429416D03*
X148549416Y-105429416D03*
%TD*%
%TO.C,R16*%
X140929416Y-109429416D03*
X148549416Y-109429416D03*
%TD*%
D11*
%TO.C,SUN056CC2*%
X193229416Y-120179416D03*
X193229416Y-117639416D03*
X193229416Y-115099416D03*
X193229416Y-112559416D03*
X193229416Y-110019416D03*
X177989416Y-110019416D03*
X177989416Y-112559416D03*
X177989416Y-115099416D03*
X177989416Y-117639416D03*
X177989416Y-120179416D03*
%TD*%
D10*
%TO.C,R22*%
X140989416Y-72429416D03*
X148609416Y-72429416D03*
%TD*%
D12*
%TO.C,U2*%
X85239416Y-83179416D03*
D13*
X85239416Y-85719416D03*
X85239416Y-88259416D03*
%TD*%
D10*
%TO.C,R19*%
X140679416Y-66429416D03*
X148299416Y-66429416D03*
%TD*%
D11*
%TO.C,CD4026B1*%
X108869416Y-63729416D03*
X108869416Y-66269416D03*
X108869416Y-68809416D03*
X108869416Y-71349416D03*
X108869416Y-73889416D03*
X108869416Y-76429416D03*
X108869416Y-78969416D03*
X108869416Y-81509416D03*
X116489416Y-81509416D03*
X116489416Y-78969416D03*
X116489416Y-76429416D03*
X116489416Y-73889416D03*
X116489416Y-71349416D03*
X116489416Y-68809416D03*
X116489416Y-66269416D03*
X116489416Y-63729416D03*
%TD*%
D14*
%TO.C,C5*%
X91500000Y-77500000D03*
X96500000Y-77500000D03*
%TD*%
D11*
%TO.C,CD4026B2*%
X108489416Y-105179416D03*
X108489416Y-107719416D03*
X108489416Y-110259416D03*
X108489416Y-112799416D03*
X108489416Y-115339416D03*
X108489416Y-117879416D03*
X108489416Y-120419416D03*
X108489416Y-122959416D03*
X116109416Y-122959416D03*
X116109416Y-120419416D03*
X116109416Y-117879416D03*
X116109416Y-115339416D03*
X116109416Y-112799416D03*
X116109416Y-110259416D03*
X116109416Y-107719416D03*
X116109416Y-105179416D03*
%TD*%
D10*
%TO.C,R17*%
X140619416Y-122929416D03*
X148239416Y-122929416D03*
%TD*%
%TO.C,J4*%
X97000000Y-60500000D03*
%TD*%
%TO.C,R18*%
X141489416Y-78679416D03*
X149109416Y-78679416D03*
%TD*%
%TO.C,R24*%
X141239416Y-84429416D03*
X148859416Y-84429416D03*
%TD*%
%TO.C,R13*%
X140929416Y-101679416D03*
X148549416Y-101679416D03*
%TD*%
%TO.C,R23*%
X140929416Y-61179416D03*
X148549416Y-61179416D03*
%TD*%
%TO.C,R14*%
X140489416Y-127929416D03*
X148109416Y-127929416D03*
%TD*%
%TO.C,R15*%
X140749416Y-113729416D03*
X148369416Y-113729416D03*
%TD*%
%TO.C,J6*%
X86450000Y-55500000D03*
%TD*%
D11*
%TO.C,SUN056CC1*%
X193229416Y-77679416D03*
X193229416Y-75139416D03*
X193229416Y-72599416D03*
X193229416Y-70059416D03*
X193229416Y-67519416D03*
X177989416Y-67519416D03*
X177989416Y-70059416D03*
X177989416Y-72599416D03*
X177989416Y-75139416D03*
X177989416Y-77679416D03*
%TD*%
D10*
%TO.C,R21*%
X141239416Y-90179416D03*
X148859416Y-90179416D03*
%TD*%
%TO.C,R11*%
X140619416Y-118179416D03*
X148239416Y-118179416D03*
%TD*%
%TO.C,J5*%
X83000000Y-55500000D03*
%TD*%
%TO.C,J3*%
X97000000Y-65000000D03*
%TD*%
D14*
%TO.C,C4*%
X92500000Y-97250000D03*
X97500000Y-97250000D03*
%TD*%
D10*
%TO.C,J1*%
X128039416Y-56929416D03*
%TD*%
%TO.C,R20*%
X140429416Y-53679416D03*
X148049416Y-53679416D03*
%TD*%
%TO.C,R3*%
X122239416Y-53429416D03*
X122239416Y-48349416D03*
%TD*%
%TO.C,J2*%
X131489416Y-56929416D03*
%TD*%
M02*
