M48
; DRILL file KiCad 10.0.3 date 2026-06-06T20:09:50
; FORMAT={-:-/ absolute / metric / decimal}
; #@! TF.CreationDate,2026-06-06T20:09:50+05:30
; #@! TF.GenerationSoftware,Kicad,Pcbnew,10.0.3
; #@! TF.FileFunction,Plated,1,2,PTH
FMAT,2
METRIC
; #@! TA.AperFunction,Plated,PTH,ComponentDrill
T1C0.700
; #@! TA.AperFunction,Plated,PTH,ViaDrill
T2C0.800
; #@! TA.AperFunction,Plated,PTH,ComponentDrill
T3C1.000
; #@! TA.AperFunction,Plated,PTH,ComponentDrill
T4C1.100
%
G90
G05
T1
X83.0Y-55.5
X86.45Y-55.5
X97.0Y-60.5
X97.0Y-65.0
X122.239Y-48.349
X122.239Y-53.429
X128.039Y-56.929
X131.489Y-56.929
X140.429Y-53.679
X140.489Y-127.929
X140.619Y-118.179
X140.619Y-122.929
X140.679Y-66.429
X140.749Y-113.729
X140.929Y-61.179
X140.929Y-101.679
X140.929Y-105.429
X140.929Y-109.429
X140.989Y-72.429
X141.239Y-84.429
X141.239Y-90.179
X141.489Y-78.679
X148.049Y-53.679
X148.109Y-127.929
X148.239Y-118.179
X148.239Y-122.929
X148.299Y-66.429
X148.369Y-113.729
X148.549Y-61.179
X148.549Y-101.679
X148.549Y-105.429
X148.549Y-109.429
X148.609Y-72.429
X148.859Y-84.429
X148.859Y-90.179
X149.109Y-78.679
T2
X111.739Y-66.929
X112.209Y-126.679
X112.75Y-133.329
X119.864Y-105.304
T3
X91.5Y-77.5
X92.5Y-97.25
X96.5Y-77.5
X97.5Y-97.25
X108.489Y-105.179
X108.489Y-107.719
X108.489Y-110.259
X108.489Y-112.799
X108.489Y-115.339
X108.489Y-117.879
X108.489Y-120.419
X108.489Y-122.959
X108.869Y-63.729
X108.869Y-66.269
X108.869Y-68.809
X108.869Y-71.349
X108.869Y-73.889
X108.869Y-76.429
X108.869Y-78.969
X108.869Y-81.509
X116.109Y-105.179
X116.109Y-107.719
X116.109Y-110.259
X116.109Y-112.799
X116.109Y-115.339
X116.109Y-117.879
X116.109Y-120.419
X116.109Y-122.959
X116.489Y-63.729
X116.489Y-66.269
X116.489Y-68.809
X116.489Y-71.349
X116.489Y-73.889
X116.489Y-76.429
X116.489Y-78.969
X116.489Y-81.509
X177.989Y-67.519
X177.989Y-70.059
X177.989Y-72.599
X177.989Y-75.139
X177.989Y-77.679
X177.989Y-110.019
X177.989Y-112.559
X177.989Y-115.099
X177.989Y-117.639
X177.989Y-120.179
X193.229Y-67.519
X193.229Y-70.059
X193.229Y-72.599
X193.229Y-75.139
X193.229Y-77.679
X193.229Y-110.019
X193.229Y-112.559
X193.229Y-115.099
X193.229Y-117.639
X193.229Y-120.179
T4
X85.239Y-83.179
X85.239Y-85.719
X85.239Y-88.259
M30
