%TF.GenerationSoftware,KiCad,Pcbnew,10.0.3*%
%TF.CreationDate,2026-06-06T20:05:57+05:30*%
%TF.ProjectId,group_project,67726f75-705f-4707-926f-6a6563742e6b,rev?*%
%TF.SameCoordinates,Original*%
%TF.FileFunction,Legend,Top*%
%TF.FilePolarity,Positive*%
%FSLAX46Y46*%
G04 Gerber Fmt 4.6, Leading zero omitted, Abs format (unit mm)*
G04 Created by KiCad (PCBNEW 10.0.3) date 2026-06-06 20:05:57*
%MOMM*%
%LPD*%
G01*
G04 APERTURE LIST*
%ADD10C,0.150000*%
%ADD11C,0.100000*%
%ADD12C,0.120000*%
G04 APERTURE END LIST*
D10*
X144096558Y-103964235D02*
X143763225Y-103488044D01*
X143525130Y-103964235D02*
X143525130Y-102964235D01*
X143525130Y-102964235D02*
X143906082Y-102964235D01*
X143906082Y-102964235D02*
X144001320Y-103011854D01*
X144001320Y-103011854D02*
X144048939Y-103059473D01*
X144048939Y-103059473D02*
X144096558Y-103154711D01*
X144096558Y-103154711D02*
X144096558Y-103297568D01*
X144096558Y-103297568D02*
X144048939Y-103392806D01*
X144048939Y-103392806D02*
X144001320Y-103440425D01*
X144001320Y-103440425D02*
X143906082Y-103488044D01*
X143906082Y-103488044D02*
X143525130Y-103488044D01*
X145048939Y-103964235D02*
X144477511Y-103964235D01*
X144763225Y-103964235D02*
X144763225Y-102964235D01*
X144763225Y-102964235D02*
X144667987Y-103107092D01*
X144667987Y-103107092D02*
X144572749Y-103202330D01*
X144572749Y-103202330D02*
X144477511Y-103249949D01*
X145429892Y-103059473D02*
X145477511Y-103011854D01*
X145477511Y-103011854D02*
X145572749Y-102964235D01*
X145572749Y-102964235D02*
X145810844Y-102964235D01*
X145810844Y-102964235D02*
X145906082Y-103011854D01*
X145906082Y-103011854D02*
X145953701Y-103059473D01*
X145953701Y-103059473D02*
X146001320Y-103154711D01*
X146001320Y-103154711D02*
X146001320Y-103249949D01*
X146001320Y-103249949D02*
X145953701Y-103392806D01*
X145953701Y-103392806D02*
X145382273Y-103964235D01*
X145382273Y-103964235D02*
X146001320Y-103964235D01*
X144096558Y-107964235D02*
X143763225Y-107488044D01*
X143525130Y-107964235D02*
X143525130Y-106964235D01*
X143525130Y-106964235D02*
X143906082Y-106964235D01*
X143906082Y-106964235D02*
X144001320Y-107011854D01*
X144001320Y-107011854D02*
X144048939Y-107059473D01*
X144048939Y-107059473D02*
X144096558Y-107154711D01*
X144096558Y-107154711D02*
X144096558Y-107297568D01*
X144096558Y-107297568D02*
X144048939Y-107392806D01*
X144048939Y-107392806D02*
X144001320Y-107440425D01*
X144001320Y-107440425D02*
X143906082Y-107488044D01*
X143906082Y-107488044D02*
X143525130Y-107488044D01*
X145048939Y-107964235D02*
X144477511Y-107964235D01*
X144763225Y-107964235D02*
X144763225Y-106964235D01*
X144763225Y-106964235D02*
X144667987Y-107107092D01*
X144667987Y-107107092D02*
X144572749Y-107202330D01*
X144572749Y-107202330D02*
X144477511Y-107249949D01*
X145906082Y-106964235D02*
X145715606Y-106964235D01*
X145715606Y-106964235D02*
X145620368Y-107011854D01*
X145620368Y-107011854D02*
X145572749Y-107059473D01*
X145572749Y-107059473D02*
X145477511Y-107202330D01*
X145477511Y-107202330D02*
X145429892Y-107392806D01*
X145429892Y-107392806D02*
X145429892Y-107773758D01*
X145429892Y-107773758D02*
X145477511Y-107868996D01*
X145477511Y-107868996D02*
X145525130Y-107916616D01*
X145525130Y-107916616D02*
X145620368Y-107964235D01*
X145620368Y-107964235D02*
X145810844Y-107964235D01*
X145810844Y-107964235D02*
X145906082Y-107916616D01*
X145906082Y-107916616D02*
X145953701Y-107868996D01*
X145953701Y-107868996D02*
X146001320Y-107773758D01*
X146001320Y-107773758D02*
X146001320Y-107535663D01*
X146001320Y-107535663D02*
X145953701Y-107440425D01*
X145953701Y-107440425D02*
X145906082Y-107392806D01*
X145906082Y-107392806D02*
X145810844Y-107345187D01*
X145810844Y-107345187D02*
X145620368Y-107345187D01*
X145620368Y-107345187D02*
X145525130Y-107392806D01*
X145525130Y-107392806D02*
X145477511Y-107440425D01*
X145477511Y-107440425D02*
X145429892Y-107535663D01*
D11*
X172399216Y-119417510D02*
X172446835Y-119274653D01*
X172446835Y-119274653D02*
X172446835Y-119036558D01*
X172446835Y-119036558D02*
X172399216Y-118941320D01*
X172399216Y-118941320D02*
X172351596Y-118893701D01*
X172351596Y-118893701D02*
X172256358Y-118846082D01*
X172256358Y-118846082D02*
X172161120Y-118846082D01*
X172161120Y-118846082D02*
X172065882Y-118893701D01*
X172065882Y-118893701D02*
X172018263Y-118941320D01*
X172018263Y-118941320D02*
X171970644Y-119036558D01*
X171970644Y-119036558D02*
X171923025Y-119227034D01*
X171923025Y-119227034D02*
X171875406Y-119322272D01*
X171875406Y-119322272D02*
X171827787Y-119369891D01*
X171827787Y-119369891D02*
X171732549Y-119417510D01*
X171732549Y-119417510D02*
X171637311Y-119417510D01*
X171637311Y-119417510D02*
X171542073Y-119369891D01*
X171542073Y-119369891D02*
X171494454Y-119322272D01*
X171494454Y-119322272D02*
X171446835Y-119227034D01*
X171446835Y-119227034D02*
X171446835Y-118988939D01*
X171446835Y-118988939D02*
X171494454Y-118846082D01*
X171446835Y-118417510D02*
X172256358Y-118417510D01*
X172256358Y-118417510D02*
X172351596Y-118369891D01*
X172351596Y-118369891D02*
X172399216Y-118322272D01*
X172399216Y-118322272D02*
X172446835Y-118227034D01*
X172446835Y-118227034D02*
X172446835Y-118036558D01*
X172446835Y-118036558D02*
X172399216Y-117941320D01*
X172399216Y-117941320D02*
X172351596Y-117893701D01*
X172351596Y-117893701D02*
X172256358Y-117846082D01*
X172256358Y-117846082D02*
X171446835Y-117846082D01*
X172446835Y-117369891D02*
X171446835Y-117369891D01*
X171446835Y-117369891D02*
X172446835Y-116798463D01*
X172446835Y-116798463D02*
X171446835Y-116798463D01*
X171446835Y-116131796D02*
X171446835Y-116036558D01*
X171446835Y-116036558D02*
X171494454Y-115941320D01*
X171494454Y-115941320D02*
X171542073Y-115893701D01*
X171542073Y-115893701D02*
X171637311Y-115846082D01*
X171637311Y-115846082D02*
X171827787Y-115798463D01*
X171827787Y-115798463D02*
X172065882Y-115798463D01*
X172065882Y-115798463D02*
X172256358Y-115846082D01*
X172256358Y-115846082D02*
X172351596Y-115893701D01*
X172351596Y-115893701D02*
X172399216Y-115941320D01*
X172399216Y-115941320D02*
X172446835Y-116036558D01*
X172446835Y-116036558D02*
X172446835Y-116131796D01*
X172446835Y-116131796D02*
X172399216Y-116227034D01*
X172399216Y-116227034D02*
X172351596Y-116274653D01*
X172351596Y-116274653D02*
X172256358Y-116322272D01*
X172256358Y-116322272D02*
X172065882Y-116369891D01*
X172065882Y-116369891D02*
X171827787Y-116369891D01*
X171827787Y-116369891D02*
X171637311Y-116322272D01*
X171637311Y-116322272D02*
X171542073Y-116274653D01*
X171542073Y-116274653D02*
X171494454Y-116227034D01*
X171494454Y-116227034D02*
X171446835Y-116131796D01*
X171446835Y-114893701D02*
X171446835Y-115369891D01*
X171446835Y-115369891D02*
X171923025Y-115417510D01*
X171923025Y-115417510D02*
X171875406Y-115369891D01*
X171875406Y-115369891D02*
X171827787Y-115274653D01*
X171827787Y-115274653D02*
X171827787Y-115036558D01*
X171827787Y-115036558D02*
X171875406Y-114941320D01*
X171875406Y-114941320D02*
X171923025Y-114893701D01*
X171923025Y-114893701D02*
X172018263Y-114846082D01*
X172018263Y-114846082D02*
X172256358Y-114846082D01*
X172256358Y-114846082D02*
X172351596Y-114893701D01*
X172351596Y-114893701D02*
X172399216Y-114941320D01*
X172399216Y-114941320D02*
X172446835Y-115036558D01*
X172446835Y-115036558D02*
X172446835Y-115274653D01*
X172446835Y-115274653D02*
X172399216Y-115369891D01*
X172399216Y-115369891D02*
X172351596Y-115417510D01*
X171446835Y-113988939D02*
X171446835Y-114179415D01*
X171446835Y-114179415D02*
X171494454Y-114274653D01*
X171494454Y-114274653D02*
X171542073Y-114322272D01*
X171542073Y-114322272D02*
X171684930Y-114417510D01*
X171684930Y-114417510D02*
X171875406Y-114465129D01*
X171875406Y-114465129D02*
X172256358Y-114465129D01*
X172256358Y-114465129D02*
X172351596Y-114417510D01*
X172351596Y-114417510D02*
X172399216Y-114369891D01*
X172399216Y-114369891D02*
X172446835Y-114274653D01*
X172446835Y-114274653D02*
X172446835Y-114084177D01*
X172446835Y-114084177D02*
X172399216Y-113988939D01*
X172399216Y-113988939D02*
X172351596Y-113941320D01*
X172351596Y-113941320D02*
X172256358Y-113893701D01*
X172256358Y-113893701D02*
X172018263Y-113893701D01*
X172018263Y-113893701D02*
X171923025Y-113941320D01*
X171923025Y-113941320D02*
X171875406Y-113988939D01*
X171875406Y-113988939D02*
X171827787Y-114084177D01*
X171827787Y-114084177D02*
X171827787Y-114274653D01*
X171827787Y-114274653D02*
X171875406Y-114369891D01*
X171875406Y-114369891D02*
X171923025Y-114417510D01*
X171923025Y-114417510D02*
X172018263Y-114465129D01*
X172351596Y-112893701D02*
X172399216Y-112941320D01*
X172399216Y-112941320D02*
X172446835Y-113084177D01*
X172446835Y-113084177D02*
X172446835Y-113179415D01*
X172446835Y-113179415D02*
X172399216Y-113322272D01*
X172399216Y-113322272D02*
X172303977Y-113417510D01*
X172303977Y-113417510D02*
X172208739Y-113465129D01*
X172208739Y-113465129D02*
X172018263Y-113512748D01*
X172018263Y-113512748D02*
X171875406Y-113512748D01*
X171875406Y-113512748D02*
X171684930Y-113465129D01*
X171684930Y-113465129D02*
X171589692Y-113417510D01*
X171589692Y-113417510D02*
X171494454Y-113322272D01*
X171494454Y-113322272D02*
X171446835Y-113179415D01*
X171446835Y-113179415D02*
X171446835Y-113084177D01*
X171446835Y-113084177D02*
X171494454Y-112941320D01*
X171494454Y-112941320D02*
X171542073Y-112893701D01*
X172351596Y-111893701D02*
X172399216Y-111941320D01*
X172399216Y-111941320D02*
X172446835Y-112084177D01*
X172446835Y-112084177D02*
X172446835Y-112179415D01*
X172446835Y-112179415D02*
X172399216Y-112322272D01*
X172399216Y-112322272D02*
X172303977Y-112417510D01*
X172303977Y-112417510D02*
X172208739Y-112465129D01*
X172208739Y-112465129D02*
X172018263Y-112512748D01*
X172018263Y-112512748D02*
X171875406Y-112512748D01*
X171875406Y-112512748D02*
X171684930Y-112465129D01*
X171684930Y-112465129D02*
X171589692Y-112417510D01*
X171589692Y-112417510D02*
X171494454Y-112322272D01*
X171494454Y-112322272D02*
X171446835Y-112179415D01*
X171446835Y-112179415D02*
X171446835Y-112084177D01*
X171446835Y-112084177D02*
X171494454Y-111941320D01*
X171494454Y-111941320D02*
X171542073Y-111893701D01*
X171542073Y-111512748D02*
X171494454Y-111465129D01*
X171494454Y-111465129D02*
X171446835Y-111369891D01*
X171446835Y-111369891D02*
X171446835Y-111131796D01*
X171446835Y-111131796D02*
X171494454Y-111036558D01*
X171494454Y-111036558D02*
X171542073Y-110988939D01*
X171542073Y-110988939D02*
X171637311Y-110941320D01*
X171637311Y-110941320D02*
X171732549Y-110941320D01*
X171732549Y-110941320D02*
X171875406Y-110988939D01*
X171875406Y-110988939D02*
X172446835Y-111560367D01*
X172446835Y-111560367D02*
X172446835Y-110941320D01*
D10*
X144156558Y-70964235D02*
X143823225Y-70488044D01*
X143585130Y-70964235D02*
X143585130Y-69964235D01*
X143585130Y-69964235D02*
X143966082Y-69964235D01*
X143966082Y-69964235D02*
X144061320Y-70011854D01*
X144061320Y-70011854D02*
X144108939Y-70059473D01*
X144108939Y-70059473D02*
X144156558Y-70154711D01*
X144156558Y-70154711D02*
X144156558Y-70297568D01*
X144156558Y-70297568D02*
X144108939Y-70392806D01*
X144108939Y-70392806D02*
X144061320Y-70440425D01*
X144061320Y-70440425D02*
X143966082Y-70488044D01*
X143966082Y-70488044D02*
X143585130Y-70488044D01*
X144537511Y-70059473D02*
X144585130Y-70011854D01*
X144585130Y-70011854D02*
X144680368Y-69964235D01*
X144680368Y-69964235D02*
X144918463Y-69964235D01*
X144918463Y-69964235D02*
X145013701Y-70011854D01*
X145013701Y-70011854D02*
X145061320Y-70059473D01*
X145061320Y-70059473D02*
X145108939Y-70154711D01*
X145108939Y-70154711D02*
X145108939Y-70249949D01*
X145108939Y-70249949D02*
X145061320Y-70392806D01*
X145061320Y-70392806D02*
X144489892Y-70964235D01*
X144489892Y-70964235D02*
X145108939Y-70964235D01*
X145489892Y-70059473D02*
X145537511Y-70011854D01*
X145537511Y-70011854D02*
X145632749Y-69964235D01*
X145632749Y-69964235D02*
X145870844Y-69964235D01*
X145870844Y-69964235D02*
X145966082Y-70011854D01*
X145966082Y-70011854D02*
X146013701Y-70059473D01*
X146013701Y-70059473D02*
X146061320Y-70154711D01*
X146061320Y-70154711D02*
X146061320Y-70249949D01*
X146061320Y-70249949D02*
X146013701Y-70392806D01*
X146013701Y-70392806D02*
X145442273Y-70964235D01*
X145442273Y-70964235D02*
X146061320Y-70964235D01*
X88794235Y-86481320D02*
X89603758Y-86481320D01*
X89603758Y-86481320D02*
X89698996Y-86433701D01*
X89698996Y-86433701D02*
X89746616Y-86386082D01*
X89746616Y-86386082D02*
X89794235Y-86290844D01*
X89794235Y-86290844D02*
X89794235Y-86100368D01*
X89794235Y-86100368D02*
X89746616Y-86005130D01*
X89746616Y-86005130D02*
X89698996Y-85957511D01*
X89698996Y-85957511D02*
X89603758Y-85909892D01*
X89603758Y-85909892D02*
X88794235Y-85909892D01*
X88889473Y-85481320D02*
X88841854Y-85433701D01*
X88841854Y-85433701D02*
X88794235Y-85338463D01*
X88794235Y-85338463D02*
X88794235Y-85100368D01*
X88794235Y-85100368D02*
X88841854Y-85005130D01*
X88841854Y-85005130D02*
X88889473Y-84957511D01*
X88889473Y-84957511D02*
X88984711Y-84909892D01*
X88984711Y-84909892D02*
X89079949Y-84909892D01*
X89079949Y-84909892D02*
X89222806Y-84957511D01*
X89222806Y-84957511D02*
X89794235Y-85528939D01*
X89794235Y-85528939D02*
X89794235Y-84909892D01*
X143846558Y-64964235D02*
X143513225Y-64488044D01*
X143275130Y-64964235D02*
X143275130Y-63964235D01*
X143275130Y-63964235D02*
X143656082Y-63964235D01*
X143656082Y-63964235D02*
X143751320Y-64011854D01*
X143751320Y-64011854D02*
X143798939Y-64059473D01*
X143798939Y-64059473D02*
X143846558Y-64154711D01*
X143846558Y-64154711D02*
X143846558Y-64297568D01*
X143846558Y-64297568D02*
X143798939Y-64392806D01*
X143798939Y-64392806D02*
X143751320Y-64440425D01*
X143751320Y-64440425D02*
X143656082Y-64488044D01*
X143656082Y-64488044D02*
X143275130Y-64488044D01*
X144798939Y-64964235D02*
X144227511Y-64964235D01*
X144513225Y-64964235D02*
X144513225Y-63964235D01*
X144513225Y-63964235D02*
X144417987Y-64107092D01*
X144417987Y-64107092D02*
X144322749Y-64202330D01*
X144322749Y-64202330D02*
X144227511Y-64249949D01*
X145275130Y-64964235D02*
X145465606Y-64964235D01*
X145465606Y-64964235D02*
X145560844Y-64916616D01*
X145560844Y-64916616D02*
X145608463Y-64868996D01*
X145608463Y-64868996D02*
X145703701Y-64726139D01*
X145703701Y-64726139D02*
X145751320Y-64535663D01*
X145751320Y-64535663D02*
X145751320Y-64154711D01*
X145751320Y-64154711D02*
X145703701Y-64059473D01*
X145703701Y-64059473D02*
X145656082Y-64011854D01*
X145656082Y-64011854D02*
X145560844Y-63964235D01*
X145560844Y-63964235D02*
X145370368Y-63964235D01*
X145370368Y-63964235D02*
X145275130Y-64011854D01*
X145275130Y-64011854D02*
X145227511Y-64059473D01*
X145227511Y-64059473D02*
X145179892Y-64154711D01*
X145179892Y-64154711D02*
X145179892Y-64392806D01*
X145179892Y-64392806D02*
X145227511Y-64488044D01*
X145227511Y-64488044D02*
X145275130Y-64535663D01*
X145275130Y-64535663D02*
X145370368Y-64583282D01*
X145370368Y-64583282D02*
X145560844Y-64583282D01*
X145560844Y-64583282D02*
X145656082Y-64535663D01*
X145656082Y-64535663D02*
X145703701Y-64488044D01*
X145703701Y-64488044D02*
X145751320Y-64392806D01*
D11*
X109797987Y-57591596D02*
X109750368Y-57639216D01*
X109750368Y-57639216D02*
X109607511Y-57686835D01*
X109607511Y-57686835D02*
X109512273Y-57686835D01*
X109512273Y-57686835D02*
X109369416Y-57639216D01*
X109369416Y-57639216D02*
X109274178Y-57543977D01*
X109274178Y-57543977D02*
X109226559Y-57448739D01*
X109226559Y-57448739D02*
X109178940Y-57258263D01*
X109178940Y-57258263D02*
X109178940Y-57115406D01*
X109178940Y-57115406D02*
X109226559Y-56924930D01*
X109226559Y-56924930D02*
X109274178Y-56829692D01*
X109274178Y-56829692D02*
X109369416Y-56734454D01*
X109369416Y-56734454D02*
X109512273Y-56686835D01*
X109512273Y-56686835D02*
X109607511Y-56686835D01*
X109607511Y-56686835D02*
X109750368Y-56734454D01*
X109750368Y-56734454D02*
X109797987Y-56782073D01*
X110226559Y-57686835D02*
X110226559Y-56686835D01*
X110226559Y-56686835D02*
X110464654Y-56686835D01*
X110464654Y-56686835D02*
X110607511Y-56734454D01*
X110607511Y-56734454D02*
X110702749Y-56829692D01*
X110702749Y-56829692D02*
X110750368Y-56924930D01*
X110750368Y-56924930D02*
X110797987Y-57115406D01*
X110797987Y-57115406D02*
X110797987Y-57258263D01*
X110797987Y-57258263D02*
X110750368Y-57448739D01*
X110750368Y-57448739D02*
X110702749Y-57543977D01*
X110702749Y-57543977D02*
X110607511Y-57639216D01*
X110607511Y-57639216D02*
X110464654Y-57686835D01*
X110464654Y-57686835D02*
X110226559Y-57686835D01*
X111655130Y-57020168D02*
X111655130Y-57686835D01*
X111417035Y-56639216D02*
X111178940Y-57353501D01*
X111178940Y-57353501D02*
X111797987Y-57353501D01*
X112369416Y-56686835D02*
X112464654Y-56686835D01*
X112464654Y-56686835D02*
X112559892Y-56734454D01*
X112559892Y-56734454D02*
X112607511Y-56782073D01*
X112607511Y-56782073D02*
X112655130Y-56877311D01*
X112655130Y-56877311D02*
X112702749Y-57067787D01*
X112702749Y-57067787D02*
X112702749Y-57305882D01*
X112702749Y-57305882D02*
X112655130Y-57496358D01*
X112655130Y-57496358D02*
X112607511Y-57591596D01*
X112607511Y-57591596D02*
X112559892Y-57639216D01*
X112559892Y-57639216D02*
X112464654Y-57686835D01*
X112464654Y-57686835D02*
X112369416Y-57686835D01*
X112369416Y-57686835D02*
X112274178Y-57639216D01*
X112274178Y-57639216D02*
X112226559Y-57591596D01*
X112226559Y-57591596D02*
X112178940Y-57496358D01*
X112178940Y-57496358D02*
X112131321Y-57305882D01*
X112131321Y-57305882D02*
X112131321Y-57067787D01*
X112131321Y-57067787D02*
X112178940Y-56877311D01*
X112178940Y-56877311D02*
X112226559Y-56782073D01*
X112226559Y-56782073D02*
X112274178Y-56734454D01*
X112274178Y-56734454D02*
X112369416Y-56686835D01*
X113083702Y-56782073D02*
X113131321Y-56734454D01*
X113131321Y-56734454D02*
X113226559Y-56686835D01*
X113226559Y-56686835D02*
X113464654Y-56686835D01*
X113464654Y-56686835D02*
X113559892Y-56734454D01*
X113559892Y-56734454D02*
X113607511Y-56782073D01*
X113607511Y-56782073D02*
X113655130Y-56877311D01*
X113655130Y-56877311D02*
X113655130Y-56972549D01*
X113655130Y-56972549D02*
X113607511Y-57115406D01*
X113607511Y-57115406D02*
X113036083Y-57686835D01*
X113036083Y-57686835D02*
X113655130Y-57686835D01*
X114512273Y-56686835D02*
X114321797Y-56686835D01*
X114321797Y-56686835D02*
X114226559Y-56734454D01*
X114226559Y-56734454D02*
X114178940Y-56782073D01*
X114178940Y-56782073D02*
X114083702Y-56924930D01*
X114083702Y-56924930D02*
X114036083Y-57115406D01*
X114036083Y-57115406D02*
X114036083Y-57496358D01*
X114036083Y-57496358D02*
X114083702Y-57591596D01*
X114083702Y-57591596D02*
X114131321Y-57639216D01*
X114131321Y-57639216D02*
X114226559Y-57686835D01*
X114226559Y-57686835D02*
X114417035Y-57686835D01*
X114417035Y-57686835D02*
X114512273Y-57639216D01*
X114512273Y-57639216D02*
X114559892Y-57591596D01*
X114559892Y-57591596D02*
X114607511Y-57496358D01*
X114607511Y-57496358D02*
X114607511Y-57258263D01*
X114607511Y-57258263D02*
X114559892Y-57163025D01*
X114559892Y-57163025D02*
X114512273Y-57115406D01*
X114512273Y-57115406D02*
X114417035Y-57067787D01*
X114417035Y-57067787D02*
X114226559Y-57067787D01*
X114226559Y-57067787D02*
X114131321Y-57115406D01*
X114131321Y-57115406D02*
X114083702Y-57163025D01*
X114083702Y-57163025D02*
X114036083Y-57258263D01*
X115369416Y-57163025D02*
X115512273Y-57210644D01*
X115512273Y-57210644D02*
X115559892Y-57258263D01*
X115559892Y-57258263D02*
X115607511Y-57353501D01*
X115607511Y-57353501D02*
X115607511Y-57496358D01*
X115607511Y-57496358D02*
X115559892Y-57591596D01*
X115559892Y-57591596D02*
X115512273Y-57639216D01*
X115512273Y-57639216D02*
X115417035Y-57686835D01*
X115417035Y-57686835D02*
X115036083Y-57686835D01*
X115036083Y-57686835D02*
X115036083Y-56686835D01*
X115036083Y-56686835D02*
X115369416Y-56686835D01*
X115369416Y-56686835D02*
X115464654Y-56734454D01*
X115464654Y-56734454D02*
X115512273Y-56782073D01*
X115512273Y-56782073D02*
X115559892Y-56877311D01*
X115559892Y-56877311D02*
X115559892Y-56972549D01*
X115559892Y-56972549D02*
X115512273Y-57067787D01*
X115512273Y-57067787D02*
X115464654Y-57115406D01*
X115464654Y-57115406D02*
X115369416Y-57163025D01*
X115369416Y-57163025D02*
X115036083Y-57163025D01*
X116559892Y-57686835D02*
X115988464Y-57686835D01*
X116274178Y-57686835D02*
X116274178Y-56686835D01*
X116274178Y-56686835D02*
X116178940Y-56829692D01*
X116178940Y-56829692D02*
X116083702Y-56924930D01*
X116083702Y-56924930D02*
X115988464Y-56972549D01*
D10*
X93833333Y-74109580D02*
X93785714Y-74157200D01*
X93785714Y-74157200D02*
X93642857Y-74204819D01*
X93642857Y-74204819D02*
X93547619Y-74204819D01*
X93547619Y-74204819D02*
X93404762Y-74157200D01*
X93404762Y-74157200D02*
X93309524Y-74061961D01*
X93309524Y-74061961D02*
X93261905Y-73966723D01*
X93261905Y-73966723D02*
X93214286Y-73776247D01*
X93214286Y-73776247D02*
X93214286Y-73633390D01*
X93214286Y-73633390D02*
X93261905Y-73442914D01*
X93261905Y-73442914D02*
X93309524Y-73347676D01*
X93309524Y-73347676D02*
X93404762Y-73252438D01*
X93404762Y-73252438D02*
X93547619Y-73204819D01*
X93547619Y-73204819D02*
X93642857Y-73204819D01*
X93642857Y-73204819D02*
X93785714Y-73252438D01*
X93785714Y-73252438D02*
X93833333Y-73300057D01*
X94738095Y-73204819D02*
X94261905Y-73204819D01*
X94261905Y-73204819D02*
X94214286Y-73681009D01*
X94214286Y-73681009D02*
X94261905Y-73633390D01*
X94261905Y-73633390D02*
X94357143Y-73585771D01*
X94357143Y-73585771D02*
X94595238Y-73585771D01*
X94595238Y-73585771D02*
X94690476Y-73633390D01*
X94690476Y-73633390D02*
X94738095Y-73681009D01*
X94738095Y-73681009D02*
X94785714Y-73776247D01*
X94785714Y-73776247D02*
X94785714Y-74014342D01*
X94785714Y-74014342D02*
X94738095Y-74109580D01*
X94738095Y-74109580D02*
X94690476Y-74157200D01*
X94690476Y-74157200D02*
X94595238Y-74204819D01*
X94595238Y-74204819D02*
X94357143Y-74204819D01*
X94357143Y-74204819D02*
X94261905Y-74157200D01*
X94261905Y-74157200D02*
X94214286Y-74109580D01*
D11*
X109417987Y-99041596D02*
X109370368Y-99089216D01*
X109370368Y-99089216D02*
X109227511Y-99136835D01*
X109227511Y-99136835D02*
X109132273Y-99136835D01*
X109132273Y-99136835D02*
X108989416Y-99089216D01*
X108989416Y-99089216D02*
X108894178Y-98993977D01*
X108894178Y-98993977D02*
X108846559Y-98898739D01*
X108846559Y-98898739D02*
X108798940Y-98708263D01*
X108798940Y-98708263D02*
X108798940Y-98565406D01*
X108798940Y-98565406D02*
X108846559Y-98374930D01*
X108846559Y-98374930D02*
X108894178Y-98279692D01*
X108894178Y-98279692D02*
X108989416Y-98184454D01*
X108989416Y-98184454D02*
X109132273Y-98136835D01*
X109132273Y-98136835D02*
X109227511Y-98136835D01*
X109227511Y-98136835D02*
X109370368Y-98184454D01*
X109370368Y-98184454D02*
X109417987Y-98232073D01*
X109846559Y-99136835D02*
X109846559Y-98136835D01*
X109846559Y-98136835D02*
X110084654Y-98136835D01*
X110084654Y-98136835D02*
X110227511Y-98184454D01*
X110227511Y-98184454D02*
X110322749Y-98279692D01*
X110322749Y-98279692D02*
X110370368Y-98374930D01*
X110370368Y-98374930D02*
X110417987Y-98565406D01*
X110417987Y-98565406D02*
X110417987Y-98708263D01*
X110417987Y-98708263D02*
X110370368Y-98898739D01*
X110370368Y-98898739D02*
X110322749Y-98993977D01*
X110322749Y-98993977D02*
X110227511Y-99089216D01*
X110227511Y-99089216D02*
X110084654Y-99136835D01*
X110084654Y-99136835D02*
X109846559Y-99136835D01*
X111275130Y-98470168D02*
X111275130Y-99136835D01*
X111037035Y-98089216D02*
X110798940Y-98803501D01*
X110798940Y-98803501D02*
X111417987Y-98803501D01*
X111989416Y-98136835D02*
X112084654Y-98136835D01*
X112084654Y-98136835D02*
X112179892Y-98184454D01*
X112179892Y-98184454D02*
X112227511Y-98232073D01*
X112227511Y-98232073D02*
X112275130Y-98327311D01*
X112275130Y-98327311D02*
X112322749Y-98517787D01*
X112322749Y-98517787D02*
X112322749Y-98755882D01*
X112322749Y-98755882D02*
X112275130Y-98946358D01*
X112275130Y-98946358D02*
X112227511Y-99041596D01*
X112227511Y-99041596D02*
X112179892Y-99089216D01*
X112179892Y-99089216D02*
X112084654Y-99136835D01*
X112084654Y-99136835D02*
X111989416Y-99136835D01*
X111989416Y-99136835D02*
X111894178Y-99089216D01*
X111894178Y-99089216D02*
X111846559Y-99041596D01*
X111846559Y-99041596D02*
X111798940Y-98946358D01*
X111798940Y-98946358D02*
X111751321Y-98755882D01*
X111751321Y-98755882D02*
X111751321Y-98517787D01*
X111751321Y-98517787D02*
X111798940Y-98327311D01*
X111798940Y-98327311D02*
X111846559Y-98232073D01*
X111846559Y-98232073D02*
X111894178Y-98184454D01*
X111894178Y-98184454D02*
X111989416Y-98136835D01*
X112703702Y-98232073D02*
X112751321Y-98184454D01*
X112751321Y-98184454D02*
X112846559Y-98136835D01*
X112846559Y-98136835D02*
X113084654Y-98136835D01*
X113084654Y-98136835D02*
X113179892Y-98184454D01*
X113179892Y-98184454D02*
X113227511Y-98232073D01*
X113227511Y-98232073D02*
X113275130Y-98327311D01*
X113275130Y-98327311D02*
X113275130Y-98422549D01*
X113275130Y-98422549D02*
X113227511Y-98565406D01*
X113227511Y-98565406D02*
X112656083Y-99136835D01*
X112656083Y-99136835D02*
X113275130Y-99136835D01*
X114132273Y-98136835D02*
X113941797Y-98136835D01*
X113941797Y-98136835D02*
X113846559Y-98184454D01*
X113846559Y-98184454D02*
X113798940Y-98232073D01*
X113798940Y-98232073D02*
X113703702Y-98374930D01*
X113703702Y-98374930D02*
X113656083Y-98565406D01*
X113656083Y-98565406D02*
X113656083Y-98946358D01*
X113656083Y-98946358D02*
X113703702Y-99041596D01*
X113703702Y-99041596D02*
X113751321Y-99089216D01*
X113751321Y-99089216D02*
X113846559Y-99136835D01*
X113846559Y-99136835D02*
X114037035Y-99136835D01*
X114037035Y-99136835D02*
X114132273Y-99089216D01*
X114132273Y-99089216D02*
X114179892Y-99041596D01*
X114179892Y-99041596D02*
X114227511Y-98946358D01*
X114227511Y-98946358D02*
X114227511Y-98708263D01*
X114227511Y-98708263D02*
X114179892Y-98613025D01*
X114179892Y-98613025D02*
X114132273Y-98565406D01*
X114132273Y-98565406D02*
X114037035Y-98517787D01*
X114037035Y-98517787D02*
X113846559Y-98517787D01*
X113846559Y-98517787D02*
X113751321Y-98565406D01*
X113751321Y-98565406D02*
X113703702Y-98613025D01*
X113703702Y-98613025D02*
X113656083Y-98708263D01*
X114989416Y-98613025D02*
X115132273Y-98660644D01*
X115132273Y-98660644D02*
X115179892Y-98708263D01*
X115179892Y-98708263D02*
X115227511Y-98803501D01*
X115227511Y-98803501D02*
X115227511Y-98946358D01*
X115227511Y-98946358D02*
X115179892Y-99041596D01*
X115179892Y-99041596D02*
X115132273Y-99089216D01*
X115132273Y-99089216D02*
X115037035Y-99136835D01*
X115037035Y-99136835D02*
X114656083Y-99136835D01*
X114656083Y-99136835D02*
X114656083Y-98136835D01*
X114656083Y-98136835D02*
X114989416Y-98136835D01*
X114989416Y-98136835D02*
X115084654Y-98184454D01*
X115084654Y-98184454D02*
X115132273Y-98232073D01*
X115132273Y-98232073D02*
X115179892Y-98327311D01*
X115179892Y-98327311D02*
X115179892Y-98422549D01*
X115179892Y-98422549D02*
X115132273Y-98517787D01*
X115132273Y-98517787D02*
X115084654Y-98565406D01*
X115084654Y-98565406D02*
X114989416Y-98613025D01*
X114989416Y-98613025D02*
X114656083Y-98613025D01*
X115608464Y-98232073D02*
X115656083Y-98184454D01*
X115656083Y-98184454D02*
X115751321Y-98136835D01*
X115751321Y-98136835D02*
X115989416Y-98136835D01*
X115989416Y-98136835D02*
X116084654Y-98184454D01*
X116084654Y-98184454D02*
X116132273Y-98232073D01*
X116132273Y-98232073D02*
X116179892Y-98327311D01*
X116179892Y-98327311D02*
X116179892Y-98422549D01*
X116179892Y-98422549D02*
X116132273Y-98565406D01*
X116132273Y-98565406D02*
X115560845Y-99136835D01*
X115560845Y-99136835D02*
X116179892Y-99136835D01*
D10*
X143786558Y-121464235D02*
X143453225Y-120988044D01*
X143215130Y-121464235D02*
X143215130Y-120464235D01*
X143215130Y-120464235D02*
X143596082Y-120464235D01*
X143596082Y-120464235D02*
X143691320Y-120511854D01*
X143691320Y-120511854D02*
X143738939Y-120559473D01*
X143738939Y-120559473D02*
X143786558Y-120654711D01*
X143786558Y-120654711D02*
X143786558Y-120797568D01*
X143786558Y-120797568D02*
X143738939Y-120892806D01*
X143738939Y-120892806D02*
X143691320Y-120940425D01*
X143691320Y-120940425D02*
X143596082Y-120988044D01*
X143596082Y-120988044D02*
X143215130Y-120988044D01*
X144738939Y-121464235D02*
X144167511Y-121464235D01*
X144453225Y-121464235D02*
X144453225Y-120464235D01*
X144453225Y-120464235D02*
X144357987Y-120607092D01*
X144357987Y-120607092D02*
X144262749Y-120702330D01*
X144262749Y-120702330D02*
X144167511Y-120749949D01*
X145072273Y-120464235D02*
X145738939Y-120464235D01*
X145738939Y-120464235D02*
X145310368Y-121464235D01*
X96666666Y-61754819D02*
X96666666Y-62469104D01*
X96666666Y-62469104D02*
X96619047Y-62611961D01*
X96619047Y-62611961D02*
X96523809Y-62707200D01*
X96523809Y-62707200D02*
X96380952Y-62754819D01*
X96380952Y-62754819D02*
X96285714Y-62754819D01*
X97571428Y-62088152D02*
X97571428Y-62754819D01*
X97333333Y-61707200D02*
X97095238Y-62421485D01*
X97095238Y-62421485D02*
X97714285Y-62421485D01*
X144656558Y-77214235D02*
X144323225Y-76738044D01*
X144085130Y-77214235D02*
X144085130Y-76214235D01*
X144085130Y-76214235D02*
X144466082Y-76214235D01*
X144466082Y-76214235D02*
X144561320Y-76261854D01*
X144561320Y-76261854D02*
X144608939Y-76309473D01*
X144608939Y-76309473D02*
X144656558Y-76404711D01*
X144656558Y-76404711D02*
X144656558Y-76547568D01*
X144656558Y-76547568D02*
X144608939Y-76642806D01*
X144608939Y-76642806D02*
X144561320Y-76690425D01*
X144561320Y-76690425D02*
X144466082Y-76738044D01*
X144466082Y-76738044D02*
X144085130Y-76738044D01*
X145608939Y-77214235D02*
X145037511Y-77214235D01*
X145323225Y-77214235D02*
X145323225Y-76214235D01*
X145323225Y-76214235D02*
X145227987Y-76357092D01*
X145227987Y-76357092D02*
X145132749Y-76452330D01*
X145132749Y-76452330D02*
X145037511Y-76499949D01*
X146180368Y-76642806D02*
X146085130Y-76595187D01*
X146085130Y-76595187D02*
X146037511Y-76547568D01*
X146037511Y-76547568D02*
X145989892Y-76452330D01*
X145989892Y-76452330D02*
X145989892Y-76404711D01*
X145989892Y-76404711D02*
X146037511Y-76309473D01*
X146037511Y-76309473D02*
X146085130Y-76261854D01*
X146085130Y-76261854D02*
X146180368Y-76214235D01*
X146180368Y-76214235D02*
X146370844Y-76214235D01*
X146370844Y-76214235D02*
X146466082Y-76261854D01*
X146466082Y-76261854D02*
X146513701Y-76309473D01*
X146513701Y-76309473D02*
X146561320Y-76404711D01*
X146561320Y-76404711D02*
X146561320Y-76452330D01*
X146561320Y-76452330D02*
X146513701Y-76547568D01*
X146513701Y-76547568D02*
X146466082Y-76595187D01*
X146466082Y-76595187D02*
X146370844Y-76642806D01*
X146370844Y-76642806D02*
X146180368Y-76642806D01*
X146180368Y-76642806D02*
X146085130Y-76690425D01*
X146085130Y-76690425D02*
X146037511Y-76738044D01*
X146037511Y-76738044D02*
X145989892Y-76833282D01*
X145989892Y-76833282D02*
X145989892Y-77023758D01*
X145989892Y-77023758D02*
X146037511Y-77118996D01*
X146037511Y-77118996D02*
X146085130Y-77166616D01*
X146085130Y-77166616D02*
X146180368Y-77214235D01*
X146180368Y-77214235D02*
X146370844Y-77214235D01*
X146370844Y-77214235D02*
X146466082Y-77166616D01*
X146466082Y-77166616D02*
X146513701Y-77118996D01*
X146513701Y-77118996D02*
X146561320Y-77023758D01*
X146561320Y-77023758D02*
X146561320Y-76833282D01*
X146561320Y-76833282D02*
X146513701Y-76738044D01*
X146513701Y-76738044D02*
X146466082Y-76690425D01*
X146466082Y-76690425D02*
X146370844Y-76642806D01*
X144406558Y-82964235D02*
X144073225Y-82488044D01*
X143835130Y-82964235D02*
X143835130Y-81964235D01*
X143835130Y-81964235D02*
X144216082Y-81964235D01*
X144216082Y-81964235D02*
X144311320Y-82011854D01*
X144311320Y-82011854D02*
X144358939Y-82059473D01*
X144358939Y-82059473D02*
X144406558Y-82154711D01*
X144406558Y-82154711D02*
X144406558Y-82297568D01*
X144406558Y-82297568D02*
X144358939Y-82392806D01*
X144358939Y-82392806D02*
X144311320Y-82440425D01*
X144311320Y-82440425D02*
X144216082Y-82488044D01*
X144216082Y-82488044D02*
X143835130Y-82488044D01*
X144787511Y-82059473D02*
X144835130Y-82011854D01*
X144835130Y-82011854D02*
X144930368Y-81964235D01*
X144930368Y-81964235D02*
X145168463Y-81964235D01*
X145168463Y-81964235D02*
X145263701Y-82011854D01*
X145263701Y-82011854D02*
X145311320Y-82059473D01*
X145311320Y-82059473D02*
X145358939Y-82154711D01*
X145358939Y-82154711D02*
X145358939Y-82249949D01*
X145358939Y-82249949D02*
X145311320Y-82392806D01*
X145311320Y-82392806D02*
X144739892Y-82964235D01*
X144739892Y-82964235D02*
X145358939Y-82964235D01*
X146216082Y-82297568D02*
X146216082Y-82964235D01*
X145977987Y-81916616D02*
X145739892Y-82630901D01*
X145739892Y-82630901D02*
X146358939Y-82630901D01*
X144096558Y-100214235D02*
X143763225Y-99738044D01*
X143525130Y-100214235D02*
X143525130Y-99214235D01*
X143525130Y-99214235D02*
X143906082Y-99214235D01*
X143906082Y-99214235D02*
X144001320Y-99261854D01*
X144001320Y-99261854D02*
X144048939Y-99309473D01*
X144048939Y-99309473D02*
X144096558Y-99404711D01*
X144096558Y-99404711D02*
X144096558Y-99547568D01*
X144096558Y-99547568D02*
X144048939Y-99642806D01*
X144048939Y-99642806D02*
X144001320Y-99690425D01*
X144001320Y-99690425D02*
X143906082Y-99738044D01*
X143906082Y-99738044D02*
X143525130Y-99738044D01*
X145048939Y-100214235D02*
X144477511Y-100214235D01*
X144763225Y-100214235D02*
X144763225Y-99214235D01*
X144763225Y-99214235D02*
X144667987Y-99357092D01*
X144667987Y-99357092D02*
X144572749Y-99452330D01*
X144572749Y-99452330D02*
X144477511Y-99499949D01*
X145382273Y-99214235D02*
X146001320Y-99214235D01*
X146001320Y-99214235D02*
X145667987Y-99595187D01*
X145667987Y-99595187D02*
X145810844Y-99595187D01*
X145810844Y-99595187D02*
X145906082Y-99642806D01*
X145906082Y-99642806D02*
X145953701Y-99690425D01*
X145953701Y-99690425D02*
X146001320Y-99785663D01*
X146001320Y-99785663D02*
X146001320Y-100023758D01*
X146001320Y-100023758D02*
X145953701Y-100118996D01*
X145953701Y-100118996D02*
X145906082Y-100166616D01*
X145906082Y-100166616D02*
X145810844Y-100214235D01*
X145810844Y-100214235D02*
X145525130Y-100214235D01*
X145525130Y-100214235D02*
X145429892Y-100166616D01*
X145429892Y-100166616D02*
X145382273Y-100118996D01*
X144096558Y-59714235D02*
X143763225Y-59238044D01*
X143525130Y-59714235D02*
X143525130Y-58714235D01*
X143525130Y-58714235D02*
X143906082Y-58714235D01*
X143906082Y-58714235D02*
X144001320Y-58761854D01*
X144001320Y-58761854D02*
X144048939Y-58809473D01*
X144048939Y-58809473D02*
X144096558Y-58904711D01*
X144096558Y-58904711D02*
X144096558Y-59047568D01*
X144096558Y-59047568D02*
X144048939Y-59142806D01*
X144048939Y-59142806D02*
X144001320Y-59190425D01*
X144001320Y-59190425D02*
X143906082Y-59238044D01*
X143906082Y-59238044D02*
X143525130Y-59238044D01*
X144477511Y-58809473D02*
X144525130Y-58761854D01*
X144525130Y-58761854D02*
X144620368Y-58714235D01*
X144620368Y-58714235D02*
X144858463Y-58714235D01*
X144858463Y-58714235D02*
X144953701Y-58761854D01*
X144953701Y-58761854D02*
X145001320Y-58809473D01*
X145001320Y-58809473D02*
X145048939Y-58904711D01*
X145048939Y-58904711D02*
X145048939Y-58999949D01*
X145048939Y-58999949D02*
X145001320Y-59142806D01*
X145001320Y-59142806D02*
X144429892Y-59714235D01*
X144429892Y-59714235D02*
X145048939Y-59714235D01*
X145382273Y-58714235D02*
X146001320Y-58714235D01*
X146001320Y-58714235D02*
X145667987Y-59095187D01*
X145667987Y-59095187D02*
X145810844Y-59095187D01*
X145810844Y-59095187D02*
X145906082Y-59142806D01*
X145906082Y-59142806D02*
X145953701Y-59190425D01*
X145953701Y-59190425D02*
X146001320Y-59285663D01*
X146001320Y-59285663D02*
X146001320Y-59523758D01*
X146001320Y-59523758D02*
X145953701Y-59618996D01*
X145953701Y-59618996D02*
X145906082Y-59666616D01*
X145906082Y-59666616D02*
X145810844Y-59714235D01*
X145810844Y-59714235D02*
X145525130Y-59714235D01*
X145525130Y-59714235D02*
X145429892Y-59666616D01*
X145429892Y-59666616D02*
X145382273Y-59618996D01*
X143656558Y-126464235D02*
X143323225Y-125988044D01*
X143085130Y-126464235D02*
X143085130Y-125464235D01*
X143085130Y-125464235D02*
X143466082Y-125464235D01*
X143466082Y-125464235D02*
X143561320Y-125511854D01*
X143561320Y-125511854D02*
X143608939Y-125559473D01*
X143608939Y-125559473D02*
X143656558Y-125654711D01*
X143656558Y-125654711D02*
X143656558Y-125797568D01*
X143656558Y-125797568D02*
X143608939Y-125892806D01*
X143608939Y-125892806D02*
X143561320Y-125940425D01*
X143561320Y-125940425D02*
X143466082Y-125988044D01*
X143466082Y-125988044D02*
X143085130Y-125988044D01*
X144608939Y-126464235D02*
X144037511Y-126464235D01*
X144323225Y-126464235D02*
X144323225Y-125464235D01*
X144323225Y-125464235D02*
X144227987Y-125607092D01*
X144227987Y-125607092D02*
X144132749Y-125702330D01*
X144132749Y-125702330D02*
X144037511Y-125749949D01*
X145466082Y-125797568D02*
X145466082Y-126464235D01*
X145227987Y-125416616D02*
X144989892Y-126130901D01*
X144989892Y-126130901D02*
X145608939Y-126130901D01*
X143916558Y-112264235D02*
X143583225Y-111788044D01*
X143345130Y-112264235D02*
X143345130Y-111264235D01*
X143345130Y-111264235D02*
X143726082Y-111264235D01*
X143726082Y-111264235D02*
X143821320Y-111311854D01*
X143821320Y-111311854D02*
X143868939Y-111359473D01*
X143868939Y-111359473D02*
X143916558Y-111454711D01*
X143916558Y-111454711D02*
X143916558Y-111597568D01*
X143916558Y-111597568D02*
X143868939Y-111692806D01*
X143868939Y-111692806D02*
X143821320Y-111740425D01*
X143821320Y-111740425D02*
X143726082Y-111788044D01*
X143726082Y-111788044D02*
X143345130Y-111788044D01*
X144868939Y-112264235D02*
X144297511Y-112264235D01*
X144583225Y-112264235D02*
X144583225Y-111264235D01*
X144583225Y-111264235D02*
X144487987Y-111407092D01*
X144487987Y-111407092D02*
X144392749Y-111502330D01*
X144392749Y-111502330D02*
X144297511Y-111549949D01*
X145773701Y-111264235D02*
X145297511Y-111264235D01*
X145297511Y-111264235D02*
X145249892Y-111740425D01*
X145249892Y-111740425D02*
X145297511Y-111692806D01*
X145297511Y-111692806D02*
X145392749Y-111645187D01*
X145392749Y-111645187D02*
X145630844Y-111645187D01*
X145630844Y-111645187D02*
X145726082Y-111692806D01*
X145726082Y-111692806D02*
X145773701Y-111740425D01*
X145773701Y-111740425D02*
X145821320Y-111835663D01*
X145821320Y-111835663D02*
X145821320Y-112073758D01*
X145821320Y-112073758D02*
X145773701Y-112168996D01*
X145773701Y-112168996D02*
X145726082Y-112216616D01*
X145726082Y-112216616D02*
X145630844Y-112264235D01*
X145630844Y-112264235D02*
X145392749Y-112264235D01*
X145392749Y-112264235D02*
X145297511Y-112216616D01*
X145297511Y-112216616D02*
X145249892Y-112168996D01*
X87704819Y-55833333D02*
X88419104Y-55833333D01*
X88419104Y-55833333D02*
X88561961Y-55880952D01*
X88561961Y-55880952D02*
X88657200Y-55976190D01*
X88657200Y-55976190D02*
X88704819Y-56119047D01*
X88704819Y-56119047D02*
X88704819Y-56214285D01*
X87704819Y-54928571D02*
X87704819Y-55119047D01*
X87704819Y-55119047D02*
X87752438Y-55214285D01*
X87752438Y-55214285D02*
X87800057Y-55261904D01*
X87800057Y-55261904D02*
X87942914Y-55357142D01*
X87942914Y-55357142D02*
X88133390Y-55404761D01*
X88133390Y-55404761D02*
X88514342Y-55404761D01*
X88514342Y-55404761D02*
X88609580Y-55357142D01*
X88609580Y-55357142D02*
X88657200Y-55309523D01*
X88657200Y-55309523D02*
X88704819Y-55214285D01*
X88704819Y-55214285D02*
X88704819Y-55023809D01*
X88704819Y-55023809D02*
X88657200Y-54928571D01*
X88657200Y-54928571D02*
X88609580Y-54880952D01*
X88609580Y-54880952D02*
X88514342Y-54833333D01*
X88514342Y-54833333D02*
X88276247Y-54833333D01*
X88276247Y-54833333D02*
X88181009Y-54880952D01*
X88181009Y-54880952D02*
X88133390Y-54928571D01*
X88133390Y-54928571D02*
X88085771Y-55023809D01*
X88085771Y-55023809D02*
X88085771Y-55214285D01*
X88085771Y-55214285D02*
X88133390Y-55309523D01*
X88133390Y-55309523D02*
X88181009Y-55357142D01*
X88181009Y-55357142D02*
X88276247Y-55404761D01*
D11*
X172399216Y-76917510D02*
X172446835Y-76774653D01*
X172446835Y-76774653D02*
X172446835Y-76536558D01*
X172446835Y-76536558D02*
X172399216Y-76441320D01*
X172399216Y-76441320D02*
X172351596Y-76393701D01*
X172351596Y-76393701D02*
X172256358Y-76346082D01*
X172256358Y-76346082D02*
X172161120Y-76346082D01*
X172161120Y-76346082D02*
X172065882Y-76393701D01*
X172065882Y-76393701D02*
X172018263Y-76441320D01*
X172018263Y-76441320D02*
X171970644Y-76536558D01*
X171970644Y-76536558D02*
X171923025Y-76727034D01*
X171923025Y-76727034D02*
X171875406Y-76822272D01*
X171875406Y-76822272D02*
X171827787Y-76869891D01*
X171827787Y-76869891D02*
X171732549Y-76917510D01*
X171732549Y-76917510D02*
X171637311Y-76917510D01*
X171637311Y-76917510D02*
X171542073Y-76869891D01*
X171542073Y-76869891D02*
X171494454Y-76822272D01*
X171494454Y-76822272D02*
X171446835Y-76727034D01*
X171446835Y-76727034D02*
X171446835Y-76488939D01*
X171446835Y-76488939D02*
X171494454Y-76346082D01*
X171446835Y-75917510D02*
X172256358Y-75917510D01*
X172256358Y-75917510D02*
X172351596Y-75869891D01*
X172351596Y-75869891D02*
X172399216Y-75822272D01*
X172399216Y-75822272D02*
X172446835Y-75727034D01*
X172446835Y-75727034D02*
X172446835Y-75536558D01*
X172446835Y-75536558D02*
X172399216Y-75441320D01*
X172399216Y-75441320D02*
X172351596Y-75393701D01*
X172351596Y-75393701D02*
X172256358Y-75346082D01*
X172256358Y-75346082D02*
X171446835Y-75346082D01*
X172446835Y-74869891D02*
X171446835Y-74869891D01*
X171446835Y-74869891D02*
X172446835Y-74298463D01*
X172446835Y-74298463D02*
X171446835Y-74298463D01*
X171446835Y-73631796D02*
X171446835Y-73536558D01*
X171446835Y-73536558D02*
X171494454Y-73441320D01*
X171494454Y-73441320D02*
X171542073Y-73393701D01*
X171542073Y-73393701D02*
X171637311Y-73346082D01*
X171637311Y-73346082D02*
X171827787Y-73298463D01*
X171827787Y-73298463D02*
X172065882Y-73298463D01*
X172065882Y-73298463D02*
X172256358Y-73346082D01*
X172256358Y-73346082D02*
X172351596Y-73393701D01*
X172351596Y-73393701D02*
X172399216Y-73441320D01*
X172399216Y-73441320D02*
X172446835Y-73536558D01*
X172446835Y-73536558D02*
X172446835Y-73631796D01*
X172446835Y-73631796D02*
X172399216Y-73727034D01*
X172399216Y-73727034D02*
X172351596Y-73774653D01*
X172351596Y-73774653D02*
X172256358Y-73822272D01*
X172256358Y-73822272D02*
X172065882Y-73869891D01*
X172065882Y-73869891D02*
X171827787Y-73869891D01*
X171827787Y-73869891D02*
X171637311Y-73822272D01*
X171637311Y-73822272D02*
X171542073Y-73774653D01*
X171542073Y-73774653D02*
X171494454Y-73727034D01*
X171494454Y-73727034D02*
X171446835Y-73631796D01*
X171446835Y-72393701D02*
X171446835Y-72869891D01*
X171446835Y-72869891D02*
X171923025Y-72917510D01*
X171923025Y-72917510D02*
X171875406Y-72869891D01*
X171875406Y-72869891D02*
X171827787Y-72774653D01*
X171827787Y-72774653D02*
X171827787Y-72536558D01*
X171827787Y-72536558D02*
X171875406Y-72441320D01*
X171875406Y-72441320D02*
X171923025Y-72393701D01*
X171923025Y-72393701D02*
X172018263Y-72346082D01*
X172018263Y-72346082D02*
X172256358Y-72346082D01*
X172256358Y-72346082D02*
X172351596Y-72393701D01*
X172351596Y-72393701D02*
X172399216Y-72441320D01*
X172399216Y-72441320D02*
X172446835Y-72536558D01*
X172446835Y-72536558D02*
X172446835Y-72774653D01*
X172446835Y-72774653D02*
X172399216Y-72869891D01*
X172399216Y-72869891D02*
X172351596Y-72917510D01*
X171446835Y-71488939D02*
X171446835Y-71679415D01*
X171446835Y-71679415D02*
X171494454Y-71774653D01*
X171494454Y-71774653D02*
X171542073Y-71822272D01*
X171542073Y-71822272D02*
X171684930Y-71917510D01*
X171684930Y-71917510D02*
X171875406Y-71965129D01*
X171875406Y-71965129D02*
X172256358Y-71965129D01*
X172256358Y-71965129D02*
X172351596Y-71917510D01*
X172351596Y-71917510D02*
X172399216Y-71869891D01*
X172399216Y-71869891D02*
X172446835Y-71774653D01*
X172446835Y-71774653D02*
X172446835Y-71584177D01*
X172446835Y-71584177D02*
X172399216Y-71488939D01*
X172399216Y-71488939D02*
X172351596Y-71441320D01*
X172351596Y-71441320D02*
X172256358Y-71393701D01*
X172256358Y-71393701D02*
X172018263Y-71393701D01*
X172018263Y-71393701D02*
X171923025Y-71441320D01*
X171923025Y-71441320D02*
X171875406Y-71488939D01*
X171875406Y-71488939D02*
X171827787Y-71584177D01*
X171827787Y-71584177D02*
X171827787Y-71774653D01*
X171827787Y-71774653D02*
X171875406Y-71869891D01*
X171875406Y-71869891D02*
X171923025Y-71917510D01*
X171923025Y-71917510D02*
X172018263Y-71965129D01*
X172351596Y-70393701D02*
X172399216Y-70441320D01*
X172399216Y-70441320D02*
X172446835Y-70584177D01*
X172446835Y-70584177D02*
X172446835Y-70679415D01*
X172446835Y-70679415D02*
X172399216Y-70822272D01*
X172399216Y-70822272D02*
X172303977Y-70917510D01*
X172303977Y-70917510D02*
X172208739Y-70965129D01*
X172208739Y-70965129D02*
X172018263Y-71012748D01*
X172018263Y-71012748D02*
X171875406Y-71012748D01*
X171875406Y-71012748D02*
X171684930Y-70965129D01*
X171684930Y-70965129D02*
X171589692Y-70917510D01*
X171589692Y-70917510D02*
X171494454Y-70822272D01*
X171494454Y-70822272D02*
X171446835Y-70679415D01*
X171446835Y-70679415D02*
X171446835Y-70584177D01*
X171446835Y-70584177D02*
X171494454Y-70441320D01*
X171494454Y-70441320D02*
X171542073Y-70393701D01*
X172351596Y-69393701D02*
X172399216Y-69441320D01*
X172399216Y-69441320D02*
X172446835Y-69584177D01*
X172446835Y-69584177D02*
X172446835Y-69679415D01*
X172446835Y-69679415D02*
X172399216Y-69822272D01*
X172399216Y-69822272D02*
X172303977Y-69917510D01*
X172303977Y-69917510D02*
X172208739Y-69965129D01*
X172208739Y-69965129D02*
X172018263Y-70012748D01*
X172018263Y-70012748D02*
X171875406Y-70012748D01*
X171875406Y-70012748D02*
X171684930Y-69965129D01*
X171684930Y-69965129D02*
X171589692Y-69917510D01*
X171589692Y-69917510D02*
X171494454Y-69822272D01*
X171494454Y-69822272D02*
X171446835Y-69679415D01*
X171446835Y-69679415D02*
X171446835Y-69584177D01*
X171446835Y-69584177D02*
X171494454Y-69441320D01*
X171494454Y-69441320D02*
X171542073Y-69393701D01*
X172446835Y-68441320D02*
X172446835Y-69012748D01*
X172446835Y-68727034D02*
X171446835Y-68727034D01*
X171446835Y-68727034D02*
X171589692Y-68822272D01*
X171589692Y-68822272D02*
X171684930Y-68917510D01*
X171684930Y-68917510D02*
X171732549Y-69012748D01*
D10*
X144406558Y-88714235D02*
X144073225Y-88238044D01*
X143835130Y-88714235D02*
X143835130Y-87714235D01*
X143835130Y-87714235D02*
X144216082Y-87714235D01*
X144216082Y-87714235D02*
X144311320Y-87761854D01*
X144311320Y-87761854D02*
X144358939Y-87809473D01*
X144358939Y-87809473D02*
X144406558Y-87904711D01*
X144406558Y-87904711D02*
X144406558Y-88047568D01*
X144406558Y-88047568D02*
X144358939Y-88142806D01*
X144358939Y-88142806D02*
X144311320Y-88190425D01*
X144311320Y-88190425D02*
X144216082Y-88238044D01*
X144216082Y-88238044D02*
X143835130Y-88238044D01*
X144787511Y-87809473D02*
X144835130Y-87761854D01*
X144835130Y-87761854D02*
X144930368Y-87714235D01*
X144930368Y-87714235D02*
X145168463Y-87714235D01*
X145168463Y-87714235D02*
X145263701Y-87761854D01*
X145263701Y-87761854D02*
X145311320Y-87809473D01*
X145311320Y-87809473D02*
X145358939Y-87904711D01*
X145358939Y-87904711D02*
X145358939Y-87999949D01*
X145358939Y-87999949D02*
X145311320Y-88142806D01*
X145311320Y-88142806D02*
X144739892Y-88714235D01*
X144739892Y-88714235D02*
X145358939Y-88714235D01*
X146311320Y-88714235D02*
X145739892Y-88714235D01*
X146025606Y-88714235D02*
X146025606Y-87714235D01*
X146025606Y-87714235D02*
X145930368Y-87857092D01*
X145930368Y-87857092D02*
X145835130Y-87952330D01*
X145835130Y-87952330D02*
X145739892Y-87999949D01*
X143786558Y-116714235D02*
X143453225Y-116238044D01*
X143215130Y-116714235D02*
X143215130Y-115714235D01*
X143215130Y-115714235D02*
X143596082Y-115714235D01*
X143596082Y-115714235D02*
X143691320Y-115761854D01*
X143691320Y-115761854D02*
X143738939Y-115809473D01*
X143738939Y-115809473D02*
X143786558Y-115904711D01*
X143786558Y-115904711D02*
X143786558Y-116047568D01*
X143786558Y-116047568D02*
X143738939Y-116142806D01*
X143738939Y-116142806D02*
X143691320Y-116190425D01*
X143691320Y-116190425D02*
X143596082Y-116238044D01*
X143596082Y-116238044D02*
X143215130Y-116238044D01*
X144738939Y-116714235D02*
X144167511Y-116714235D01*
X144453225Y-116714235D02*
X144453225Y-115714235D01*
X144453225Y-115714235D02*
X144357987Y-115857092D01*
X144357987Y-115857092D02*
X144262749Y-115952330D01*
X144262749Y-115952330D02*
X144167511Y-115999949D01*
X145691320Y-116714235D02*
X145119892Y-116714235D01*
X145405606Y-116714235D02*
X145405606Y-115714235D01*
X145405606Y-115714235D02*
X145310368Y-115857092D01*
X145310368Y-115857092D02*
X145215130Y-115952330D01*
X145215130Y-115952330D02*
X145119892Y-115999949D01*
X84254819Y-55833333D02*
X84969104Y-55833333D01*
X84969104Y-55833333D02*
X85111961Y-55880952D01*
X85111961Y-55880952D02*
X85207200Y-55976190D01*
X85207200Y-55976190D02*
X85254819Y-56119047D01*
X85254819Y-56119047D02*
X85254819Y-56214285D01*
X84254819Y-54880952D02*
X84254819Y-55357142D01*
X84254819Y-55357142D02*
X84731009Y-55404761D01*
X84731009Y-55404761D02*
X84683390Y-55357142D01*
X84683390Y-55357142D02*
X84635771Y-55261904D01*
X84635771Y-55261904D02*
X84635771Y-55023809D01*
X84635771Y-55023809D02*
X84683390Y-54928571D01*
X84683390Y-54928571D02*
X84731009Y-54880952D01*
X84731009Y-54880952D02*
X84826247Y-54833333D01*
X84826247Y-54833333D02*
X85064342Y-54833333D01*
X85064342Y-54833333D02*
X85159580Y-54880952D01*
X85159580Y-54880952D02*
X85207200Y-54928571D01*
X85207200Y-54928571D02*
X85254819Y-55023809D01*
X85254819Y-55023809D02*
X85254819Y-55261904D01*
X85254819Y-55261904D02*
X85207200Y-55357142D01*
X85207200Y-55357142D02*
X85159580Y-55404761D01*
X96666666Y-66254819D02*
X96666666Y-66969104D01*
X96666666Y-66969104D02*
X96619047Y-67111961D01*
X96619047Y-67111961D02*
X96523809Y-67207200D01*
X96523809Y-67207200D02*
X96380952Y-67254819D01*
X96380952Y-67254819D02*
X96285714Y-67254819D01*
X97047619Y-66254819D02*
X97666666Y-66254819D01*
X97666666Y-66254819D02*
X97333333Y-66635771D01*
X97333333Y-66635771D02*
X97476190Y-66635771D01*
X97476190Y-66635771D02*
X97571428Y-66683390D01*
X97571428Y-66683390D02*
X97619047Y-66731009D01*
X97619047Y-66731009D02*
X97666666Y-66826247D01*
X97666666Y-66826247D02*
X97666666Y-67064342D01*
X97666666Y-67064342D02*
X97619047Y-67159580D01*
X97619047Y-67159580D02*
X97571428Y-67207200D01*
X97571428Y-67207200D02*
X97476190Y-67254819D01*
X97476190Y-67254819D02*
X97190476Y-67254819D01*
X97190476Y-67254819D02*
X97095238Y-67207200D01*
X97095238Y-67207200D02*
X97047619Y-67159580D01*
X94833333Y-93859580D02*
X94785714Y-93907200D01*
X94785714Y-93907200D02*
X94642857Y-93954819D01*
X94642857Y-93954819D02*
X94547619Y-93954819D01*
X94547619Y-93954819D02*
X94404762Y-93907200D01*
X94404762Y-93907200D02*
X94309524Y-93811961D01*
X94309524Y-93811961D02*
X94261905Y-93716723D01*
X94261905Y-93716723D02*
X94214286Y-93526247D01*
X94214286Y-93526247D02*
X94214286Y-93383390D01*
X94214286Y-93383390D02*
X94261905Y-93192914D01*
X94261905Y-93192914D02*
X94309524Y-93097676D01*
X94309524Y-93097676D02*
X94404762Y-93002438D01*
X94404762Y-93002438D02*
X94547619Y-92954819D01*
X94547619Y-92954819D02*
X94642857Y-92954819D01*
X94642857Y-92954819D02*
X94785714Y-93002438D01*
X94785714Y-93002438D02*
X94833333Y-93050057D01*
X95690476Y-93288152D02*
X95690476Y-93954819D01*
X95452381Y-92907200D02*
X95214286Y-93621485D01*
X95214286Y-93621485D02*
X95833333Y-93621485D01*
X129294235Y-57262749D02*
X130008520Y-57262749D01*
X130008520Y-57262749D02*
X130151377Y-57310368D01*
X130151377Y-57310368D02*
X130246616Y-57405606D01*
X130246616Y-57405606D02*
X130294235Y-57548463D01*
X130294235Y-57548463D02*
X130294235Y-57643701D01*
X130294235Y-56262749D02*
X130294235Y-56834177D01*
X130294235Y-56548463D02*
X129294235Y-56548463D01*
X129294235Y-56548463D02*
X129437092Y-56643701D01*
X129437092Y-56643701D02*
X129532330Y-56738939D01*
X129532330Y-56738939D02*
X129579949Y-56834177D01*
X143596558Y-52214235D02*
X143263225Y-51738044D01*
X143025130Y-52214235D02*
X143025130Y-51214235D01*
X143025130Y-51214235D02*
X143406082Y-51214235D01*
X143406082Y-51214235D02*
X143501320Y-51261854D01*
X143501320Y-51261854D02*
X143548939Y-51309473D01*
X143548939Y-51309473D02*
X143596558Y-51404711D01*
X143596558Y-51404711D02*
X143596558Y-51547568D01*
X143596558Y-51547568D02*
X143548939Y-51642806D01*
X143548939Y-51642806D02*
X143501320Y-51690425D01*
X143501320Y-51690425D02*
X143406082Y-51738044D01*
X143406082Y-51738044D02*
X143025130Y-51738044D01*
X143977511Y-51309473D02*
X144025130Y-51261854D01*
X144025130Y-51261854D02*
X144120368Y-51214235D01*
X144120368Y-51214235D02*
X144358463Y-51214235D01*
X144358463Y-51214235D02*
X144453701Y-51261854D01*
X144453701Y-51261854D02*
X144501320Y-51309473D01*
X144501320Y-51309473D02*
X144548939Y-51404711D01*
X144548939Y-51404711D02*
X144548939Y-51499949D01*
X144548939Y-51499949D02*
X144501320Y-51642806D01*
X144501320Y-51642806D02*
X143929892Y-52214235D01*
X143929892Y-52214235D02*
X144548939Y-52214235D01*
X145167987Y-51214235D02*
X145263225Y-51214235D01*
X145263225Y-51214235D02*
X145358463Y-51261854D01*
X145358463Y-51261854D02*
X145406082Y-51309473D01*
X145406082Y-51309473D02*
X145453701Y-51404711D01*
X145453701Y-51404711D02*
X145501320Y-51595187D01*
X145501320Y-51595187D02*
X145501320Y-51833282D01*
X145501320Y-51833282D02*
X145453701Y-52023758D01*
X145453701Y-52023758D02*
X145406082Y-52118996D01*
X145406082Y-52118996D02*
X145358463Y-52166616D01*
X145358463Y-52166616D02*
X145263225Y-52214235D01*
X145263225Y-52214235D02*
X145167987Y-52214235D01*
X145167987Y-52214235D02*
X145072749Y-52166616D01*
X145072749Y-52166616D02*
X145025130Y-52118996D01*
X145025130Y-52118996D02*
X144977511Y-52023758D01*
X144977511Y-52023758D02*
X144929892Y-51833282D01*
X144929892Y-51833282D02*
X144929892Y-51595187D01*
X144929892Y-51595187D02*
X144977511Y-51404711D01*
X144977511Y-51404711D02*
X145025130Y-51309473D01*
X145025130Y-51309473D02*
X145072749Y-51261854D01*
X145072749Y-51261854D02*
X145167987Y-51214235D01*
X120774235Y-51056082D02*
X120298044Y-51389415D01*
X120774235Y-51627510D02*
X119774235Y-51627510D01*
X119774235Y-51627510D02*
X119774235Y-51246558D01*
X119774235Y-51246558D02*
X119821854Y-51151320D01*
X119821854Y-51151320D02*
X119869473Y-51103701D01*
X119869473Y-51103701D02*
X119964711Y-51056082D01*
X119964711Y-51056082D02*
X120107568Y-51056082D01*
X120107568Y-51056082D02*
X120202806Y-51103701D01*
X120202806Y-51103701D02*
X120250425Y-51151320D01*
X120250425Y-51151320D02*
X120298044Y-51246558D01*
X120298044Y-51246558D02*
X120298044Y-51627510D01*
X119774235Y-50722748D02*
X119774235Y-50103701D01*
X119774235Y-50103701D02*
X120155187Y-50437034D01*
X120155187Y-50437034D02*
X120155187Y-50294177D01*
X120155187Y-50294177D02*
X120202806Y-50198939D01*
X120202806Y-50198939D02*
X120250425Y-50151320D01*
X120250425Y-50151320D02*
X120345663Y-50103701D01*
X120345663Y-50103701D02*
X120583758Y-50103701D01*
X120583758Y-50103701D02*
X120678996Y-50151320D01*
X120678996Y-50151320D02*
X120726616Y-50198939D01*
X120726616Y-50198939D02*
X120774235Y-50294177D01*
X120774235Y-50294177D02*
X120774235Y-50579891D01*
X120774235Y-50579891D02*
X120726616Y-50675129D01*
X120726616Y-50675129D02*
X120678996Y-50722748D01*
X132744235Y-57262749D02*
X133458520Y-57262749D01*
X133458520Y-57262749D02*
X133601377Y-57310368D01*
X133601377Y-57310368D02*
X133696616Y-57405606D01*
X133696616Y-57405606D02*
X133744235Y-57548463D01*
X133744235Y-57548463D02*
X133744235Y-57643701D01*
X132839473Y-56834177D02*
X132791854Y-56786558D01*
X132791854Y-56786558D02*
X132744235Y-56691320D01*
X132744235Y-56691320D02*
X132744235Y-56453225D01*
X132744235Y-56453225D02*
X132791854Y-56357987D01*
X132791854Y-56357987D02*
X132839473Y-56310368D01*
X132839473Y-56310368D02*
X132934711Y-56262749D01*
X132934711Y-56262749D02*
X133029949Y-56262749D01*
X133029949Y-56262749D02*
X133172806Y-56310368D01*
X133172806Y-56310368D02*
X133744235Y-56881796D01*
X133744235Y-56881796D02*
X133744235Y-56262749D01*
%TO.C,R12*%
D12*
X141869416Y-105429416D02*
X142819416Y-105429416D01*
X147609416Y-105429416D02*
X146659416Y-105429416D01*
X142819416Y-104509416D02*
X146659416Y-104509416D01*
X146659416Y-106349416D01*
X142819416Y-106349416D01*
X142819416Y-104509416D01*
%TO.C,R16*%
X141869416Y-109429416D02*
X142819416Y-109429416D01*
X147609416Y-109429416D02*
X146659416Y-109429416D01*
X142819416Y-108509416D02*
X146659416Y-108509416D01*
X146659416Y-110349416D01*
X142819416Y-110349416D01*
X142819416Y-108509416D01*
%TO.C,SUN056CC2*%
D11*
X176989416Y-108179416D02*
X194489416Y-108179416D01*
X194489416Y-121679416D01*
X176989416Y-121679416D01*
X176989416Y-108179416D01*
%TO.C,R22*%
D12*
X141929416Y-72429416D02*
X142879416Y-72429416D01*
X147669416Y-72429416D02*
X146719416Y-72429416D01*
X142879416Y-71509416D02*
X146719416Y-71509416D01*
X146719416Y-73349416D01*
X142879416Y-73349416D01*
X142879416Y-71509416D01*
%TO.C,U2*%
X83879416Y-80609416D02*
X88499416Y-80609416D01*
X83879416Y-90829416D02*
X83879416Y-80609416D01*
X87119416Y-80609416D02*
X87119416Y-90829416D01*
X88499416Y-80609416D02*
X88499416Y-90829416D01*
X88499416Y-83869416D02*
X87119416Y-83869416D01*
X88499416Y-87569416D02*
X87119416Y-87569416D01*
X88499416Y-90829416D02*
X83879416Y-90829416D01*
%TO.C,R19*%
X141619416Y-66429416D02*
X142569416Y-66429416D01*
X147359416Y-66429416D02*
X146409416Y-66429416D01*
X142569416Y-65509416D02*
X146409416Y-65509416D01*
X146409416Y-67349416D01*
X142569416Y-67349416D01*
X142569416Y-65509416D01*
%TO.C,CD4026B1*%
D11*
X109369416Y-62729416D02*
X115969416Y-62729416D01*
X115969416Y-82419416D01*
X109369416Y-82419416D01*
X109369416Y-62729416D01*
X113869416Y-62729416D02*
G75*
G02*
X111869416Y-62729416I-1000000J0D01*
G01*
%TO.C,C5*%
D12*
X90130000Y-74880000D02*
X97870000Y-74880000D01*
X90130000Y-80120000D02*
X90130000Y-74880000D01*
X97870000Y-74880000D02*
X97870000Y-80120000D01*
X97870000Y-80120000D02*
X90130000Y-80120000D01*
%TO.C,CD4026B2*%
D11*
X108989416Y-104179416D02*
X115589416Y-104179416D01*
X115589416Y-123869416D01*
X108989416Y-123869416D01*
X108989416Y-104179416D01*
X113489416Y-104179416D02*
G75*
G02*
X111489416Y-104179416I-1000000J0D01*
G01*
%TO.C,R17*%
D12*
X141559416Y-122929416D02*
X142509416Y-122929416D01*
X147299416Y-122929416D02*
X146349416Y-122929416D01*
X142509416Y-122009416D02*
X146349416Y-122009416D01*
X146349416Y-123849416D01*
X142509416Y-123849416D01*
X142509416Y-122009416D01*
%TO.C,J4*%
X96050000Y-59550000D02*
X96050000Y-61450000D01*
X96050000Y-61450000D02*
X97900000Y-61450000D01*
X97900000Y-59550000D02*
X96050000Y-59550000D01*
X97900000Y-59600000D02*
X97900000Y-59550000D01*
X97900000Y-61450000D02*
X97900000Y-59600000D01*
%TO.C,R18*%
X142429416Y-78679416D02*
X143379416Y-78679416D01*
X148169416Y-78679416D02*
X147219416Y-78679416D01*
X143379416Y-77759416D02*
X147219416Y-77759416D01*
X147219416Y-79599416D01*
X143379416Y-79599416D01*
X143379416Y-77759416D01*
%TO.C,R24*%
X142179416Y-84429416D02*
X143129416Y-84429416D01*
X147919416Y-84429416D02*
X146969416Y-84429416D01*
X143129416Y-83509416D02*
X146969416Y-83509416D01*
X146969416Y-85349416D01*
X143129416Y-85349416D01*
X143129416Y-83509416D01*
%TO.C,R13*%
X141869416Y-101679416D02*
X142819416Y-101679416D01*
X147609416Y-101679416D02*
X146659416Y-101679416D01*
X142819416Y-100759416D02*
X146659416Y-100759416D01*
X146659416Y-102599416D01*
X142819416Y-102599416D01*
X142819416Y-100759416D01*
%TO.C,R23*%
X141869416Y-61179416D02*
X142819416Y-61179416D01*
X147609416Y-61179416D02*
X146659416Y-61179416D01*
X142819416Y-60259416D02*
X146659416Y-60259416D01*
X146659416Y-62099416D01*
X142819416Y-62099416D01*
X142819416Y-60259416D01*
%TO.C,R14*%
X141429416Y-127929416D02*
X142379416Y-127929416D01*
X147169416Y-127929416D02*
X146219416Y-127929416D01*
X142379416Y-127009416D02*
X146219416Y-127009416D01*
X146219416Y-128849416D01*
X142379416Y-128849416D01*
X142379416Y-127009416D01*
%TO.C,R15*%
X141689416Y-113729416D02*
X142639416Y-113729416D01*
X147429416Y-113729416D02*
X146479416Y-113729416D01*
X142639416Y-112809416D02*
X146479416Y-112809416D01*
X146479416Y-114649416D01*
X142639416Y-114649416D01*
X142639416Y-112809416D01*
%TO.C,J6*%
X85500000Y-54600000D02*
X85500000Y-56450000D01*
X85500000Y-56450000D02*
X87400000Y-56450000D01*
X85550000Y-54600000D02*
X85500000Y-54600000D01*
X87400000Y-54600000D02*
X85550000Y-54600000D01*
X87400000Y-56450000D02*
X87400000Y-54600000D01*
%TO.C,SUN056CC1*%
D11*
X176989416Y-65679416D02*
X194489416Y-65679416D01*
X194489416Y-79179416D01*
X176989416Y-79179416D01*
X176989416Y-65679416D01*
%TO.C,R21*%
D12*
X142179416Y-90179416D02*
X143129416Y-90179416D01*
X147919416Y-90179416D02*
X146969416Y-90179416D01*
X143129416Y-89259416D02*
X146969416Y-89259416D01*
X146969416Y-91099416D01*
X143129416Y-91099416D01*
X143129416Y-89259416D01*
%TO.C,R11*%
X141559416Y-118179416D02*
X142509416Y-118179416D01*
X147299416Y-118179416D02*
X146349416Y-118179416D01*
X142509416Y-117259416D02*
X146349416Y-117259416D01*
X146349416Y-119099416D01*
X142509416Y-119099416D01*
X142509416Y-117259416D01*
%TO.C,J5*%
X82050000Y-54600000D02*
X82050000Y-56450000D01*
X82050000Y-56450000D02*
X83950000Y-56450000D01*
X82100000Y-54600000D02*
X82050000Y-54600000D01*
X83950000Y-54600000D02*
X82100000Y-54600000D01*
X83950000Y-56450000D02*
X83950000Y-54600000D01*
%TO.C,J3*%
X96050000Y-64050000D02*
X96050000Y-65950000D01*
X96050000Y-65950000D02*
X97900000Y-65950000D01*
X97900000Y-64050000D02*
X96050000Y-64050000D01*
X97900000Y-64100000D02*
X97900000Y-64050000D01*
X97900000Y-65950000D02*
X97900000Y-64100000D01*
%TO.C,C4*%
X91130000Y-94630000D02*
X98870000Y-94630000D01*
X91130000Y-99870000D02*
X91130000Y-94630000D01*
X98870000Y-94630000D02*
X98870000Y-99870000D01*
X98870000Y-99870000D02*
X91130000Y-99870000D01*
%TO.C,J1*%
X127089416Y-56029416D02*
X127089416Y-57879416D01*
X127089416Y-57879416D02*
X128989416Y-57879416D01*
X127139416Y-56029416D02*
X127089416Y-56029416D01*
X128989416Y-56029416D02*
X127139416Y-56029416D01*
X128989416Y-57879416D02*
X128989416Y-56029416D01*
%TO.C,R20*%
X141369416Y-53679416D02*
X142319416Y-53679416D01*
X147109416Y-53679416D02*
X146159416Y-53679416D01*
X142319416Y-52759416D02*
X146159416Y-52759416D01*
X146159416Y-54599416D01*
X142319416Y-54599416D01*
X142319416Y-52759416D01*
%TO.C,R3*%
X121319416Y-52809416D02*
X121319416Y-48969416D01*
X123159416Y-52809416D02*
X123159416Y-48969416D01*
%TO.C,J2*%
X130539416Y-56029416D02*
X130539416Y-57879416D01*
X130539416Y-57879416D02*
X132439416Y-57879416D01*
X130589416Y-56029416D02*
X130539416Y-56029416D01*
X132439416Y-56029416D02*
X130589416Y-56029416D01*
X132439416Y-57879416D02*
X132439416Y-56029416D01*
%TD*%
M02*
