%TF.GenerationSoftware,KiCad,Pcbnew,10.0.3*%
%TF.CreationDate,2026-06-06T20:09:50+05:30*%
%TF.ProjectId,group_project,67726f75-705f-4707-926f-6a6563742e6b,rev?*%
%TF.SameCoordinates,Original*%
%TF.FileFunction,Drillmap*%
%TF.FilePolarity,Positive*%
%FSLAX45Y45*%
G04 Gerber Fmt 4.5, Leading zero omitted, Abs format (unit mm)*
G04 Created by KiCad (PCBNEW 10.0.3) date 2026-06-06 20:09:50*
%MOMM*%
%LPD*%
G01*
G04 APERTURE LIST*
%ADD10C,0.050000*%
%ADD11C,0.200000*%
G04 APERTURE END LIST*
D10*
X7975000Y-4500000D02*
X20050000Y-4500000D01*
X20050000Y-13600000D01*
X7975000Y-13600000D01*
X7975000Y-4500000D01*
D11*
X8233277Y-13913984D02*
X8233277Y-13713984D01*
X8233277Y-13713984D02*
X8280896Y-13713984D01*
X8280896Y-13713984D02*
X8309467Y-13723508D01*
X8309467Y-13723508D02*
X8328515Y-13742555D01*
X8328515Y-13742555D02*
X8338039Y-13761603D01*
X8338039Y-13761603D02*
X8347562Y-13799698D01*
X8347562Y-13799698D02*
X8347562Y-13828269D01*
X8347562Y-13828269D02*
X8338039Y-13866365D01*
X8338039Y-13866365D02*
X8328515Y-13885412D01*
X8328515Y-13885412D02*
X8309467Y-13904460D01*
X8309467Y-13904460D02*
X8280896Y-13913984D01*
X8280896Y-13913984D02*
X8233277Y-13913984D01*
X8433277Y-13913984D02*
X8433277Y-13780650D01*
X8433277Y-13818746D02*
X8442801Y-13799698D01*
X8442801Y-13799698D02*
X8452324Y-13790174D01*
X8452324Y-13790174D02*
X8471372Y-13780650D01*
X8471372Y-13780650D02*
X8490420Y-13780650D01*
X8557086Y-13913984D02*
X8557086Y-13780650D01*
X8557086Y-13713984D02*
X8547563Y-13723508D01*
X8547563Y-13723508D02*
X8557086Y-13733031D01*
X8557086Y-13733031D02*
X8566610Y-13723508D01*
X8566610Y-13723508D02*
X8557086Y-13713984D01*
X8557086Y-13713984D02*
X8557086Y-13733031D01*
X8680896Y-13913984D02*
X8661848Y-13904460D01*
X8661848Y-13904460D02*
X8652324Y-13885412D01*
X8652324Y-13885412D02*
X8652324Y-13713984D01*
X8785658Y-13913984D02*
X8766610Y-13904460D01*
X8766610Y-13904460D02*
X8757086Y-13885412D01*
X8757086Y-13885412D02*
X8757086Y-13713984D01*
X9014229Y-13913984D02*
X9014229Y-13713984D01*
X9014229Y-13713984D02*
X9080896Y-13856841D01*
X9080896Y-13856841D02*
X9147563Y-13713984D01*
X9147563Y-13713984D02*
X9147563Y-13913984D01*
X9328515Y-13913984D02*
X9328515Y-13809222D01*
X9328515Y-13809222D02*
X9318991Y-13790174D01*
X9318991Y-13790174D02*
X9299944Y-13780650D01*
X9299944Y-13780650D02*
X9261848Y-13780650D01*
X9261848Y-13780650D02*
X9242801Y-13790174D01*
X9328515Y-13904460D02*
X9309467Y-13913984D01*
X9309467Y-13913984D02*
X9261848Y-13913984D01*
X9261848Y-13913984D02*
X9242801Y-13904460D01*
X9242801Y-13904460D02*
X9233277Y-13885412D01*
X9233277Y-13885412D02*
X9233277Y-13866365D01*
X9233277Y-13866365D02*
X9242801Y-13847317D01*
X9242801Y-13847317D02*
X9261848Y-13837793D01*
X9261848Y-13837793D02*
X9309467Y-13837793D01*
X9309467Y-13837793D02*
X9328515Y-13828269D01*
X9423753Y-13780650D02*
X9423753Y-13980650D01*
X9423753Y-13790174D02*
X9442801Y-13780650D01*
X9442801Y-13780650D02*
X9480896Y-13780650D01*
X9480896Y-13780650D02*
X9499944Y-13790174D01*
X9499944Y-13790174D02*
X9509467Y-13799698D01*
X9509467Y-13799698D02*
X9518991Y-13818746D01*
X9518991Y-13818746D02*
X9518991Y-13875888D01*
X9518991Y-13875888D02*
X9509467Y-13894936D01*
X9509467Y-13894936D02*
X9499944Y-13904460D01*
X9499944Y-13904460D02*
X9480896Y-13913984D01*
X9480896Y-13913984D02*
X9442801Y-13913984D01*
X9442801Y-13913984D02*
X9423753Y-13904460D01*
X9604705Y-13894936D02*
X9614229Y-13904460D01*
X9614229Y-13904460D02*
X9604705Y-13913984D01*
X9604705Y-13913984D02*
X9595182Y-13904460D01*
X9595182Y-13904460D02*
X9604705Y-13894936D01*
X9604705Y-13894936D02*
X9604705Y-13913984D01*
X9604705Y-13790174D02*
X9614229Y-13799698D01*
X9614229Y-13799698D02*
X9604705Y-13809222D01*
X9604705Y-13809222D02*
X9595182Y-13799698D01*
X9595182Y-13799698D02*
X9604705Y-13790174D01*
X9604705Y-13790174D02*
X9604705Y-13809222D01*
M02*
