%TF.GenerationSoftware,KiCad,Pcbnew,10.0.3*%
%TF.CreationDate,2026-06-06T20:05:56+05:30*%
%TF.ProjectId,group_project,67726f75-705f-4707-926f-6a6563742e6b,rev?*%
%TF.SameCoordinates,Original*%
%TF.FileFunction,Copper,L1,Top*%
%TF.FilePolarity,Positive*%
%FSLAX46Y46*%
G04 Gerber Fmt 4.6, Leading zero omitted, Abs format (unit mm)*
G04 Created by KiCad (PCBNEW 10.0.3) date 2026-06-06 20:05:56*
%MOMM*%
%LPD*%
G01*
G04 APERTURE LIST*
%TA.AperFunction,ComponentPad*%
%ADD10C,1.400000*%
%TD*%
%TA.AperFunction,ComponentPad*%
%ADD11C,1.500000*%
%TD*%
%TA.AperFunction,ComponentPad*%
%ADD12R,2.000000X1.905000*%
%TD*%
%TA.AperFunction,ComponentPad*%
%ADD13O,2.000000X1.905000*%
%TD*%
%TA.AperFunction,ComponentPad*%
%ADD14C,2.000000*%
%TD*%
%TA.AperFunction,ViaPad*%
%ADD15C,1.000000*%
%TD*%
%TA.AperFunction,Conductor*%
%ADD16C,1.500000*%
%TD*%
G04 APERTURE END LIST*
D10*
%TO.P,R12,1*%
%TO.N,Net-(CD4026B2-b)*%
X140929416Y-105429416D03*
%TO.P,R12,2*%
%TO.N,Net-(SUN056CC2-b)*%
X148549416Y-105429416D03*
%TD*%
%TO.P,R16,1*%
%TO.N,Net-(CD4026B2-f)*%
X140929416Y-109429416D03*
%TO.P,R16,2*%
%TO.N,Net-(SUN056CC2-f)*%
X148549416Y-109429416D03*
%TD*%
D11*
%TO.P,SUN056CC2,1,e_1*%
%TO.N,Net-(SUN056CC2-e)*%
X193229416Y-120179416D03*
%TO.P,SUN056CC2,2,d_2*%
%TO.N,Net-(SUN056CC2-d)*%
X193229416Y-117639416D03*
%TO.P,SUN056CC2,3,GND_3*%
%TO.N,GND*%
X193229416Y-115099416D03*
%TO.P,SUN056CC2,4,c_4*%
%TO.N,Net-(SUN056CC2-c)*%
X193229416Y-112559416D03*
%TO.P,SUN056CC2,5,dp_5*%
%TO.N,unconnected-(SUN056CC2-dp-Pad5)*%
X193229416Y-110019416D03*
%TO.P,SUN056CC2,6,b_6*%
%TO.N,Net-(SUN056CC2-b)*%
X177989416Y-110019416D03*
%TO.P,SUN056CC2,7,a_7*%
%TO.N,Net-(SUN056CC2-a)*%
X177989416Y-112559416D03*
%TO.P,SUN056CC2,8,GND_8*%
%TO.N,GND*%
X177989416Y-115099416D03*
%TO.P,SUN056CC2,9,f_9*%
%TO.N,Net-(SUN056CC2-f)*%
X177989416Y-117639416D03*
%TO.P,SUN056CC2,10,g_10*%
%TO.N,Net-(SUN056CC2-g)*%
X177989416Y-120179416D03*
%TD*%
D10*
%TO.P,R22,1*%
%TO.N,Net-(CD4026B1-e)*%
X140989416Y-72429416D03*
%TO.P,R22,2*%
%TO.N,Net-(SUN056CC1-e)*%
X148609416Y-72429416D03*
%TD*%
D12*
%TO.P,U2,1,VI_1*%
%TO.N,Net-(J5-Pin_1)*%
X85239416Y-83179416D03*
D13*
%TO.P,U2,2,GND_2*%
%TO.N,GND*%
X85239416Y-85719416D03*
%TO.P,U2,3,VO_3*%
%TO.N,Vcc*%
X85239416Y-88259416D03*
%TD*%
D10*
%TO.P,R19,1*%
%TO.N,Net-(CD4026B1-b)*%
X140679416Y-66429416D03*
%TO.P,R19,2*%
%TO.N,Net-(SUN056CC1-b)*%
X148299416Y-66429416D03*
%TD*%
D11*
%TO.P,CD4026B1,1,CLK_1*%
%TO.N,/clock*%
X108869416Y-63729416D03*
%TO.P,CD4026B1,2,CI_2*%
%TO.N,GND*%
X108869416Y-66269416D03*
%TO.P,CD4026B1,3,DEI_3*%
%TO.N,Vcc*%
X108869416Y-68809416D03*
%TO.P,CD4026B1,4,DEO_4*%
%TO.N,unconnected-(CD4026B1-DEO-Pad4)*%
X108869416Y-71349416D03*
%TO.P,CD4026B1,5,CO_5*%
%TO.N,Net-(CD4026B1-CO)*%
X108869416Y-73889416D03*
%TO.P,CD4026B1,6,f_6*%
%TO.N,Net-(CD4026B1-f)*%
X108869416Y-76429416D03*
%TO.P,CD4026B1,7,g_7*%
%TO.N,Net-(CD4026B1-g)*%
X108869416Y-78969416D03*
%TO.P,CD4026B1,8,Vss_8*%
%TO.N,GND*%
X108869416Y-81509416D03*
%TO.P,CD4026B1,9,d_9*%
%TO.N,Net-(CD4026B1-d)*%
X116489416Y-81509416D03*
%TO.P,CD4026B1,10,a_10*%
%TO.N,Net-(CD4026B1-a)*%
X116489416Y-78969416D03*
%TO.P,CD4026B1,11,e_11*%
%TO.N,Net-(CD4026B1-e)*%
X116489416Y-76429416D03*
%TO.P,CD4026B1,12,b_12*%
%TO.N,Net-(CD4026B1-b)*%
X116489416Y-73889416D03*
%TO.P,CD4026B1,13,c_13*%
%TO.N,Net-(CD4026B1-c)*%
X116489416Y-71349416D03*
%TO.P,CD4026B1,14,UNGATED_"C"_segment_out_14*%
%TO.N,unconnected-(CD4026B1-UNGATED_"C"_segment_out-Pad14)*%
X116489416Y-68809416D03*
%TO.P,CD4026B1,15,RESET_15*%
%TO.N,/rst_btn1*%
X116489416Y-66269416D03*
%TO.P,CD4026B1,16,Vdd_16*%
%TO.N,Vcc*%
X116489416Y-63729416D03*
%TD*%
D14*
%TO.P,C5,1*%
%TO.N,Net-(J5-Pin_1)*%
X91500000Y-77500000D03*
%TO.P,C5,2*%
%TO.N,GND*%
X96500000Y-77500000D03*
%TD*%
D11*
%TO.P,CD4026B2,1,CLK_1*%
%TO.N,Net-(CD4026B1-CO)*%
X108489416Y-105179416D03*
%TO.P,CD4026B2,2,CI_2*%
%TO.N,GND*%
X108489416Y-107719416D03*
%TO.P,CD4026B2,3,DEI_3*%
%TO.N,Vcc*%
X108489416Y-110259416D03*
%TO.P,CD4026B2,4,DEO_4*%
%TO.N,unconnected-(CD4026B2-DEO-Pad4)*%
X108489416Y-112799416D03*
%TO.P,CD4026B2,5,CO_5*%
%TO.N,unconnected-(CD4026B2-CO-Pad5)*%
X108489416Y-115339416D03*
%TO.P,CD4026B2,6,f_6*%
%TO.N,Net-(CD4026B2-f)*%
X108489416Y-117879416D03*
%TO.P,CD4026B2,7,g_7*%
%TO.N,Net-(CD4026B2-g)*%
X108489416Y-120419416D03*
%TO.P,CD4026B2,8,Vss_8*%
%TO.N,GND*%
X108489416Y-122959416D03*
%TO.P,CD4026B2,9,d_9*%
%TO.N,Net-(CD4026B2-d)*%
X116109416Y-122959416D03*
%TO.P,CD4026B2,10,a_10*%
%TO.N,Net-(CD4026B2-a)*%
X116109416Y-120419416D03*
%TO.P,CD4026B2,11,e_11*%
%TO.N,Net-(CD4026B2-e)*%
X116109416Y-117879416D03*
%TO.P,CD4026B2,12,b_12*%
%TO.N,Net-(CD4026B2-b)*%
X116109416Y-115339416D03*
%TO.P,CD4026B2,13,c_13*%
%TO.N,Net-(CD4026B2-c)*%
X116109416Y-112799416D03*
%TO.P,CD4026B2,14,UNGATED_"C"_segment_out_14*%
%TO.N,unconnected-(CD4026B2-UNGATED_"C"_segment_out-Pad14)*%
X116109416Y-110259416D03*
%TO.P,CD4026B2,15,RESET_15*%
%TO.N,/rst_btn1*%
X116109416Y-107719416D03*
%TO.P,CD4026B2,16,Vdd_16*%
%TO.N,Vcc*%
X116109416Y-105179416D03*
%TD*%
D10*
%TO.P,R17,1*%
%TO.N,Net-(CD4026B2-g)*%
X140619416Y-122929416D03*
%TO.P,R17,2*%
%TO.N,Net-(SUN056CC2-g)*%
X148239416Y-122929416D03*
%TD*%
%TO.P,J4,1,Pin_1_1*%
%TO.N,GND*%
X97000000Y-60500000D03*
%TD*%
%TO.P,R18,1*%
%TO.N,Net-(CD4026B1-a)*%
X141489416Y-78679416D03*
%TO.P,R18,2*%
%TO.N,Net-(SUN056CC1-a)*%
X149109416Y-78679416D03*
%TD*%
%TO.P,R24,1*%
%TO.N,Net-(CD4026B1-g)*%
X141239416Y-84429416D03*
%TO.P,R24,2*%
%TO.N,Net-(SUN056CC1-g)*%
X148859416Y-84429416D03*
%TD*%
%TO.P,R13,1*%
%TO.N,Net-(CD4026B2-c)*%
X140929416Y-101679416D03*
%TO.P,R13,2*%
%TO.N,Net-(SUN056CC2-c)*%
X148549416Y-101679416D03*
%TD*%
%TO.P,R23,1*%
%TO.N,Net-(CD4026B1-f)*%
X140929416Y-61179416D03*
%TO.P,R23,2*%
%TO.N,Net-(SUN056CC1-f)*%
X148549416Y-61179416D03*
%TD*%
%TO.P,R14,1*%
%TO.N,Net-(CD4026B2-d)*%
X140489416Y-127929416D03*
%TO.P,R14,2*%
%TO.N,Net-(SUN056CC2-d)*%
X148109416Y-127929416D03*
%TD*%
%TO.P,R15,1*%
%TO.N,Net-(CD4026B2-e)*%
X140749416Y-113729416D03*
%TO.P,R15,2*%
%TO.N,Net-(SUN056CC2-e)*%
X148369416Y-113729416D03*
%TD*%
%TO.P,J6,1,Pin_1_1*%
%TO.N,GND*%
X86450000Y-55500000D03*
%TD*%
D11*
%TO.P,SUN056CC1,1,e_1*%
%TO.N,Net-(SUN056CC1-e)*%
X193229416Y-77679416D03*
%TO.P,SUN056CC1,2,d_2*%
%TO.N,Net-(SUN056CC1-d)*%
X193229416Y-75139416D03*
%TO.P,SUN056CC1,3,GND_3*%
%TO.N,GND*%
X193229416Y-72599416D03*
%TO.P,SUN056CC1,4,c_4*%
%TO.N,Net-(SUN056CC1-c)*%
X193229416Y-70059416D03*
%TO.P,SUN056CC1,5,dp_5*%
%TO.N,unconnected-(SUN056CC1-dp-Pad5)*%
X193229416Y-67519416D03*
%TO.P,SUN056CC1,6,b_6*%
%TO.N,Net-(SUN056CC1-b)*%
X177989416Y-67519416D03*
%TO.P,SUN056CC1,7,a_7*%
%TO.N,Net-(SUN056CC1-a)*%
X177989416Y-70059416D03*
%TO.P,SUN056CC1,8,GND_8*%
%TO.N,GND*%
X177989416Y-72599416D03*
%TO.P,SUN056CC1,9,f_9*%
%TO.N,Net-(SUN056CC1-f)*%
X177989416Y-75139416D03*
%TO.P,SUN056CC1,10,g_10*%
%TO.N,Net-(SUN056CC1-g)*%
X177989416Y-77679416D03*
%TD*%
D10*
%TO.P,R21,1*%
%TO.N,Net-(CD4026B1-d)*%
X141239416Y-90179416D03*
%TO.P,R21,2*%
%TO.N,Net-(SUN056CC1-d)*%
X148859416Y-90179416D03*
%TD*%
%TO.P,R11,1*%
%TO.N,Net-(CD4026B2-a)*%
X140619416Y-118179416D03*
%TO.P,R11,2*%
%TO.N,Net-(SUN056CC2-a)*%
X148239416Y-118179416D03*
%TD*%
%TO.P,J5,1,Pin_1_1*%
%TO.N,Net-(J5-Pin_1)*%
X83000000Y-55500000D03*
%TD*%
%TO.P,J3,1,Pin_1_1*%
%TO.N,/clock*%
X97000000Y-65000000D03*
%TD*%
D14*
%TO.P,C4,1*%
%TO.N,Vcc*%
X92500000Y-97250000D03*
%TO.P,C4,2*%
%TO.N,GND*%
X97500000Y-97250000D03*
%TD*%
D10*
%TO.P,J1,1,Pin_1_1*%
%TO.N,Vcc*%
X128039416Y-56929416D03*
%TD*%
%TO.P,R20,1*%
%TO.N,Net-(CD4026B1-c)*%
X140429416Y-53679416D03*
%TO.P,R20,2*%
%TO.N,Net-(SUN056CC1-c)*%
X148049416Y-53679416D03*
%TD*%
%TO.P,R3,1*%
%TO.N,/rst_btn1*%
X122239416Y-53429416D03*
%TO.P,R3,2*%
%TO.N,GND*%
X122239416Y-48349416D03*
%TD*%
%TO.P,J2,1,Pin_1_1*%
%TO.N,/rst_btn1*%
X131489416Y-56929416D03*
%TD*%
D15*
%TO.N,GND*%
X112209416Y-126679416D03*
X112750000Y-133329416D03*
%TO.N,Vcc*%
X111739416Y-66929416D03*
%TO.N,/rst_btn1*%
X119864416Y-105304416D03*
%TD*%
%TO.N,GND*%
D16*
X112209416Y-126679416D02*
X112209416Y-132788832D01*
X112209416Y-132788832D02*
X112750000Y-133329416D01*
%TO.N,Vcc*%
X116489416Y-63729416D02*
X114939416Y-63729416D01*
X114939416Y-63729416D02*
X111739416Y-66929416D01*
%TO.N,/rst_btn1*%
X119864416Y-68583756D02*
X117550076Y-66269416D01*
X119864416Y-105304416D02*
X119864416Y-68583756D01*
X119864416Y-105304416D02*
X119893400Y-105275432D01*
X117550076Y-66269416D02*
X116489416Y-66269416D01*
%TD*%
M02*
