%TF.GenerationSoftware,KiCad,Pcbnew,9.0.7*%
%TF.CreationDate,2026-03-11T14:04:54+05:30*%
%TF.ProjectId,lm7805_voltage_regulator,6c6d3738-3035-45f7-966f-6c746167655f,rev?*%
%TF.SameCoordinates,Original*%
%TF.FileFunction,Legend,Top*%
%TF.FilePolarity,Positive*%
%FSLAX46Y46*%
G04 Gerber Fmt 4.6, Leading zero omitted, Abs format (unit mm)*
G04 Created by KiCad (PCBNEW 9.0.7) date 2026-03-11 14:04:54*
%MOMM*%
%LPD*%
G01*
G04 APERTURE LIST*
%ADD10C,0.150000*%
%ADD11C,0.120000*%
G04 APERTURE END LIST*
D10*
X69859580Y-86416666D02*
X69907200Y-86464285D01*
X69907200Y-86464285D02*
X69954819Y-86607142D01*
X69954819Y-86607142D02*
X69954819Y-86702380D01*
X69954819Y-86702380D02*
X69907200Y-86845237D01*
X69907200Y-86845237D02*
X69811961Y-86940475D01*
X69811961Y-86940475D02*
X69716723Y-86988094D01*
X69716723Y-86988094D02*
X69526247Y-87035713D01*
X69526247Y-87035713D02*
X69383390Y-87035713D01*
X69383390Y-87035713D02*
X69192914Y-86988094D01*
X69192914Y-86988094D02*
X69097676Y-86940475D01*
X69097676Y-86940475D02*
X69002438Y-86845237D01*
X69002438Y-86845237D02*
X68954819Y-86702380D01*
X68954819Y-86702380D02*
X68954819Y-86607142D01*
X68954819Y-86607142D02*
X69002438Y-86464285D01*
X69002438Y-86464285D02*
X69050057Y-86416666D01*
X69954819Y-85464285D02*
X69954819Y-86035713D01*
X69954819Y-85749999D02*
X68954819Y-85749999D01*
X68954819Y-85749999D02*
X69097676Y-85845237D01*
X69097676Y-85845237D02*
X69192914Y-85940475D01*
X69192914Y-85940475D02*
X69240533Y-86035713D01*
X94524819Y-84833333D02*
X95239104Y-84833333D01*
X95239104Y-84833333D02*
X95381961Y-84880952D01*
X95381961Y-84880952D02*
X95477200Y-84976190D01*
X95477200Y-84976190D02*
X95524819Y-85119047D01*
X95524819Y-85119047D02*
X95524819Y-85214285D01*
X94620057Y-84404761D02*
X94572438Y-84357142D01*
X94572438Y-84357142D02*
X94524819Y-84261904D01*
X94524819Y-84261904D02*
X94524819Y-84023809D01*
X94524819Y-84023809D02*
X94572438Y-83928571D01*
X94572438Y-83928571D02*
X94620057Y-83880952D01*
X94620057Y-83880952D02*
X94715295Y-83833333D01*
X94715295Y-83833333D02*
X94810533Y-83833333D01*
X94810533Y-83833333D02*
X94953390Y-83880952D01*
X94953390Y-83880952D02*
X95524819Y-84452380D01*
X95524819Y-84452380D02*
X95524819Y-83833333D01*
X46384819Y-85083333D02*
X47099104Y-85083333D01*
X47099104Y-85083333D02*
X47241961Y-85130952D01*
X47241961Y-85130952D02*
X47337200Y-85226190D01*
X47337200Y-85226190D02*
X47384819Y-85369047D01*
X47384819Y-85369047D02*
X47384819Y-85464285D01*
X47384819Y-84083333D02*
X47384819Y-84654761D01*
X47384819Y-84369047D02*
X46384819Y-84369047D01*
X46384819Y-84369047D02*
X46527676Y-84464285D01*
X46527676Y-84464285D02*
X46622914Y-84559523D01*
X46622914Y-84559523D02*
X46670533Y-84654761D01*
X80609580Y-86416666D02*
X80657200Y-86464285D01*
X80657200Y-86464285D02*
X80704819Y-86607142D01*
X80704819Y-86607142D02*
X80704819Y-86702380D01*
X80704819Y-86702380D02*
X80657200Y-86845237D01*
X80657200Y-86845237D02*
X80561961Y-86940475D01*
X80561961Y-86940475D02*
X80466723Y-86988094D01*
X80466723Y-86988094D02*
X80276247Y-87035713D01*
X80276247Y-87035713D02*
X80133390Y-87035713D01*
X80133390Y-87035713D02*
X79942914Y-86988094D01*
X79942914Y-86988094D02*
X79847676Y-86940475D01*
X79847676Y-86940475D02*
X79752438Y-86845237D01*
X79752438Y-86845237D02*
X79704819Y-86702380D01*
X79704819Y-86702380D02*
X79704819Y-86607142D01*
X79704819Y-86607142D02*
X79752438Y-86464285D01*
X79752438Y-86464285D02*
X79800057Y-86416666D01*
X79800057Y-86035713D02*
X79752438Y-85988094D01*
X79752438Y-85988094D02*
X79704819Y-85892856D01*
X79704819Y-85892856D02*
X79704819Y-85654761D01*
X79704819Y-85654761D02*
X79752438Y-85559523D01*
X79752438Y-85559523D02*
X79800057Y-85511904D01*
X79800057Y-85511904D02*
X79895295Y-85464285D01*
X79895295Y-85464285D02*
X79990533Y-85464285D01*
X79990533Y-85464285D02*
X80133390Y-85511904D01*
X80133390Y-85511904D02*
X80704819Y-86083332D01*
X80704819Y-86083332D02*
X80704819Y-85464285D01*
X71448095Y-71604819D02*
X71448095Y-72414342D01*
X71448095Y-72414342D02*
X71495714Y-72509580D01*
X71495714Y-72509580D02*
X71543333Y-72557200D01*
X71543333Y-72557200D02*
X71638571Y-72604819D01*
X71638571Y-72604819D02*
X71829047Y-72604819D01*
X71829047Y-72604819D02*
X71924285Y-72557200D01*
X71924285Y-72557200D02*
X71971904Y-72509580D01*
X71971904Y-72509580D02*
X72019523Y-72414342D01*
X72019523Y-72414342D02*
X72019523Y-71604819D01*
X73019523Y-72604819D02*
X72448095Y-72604819D01*
X72733809Y-72604819D02*
X72733809Y-71604819D01*
X72733809Y-71604819D02*
X72638571Y-71747676D01*
X72638571Y-71747676D02*
X72543333Y-71842914D01*
X72543333Y-71842914D02*
X72448095Y-71890533D01*
D11*
%TO.C,C1*%
X64710000Y-86250000D02*
X63170000Y-86250000D01*
X64710000Y-86290000D02*
X63170000Y-86290000D01*
X64710000Y-86330000D02*
X63171000Y-86330000D01*
X64710000Y-86370000D02*
X63173000Y-86370000D01*
X64710000Y-86410000D02*
X63175000Y-86410000D01*
X64710000Y-86450000D02*
X63178000Y-86450000D01*
X64710000Y-86490000D02*
X63181000Y-86490000D01*
X64710000Y-86530000D02*
X63185000Y-86530000D01*
X64710000Y-86570000D02*
X63190000Y-86570000D01*
X64710000Y-86610000D02*
X63195000Y-86610000D01*
X64710000Y-86650000D02*
X63201000Y-86650000D01*
X64710000Y-86690000D02*
X63207000Y-86690000D01*
X64710000Y-86730000D02*
X63214000Y-86730000D01*
X64710000Y-86770000D02*
X63222000Y-86770000D01*
X64710000Y-86810000D02*
X63231000Y-86810000D01*
X64710000Y-86850000D02*
X63240000Y-86850000D01*
X64710000Y-86890000D02*
X63249000Y-86890000D01*
X64710000Y-86930000D02*
X63260000Y-86930000D01*
X64710000Y-86970000D02*
X63271000Y-86970000D01*
X64710000Y-87010000D02*
X63283000Y-87010000D01*
X64710000Y-87050000D02*
X63295000Y-87050000D01*
X64710000Y-87090000D02*
X63308000Y-87090000D01*
X64710000Y-87130000D02*
X63322000Y-87130000D01*
X64710000Y-87170000D02*
X63337000Y-87170000D01*
X64710000Y-87210000D02*
X63352000Y-87210000D01*
X64710000Y-87250000D02*
X63368000Y-87250000D01*
X64710000Y-87290000D02*
X63385000Y-87290000D01*
X64710000Y-87330000D02*
X63403000Y-87330000D01*
X64710000Y-87370000D02*
X63421000Y-87370000D01*
X64710000Y-87410000D02*
X63441000Y-87410000D01*
X64710000Y-87450000D02*
X63461000Y-87450000D01*
X64710000Y-87490000D02*
X63482000Y-87490000D01*
X64710000Y-87530000D02*
X63504000Y-87530000D01*
X64710000Y-87570000D02*
X63527000Y-87570000D01*
X64710000Y-87610000D02*
X63551000Y-87610000D01*
X64710000Y-87650000D02*
X63575000Y-87650000D01*
X64710000Y-87690000D02*
X63601000Y-87690000D01*
X64710000Y-87730000D02*
X63628000Y-87730000D01*
X64710000Y-87770000D02*
X63656000Y-87770000D01*
X64710000Y-87810000D02*
X63685000Y-87810000D01*
X64710000Y-87850000D02*
X63715000Y-87850000D01*
X64710000Y-87890000D02*
X63747000Y-87890000D01*
X64710000Y-87930000D02*
X63780000Y-87930000D01*
X64710000Y-87970000D02*
X63814000Y-87970000D01*
X64710000Y-88010000D02*
X63849000Y-88010000D01*
X64710000Y-88050000D02*
X63886000Y-88050000D01*
X64710000Y-88090000D02*
X63925000Y-88090000D01*
X64710000Y-88130000D02*
X63965000Y-88130000D01*
X64710000Y-88170000D02*
X64007000Y-88170000D01*
X64710000Y-88210000D02*
X64051000Y-88210000D01*
X64710000Y-88250000D02*
X64098000Y-88250000D01*
X66033000Y-88850000D02*
X65467000Y-88850000D01*
X66267000Y-88810000D02*
X65233000Y-88810000D01*
X66427000Y-88770000D02*
X65073000Y-88770000D01*
X66555000Y-88730000D02*
X64945000Y-88730000D01*
X66664000Y-88690000D02*
X64836000Y-88690000D01*
X66761000Y-88650000D02*
X64739000Y-88650000D01*
X66848000Y-88610000D02*
X64652000Y-88610000D01*
X66927000Y-88570000D02*
X64573000Y-88570000D01*
X67001000Y-88530000D02*
X64499000Y-88530000D01*
X67069000Y-88490000D02*
X64431000Y-88490000D01*
X67133000Y-88450000D02*
X64367000Y-88450000D01*
X67193000Y-88410000D02*
X64307000Y-88410000D01*
X67225000Y-83445225D02*
X67225000Y-83945225D01*
X67249000Y-88370000D02*
X64251000Y-88370000D01*
X67303000Y-88330000D02*
X64197000Y-88330000D01*
X67354000Y-88290000D02*
X64146000Y-88290000D01*
X67402000Y-88250000D02*
X66790000Y-88250000D01*
X67449000Y-88210000D02*
X66790000Y-88210000D01*
X67475000Y-83695225D02*
X66975000Y-83695225D01*
X67493000Y-88170000D02*
X66790000Y-88170000D01*
X67535000Y-88130000D02*
X66790000Y-88130000D01*
X67575000Y-88090000D02*
X66790000Y-88090000D01*
X67614000Y-88050000D02*
X66790000Y-88050000D01*
X67651000Y-88010000D02*
X66790000Y-88010000D01*
X67686000Y-87970000D02*
X66790000Y-87970000D01*
X67720000Y-87930000D02*
X66790000Y-87930000D01*
X67753000Y-87890000D02*
X66790000Y-87890000D01*
X67785000Y-87850000D02*
X66790000Y-87850000D01*
X67815000Y-87810000D02*
X66790000Y-87810000D01*
X67844000Y-87770000D02*
X66790000Y-87770000D01*
X67872000Y-87730000D02*
X66790000Y-87730000D01*
X67899000Y-87690000D02*
X66790000Y-87690000D01*
X67925000Y-87650000D02*
X66790000Y-87650000D01*
X67949000Y-87610000D02*
X66790000Y-87610000D01*
X67973000Y-87570000D02*
X66790000Y-87570000D01*
X67996000Y-87530000D02*
X66790000Y-87530000D01*
X68018000Y-87490000D02*
X66790000Y-87490000D01*
X68039000Y-87450000D02*
X66790000Y-87450000D01*
X68059000Y-87410000D02*
X66790000Y-87410000D01*
X68079000Y-87370000D02*
X66790000Y-87370000D01*
X68097000Y-87330000D02*
X66790000Y-87330000D01*
X68115000Y-87290000D02*
X66790000Y-87290000D01*
X68132000Y-87250000D02*
X66790000Y-87250000D01*
X68148000Y-87210000D02*
X66790000Y-87210000D01*
X68163000Y-87170000D02*
X66790000Y-87170000D01*
X68178000Y-87130000D02*
X66790000Y-87130000D01*
X68192000Y-87090000D02*
X66790000Y-87090000D01*
X68205000Y-87050000D02*
X66790000Y-87050000D01*
X68217000Y-87010000D02*
X66790000Y-87010000D01*
X68229000Y-86970000D02*
X66790000Y-86970000D01*
X68240000Y-86930000D02*
X66790000Y-86930000D01*
X68251000Y-86890000D02*
X66790000Y-86890000D01*
X68260000Y-86850000D02*
X66790000Y-86850000D01*
X68269000Y-86810000D02*
X66790000Y-86810000D01*
X68278000Y-86770000D02*
X66790000Y-86770000D01*
X68286000Y-86730000D02*
X66790000Y-86730000D01*
X68293000Y-86690000D02*
X66790000Y-86690000D01*
X68299000Y-86650000D02*
X66790000Y-86650000D01*
X68305000Y-86610000D02*
X66790000Y-86610000D01*
X68310000Y-86570000D02*
X66790000Y-86570000D01*
X68315000Y-86530000D02*
X66790000Y-86530000D01*
X68319000Y-86490000D02*
X66790000Y-86490000D01*
X68322000Y-86450000D02*
X66790000Y-86450000D01*
X68325000Y-86410000D02*
X66790000Y-86410000D01*
X68327000Y-86370000D02*
X66790000Y-86370000D01*
X68329000Y-86330000D02*
X66790000Y-86330000D01*
X68330000Y-86250000D02*
X66790000Y-86250000D01*
X68330000Y-86290000D02*
X66790000Y-86290000D01*
X68370000Y-86250000D02*
G75*
G02*
X63130000Y-86250000I-2620000J0D01*
G01*
X63130000Y-86250000D02*
G75*
G02*
X68370000Y-86250000I2620000J0D01*
G01*
%TO.C,J2*%
X84030000Y-79380000D02*
X94070000Y-79380000D01*
X84030000Y-81700000D02*
X84030000Y-79380000D01*
X84030000Y-89620000D02*
X84030000Y-82300000D01*
X84650000Y-79380000D02*
X84650000Y-89620000D01*
X86150000Y-79380000D02*
X86150000Y-89620000D01*
X91050000Y-79380000D02*
X91050000Y-89620000D01*
X94070000Y-79380000D02*
X94070000Y-89620000D01*
X94070000Y-89620000D02*
X84030000Y-89620000D01*
X84030000Y-82000000D02*
X83420000Y-82440000D01*
X83420000Y-81560000D01*
X84030000Y-82000000D01*
G36*
X84030000Y-82000000D02*
G01*
X83420000Y-82440000D01*
X83420000Y-81560000D01*
X84030000Y-82000000D01*
G37*
%TO.C,J1*%
X47930000Y-79630000D02*
X57970000Y-79630000D01*
X47930000Y-89870000D02*
X47930000Y-79630000D01*
X50950000Y-89870000D02*
X50950000Y-79630000D01*
X55850000Y-89870000D02*
X55850000Y-79630000D01*
X57350000Y-89870000D02*
X57350000Y-79630000D01*
X57970000Y-79630000D02*
X57970000Y-86950000D01*
X57970000Y-87550000D02*
X57970000Y-89870000D01*
X57970000Y-89870000D02*
X47930000Y-89870000D01*
X58580000Y-87690000D02*
X57970000Y-87250000D01*
X58580000Y-86810000D01*
X58580000Y-87690000D01*
G36*
X58580000Y-87690000D02*
G01*
X57970000Y-87250000D01*
X58580000Y-86810000D01*
X58580000Y-87690000D01*
G37*
%TO.C,C2*%
X76380000Y-83630000D02*
X79120000Y-83630000D01*
X76380000Y-88870000D02*
X76380000Y-83630000D01*
X79120000Y-83630000D02*
X79120000Y-88870000D01*
X79120000Y-88870000D02*
X76380000Y-88870000D01*
%TO.C,U1*%
X67100000Y-72990000D02*
X77320000Y-72990000D01*
X67100000Y-74370000D02*
X77320000Y-74370000D01*
X67100000Y-77610000D02*
X67100000Y-72990000D01*
X70360000Y-72990000D02*
X70360000Y-74370000D01*
X74060000Y-72990000D02*
X74060000Y-74370000D01*
X77320000Y-72990000D02*
X77320000Y-77610000D01*
X77320000Y-77610000D02*
X67100000Y-77610000D01*
%TD*%
M02*
