%TF.GenerationSoftware,KiCad,Pcbnew,9.0.7*%
%TF.CreationDate,2026-03-14T20:33:01+05:30*%
%TF.ProjectId,half_wave_rectifier,68616c66-5f77-4617-9665-5f7265637469,rev?*%
%TF.SameCoordinates,Original*%
%TF.FileFunction,Profile,NP*%
%FSLAX46Y46*%
G04 Gerber Fmt 4.6, Leading zero omitted, Abs format (unit mm)*
G04 Created by KiCad (PCBNEW 9.0.7) date 2026-03-14 20:33:01*
%MOMM*%
%LPD*%
G01*
G04 APERTURE LIST*
G04 Aperture macros list*
%AMRoundRect*
0 Rectangle with rounded corners*
0 $1 Rounding radius*
0 $2 $3 $4 $5 $6 $7 $8 $9 X,Y pos of 4 corners*
0 Add a 4 corners polygon primitive as box body*
4,1,4,$2,$3,$4,$5,$6,$7,$8,$9,$2,$3,0*
0 Add four circle primitives for the rounded corners*
1,1,$1+$1,$2,$3*
1,1,$1+$1,$4,$5*
1,1,$1+$1,$6,$7*
1,1,$1+$1,$8,$9*
0 Add four rect primitives between the rounded corners*
20,1,$1+$1,$2,$3,$4,$5,0*
20,1,$1+$1,$4,$5,$6,$7,0*
20,1,$1+$1,$6,$7,$8,$9,0*
20,1,$1+$1,$8,$9,$2,$3,0*%
G04 Aperture macros list end*
%TA.AperFunction,Profile*%
%ADD10C,0.050000*%
%TD*%
%TA.AperFunction,ComponentPad*%
%ADD11RoundRect,0.250000X-1.050000X1.050000X-1.050000X-1.050000X1.050000X-1.050000X1.050000X1.050000X0*%
%TD*%
%TA.AperFunction,ComponentPad*%
%ADD12C,2.600000*%
%TD*%
%TA.AperFunction,ComponentPad*%
%ADD13RoundRect,0.249999X0.850001X0.850001X-0.850001X0.850001X-0.850001X-0.850001X0.850001X-0.850001X0*%
%TD*%
%TA.AperFunction,ComponentPad*%
%ADD14C,2.200000*%
%TD*%
%TA.AperFunction,ComponentPad*%
%ADD15RoundRect,0.250000X1.050000X-1.050000X1.050000X1.050000X-1.050000X1.050000X-1.050000X-1.050000X0*%
%TD*%
%TA.AperFunction,ComponentPad*%
%ADD16C,1.400000*%
%TD*%
%TA.AperFunction,Conductor*%
%ADD17C,0.200000*%
%TD*%
%ADD18RoundRect,0.250000X-1.050000X1.050000X-1.050000X-1.050000X1.050000X-1.050000X1.050000X1.050000X0*%
%ADD19C,2.600000*%
%ADD20RoundRect,0.249999X0.850001X0.850001X-0.850001X0.850001X-0.850001X-0.850001X0.850001X-0.850001X0*%
%ADD21C,2.200000*%
%ADD22RoundRect,0.250000X1.050000X-1.050000X1.050000X1.050000X-1.050000X1.050000X-1.050000X-1.050000X0*%
%ADD23C,1.400000*%
G04 APERTURE END LIST*
D10*
X113600000Y-72200000D02*
X167600000Y-72200000D01*
X167600000Y-92600000D01*
X113600000Y-92600000D01*
X113600000Y-72200000D01*
D11*
%TO.P,J1,1,Pin_1*%
%TO.N,/output*%
X159327500Y-79500000D03*
D12*
%TO.P,J1,2,Pin_2*%
%TO.N,GND*%
X159327500Y-84500000D03*
%TD*%
D13*
%TO.P,D1,1,K*%
%TO.N,/output*%
X143580000Y-79000000D03*
D14*
%TO.P,D1,2,A*%
%TO.N,/input*%
X133420000Y-79000000D03*
%TD*%
D15*
%TO.P,J3,1,Pin_1*%
%TO.N,GND*%
X122500000Y-84500000D03*
D12*
%TO.P,J3,2,Pin_2*%
%TO.N,/input*%
X122500000Y-79500000D03*
%TD*%
D16*
%TO.P,R1,1*%
%TO.N,/output*%
X149000000Y-78690000D03*
%TO.P,R1,2*%
%TO.N,GND*%
X149000000Y-86310000D03*
%TD*%
D17*
%TO.N,/output*%
X159327500Y-79500000D02*
X149810000Y-79500000D01*
X158517500Y-78690000D02*
X159327500Y-79500000D01*
X149810000Y-79500000D02*
X149000000Y-78690000D01*
X148690000Y-79000000D02*
X149000000Y-78690000D01*
X149000000Y-78690000D02*
X143890000Y-78690000D01*
X143890000Y-78690000D02*
X143580000Y-79000000D01*
%TO.N,/input*%
X122500000Y-79500000D02*
X123000000Y-79500000D01*
X123500000Y-79000000D02*
X133420000Y-79000000D01*
X123000000Y-79500000D02*
X123500000Y-79000000D01*
%TO.N,GND*%
X122500000Y-84500000D02*
X147190000Y-84500000D01*
X159327500Y-84500000D02*
X157517500Y-86310000D01*
X157517500Y-86310000D02*
X149000000Y-86310000D01*
X147190000Y-84500000D02*
X149000000Y-86310000D01*
%TD*%
%TA.AperFunction,Conductor*%
%TO.N,GND*%
G36*
X167042539Y-72720185D02*
G01*
X167088294Y-72772989D01*
X167099500Y-72824500D01*
X167099500Y-91975500D01*
X167079815Y-92042539D01*
X167027011Y-92088294D01*
X166975500Y-92099500D01*
X114224500Y-92099500D01*
X114157461Y-92079815D01*
X114111706Y-92027011D01*
X114100500Y-91975500D01*
X114100500Y-87317882D01*
X148345669Y-87317882D01*
X148345670Y-87317883D01*
X148371059Y-87336329D01*
X148539362Y-87422085D01*
X148718997Y-87480451D01*
X148905553Y-87510000D01*
X149094447Y-87510000D01*
X149281002Y-87480451D01*
X149460637Y-87422085D01*
X149628937Y-87336331D01*
X149654328Y-87317883D01*
X149654328Y-87317882D01*
X149000001Y-86663554D01*
X149000000Y-86663554D01*
X148345669Y-87317882D01*
X114100500Y-87317882D01*
X114100500Y-83400013D01*
X120700000Y-83400013D01*
X120700000Y-84250000D01*
X121899999Y-84250000D01*
X121874979Y-84310402D01*
X121850000Y-84435981D01*
X121850000Y-84564019D01*
X121874979Y-84689598D01*
X121899999Y-84750000D01*
X120700001Y-84750000D01*
X120700001Y-85599986D01*
X120710494Y-85702697D01*
X120765641Y-85869119D01*
X120765643Y-85869124D01*
X120857684Y-86018345D01*
X120981654Y-86142315D01*
X121130875Y-86234356D01*
X121130880Y-86234358D01*
X121297302Y-86289505D01*
X121297309Y-86289506D01*
X121400019Y-86299999D01*
X122249999Y-86299999D01*
X122250000Y-86299998D01*
X122250000Y-85100001D01*
X122310402Y-85125021D01*
X122435981Y-85150000D01*
X122564019Y-85150000D01*
X122689598Y-85125021D01*
X122750000Y-85100001D01*
X122750000Y-86299999D01*
X123599972Y-86299999D01*
X123599986Y-86299998D01*
X123702697Y-86289505D01*
X123869119Y-86234358D01*
X123869124Y-86234356D01*
X123899610Y-86215552D01*
X147800000Y-86215552D01*
X147800000Y-86404447D01*
X147829548Y-86591002D01*
X147887914Y-86770637D01*
X147973666Y-86938933D01*
X147992116Y-86964328D01*
X148646446Y-86310000D01*
X148646446Y-86309999D01*
X148600369Y-86263922D01*
X148650000Y-86263922D01*
X148650000Y-86356078D01*
X148673852Y-86445095D01*
X148719930Y-86524905D01*
X148785095Y-86590070D01*
X148864905Y-86636148D01*
X148953922Y-86660000D01*
X149046078Y-86660000D01*
X149135095Y-86636148D01*
X149214905Y-86590070D01*
X149280070Y-86524905D01*
X149326148Y-86445095D01*
X149350000Y-86356078D01*
X149350000Y-86309999D01*
X149353554Y-86309999D01*
X149353554Y-86310000D01*
X150007882Y-86964328D01*
X150007883Y-86964328D01*
X150026331Y-86938937D01*
X150112085Y-86770637D01*
X150170451Y-86591002D01*
X150200000Y-86404447D01*
X150200000Y-86215552D01*
X150170452Y-86028997D01*
X150137520Y-85927643D01*
X150112085Y-85849362D01*
X150026329Y-85681059D01*
X150007883Y-85655670D01*
X150007882Y-85655669D01*
X149353554Y-86309999D01*
X149350000Y-86309999D01*
X149350000Y-86263922D01*
X149326148Y-86174905D01*
X149280070Y-86095095D01*
X149214905Y-86029930D01*
X149135095Y-85983852D01*
X149046078Y-85960000D01*
X148953922Y-85960000D01*
X148864905Y-85983852D01*
X148785095Y-86029930D01*
X148719930Y-86095095D01*
X148673852Y-86174905D01*
X148650000Y-86263922D01*
X148600369Y-86263922D01*
X147992116Y-85655669D01*
X147992116Y-85655670D01*
X147973669Y-85681060D01*
X147887914Y-85849362D01*
X147829548Y-86028997D01*
X147800000Y-86215552D01*
X123899610Y-86215552D01*
X124018345Y-86142315D01*
X124037656Y-86123005D01*
X124142315Y-86018345D01*
X124234356Y-85869124D01*
X124234358Y-85869119D01*
X124289505Y-85702697D01*
X124289506Y-85702690D01*
X124299999Y-85599986D01*
X124300000Y-85599973D01*
X124300000Y-85302116D01*
X148345669Y-85302116D01*
X149000000Y-85956446D01*
X149000001Y-85956446D01*
X149654328Y-85302116D01*
X149628933Y-85283666D01*
X149460637Y-85197914D01*
X149281002Y-85139548D01*
X149094447Y-85110000D01*
X148905553Y-85110000D01*
X148718997Y-85139548D01*
X148539362Y-85197914D01*
X148371060Y-85283669D01*
X148345670Y-85302116D01*
X148345669Y-85302116D01*
X124300000Y-85302116D01*
X124300000Y-84750000D01*
X123100001Y-84750000D01*
X123125021Y-84689598D01*
X123150000Y-84564019D01*
X123150000Y-84435981D01*
X123139265Y-84382014D01*
X157527500Y-84382014D01*
X157527500Y-84617985D01*
X157558299Y-84851914D01*
X157619370Y-85079837D01*
X157709660Y-85297819D01*
X157709665Y-85297828D01*
X157827644Y-85502171D01*
X157827645Y-85502172D01*
X157890221Y-85583723D01*
X158726458Y-84747487D01*
X158751478Y-84807890D01*
X158822612Y-84914351D01*
X158913149Y-85004888D01*
X159019610Y-85076022D01*
X159080011Y-85101041D01*
X158243775Y-85937277D01*
X158325327Y-85999854D01*
X158325328Y-85999855D01*
X158529671Y-86117834D01*
X158529680Y-86117839D01*
X158747663Y-86208129D01*
X158747661Y-86208129D01*
X158975585Y-86269200D01*
X159209514Y-86299999D01*
X159209529Y-86300000D01*
X159445471Y-86300000D01*
X159445485Y-86299999D01*
X159679414Y-86269200D01*
X159907337Y-86208129D01*
X160125319Y-86117839D01*
X160125328Y-86117834D01*
X160329681Y-85999850D01*
X160411223Y-85937279D01*
X160411223Y-85937276D01*
X159574987Y-85101041D01*
X159635390Y-85076022D01*
X159741851Y-85004888D01*
X159832388Y-84914351D01*
X159903522Y-84807890D01*
X159928541Y-84747488D01*
X160764776Y-85583723D01*
X160764779Y-85583723D01*
X160827350Y-85502181D01*
X160945334Y-85297828D01*
X160945339Y-85297819D01*
X161035629Y-85079837D01*
X161096700Y-84851914D01*
X161127499Y-84617985D01*
X161127500Y-84617971D01*
X161127500Y-84382028D01*
X161127499Y-84382014D01*
X161096700Y-84148085D01*
X161035629Y-83920162D01*
X160945339Y-83702180D01*
X160945334Y-83702171D01*
X160827355Y-83497828D01*
X160827354Y-83497827D01*
X160764777Y-83416275D01*
X159928541Y-84252511D01*
X159903522Y-84192110D01*
X159832388Y-84085649D01*
X159741851Y-83995112D01*
X159635390Y-83923978D01*
X159574988Y-83898958D01*
X160411223Y-83062721D01*
X160329672Y-83000145D01*
X160329671Y-83000144D01*
X160125328Y-82882165D01*
X160125319Y-82882160D01*
X159907336Y-82791870D01*
X159907338Y-82791870D01*
X159679414Y-82730799D01*
X159445485Y-82700000D01*
X159209514Y-82700000D01*
X158975585Y-82730799D01*
X158747662Y-82791870D01*
X158529680Y-82882160D01*
X158529671Y-82882165D01*
X158325328Y-83000144D01*
X158325318Y-83000150D01*
X158243775Y-83062720D01*
X158243775Y-83062721D01*
X159080012Y-83898958D01*
X159019610Y-83923978D01*
X158913149Y-83995112D01*
X158822612Y-84085649D01*
X158751478Y-84192110D01*
X158726458Y-84252511D01*
X157890221Y-83416275D01*
X157890220Y-83416275D01*
X157827650Y-83497818D01*
X157827644Y-83497828D01*
X157709665Y-83702171D01*
X157709660Y-83702180D01*
X157619370Y-83920162D01*
X157558299Y-84148085D01*
X157527500Y-84382014D01*
X123139265Y-84382014D01*
X123125021Y-84310402D01*
X123100001Y-84250000D01*
X124299999Y-84250000D01*
X124299999Y-83400028D01*
X124299998Y-83400013D01*
X124289506Y-83297304D01*
X124240587Y-83149679D01*
X124240586Y-83149676D01*
X124234359Y-83130882D01*
X124234356Y-83130875D01*
X124142315Y-82981654D01*
X124018345Y-82857684D01*
X123869124Y-82765643D01*
X123869119Y-82765641D01*
X123702697Y-82710494D01*
X123702690Y-82710493D01*
X123599986Y-82700000D01*
X122750000Y-82700000D01*
X122750000Y-83899998D01*
X122689598Y-83874979D01*
X122564019Y-83850000D01*
X122435981Y-83850000D01*
X122310402Y-83874979D01*
X122250000Y-83899998D01*
X122250000Y-82700000D01*
X121400028Y-82700000D01*
X121400012Y-82700001D01*
X121297302Y-82710494D01*
X121130880Y-82765641D01*
X121130875Y-82765643D01*
X120981654Y-82857684D01*
X120857684Y-82981654D01*
X120765643Y-83130875D01*
X120765641Y-83130880D01*
X120710494Y-83297302D01*
X120710493Y-83297309D01*
X120700000Y-83400013D01*
X114100500Y-83400013D01*
X114100500Y-79381995D01*
X120699500Y-79381995D01*
X120699500Y-79618004D01*
X120699501Y-79618020D01*
X120730171Y-79850986D01*
X120730307Y-79852014D01*
X120736191Y-79873972D01*
X120791394Y-80079993D01*
X120881714Y-80298045D01*
X120881719Y-80298056D01*
X120952677Y-80420957D01*
X120999727Y-80502450D01*
X120999729Y-80502453D01*
X120999730Y-80502454D01*
X121143406Y-80689697D01*
X121143412Y-80689704D01*
X121310295Y-80856587D01*
X121310302Y-80856593D01*
X121326909Y-80869336D01*
X121497550Y-81000273D01*
X121628918Y-81076118D01*
X121701943Y-81118280D01*
X121701948Y-81118282D01*
X121701951Y-81118284D01*
X121920007Y-81208606D01*
X122147986Y-81269693D01*
X122381989Y-81300500D01*
X122381996Y-81300500D01*
X122618004Y-81300500D01*
X122618011Y-81300500D01*
X122852014Y-81269693D01*
X123079993Y-81208606D01*
X123298049Y-81118284D01*
X123502450Y-81000273D01*
X123689699Y-80856592D01*
X123856592Y-80689699D01*
X124000273Y-80502450D01*
X124118284Y-80298049D01*
X124208606Y-80079993D01*
X124269693Y-79852014D01*
X124288611Y-79708314D01*
X124316877Y-79644418D01*
X124375202Y-79605947D01*
X124411550Y-79600500D01*
X131853700Y-79600500D01*
X131920739Y-79620185D01*
X131964184Y-79668204D01*
X132032635Y-79802547D01*
X132051132Y-79838848D01*
X132199201Y-80042649D01*
X132199205Y-80042654D01*
X132377345Y-80220794D01*
X132377350Y-80220798D01*
X132555117Y-80349952D01*
X132581155Y-80368870D01*
X132724184Y-80441747D01*
X132805616Y-80483239D01*
X132805618Y-80483239D01*
X132805621Y-80483241D01*
X133045215Y-80561090D01*
X133294038Y-80600500D01*
X133294039Y-80600500D01*
X133545961Y-80600500D01*
X133545962Y-80600500D01*
X133794785Y-80561090D01*
X134034379Y-80483241D01*
X134258845Y-80368870D01*
X134462656Y-80220793D01*
X134640793Y-80042656D01*
X134788870Y-79838845D01*
X134903241Y-79614379D01*
X134981090Y-79374785D01*
X135020500Y-79125962D01*
X135020500Y-78874038D01*
X134981090Y-78625215D01*
X134903241Y-78385621D01*
X134903239Y-78385618D01*
X134903239Y-78385616D01*
X134788869Y-78161154D01*
X134788865Y-78161148D01*
X134744426Y-78099982D01*
X141979500Y-78099982D01*
X141979500Y-79900017D01*
X141990000Y-80002796D01*
X142028899Y-80120185D01*
X142045186Y-80169335D01*
X142137288Y-80318656D01*
X142261344Y-80442712D01*
X142410665Y-80534814D01*
X142577202Y-80589999D01*
X142679990Y-80600500D01*
X142679995Y-80600500D01*
X144480005Y-80600500D01*
X144480010Y-80600500D01*
X144582798Y-80589999D01*
X144749335Y-80534814D01*
X144898656Y-80442712D01*
X145022712Y-80318656D01*
X145114814Y-80169335D01*
X145169999Y-80002798D01*
X145180500Y-79900010D01*
X145180500Y-79414500D01*
X145200185Y-79347461D01*
X145252989Y-79301706D01*
X145304500Y-79290500D01*
X147889208Y-79290500D01*
X147956247Y-79310185D01*
X147989524Y-79341612D01*
X148084310Y-79472073D01*
X148217927Y-79605690D01*
X148370801Y-79716760D01*
X148450347Y-79757290D01*
X148539163Y-79802545D01*
X148539165Y-79802545D01*
X148539168Y-79802547D01*
X148635497Y-79833846D01*
X148718881Y-79860940D01*
X148905514Y-79890500D01*
X148905519Y-79890500D01*
X149094485Y-79890500D01*
X149166602Y-79879077D01*
X149253751Y-79865274D01*
X149286154Y-79869461D01*
X149318695Y-79872415D01*
X149321069Y-79873972D01*
X149323043Y-79874228D01*
X149349343Y-79889919D01*
X149355402Y-79894638D01*
X149441284Y-79980520D01*
X149528095Y-80030639D01*
X149535522Y-80034927D01*
X149535527Y-80034931D01*
X149568855Y-80054173D01*
X149578215Y-80059577D01*
X149730943Y-80100501D01*
X149730946Y-80100501D01*
X149896653Y-80100501D01*
X149896669Y-80100500D01*
X157403001Y-80100500D01*
X157470040Y-80120185D01*
X157515795Y-80172989D01*
X157527001Y-80224500D01*
X157527001Y-80600018D01*
X157537500Y-80702796D01*
X157537501Y-80702799D01*
X157588462Y-80856587D01*
X157592686Y-80869334D01*
X157684788Y-81018656D01*
X157808844Y-81142712D01*
X157958166Y-81234814D01*
X158124703Y-81289999D01*
X158227491Y-81300500D01*
X160427508Y-81300499D01*
X160530297Y-81289999D01*
X160696834Y-81234814D01*
X160846156Y-81142712D01*
X160970212Y-81018656D01*
X161062314Y-80869334D01*
X161117499Y-80702797D01*
X161128000Y-80600009D01*
X161127999Y-78399992D01*
X161126530Y-78385616D01*
X161117499Y-78297203D01*
X161117498Y-78297200D01*
X161094954Y-78229168D01*
X161062314Y-78130666D01*
X160970212Y-77981344D01*
X160846156Y-77857288D01*
X160711630Y-77774312D01*
X160696836Y-77765187D01*
X160696831Y-77765185D01*
X160695362Y-77764698D01*
X160530297Y-77710001D01*
X160530295Y-77710000D01*
X160427510Y-77699500D01*
X158227498Y-77699500D01*
X158227481Y-77699501D01*
X158124703Y-77710000D01*
X158124700Y-77710001D01*
X157958168Y-77765185D01*
X157958163Y-77765187D01*
X157808842Y-77857289D01*
X157684789Y-77981342D01*
X157592687Y-78130663D01*
X157592685Y-78130668D01*
X157588462Y-78143412D01*
X157537501Y-78297203D01*
X157537501Y-78297204D01*
X157537500Y-78297204D01*
X157527000Y-78399983D01*
X157527000Y-78775500D01*
X157507315Y-78842539D01*
X157454511Y-78888294D01*
X157403000Y-78899500D01*
X150324500Y-78899500D01*
X150257461Y-78879815D01*
X150211706Y-78827011D01*
X150200500Y-78775500D01*
X150200500Y-78595513D01*
X150170940Y-78408881D01*
X150112545Y-78229163D01*
X150062356Y-78130663D01*
X150026760Y-78060801D01*
X149915690Y-77907927D01*
X149782073Y-77774310D01*
X149629199Y-77663240D01*
X149460836Y-77577454D01*
X149281118Y-77519059D01*
X149094486Y-77489500D01*
X149094481Y-77489500D01*
X148905519Y-77489500D01*
X148905514Y-77489500D01*
X148718881Y-77519059D01*
X148539163Y-77577454D01*
X148370800Y-77663240D01*
X148306440Y-77710001D01*
X148217927Y-77774310D01*
X148217925Y-77774312D01*
X148217924Y-77774312D01*
X148084312Y-77907924D01*
X148084312Y-77907925D01*
X148084310Y-77907927D01*
X147989526Y-78038386D01*
X147934196Y-78081051D01*
X147889208Y-78089500D01*
X145290021Y-78089500D01*
X145222982Y-78069815D01*
X145177227Y-78017011D01*
X145172733Y-78003428D01*
X145172128Y-78003629D01*
X145169999Y-77997203D01*
X145169999Y-77997202D01*
X145114814Y-77830665D01*
X145022712Y-77681344D01*
X144898656Y-77557288D01*
X144749335Y-77465186D01*
X144582798Y-77410001D01*
X144582796Y-77410000D01*
X144480017Y-77399500D01*
X144480010Y-77399500D01*
X142679990Y-77399500D01*
X142679982Y-77399500D01*
X142577203Y-77410000D01*
X142577202Y-77410001D01*
X142494669Y-77437349D01*
X142410667Y-77465185D01*
X142410662Y-77465187D01*
X142261342Y-77557289D01*
X142137289Y-77681342D01*
X142045187Y-77830662D01*
X142045185Y-77830667D01*
X142019584Y-77907927D01*
X141990001Y-77997202D01*
X141990001Y-77997203D01*
X141990000Y-77997203D01*
X141979500Y-78099982D01*
X134744426Y-78099982D01*
X134640798Y-77957350D01*
X134640794Y-77957345D01*
X134462654Y-77779205D01*
X134462649Y-77779201D01*
X134258848Y-77631132D01*
X134258847Y-77631131D01*
X134258845Y-77631130D01*
X134153498Y-77577453D01*
X134034383Y-77516760D01*
X133794785Y-77438910D01*
X133545962Y-77399500D01*
X133294038Y-77399500D01*
X133227738Y-77410001D01*
X133045214Y-77438910D01*
X132805616Y-77516760D01*
X132581151Y-77631132D01*
X132377350Y-77779201D01*
X132377345Y-77779205D01*
X132199205Y-77957345D01*
X132199201Y-77957350D01*
X132051132Y-78161151D01*
X132051130Y-78161155D01*
X131975137Y-78310301D01*
X131964185Y-78331795D01*
X131916211Y-78382591D01*
X131853700Y-78399500D01*
X123986187Y-78399500D01*
X123919148Y-78379815D01*
X123887811Y-78350986D01*
X123856593Y-78310302D01*
X123856587Y-78310295D01*
X123689704Y-78143412D01*
X123689697Y-78143406D01*
X123502454Y-77999730D01*
X123502453Y-77999729D01*
X123502450Y-77999727D01*
X123420957Y-77952677D01*
X123298056Y-77881719D01*
X123298045Y-77881714D01*
X123079993Y-77791394D01*
X122852010Y-77730306D01*
X122618020Y-77699501D01*
X122618017Y-77699500D01*
X122618011Y-77699500D01*
X122381989Y-77699500D01*
X122381983Y-77699500D01*
X122381979Y-77699501D01*
X122147989Y-77730306D01*
X121920006Y-77791394D01*
X121701954Y-77881714D01*
X121701943Y-77881719D01*
X121529390Y-77981344D01*
X121501924Y-77997202D01*
X121497545Y-77999730D01*
X121310302Y-78143406D01*
X121310295Y-78143412D01*
X121143412Y-78310295D01*
X121143406Y-78310302D01*
X120999730Y-78497545D01*
X120881719Y-78701943D01*
X120881714Y-78701954D01*
X120791394Y-78920006D01*
X120730306Y-79147989D01*
X120699501Y-79381979D01*
X120699500Y-79381995D01*
X114100500Y-79381995D01*
X114100500Y-72824500D01*
X114120185Y-72757461D01*
X114172989Y-72711706D01*
X114224500Y-72700500D01*
X166975500Y-72700500D01*
X167042539Y-72720185D01*
G37*
%TD.AperFunction*%
%TD*%
D18*
%TO.C,J1*%
X159327500Y-79500000D03*
D19*
X159327500Y-84500000D03*
%TD*%
D20*
%TO.C,D1*%
X143580000Y-79000000D03*
D21*
X133420000Y-79000000D03*
%TD*%
D22*
%TO.C,J3*%
X122500000Y-84500000D03*
D19*
X122500000Y-79500000D03*
%TD*%
D23*
%TO.C,R1*%
X149000000Y-78690000D03*
X149000000Y-86310000D03*
%TD*%
M02*
