M48
; DRILL file KiCad 10.0.1 date 2026-05-12T22:06:45
; FORMAT={-:-/ absolute / metric / decimal}
; #@! TF.CreationDate,2026-05-12T22:06:45+05:30
; #@! TF.GenerationSoftware,Kicad,Pcbnew,10.0.1
; #@! TF.FileFunction,Plated,1,2,PTH
FMAT,2
METRIC
; #@! TA.AperFunction,Plated,PTH,ComponentDrill
T1C0.700
; #@! TA.AperFunction,Plated,PTH,ComponentDrill
T2C0.800
; #@! TA.AperFunction,Plated,PTH,ComponentDrill
T3C0.900
; #@! TA.AperFunction,Plated,PTH,ComponentDrill
T4C1.000
; #@! TA.AperFunction,Plated,PTH,ComponentDrill
T5C1.100
; #@! TA.AperFunction,Plated,PTH,ComponentDrill
T6C1.200
%
G90
G05
T1
X69.82Y-55.85
X69.9Y-49.45
X74.9Y-55.85
X74.98Y-49.45
X84.5Y-61.95
X84.5Y-67.03
X89.56Y-74.1
X94.64Y-74.1
X113.06Y-56.8
X118.14Y-56.8
X122.2Y-63.86
X122.2Y-68.94
X123.85Y-77.25
X125.35Y-63.5
X128.93Y-77.25
X130.43Y-63.5
X136.7Y-50.21
X136.7Y-55.29
T2
X88.1Y-50.71
X88.1Y-53.25
X88.1Y-55.79
X88.1Y-58.33
X90.805Y-45.05
X93.305Y-45.05
X95.72Y-50.71
X95.72Y-53.25
X95.72Y-55.79
X95.72Y-58.33
X101.05Y-63.9
X101.05Y-71.52
X103.59Y-63.9
X103.59Y-71.52
X106.13Y-63.9
X106.13Y-71.52
X106.15Y-56.7
X106.15Y-59.2
X108.67Y-63.9
X108.67Y-71.52
X124.595Y-50.24
X124.595Y-52.78
X124.595Y-55.32
X124.595Y-57.86
X132.215Y-50.24
X132.215Y-52.78
X132.215Y-55.32
X132.215Y-57.86
X135.195Y-62.3
X137.695Y-62.3
T3
X76.135Y-64.55
X78.675Y-64.55
X114.71Y-66.65
X117.25Y-66.65
X128.6Y-70.3
X128.6Y-72.84
T4
X56.2Y-69.95
X56.2Y-74.95
X63.7Y-70.25
X63.7Y-75.25
X94.2Y-64.1
X94.2Y-69.1
X100.5Y-53.65
X100.5Y-58.65
X103.9Y-77.55
X108.9Y-77.55
X113.35Y-51.15
X118.35Y-51.15
X126.15Y-44.95
X131.15Y-44.95
T5
X57.1Y-62.45
X59.64Y-62.45
X62.18Y-62.45
X75.57Y-42.8
X75.62Y-35.95
X85.73Y-42.8
X85.78Y-35.95
X94.12Y-34.0
X104.28Y-34.0
T6
X55.4Y-42.8
X55.4Y-50.95
X61.7Y-35.55
X68.75Y-35.45
X78.45Y-29.7
X82.9Y-29.7
X93.1Y-28.0
X104.75Y-40.95
X106.2Y-27.75
X118.5Y-40.7
M30
