%TF.GenerationSoftware,KiCad,Pcbnew,9.0.7*%
%TF.CreationDate,2026-03-14T20:39:31+05:30*%
%TF.ProjectId,Instrumentation_Amplifier_LM741,496e7374-7275-46d6-956e-746174696f6e,rev?*%
%TF.SameCoordinates,Original*%
%TF.FileFunction,Legend,Top*%
%TF.FilePolarity,Positive*%
%FSLAX46Y46*%
G04 Gerber Fmt 4.6, Leading zero omitted, Abs format (unit mm)*
G04 Created by KiCad (PCBNEW 9.0.7) date 2026-03-14 20:39:31*
%MOMM*%
%LPD*%
G01*
G04 APERTURE LIST*
%ADD10C,0.150000*%
%ADD11C,0.120000*%
%ADD12C,0.127000*%
%ADD13C,0.200000*%
%TA.AperFunction,Profile*%
%ADD14C,0.050000*%
%TD*%
G04 APERTURE END LIST*
D10*
X146346819Y-93921904D02*
X147156342Y-93921904D01*
X147156342Y-93921904D02*
X147251580Y-93874285D01*
X147251580Y-93874285D02*
X147299200Y-93826666D01*
X147299200Y-93826666D02*
X147346819Y-93731428D01*
X147346819Y-93731428D02*
X147346819Y-93540952D01*
X147346819Y-93540952D02*
X147299200Y-93445714D01*
X147299200Y-93445714D02*
X147251580Y-93398095D01*
X147251580Y-93398095D02*
X147156342Y-93350476D01*
X147156342Y-93350476D02*
X146346819Y-93350476D01*
X146346819Y-92969523D02*
X146346819Y-92350476D01*
X146346819Y-92350476D02*
X146727771Y-92683809D01*
X146727771Y-92683809D02*
X146727771Y-92540952D01*
X146727771Y-92540952D02*
X146775390Y-92445714D01*
X146775390Y-92445714D02*
X146823009Y-92398095D01*
X146823009Y-92398095D02*
X146918247Y-92350476D01*
X146918247Y-92350476D02*
X147156342Y-92350476D01*
X147156342Y-92350476D02*
X147251580Y-92398095D01*
X147251580Y-92398095D02*
X147299200Y-92445714D01*
X147299200Y-92445714D02*
X147346819Y-92540952D01*
X147346819Y-92540952D02*
X147346819Y-92826666D01*
X147346819Y-92826666D02*
X147299200Y-92921904D01*
X147299200Y-92921904D02*
X147251580Y-92969523D01*
X117124819Y-78983333D02*
X117839104Y-78983333D01*
X117839104Y-78983333D02*
X117981961Y-79030952D01*
X117981961Y-79030952D02*
X118077200Y-79126190D01*
X118077200Y-79126190D02*
X118124819Y-79269047D01*
X118124819Y-79269047D02*
X118124819Y-79364285D01*
X117124819Y-78602380D02*
X117124819Y-77983333D01*
X117124819Y-77983333D02*
X117505771Y-78316666D01*
X117505771Y-78316666D02*
X117505771Y-78173809D01*
X117505771Y-78173809D02*
X117553390Y-78078571D01*
X117553390Y-78078571D02*
X117601009Y-78030952D01*
X117601009Y-78030952D02*
X117696247Y-77983333D01*
X117696247Y-77983333D02*
X117934342Y-77983333D01*
X117934342Y-77983333D02*
X118029580Y-78030952D01*
X118029580Y-78030952D02*
X118077200Y-78078571D01*
X118077200Y-78078571D02*
X118124819Y-78173809D01*
X118124819Y-78173809D02*
X118124819Y-78459523D01*
X118124819Y-78459523D02*
X118077200Y-78554761D01*
X118077200Y-78554761D02*
X118029580Y-78602380D01*
X117374819Y-93483333D02*
X118089104Y-93483333D01*
X118089104Y-93483333D02*
X118231961Y-93530952D01*
X118231961Y-93530952D02*
X118327200Y-93626190D01*
X118327200Y-93626190D02*
X118374819Y-93769047D01*
X118374819Y-93769047D02*
X118374819Y-93864285D01*
X118374819Y-92483333D02*
X118374819Y-93054761D01*
X118374819Y-92769047D02*
X117374819Y-92769047D01*
X117374819Y-92769047D02*
X117517676Y-92864285D01*
X117517676Y-92864285D02*
X117612914Y-92959523D01*
X117612914Y-92959523D02*
X117660533Y-93054761D01*
X130666666Y-116054819D02*
X130666666Y-116769104D01*
X130666666Y-116769104D02*
X130619047Y-116911961D01*
X130619047Y-116911961D02*
X130523809Y-117007200D01*
X130523809Y-117007200D02*
X130380952Y-117054819D01*
X130380952Y-117054819D02*
X130285714Y-117054819D01*
X131095238Y-116150057D02*
X131142857Y-116102438D01*
X131142857Y-116102438D02*
X131238095Y-116054819D01*
X131238095Y-116054819D02*
X131476190Y-116054819D01*
X131476190Y-116054819D02*
X131571428Y-116102438D01*
X131571428Y-116102438D02*
X131619047Y-116150057D01*
X131619047Y-116150057D02*
X131666666Y-116245295D01*
X131666666Y-116245295D02*
X131666666Y-116340533D01*
X131666666Y-116340533D02*
X131619047Y-116483390D01*
X131619047Y-116483390D02*
X131047619Y-117054819D01*
X131047619Y-117054819D02*
X131666666Y-117054819D01*
X129936819Y-94351904D02*
X130746342Y-94351904D01*
X130746342Y-94351904D02*
X130841580Y-94304285D01*
X130841580Y-94304285D02*
X130889200Y-94256666D01*
X130889200Y-94256666D02*
X130936819Y-94161428D01*
X130936819Y-94161428D02*
X130936819Y-93970952D01*
X130936819Y-93970952D02*
X130889200Y-93875714D01*
X130889200Y-93875714D02*
X130841580Y-93828095D01*
X130841580Y-93828095D02*
X130746342Y-93780476D01*
X130746342Y-93780476D02*
X129936819Y-93780476D01*
X130032057Y-93351904D02*
X129984438Y-93304285D01*
X129984438Y-93304285D02*
X129936819Y-93209047D01*
X129936819Y-93209047D02*
X129936819Y-92970952D01*
X129936819Y-92970952D02*
X129984438Y-92875714D01*
X129984438Y-92875714D02*
X130032057Y-92828095D01*
X130032057Y-92828095D02*
X130127295Y-92780476D01*
X130127295Y-92780476D02*
X130222533Y-92780476D01*
X130222533Y-92780476D02*
X130365390Y-92828095D01*
X130365390Y-92828095D02*
X130936819Y-93399523D01*
X130936819Y-93399523D02*
X130936819Y-92780476D01*
X123962819Y-79001904D02*
X124772342Y-79001904D01*
X124772342Y-79001904D02*
X124867580Y-78954285D01*
X124867580Y-78954285D02*
X124915200Y-78906666D01*
X124915200Y-78906666D02*
X124962819Y-78811428D01*
X124962819Y-78811428D02*
X124962819Y-78620952D01*
X124962819Y-78620952D02*
X124915200Y-78525714D01*
X124915200Y-78525714D02*
X124867580Y-78478095D01*
X124867580Y-78478095D02*
X124772342Y-78430476D01*
X124772342Y-78430476D02*
X123962819Y-78430476D01*
X124962819Y-77430476D02*
X124962819Y-78001904D01*
X124962819Y-77716190D02*
X123962819Y-77716190D01*
X123962819Y-77716190D02*
X124105676Y-77811428D01*
X124105676Y-77811428D02*
X124200914Y-77906666D01*
X124200914Y-77906666D02*
X124248533Y-78001904D01*
D11*
%TO.C,R7*%
X126880000Y-101400000D02*
X127650000Y-101400000D01*
X134960000Y-101400000D02*
X134190000Y-101400000D01*
X134190000Y-102770000D02*
X127650000Y-102770000D01*
X127650000Y-100030000D01*
X134190000Y-100030000D01*
X134190000Y-102770000D01*
D12*
%TO.C,U3*%
X136205000Y-90425000D02*
X136205000Y-96775000D01*
X145795000Y-90425000D02*
X145795000Y-96775000D01*
D13*
X144910000Y-88565000D02*
G75*
G02*
X144710000Y-88565000I-100000J0D01*
G01*
X144710000Y-88565000D02*
G75*
G02*
X144910000Y-88565000I100000J0D01*
G01*
D11*
%TO.C,J3*%
X106630000Y-73530000D02*
X116670000Y-73530000D01*
X106630000Y-75850000D02*
X106630000Y-73530000D01*
X106630000Y-83770000D02*
X106630000Y-76450000D01*
X107250000Y-73530000D02*
X107250000Y-83770000D01*
X108750000Y-73530000D02*
X108750000Y-83770000D01*
X113650000Y-73530000D02*
X113650000Y-83770000D01*
X116670000Y-73530000D02*
X116670000Y-83770000D01*
X116670000Y-83770000D02*
X106630000Y-83770000D01*
X106630000Y-76150000D02*
X106020000Y-76590000D01*
X106020000Y-75710000D01*
X106630000Y-76150000D01*
G36*
X106630000Y-76150000D02*
G01*
X106020000Y-76590000D01*
X106020000Y-75710000D01*
X106630000Y-76150000D01*
G37*
%TO.C,R2*%
X126960000Y-105800000D02*
X127730000Y-105800000D01*
X135040000Y-105800000D02*
X134270000Y-105800000D01*
X134270000Y-107170000D02*
X127730000Y-107170000D01*
X127730000Y-104430000D01*
X134270000Y-104430000D01*
X134270000Y-107170000D01*
%TO.C,R4*%
X141600000Y-77960000D02*
X141600000Y-78730000D01*
X141600000Y-86040000D02*
X141600000Y-85270000D01*
X142970000Y-78730000D02*
X140230000Y-78730000D01*
X140230000Y-85270000D01*
X142970000Y-85270000D01*
X142970000Y-78730000D01*
%TO.C,R5*%
X126960000Y-110600000D02*
X127730000Y-110600000D01*
X135040000Y-110600000D02*
X134270000Y-110600000D01*
X127730000Y-109230000D02*
X134270000Y-109230000D01*
X134270000Y-111970000D01*
X127730000Y-111970000D01*
X127730000Y-109230000D01*
%TO.C,R6*%
X140200000Y-101760000D02*
X140200000Y-102530000D01*
X140200000Y-109840000D02*
X140200000Y-109070000D01*
X138830000Y-109070000D02*
X141570000Y-109070000D01*
X141570000Y-102530000D01*
X138830000Y-102530000D01*
X138830000Y-109070000D01*
%TO.C,J1*%
X106880000Y-85530000D02*
X116920000Y-85530000D01*
X106880000Y-87850000D02*
X106880000Y-85530000D01*
X106880000Y-100770000D02*
X106880000Y-88450000D01*
X107500000Y-85530000D02*
X107500000Y-100770000D01*
X109000000Y-85530000D02*
X109000000Y-100770000D01*
X113900000Y-85530000D02*
X113900000Y-100770000D01*
X116920000Y-85530000D02*
X116920000Y-100770000D01*
X116920000Y-100770000D02*
X106880000Y-100770000D01*
X106880000Y-88150000D02*
X106270000Y-88590000D01*
X106270000Y-87710000D01*
X106880000Y-88150000D01*
G36*
X106880000Y-88150000D02*
G01*
X106270000Y-88590000D01*
X106270000Y-87710000D01*
X106880000Y-88150000D01*
G37*
%TO.C,J2*%
X126180000Y-114880000D02*
X136420000Y-114880000D01*
X126180000Y-117900000D02*
X136420000Y-117900000D01*
X126180000Y-122800000D02*
X136420000Y-122800000D01*
X126180000Y-124300000D02*
X136420000Y-124300000D01*
X126180000Y-124920000D02*
X126180000Y-114880000D01*
X128500000Y-124920000D02*
X126180000Y-124920000D01*
X136420000Y-114880000D02*
X136420000Y-124920000D01*
X136420000Y-124920000D02*
X129100000Y-124920000D01*
X129240000Y-125530000D02*
X128360000Y-125530000D01*
X128800000Y-124920000D01*
X129240000Y-125530000D01*
G36*
X129240000Y-125530000D02*
G01*
X128360000Y-125530000D01*
X128800000Y-124920000D01*
X129240000Y-125530000D01*
G37*
D12*
%TO.C,U2*%
X119795000Y-90855000D02*
X119795000Y-97205000D01*
X129385000Y-90855000D02*
X129385000Y-97205000D01*
D13*
X128500000Y-88995000D02*
G75*
G02*
X128300000Y-88995000I-100000J0D01*
G01*
X128300000Y-88995000D02*
G75*
G02*
X128500000Y-88995000I100000J0D01*
G01*
D11*
%TO.C,R1*%
X121600000Y-77360000D02*
X121600000Y-78130000D01*
X121600000Y-85440000D02*
X121600000Y-84670000D01*
X122970000Y-78130000D02*
X120230000Y-78130000D01*
X120230000Y-84670000D01*
X122970000Y-84670000D01*
X122970000Y-78130000D01*
%TO.C,R3*%
X126480000Y-86400000D02*
X127250000Y-86400000D01*
X134560000Y-86400000D02*
X133790000Y-86400000D01*
X127250000Y-85030000D02*
X133790000Y-85030000D01*
X133790000Y-87770000D01*
X127250000Y-87770000D01*
X127250000Y-85030000D01*
D12*
%TO.C,U1*%
X125605000Y-80975000D02*
X125605000Y-74625000D01*
X135195000Y-80975000D02*
X135195000Y-74625000D01*
D13*
X126690000Y-82835000D02*
G75*
G02*
X126490000Y-82835000I-100000J0D01*
G01*
X126490000Y-82835000D02*
G75*
G02*
X126690000Y-82835000I100000J0D01*
G01*
%TD*%
D14*
X102400000Y-68400000D02*
X148600000Y-68400000D01*
X148600000Y-128600000D01*
X102400000Y-128600000D01*
X102400000Y-68400000D01*
M02*
