M48
; DRILL file {KiCad 9.0.7} date 2026-03-14T20:39:27+0530
; FORMAT={-:-/ absolute / metric / decimal}
; #@! TF.CreationDate,2026-03-14T20:39:27+05:30
; #@! TF.GenerationSoftware,Kicad,Pcbnew,9.0.7
; #@! TF.FileFunction,Plated,1,2,PTH
FMAT,2
METRIC
; #@! TA.AperFunction,Plated,PTH,ComponentDrill
T1C0.740
; #@! TA.AperFunction,Plated,PTH,ComponentDrill
T2C0.800
; #@! TA.AperFunction,Plated,PTH,ComponentDrill
T3C1.300
%
G90
G05
T1
X120.78Y-90.06
X120.78Y-98.0
X123.32Y-90.06
X123.32Y-98.0
X125.86Y-90.06
X125.86Y-98.0
X126.59Y-73.83
X126.59Y-81.77
X128.4Y-90.06
X128.4Y-98.0
X129.13Y-73.83
X129.13Y-81.77
X131.67Y-73.83
X131.67Y-81.77
X134.21Y-73.83
X134.21Y-81.77
X137.19Y-89.63
X137.19Y-97.57
X139.73Y-89.63
X139.73Y-97.57
X142.27Y-89.63
X142.27Y-97.57
X144.81Y-89.63
X144.81Y-97.57
T2
X121.6Y-76.32
X121.6Y-86.48
X125.44Y-86.4
X125.84Y-101.4
X125.92Y-105.8
X125.92Y-110.6
X135.6Y-86.4
X136.0Y-101.4
X136.08Y-105.8
X136.08Y-110.6
X140.2Y-100.72
X140.2Y-110.88
X141.6Y-76.92
X141.6Y-87.08
T3
X111.35Y-76.15
X111.35Y-81.15
X111.6Y-88.15
X111.6Y-93.15
X111.6Y-98.15
X128.8Y-120.2
X133.8Y-120.2
M30
