%TF.GenerationSoftware,KiCad,Pcbnew,9.0.7*%
%TF.CreationDate,2026-03-14T20:39:27+05:30*%
%TF.ProjectId,Instrumentation_Amplifier_LM741,496e7374-7275-46d6-956e-746174696f6e,rev?*%
%TF.SameCoordinates,Original*%
%TF.FileFunction,Drillmap*%
%TF.FilePolarity,Positive*%
%FSLAX45Y45*%
G04 Gerber Fmt 4.5, Leading zero omitted, Abs format (unit mm)*
G04 Created by KiCad (PCBNEW 9.0.7) date 2026-03-14 20:39:27*
%MOMM*%
%LPD*%
G01*
G04 APERTURE LIST*
%ADD10C,0.050000*%
%ADD11C,0.200000*%
%ADD12C,0.100000*%
%ADD13C,0.130000*%
G04 APERTURE END LIST*
D10*
X10240000Y-6840000D02*
X14860000Y-6840000D01*
X14860000Y-12860000D01*
X10240000Y-12860000D01*
X10240000Y-6840000D01*
D11*
D12*
X12041000Y-8969000D02*
X12115000Y-9043000D01*
X12115000Y-8969000D02*
X12041000Y-9043000D01*
X12041000Y-9763000D02*
X12115000Y-9837000D01*
X12115000Y-9763000D02*
X12041000Y-9837000D01*
X12295000Y-8969000D02*
X12369000Y-9043000D01*
X12369000Y-8969000D02*
X12295000Y-9043000D01*
X12295000Y-9763000D02*
X12369000Y-9837000D01*
X12369000Y-9763000D02*
X12295000Y-9837000D01*
X12549000Y-8969000D02*
X12623000Y-9043000D01*
X12623000Y-8969000D02*
X12549000Y-9043000D01*
X12549000Y-9763000D02*
X12623000Y-9837000D01*
X12623000Y-9763000D02*
X12549000Y-9837000D01*
X12622000Y-7346000D02*
X12696000Y-7420000D01*
X12696000Y-7346000D02*
X12622000Y-7420000D01*
X12622000Y-8140000D02*
X12696000Y-8214000D01*
X12696000Y-8140000D02*
X12622000Y-8214000D01*
X12803000Y-8969000D02*
X12877000Y-9043000D01*
X12877000Y-8969000D02*
X12803000Y-9043000D01*
X12803000Y-9763000D02*
X12877000Y-9837000D01*
X12877000Y-9763000D02*
X12803000Y-9837000D01*
X12876000Y-7346000D02*
X12950000Y-7420000D01*
X12950000Y-7346000D02*
X12876000Y-7420000D01*
X12876000Y-8140000D02*
X12950000Y-8214000D01*
X12950000Y-8140000D02*
X12876000Y-8214000D01*
X13130000Y-7346000D02*
X13204000Y-7420000D01*
X13204000Y-7346000D02*
X13130000Y-7420000D01*
X13130000Y-8140000D02*
X13204000Y-8214000D01*
X13204000Y-8140000D02*
X13130000Y-8214000D01*
X13384000Y-7346000D02*
X13458000Y-7420000D01*
X13458000Y-7346000D02*
X13384000Y-7420000D01*
X13384000Y-8140000D02*
X13458000Y-8214000D01*
X13458000Y-8140000D02*
X13384000Y-8214000D01*
X13682000Y-8926000D02*
X13756000Y-9000000D01*
X13756000Y-8926000D02*
X13682000Y-9000000D01*
X13682000Y-9720000D02*
X13756000Y-9794000D01*
X13756000Y-9720000D02*
X13682000Y-9794000D01*
X13936000Y-8926000D02*
X14010000Y-9000000D01*
X14010000Y-8926000D02*
X13936000Y-9000000D01*
X13936000Y-9720000D02*
X14010000Y-9794000D01*
X14010000Y-9720000D02*
X13936000Y-9794000D01*
X14190000Y-8926000D02*
X14264000Y-9000000D01*
X14264000Y-8926000D02*
X14190000Y-9000000D01*
X14190000Y-9720000D02*
X14264000Y-9794000D01*
X14264000Y-9720000D02*
X14190000Y-9794000D01*
X14444000Y-8926000D02*
X14518000Y-9000000D01*
X14518000Y-8926000D02*
X14444000Y-9000000D01*
X14444000Y-9720000D02*
X14518000Y-9794000D01*
X14518000Y-9720000D02*
X14444000Y-9794000D01*
X12200000Y-7632000D02*
G75*
G02*
X12120000Y-7632000I-40000J0D01*
G01*
X12120000Y-7632000D02*
G75*
G02*
X12200000Y-7632000I40000J0D01*
G01*
X12200000Y-8648000D02*
G75*
G02*
X12120000Y-8648000I-40000J0D01*
G01*
X12120000Y-8648000D02*
G75*
G02*
X12200000Y-8648000I40000J0D01*
G01*
X12584000Y-8640000D02*
G75*
G02*
X12504000Y-8640000I-40000J0D01*
G01*
X12504000Y-8640000D02*
G75*
G02*
X12584000Y-8640000I40000J0D01*
G01*
X12624000Y-10140000D02*
G75*
G02*
X12544000Y-10140000I-40000J0D01*
G01*
X12544000Y-10140000D02*
G75*
G02*
X12624000Y-10140000I40000J0D01*
G01*
X12632000Y-10580000D02*
G75*
G02*
X12552000Y-10580000I-40000J0D01*
G01*
X12552000Y-10580000D02*
G75*
G02*
X12632000Y-10580000I40000J0D01*
G01*
X12632000Y-11060000D02*
G75*
G02*
X12552000Y-11060000I-40000J0D01*
G01*
X12552000Y-11060000D02*
G75*
G02*
X12632000Y-11060000I40000J0D01*
G01*
X13600000Y-8640000D02*
G75*
G02*
X13520000Y-8640000I-40000J0D01*
G01*
X13520000Y-8640000D02*
G75*
G02*
X13600000Y-8640000I40000J0D01*
G01*
X13640000Y-10140000D02*
G75*
G02*
X13560000Y-10140000I-40000J0D01*
G01*
X13560000Y-10140000D02*
G75*
G02*
X13640000Y-10140000I40000J0D01*
G01*
X13648000Y-10580000D02*
G75*
G02*
X13568000Y-10580000I-40000J0D01*
G01*
X13568000Y-10580000D02*
G75*
G02*
X13648000Y-10580000I40000J0D01*
G01*
X13648000Y-11060000D02*
G75*
G02*
X13568000Y-11060000I-40000J0D01*
G01*
X13568000Y-11060000D02*
G75*
G02*
X13648000Y-11060000I40000J0D01*
G01*
X14060000Y-10072000D02*
G75*
G02*
X13980000Y-10072000I-40000J0D01*
G01*
X13980000Y-10072000D02*
G75*
G02*
X14060000Y-10072000I40000J0D01*
G01*
X14060000Y-11088000D02*
G75*
G02*
X13980000Y-11088000I-40000J0D01*
G01*
X13980000Y-11088000D02*
G75*
G02*
X14060000Y-11088000I40000J0D01*
G01*
X14200000Y-7692000D02*
G75*
G02*
X14120000Y-7692000I-40000J0D01*
G01*
X14120000Y-7692000D02*
G75*
G02*
X14200000Y-7692000I40000J0D01*
G01*
X14200000Y-8708000D02*
G75*
G02*
X14120000Y-8708000I-40000J0D01*
G01*
X14120000Y-8708000D02*
G75*
G02*
X14200000Y-8708000I40000J0D01*
G01*
D13*
X11135000Y-7550000D02*
X11135000Y-7680000D01*
X11070000Y-7615000D02*
X11200000Y-7615000D01*
X11135000Y-8050000D02*
X11135000Y-8180000D01*
X11070000Y-8115000D02*
X11200000Y-8115000D01*
X11160000Y-8750000D02*
X11160000Y-8880000D01*
X11095000Y-8815000D02*
X11225000Y-8815000D01*
X11160000Y-9250000D02*
X11160000Y-9380000D01*
X11095000Y-9315000D02*
X11225000Y-9315000D01*
X11160000Y-9750000D02*
X11160000Y-9880000D01*
X11095000Y-9815000D02*
X11225000Y-9815000D01*
X12880000Y-11955000D02*
X12880000Y-12085000D01*
X12815000Y-12020000D02*
X12945000Y-12020000D01*
X13380000Y-11955000D02*
X13380000Y-12085000D01*
X13315000Y-12020000D02*
X13445000Y-12020000D01*
D11*
X10498277Y-13173984D02*
X10498277Y-12973984D01*
X10498277Y-12973984D02*
X10545896Y-12973984D01*
X10545896Y-12973984D02*
X10574467Y-12983508D01*
X10574467Y-12983508D02*
X10593515Y-13002555D01*
X10593515Y-13002555D02*
X10603039Y-13021603D01*
X10603039Y-13021603D02*
X10612563Y-13059698D01*
X10612563Y-13059698D02*
X10612563Y-13088269D01*
X10612563Y-13088269D02*
X10603039Y-13126365D01*
X10603039Y-13126365D02*
X10593515Y-13145412D01*
X10593515Y-13145412D02*
X10574467Y-13164460D01*
X10574467Y-13164460D02*
X10545896Y-13173984D01*
X10545896Y-13173984D02*
X10498277Y-13173984D01*
X10698277Y-13173984D02*
X10698277Y-13040650D01*
X10698277Y-13078746D02*
X10707801Y-13059698D01*
X10707801Y-13059698D02*
X10717324Y-13050174D01*
X10717324Y-13050174D02*
X10736372Y-13040650D01*
X10736372Y-13040650D02*
X10755420Y-13040650D01*
X10822086Y-13173984D02*
X10822086Y-13040650D01*
X10822086Y-12973984D02*
X10812563Y-12983508D01*
X10812563Y-12983508D02*
X10822086Y-12993031D01*
X10822086Y-12993031D02*
X10831610Y-12983508D01*
X10831610Y-12983508D02*
X10822086Y-12973984D01*
X10822086Y-12973984D02*
X10822086Y-12993031D01*
X10945896Y-13173984D02*
X10926848Y-13164460D01*
X10926848Y-13164460D02*
X10917324Y-13145412D01*
X10917324Y-13145412D02*
X10917324Y-12973984D01*
X11050658Y-13173984D02*
X11031610Y-13164460D01*
X11031610Y-13164460D02*
X11022086Y-13145412D01*
X11022086Y-13145412D02*
X11022086Y-12973984D01*
X11279229Y-13173984D02*
X11279229Y-12973984D01*
X11279229Y-12973984D02*
X11345896Y-13116841D01*
X11345896Y-13116841D02*
X11412562Y-12973984D01*
X11412562Y-12973984D02*
X11412562Y-13173984D01*
X11593515Y-13173984D02*
X11593515Y-13069222D01*
X11593515Y-13069222D02*
X11583991Y-13050174D01*
X11583991Y-13050174D02*
X11564943Y-13040650D01*
X11564943Y-13040650D02*
X11526848Y-13040650D01*
X11526848Y-13040650D02*
X11507801Y-13050174D01*
X11593515Y-13164460D02*
X11574467Y-13173984D01*
X11574467Y-13173984D02*
X11526848Y-13173984D01*
X11526848Y-13173984D02*
X11507801Y-13164460D01*
X11507801Y-13164460D02*
X11498277Y-13145412D01*
X11498277Y-13145412D02*
X11498277Y-13126365D01*
X11498277Y-13126365D02*
X11507801Y-13107317D01*
X11507801Y-13107317D02*
X11526848Y-13097793D01*
X11526848Y-13097793D02*
X11574467Y-13097793D01*
X11574467Y-13097793D02*
X11593515Y-13088269D01*
X11688753Y-13040650D02*
X11688753Y-13240650D01*
X11688753Y-13050174D02*
X11707801Y-13040650D01*
X11707801Y-13040650D02*
X11745896Y-13040650D01*
X11745896Y-13040650D02*
X11764943Y-13050174D01*
X11764943Y-13050174D02*
X11774467Y-13059698D01*
X11774467Y-13059698D02*
X11783991Y-13078746D01*
X11783991Y-13078746D02*
X11783991Y-13135888D01*
X11783991Y-13135888D02*
X11774467Y-13154936D01*
X11774467Y-13154936D02*
X11764943Y-13164460D01*
X11764943Y-13164460D02*
X11745896Y-13173984D01*
X11745896Y-13173984D02*
X11707801Y-13173984D01*
X11707801Y-13173984D02*
X11688753Y-13164460D01*
X11869705Y-13154936D02*
X11879229Y-13164460D01*
X11879229Y-13164460D02*
X11869705Y-13173984D01*
X11869705Y-13173984D02*
X11860182Y-13164460D01*
X11860182Y-13164460D02*
X11869705Y-13154936D01*
X11869705Y-13154936D02*
X11869705Y-13173984D01*
X11869705Y-13050174D02*
X11879229Y-13059698D01*
X11879229Y-13059698D02*
X11869705Y-13069222D01*
X11869705Y-13069222D02*
X11860182Y-13059698D01*
X11860182Y-13059698D02*
X11869705Y-13050174D01*
X11869705Y-13050174D02*
X11869705Y-13069222D01*
D12*
X10163500Y-13465500D02*
X10237500Y-13539500D01*
X10237500Y-13465500D02*
X10163500Y-13539500D01*
D11*
X10536372Y-13393984D02*
X10555420Y-13393984D01*
X10555420Y-13393984D02*
X10574467Y-13403508D01*
X10574467Y-13403508D02*
X10583991Y-13413031D01*
X10583991Y-13413031D02*
X10593515Y-13432079D01*
X10593515Y-13432079D02*
X10603039Y-13470174D01*
X10603039Y-13470174D02*
X10603039Y-13517793D01*
X10603039Y-13517793D02*
X10593515Y-13555888D01*
X10593515Y-13555888D02*
X10583991Y-13574936D01*
X10583991Y-13574936D02*
X10574467Y-13584460D01*
X10574467Y-13584460D02*
X10555420Y-13593984D01*
X10555420Y-13593984D02*
X10536372Y-13593984D01*
X10536372Y-13593984D02*
X10517324Y-13584460D01*
X10517324Y-13584460D02*
X10507801Y-13574936D01*
X10507801Y-13574936D02*
X10498277Y-13555888D01*
X10498277Y-13555888D02*
X10488753Y-13517793D01*
X10488753Y-13517793D02*
X10488753Y-13470174D01*
X10488753Y-13470174D02*
X10498277Y-13432079D01*
X10498277Y-13432079D02*
X10507801Y-13413031D01*
X10507801Y-13413031D02*
X10517324Y-13403508D01*
X10517324Y-13403508D02*
X10536372Y-13393984D01*
X10688753Y-13574936D02*
X10698277Y-13584460D01*
X10698277Y-13584460D02*
X10688753Y-13593984D01*
X10688753Y-13593984D02*
X10679229Y-13584460D01*
X10679229Y-13584460D02*
X10688753Y-13574936D01*
X10688753Y-13574936D02*
X10688753Y-13593984D01*
X10764944Y-13393984D02*
X10898277Y-13393984D01*
X10898277Y-13393984D02*
X10812563Y-13593984D01*
X11060182Y-13460650D02*
X11060182Y-13593984D01*
X11012563Y-13384460D02*
X10964944Y-13527317D01*
X10964944Y-13527317D02*
X11088753Y-13527317D01*
X11203039Y-13393984D02*
X11222086Y-13393984D01*
X11222086Y-13393984D02*
X11241134Y-13403508D01*
X11241134Y-13403508D02*
X11250658Y-13413031D01*
X11250658Y-13413031D02*
X11260182Y-13432079D01*
X11260182Y-13432079D02*
X11269705Y-13470174D01*
X11269705Y-13470174D02*
X11269705Y-13517793D01*
X11269705Y-13517793D02*
X11260182Y-13555888D01*
X11260182Y-13555888D02*
X11250658Y-13574936D01*
X11250658Y-13574936D02*
X11241134Y-13584460D01*
X11241134Y-13584460D02*
X11222086Y-13593984D01*
X11222086Y-13593984D02*
X11203039Y-13593984D01*
X11203039Y-13593984D02*
X11183991Y-13584460D01*
X11183991Y-13584460D02*
X11174467Y-13574936D01*
X11174467Y-13574936D02*
X11164944Y-13555888D01*
X11164944Y-13555888D02*
X11155420Y-13517793D01*
X11155420Y-13517793D02*
X11155420Y-13470174D01*
X11155420Y-13470174D02*
X11164944Y-13432079D01*
X11164944Y-13432079D02*
X11174467Y-13413031D01*
X11174467Y-13413031D02*
X11183991Y-13403508D01*
X11183991Y-13403508D02*
X11203039Y-13393984D01*
X11355420Y-13593984D02*
X11355420Y-13460650D01*
X11355420Y-13479698D02*
X11364943Y-13470174D01*
X11364943Y-13470174D02*
X11383991Y-13460650D01*
X11383991Y-13460650D02*
X11412563Y-13460650D01*
X11412563Y-13460650D02*
X11431610Y-13470174D01*
X11431610Y-13470174D02*
X11441134Y-13489222D01*
X11441134Y-13489222D02*
X11441134Y-13593984D01*
X11441134Y-13489222D02*
X11450658Y-13470174D01*
X11450658Y-13470174D02*
X11469705Y-13460650D01*
X11469705Y-13460650D02*
X11498277Y-13460650D01*
X11498277Y-13460650D02*
X11517324Y-13470174D01*
X11517324Y-13470174D02*
X11526848Y-13489222D01*
X11526848Y-13489222D02*
X11526848Y-13593984D01*
X11622086Y-13593984D02*
X11622086Y-13460650D01*
X11622086Y-13479698D02*
X11631610Y-13470174D01*
X11631610Y-13470174D02*
X11650658Y-13460650D01*
X11650658Y-13460650D02*
X11679229Y-13460650D01*
X11679229Y-13460650D02*
X11698277Y-13470174D01*
X11698277Y-13470174D02*
X11707801Y-13489222D01*
X11707801Y-13489222D02*
X11707801Y-13593984D01*
X11707801Y-13489222D02*
X11717324Y-13470174D01*
X11717324Y-13470174D02*
X11736372Y-13460650D01*
X11736372Y-13460650D02*
X11764943Y-13460650D01*
X11764943Y-13460650D02*
X11783991Y-13470174D01*
X11783991Y-13470174D02*
X11793515Y-13489222D01*
X11793515Y-13489222D02*
X11793515Y-13593984D01*
X12183991Y-13384460D02*
X12012563Y-13641603D01*
X12441134Y-13393984D02*
X12460182Y-13393984D01*
X12460182Y-13393984D02*
X12479229Y-13403508D01*
X12479229Y-13403508D02*
X12488753Y-13413031D01*
X12488753Y-13413031D02*
X12498277Y-13432079D01*
X12498277Y-13432079D02*
X12507801Y-13470174D01*
X12507801Y-13470174D02*
X12507801Y-13517793D01*
X12507801Y-13517793D02*
X12498277Y-13555888D01*
X12498277Y-13555888D02*
X12488753Y-13574936D01*
X12488753Y-13574936D02*
X12479229Y-13584460D01*
X12479229Y-13584460D02*
X12460182Y-13593984D01*
X12460182Y-13593984D02*
X12441134Y-13593984D01*
X12441134Y-13593984D02*
X12422086Y-13584460D01*
X12422086Y-13584460D02*
X12412563Y-13574936D01*
X12412563Y-13574936D02*
X12403039Y-13555888D01*
X12403039Y-13555888D02*
X12393515Y-13517793D01*
X12393515Y-13517793D02*
X12393515Y-13470174D01*
X12393515Y-13470174D02*
X12403039Y-13432079D01*
X12403039Y-13432079D02*
X12412563Y-13413031D01*
X12412563Y-13413031D02*
X12422086Y-13403508D01*
X12422086Y-13403508D02*
X12441134Y-13393984D01*
X12593515Y-13574936D02*
X12603039Y-13584460D01*
X12603039Y-13584460D02*
X12593515Y-13593984D01*
X12593515Y-13593984D02*
X12583991Y-13584460D01*
X12583991Y-13584460D02*
X12593515Y-13574936D01*
X12593515Y-13574936D02*
X12593515Y-13593984D01*
X12726848Y-13393984D02*
X12745896Y-13393984D01*
X12745896Y-13393984D02*
X12764944Y-13403508D01*
X12764944Y-13403508D02*
X12774467Y-13413031D01*
X12774467Y-13413031D02*
X12783991Y-13432079D01*
X12783991Y-13432079D02*
X12793515Y-13470174D01*
X12793515Y-13470174D02*
X12793515Y-13517793D01*
X12793515Y-13517793D02*
X12783991Y-13555888D01*
X12783991Y-13555888D02*
X12774467Y-13574936D01*
X12774467Y-13574936D02*
X12764944Y-13584460D01*
X12764944Y-13584460D02*
X12745896Y-13593984D01*
X12745896Y-13593984D02*
X12726848Y-13593984D01*
X12726848Y-13593984D02*
X12707801Y-13584460D01*
X12707801Y-13584460D02*
X12698277Y-13574936D01*
X12698277Y-13574936D02*
X12688753Y-13555888D01*
X12688753Y-13555888D02*
X12679229Y-13517793D01*
X12679229Y-13517793D02*
X12679229Y-13470174D01*
X12679229Y-13470174D02*
X12688753Y-13432079D01*
X12688753Y-13432079D02*
X12698277Y-13413031D01*
X12698277Y-13413031D02*
X12707801Y-13403508D01*
X12707801Y-13403508D02*
X12726848Y-13393984D01*
X12869706Y-13413031D02*
X12879229Y-13403508D01*
X12879229Y-13403508D02*
X12898277Y-13393984D01*
X12898277Y-13393984D02*
X12945896Y-13393984D01*
X12945896Y-13393984D02*
X12964944Y-13403508D01*
X12964944Y-13403508D02*
X12974467Y-13413031D01*
X12974467Y-13413031D02*
X12983991Y-13432079D01*
X12983991Y-13432079D02*
X12983991Y-13451127D01*
X12983991Y-13451127D02*
X12974467Y-13479698D01*
X12974467Y-13479698D02*
X12860182Y-13593984D01*
X12860182Y-13593984D02*
X12983991Y-13593984D01*
X13079229Y-13593984D02*
X13117325Y-13593984D01*
X13117325Y-13593984D02*
X13136372Y-13584460D01*
X13136372Y-13584460D02*
X13145896Y-13574936D01*
X13145896Y-13574936D02*
X13164944Y-13546365D01*
X13164944Y-13546365D02*
X13174467Y-13508269D01*
X13174467Y-13508269D02*
X13174467Y-13432079D01*
X13174467Y-13432079D02*
X13164944Y-13413031D01*
X13164944Y-13413031D02*
X13155420Y-13403508D01*
X13155420Y-13403508D02*
X13136372Y-13393984D01*
X13136372Y-13393984D02*
X13098277Y-13393984D01*
X13098277Y-13393984D02*
X13079229Y-13403508D01*
X13079229Y-13403508D02*
X13069706Y-13413031D01*
X13069706Y-13413031D02*
X13060182Y-13432079D01*
X13060182Y-13432079D02*
X13060182Y-13479698D01*
X13060182Y-13479698D02*
X13069706Y-13498746D01*
X13069706Y-13498746D02*
X13079229Y-13508269D01*
X13079229Y-13508269D02*
X13098277Y-13517793D01*
X13098277Y-13517793D02*
X13136372Y-13517793D01*
X13136372Y-13517793D02*
X13155420Y-13508269D01*
X13155420Y-13508269D02*
X13164944Y-13498746D01*
X13164944Y-13498746D02*
X13174467Y-13479698D01*
X13364944Y-13593984D02*
X13250658Y-13593984D01*
X13307801Y-13593984D02*
X13307801Y-13393984D01*
X13307801Y-13393984D02*
X13288753Y-13422555D01*
X13288753Y-13422555D02*
X13269706Y-13441603D01*
X13269706Y-13441603D02*
X13250658Y-13451127D01*
X13441134Y-13393984D02*
X13441134Y-13432079D01*
X13517325Y-13393984D02*
X13517325Y-13432079D01*
X13812563Y-13670174D02*
X13803039Y-13660650D01*
X13803039Y-13660650D02*
X13783991Y-13632079D01*
X13783991Y-13632079D02*
X13774468Y-13613031D01*
X13774468Y-13613031D02*
X13764944Y-13584460D01*
X13764944Y-13584460D02*
X13755420Y-13536841D01*
X13755420Y-13536841D02*
X13755420Y-13498746D01*
X13755420Y-13498746D02*
X13764944Y-13451127D01*
X13764944Y-13451127D02*
X13774468Y-13422555D01*
X13774468Y-13422555D02*
X13783991Y-13403508D01*
X13783991Y-13403508D02*
X13803039Y-13374936D01*
X13803039Y-13374936D02*
X13812563Y-13365412D01*
X13879229Y-13413031D02*
X13888753Y-13403508D01*
X13888753Y-13403508D02*
X13907801Y-13393984D01*
X13907801Y-13393984D02*
X13955420Y-13393984D01*
X13955420Y-13393984D02*
X13974468Y-13403508D01*
X13974468Y-13403508D02*
X13983991Y-13413031D01*
X13983991Y-13413031D02*
X13993515Y-13432079D01*
X13993515Y-13432079D02*
X13993515Y-13451127D01*
X13993515Y-13451127D02*
X13983991Y-13479698D01*
X13983991Y-13479698D02*
X13869706Y-13593984D01*
X13869706Y-13593984D02*
X13993515Y-13593984D01*
X14164944Y-13460650D02*
X14164944Y-13593984D01*
X14117325Y-13384460D02*
X14069706Y-13527317D01*
X14069706Y-13527317D02*
X14193515Y-13527317D01*
X14422087Y-13593984D02*
X14422087Y-13393984D01*
X14507801Y-13593984D02*
X14507801Y-13489222D01*
X14507801Y-13489222D02*
X14498277Y-13470174D01*
X14498277Y-13470174D02*
X14479230Y-13460650D01*
X14479230Y-13460650D02*
X14450658Y-13460650D01*
X14450658Y-13460650D02*
X14431610Y-13470174D01*
X14431610Y-13470174D02*
X14422087Y-13479698D01*
X14631610Y-13593984D02*
X14612563Y-13584460D01*
X14612563Y-13584460D02*
X14603039Y-13574936D01*
X14603039Y-13574936D02*
X14593515Y-13555888D01*
X14593515Y-13555888D02*
X14593515Y-13498746D01*
X14593515Y-13498746D02*
X14603039Y-13479698D01*
X14603039Y-13479698D02*
X14612563Y-13470174D01*
X14612563Y-13470174D02*
X14631610Y-13460650D01*
X14631610Y-13460650D02*
X14660182Y-13460650D01*
X14660182Y-13460650D02*
X14679230Y-13470174D01*
X14679230Y-13470174D02*
X14688753Y-13479698D01*
X14688753Y-13479698D02*
X14698277Y-13498746D01*
X14698277Y-13498746D02*
X14698277Y-13555888D01*
X14698277Y-13555888D02*
X14688753Y-13574936D01*
X14688753Y-13574936D02*
X14679230Y-13584460D01*
X14679230Y-13584460D02*
X14660182Y-13593984D01*
X14660182Y-13593984D02*
X14631610Y-13593984D01*
X14812563Y-13593984D02*
X14793515Y-13584460D01*
X14793515Y-13584460D02*
X14783991Y-13565412D01*
X14783991Y-13565412D02*
X14783991Y-13393984D01*
X14964944Y-13584460D02*
X14945896Y-13593984D01*
X14945896Y-13593984D02*
X14907801Y-13593984D01*
X14907801Y-13593984D02*
X14888753Y-13584460D01*
X14888753Y-13584460D02*
X14879230Y-13565412D01*
X14879230Y-13565412D02*
X14879230Y-13489222D01*
X14879230Y-13489222D02*
X14888753Y-13470174D01*
X14888753Y-13470174D02*
X14907801Y-13460650D01*
X14907801Y-13460650D02*
X14945896Y-13460650D01*
X14945896Y-13460650D02*
X14964944Y-13470174D01*
X14964944Y-13470174D02*
X14974468Y-13489222D01*
X14974468Y-13489222D02*
X14974468Y-13508269D01*
X14974468Y-13508269D02*
X14879230Y-13527317D01*
X15050658Y-13584460D02*
X15069706Y-13593984D01*
X15069706Y-13593984D02*
X15107801Y-13593984D01*
X15107801Y-13593984D02*
X15126849Y-13584460D01*
X15126849Y-13584460D02*
X15136372Y-13565412D01*
X15136372Y-13565412D02*
X15136372Y-13555888D01*
X15136372Y-13555888D02*
X15126849Y-13536841D01*
X15126849Y-13536841D02*
X15107801Y-13527317D01*
X15107801Y-13527317D02*
X15079230Y-13527317D01*
X15079230Y-13527317D02*
X15060182Y-13517793D01*
X15060182Y-13517793D02*
X15050658Y-13498746D01*
X15050658Y-13498746D02*
X15050658Y-13489222D01*
X15050658Y-13489222D02*
X15060182Y-13470174D01*
X15060182Y-13470174D02*
X15079230Y-13460650D01*
X15079230Y-13460650D02*
X15107801Y-13460650D01*
X15107801Y-13460650D02*
X15126849Y-13470174D01*
X15203039Y-13670174D02*
X15212563Y-13660650D01*
X15212563Y-13660650D02*
X15231611Y-13632079D01*
X15231611Y-13632079D02*
X15241134Y-13613031D01*
X15241134Y-13613031D02*
X15250658Y-13584460D01*
X15250658Y-13584460D02*
X15260182Y-13536841D01*
X15260182Y-13536841D02*
X15260182Y-13498746D01*
X15260182Y-13498746D02*
X15250658Y-13451127D01*
X15250658Y-13451127D02*
X15241134Y-13422555D01*
X15241134Y-13422555D02*
X15231611Y-13403508D01*
X15231611Y-13403508D02*
X15212563Y-13374936D01*
X15212563Y-13374936D02*
X15203039Y-13365412D01*
D12*
X10237500Y-13766500D02*
G75*
G02*
X10157500Y-13766500I-40000J0D01*
G01*
X10157500Y-13766500D02*
G75*
G02*
X10237500Y-13766500I40000J0D01*
G01*
D11*
X10536372Y-13657984D02*
X10555420Y-13657984D01*
X10555420Y-13657984D02*
X10574467Y-13667508D01*
X10574467Y-13667508D02*
X10583991Y-13677031D01*
X10583991Y-13677031D02*
X10593515Y-13696079D01*
X10593515Y-13696079D02*
X10603039Y-13734174D01*
X10603039Y-13734174D02*
X10603039Y-13781793D01*
X10603039Y-13781793D02*
X10593515Y-13819888D01*
X10593515Y-13819888D02*
X10583991Y-13838936D01*
X10583991Y-13838936D02*
X10574467Y-13848460D01*
X10574467Y-13848460D02*
X10555420Y-13857984D01*
X10555420Y-13857984D02*
X10536372Y-13857984D01*
X10536372Y-13857984D02*
X10517324Y-13848460D01*
X10517324Y-13848460D02*
X10507801Y-13838936D01*
X10507801Y-13838936D02*
X10498277Y-13819888D01*
X10498277Y-13819888D02*
X10488753Y-13781793D01*
X10488753Y-13781793D02*
X10488753Y-13734174D01*
X10488753Y-13734174D02*
X10498277Y-13696079D01*
X10498277Y-13696079D02*
X10507801Y-13677031D01*
X10507801Y-13677031D02*
X10517324Y-13667508D01*
X10517324Y-13667508D02*
X10536372Y-13657984D01*
X10688753Y-13838936D02*
X10698277Y-13848460D01*
X10698277Y-13848460D02*
X10688753Y-13857984D01*
X10688753Y-13857984D02*
X10679229Y-13848460D01*
X10679229Y-13848460D02*
X10688753Y-13838936D01*
X10688753Y-13838936D02*
X10688753Y-13857984D01*
X10812563Y-13743698D02*
X10793515Y-13734174D01*
X10793515Y-13734174D02*
X10783991Y-13724650D01*
X10783991Y-13724650D02*
X10774467Y-13705603D01*
X10774467Y-13705603D02*
X10774467Y-13696079D01*
X10774467Y-13696079D02*
X10783991Y-13677031D01*
X10783991Y-13677031D02*
X10793515Y-13667508D01*
X10793515Y-13667508D02*
X10812563Y-13657984D01*
X10812563Y-13657984D02*
X10850658Y-13657984D01*
X10850658Y-13657984D02*
X10869705Y-13667508D01*
X10869705Y-13667508D02*
X10879229Y-13677031D01*
X10879229Y-13677031D02*
X10888753Y-13696079D01*
X10888753Y-13696079D02*
X10888753Y-13705603D01*
X10888753Y-13705603D02*
X10879229Y-13724650D01*
X10879229Y-13724650D02*
X10869705Y-13734174D01*
X10869705Y-13734174D02*
X10850658Y-13743698D01*
X10850658Y-13743698D02*
X10812563Y-13743698D01*
X10812563Y-13743698D02*
X10793515Y-13753222D01*
X10793515Y-13753222D02*
X10783991Y-13762746D01*
X10783991Y-13762746D02*
X10774467Y-13781793D01*
X10774467Y-13781793D02*
X10774467Y-13819888D01*
X10774467Y-13819888D02*
X10783991Y-13838936D01*
X10783991Y-13838936D02*
X10793515Y-13848460D01*
X10793515Y-13848460D02*
X10812563Y-13857984D01*
X10812563Y-13857984D02*
X10850658Y-13857984D01*
X10850658Y-13857984D02*
X10869705Y-13848460D01*
X10869705Y-13848460D02*
X10879229Y-13838936D01*
X10879229Y-13838936D02*
X10888753Y-13819888D01*
X10888753Y-13819888D02*
X10888753Y-13781793D01*
X10888753Y-13781793D02*
X10879229Y-13762746D01*
X10879229Y-13762746D02*
X10869705Y-13753222D01*
X10869705Y-13753222D02*
X10850658Y-13743698D01*
X11012563Y-13657984D02*
X11031610Y-13657984D01*
X11031610Y-13657984D02*
X11050658Y-13667508D01*
X11050658Y-13667508D02*
X11060182Y-13677031D01*
X11060182Y-13677031D02*
X11069705Y-13696079D01*
X11069705Y-13696079D02*
X11079229Y-13734174D01*
X11079229Y-13734174D02*
X11079229Y-13781793D01*
X11079229Y-13781793D02*
X11069705Y-13819888D01*
X11069705Y-13819888D02*
X11060182Y-13838936D01*
X11060182Y-13838936D02*
X11050658Y-13848460D01*
X11050658Y-13848460D02*
X11031610Y-13857984D01*
X11031610Y-13857984D02*
X11012563Y-13857984D01*
X11012563Y-13857984D02*
X10993515Y-13848460D01*
X10993515Y-13848460D02*
X10983991Y-13838936D01*
X10983991Y-13838936D02*
X10974467Y-13819888D01*
X10974467Y-13819888D02*
X10964944Y-13781793D01*
X10964944Y-13781793D02*
X10964944Y-13734174D01*
X10964944Y-13734174D02*
X10974467Y-13696079D01*
X10974467Y-13696079D02*
X10983991Y-13677031D01*
X10983991Y-13677031D02*
X10993515Y-13667508D01*
X10993515Y-13667508D02*
X11012563Y-13657984D01*
X11203039Y-13657984D02*
X11222086Y-13657984D01*
X11222086Y-13657984D02*
X11241134Y-13667508D01*
X11241134Y-13667508D02*
X11250658Y-13677031D01*
X11250658Y-13677031D02*
X11260182Y-13696079D01*
X11260182Y-13696079D02*
X11269705Y-13734174D01*
X11269705Y-13734174D02*
X11269705Y-13781793D01*
X11269705Y-13781793D02*
X11260182Y-13819888D01*
X11260182Y-13819888D02*
X11250658Y-13838936D01*
X11250658Y-13838936D02*
X11241134Y-13848460D01*
X11241134Y-13848460D02*
X11222086Y-13857984D01*
X11222086Y-13857984D02*
X11203039Y-13857984D01*
X11203039Y-13857984D02*
X11183991Y-13848460D01*
X11183991Y-13848460D02*
X11174467Y-13838936D01*
X11174467Y-13838936D02*
X11164944Y-13819888D01*
X11164944Y-13819888D02*
X11155420Y-13781793D01*
X11155420Y-13781793D02*
X11155420Y-13734174D01*
X11155420Y-13734174D02*
X11164944Y-13696079D01*
X11164944Y-13696079D02*
X11174467Y-13677031D01*
X11174467Y-13677031D02*
X11183991Y-13667508D01*
X11183991Y-13667508D02*
X11203039Y-13657984D01*
X11355420Y-13857984D02*
X11355420Y-13724650D01*
X11355420Y-13743698D02*
X11364943Y-13734174D01*
X11364943Y-13734174D02*
X11383991Y-13724650D01*
X11383991Y-13724650D02*
X11412563Y-13724650D01*
X11412563Y-13724650D02*
X11431610Y-13734174D01*
X11431610Y-13734174D02*
X11441134Y-13753222D01*
X11441134Y-13753222D02*
X11441134Y-13857984D01*
X11441134Y-13753222D02*
X11450658Y-13734174D01*
X11450658Y-13734174D02*
X11469705Y-13724650D01*
X11469705Y-13724650D02*
X11498277Y-13724650D01*
X11498277Y-13724650D02*
X11517324Y-13734174D01*
X11517324Y-13734174D02*
X11526848Y-13753222D01*
X11526848Y-13753222D02*
X11526848Y-13857984D01*
X11622086Y-13857984D02*
X11622086Y-13724650D01*
X11622086Y-13743698D02*
X11631610Y-13734174D01*
X11631610Y-13734174D02*
X11650658Y-13724650D01*
X11650658Y-13724650D02*
X11679229Y-13724650D01*
X11679229Y-13724650D02*
X11698277Y-13734174D01*
X11698277Y-13734174D02*
X11707801Y-13753222D01*
X11707801Y-13753222D02*
X11707801Y-13857984D01*
X11707801Y-13753222D02*
X11717324Y-13734174D01*
X11717324Y-13734174D02*
X11736372Y-13724650D01*
X11736372Y-13724650D02*
X11764943Y-13724650D01*
X11764943Y-13724650D02*
X11783991Y-13734174D01*
X11783991Y-13734174D02*
X11793515Y-13753222D01*
X11793515Y-13753222D02*
X11793515Y-13857984D01*
X12183991Y-13648460D02*
X12012563Y-13905603D01*
X12441134Y-13657984D02*
X12460182Y-13657984D01*
X12460182Y-13657984D02*
X12479229Y-13667508D01*
X12479229Y-13667508D02*
X12488753Y-13677031D01*
X12488753Y-13677031D02*
X12498277Y-13696079D01*
X12498277Y-13696079D02*
X12507801Y-13734174D01*
X12507801Y-13734174D02*
X12507801Y-13781793D01*
X12507801Y-13781793D02*
X12498277Y-13819888D01*
X12498277Y-13819888D02*
X12488753Y-13838936D01*
X12488753Y-13838936D02*
X12479229Y-13848460D01*
X12479229Y-13848460D02*
X12460182Y-13857984D01*
X12460182Y-13857984D02*
X12441134Y-13857984D01*
X12441134Y-13857984D02*
X12422086Y-13848460D01*
X12422086Y-13848460D02*
X12412563Y-13838936D01*
X12412563Y-13838936D02*
X12403039Y-13819888D01*
X12403039Y-13819888D02*
X12393515Y-13781793D01*
X12393515Y-13781793D02*
X12393515Y-13734174D01*
X12393515Y-13734174D02*
X12403039Y-13696079D01*
X12403039Y-13696079D02*
X12412563Y-13677031D01*
X12412563Y-13677031D02*
X12422086Y-13667508D01*
X12422086Y-13667508D02*
X12441134Y-13657984D01*
X12593515Y-13838936D02*
X12603039Y-13848460D01*
X12603039Y-13848460D02*
X12593515Y-13857984D01*
X12593515Y-13857984D02*
X12583991Y-13848460D01*
X12583991Y-13848460D02*
X12593515Y-13838936D01*
X12593515Y-13838936D02*
X12593515Y-13857984D01*
X12726848Y-13657984D02*
X12745896Y-13657984D01*
X12745896Y-13657984D02*
X12764944Y-13667508D01*
X12764944Y-13667508D02*
X12774467Y-13677031D01*
X12774467Y-13677031D02*
X12783991Y-13696079D01*
X12783991Y-13696079D02*
X12793515Y-13734174D01*
X12793515Y-13734174D02*
X12793515Y-13781793D01*
X12793515Y-13781793D02*
X12783991Y-13819888D01*
X12783991Y-13819888D02*
X12774467Y-13838936D01*
X12774467Y-13838936D02*
X12764944Y-13848460D01*
X12764944Y-13848460D02*
X12745896Y-13857984D01*
X12745896Y-13857984D02*
X12726848Y-13857984D01*
X12726848Y-13857984D02*
X12707801Y-13848460D01*
X12707801Y-13848460D02*
X12698277Y-13838936D01*
X12698277Y-13838936D02*
X12688753Y-13819888D01*
X12688753Y-13819888D02*
X12679229Y-13781793D01*
X12679229Y-13781793D02*
X12679229Y-13734174D01*
X12679229Y-13734174D02*
X12688753Y-13696079D01*
X12688753Y-13696079D02*
X12698277Y-13677031D01*
X12698277Y-13677031D02*
X12707801Y-13667508D01*
X12707801Y-13667508D02*
X12726848Y-13657984D01*
X12860182Y-13657984D02*
X12983991Y-13657984D01*
X12983991Y-13657984D02*
X12917325Y-13734174D01*
X12917325Y-13734174D02*
X12945896Y-13734174D01*
X12945896Y-13734174D02*
X12964944Y-13743698D01*
X12964944Y-13743698D02*
X12974467Y-13753222D01*
X12974467Y-13753222D02*
X12983991Y-13772269D01*
X12983991Y-13772269D02*
X12983991Y-13819888D01*
X12983991Y-13819888D02*
X12974467Y-13838936D01*
X12974467Y-13838936D02*
X12964944Y-13848460D01*
X12964944Y-13848460D02*
X12945896Y-13857984D01*
X12945896Y-13857984D02*
X12888753Y-13857984D01*
X12888753Y-13857984D02*
X12869706Y-13848460D01*
X12869706Y-13848460D02*
X12860182Y-13838936D01*
X13174467Y-13857984D02*
X13060182Y-13857984D01*
X13117325Y-13857984D02*
X13117325Y-13657984D01*
X13117325Y-13657984D02*
X13098277Y-13686555D01*
X13098277Y-13686555D02*
X13079229Y-13705603D01*
X13079229Y-13705603D02*
X13060182Y-13715127D01*
X13355420Y-13657984D02*
X13260182Y-13657984D01*
X13260182Y-13657984D02*
X13250658Y-13753222D01*
X13250658Y-13753222D02*
X13260182Y-13743698D01*
X13260182Y-13743698D02*
X13279229Y-13734174D01*
X13279229Y-13734174D02*
X13326848Y-13734174D01*
X13326848Y-13734174D02*
X13345896Y-13743698D01*
X13345896Y-13743698D02*
X13355420Y-13753222D01*
X13355420Y-13753222D02*
X13364944Y-13772269D01*
X13364944Y-13772269D02*
X13364944Y-13819888D01*
X13364944Y-13819888D02*
X13355420Y-13838936D01*
X13355420Y-13838936D02*
X13345896Y-13848460D01*
X13345896Y-13848460D02*
X13326848Y-13857984D01*
X13326848Y-13857984D02*
X13279229Y-13857984D01*
X13279229Y-13857984D02*
X13260182Y-13848460D01*
X13260182Y-13848460D02*
X13250658Y-13838936D01*
X13441134Y-13657984D02*
X13441134Y-13696079D01*
X13517325Y-13657984D02*
X13517325Y-13696079D01*
X13812563Y-13934174D02*
X13803039Y-13924650D01*
X13803039Y-13924650D02*
X13783991Y-13896079D01*
X13783991Y-13896079D02*
X13774468Y-13877031D01*
X13774468Y-13877031D02*
X13764944Y-13848460D01*
X13764944Y-13848460D02*
X13755420Y-13800841D01*
X13755420Y-13800841D02*
X13755420Y-13762746D01*
X13755420Y-13762746D02*
X13764944Y-13715127D01*
X13764944Y-13715127D02*
X13774468Y-13686555D01*
X13774468Y-13686555D02*
X13783991Y-13667508D01*
X13783991Y-13667508D02*
X13803039Y-13638936D01*
X13803039Y-13638936D02*
X13812563Y-13629412D01*
X13993515Y-13857984D02*
X13879229Y-13857984D01*
X13936372Y-13857984D02*
X13936372Y-13657984D01*
X13936372Y-13657984D02*
X13917325Y-13686555D01*
X13917325Y-13686555D02*
X13898277Y-13705603D01*
X13898277Y-13705603D02*
X13879229Y-13715127D01*
X14164944Y-13724650D02*
X14164944Y-13857984D01*
X14117325Y-13648460D02*
X14069706Y-13791317D01*
X14069706Y-13791317D02*
X14193515Y-13791317D01*
X14422087Y-13857984D02*
X14422087Y-13657984D01*
X14507801Y-13857984D02*
X14507801Y-13753222D01*
X14507801Y-13753222D02*
X14498277Y-13734174D01*
X14498277Y-13734174D02*
X14479230Y-13724650D01*
X14479230Y-13724650D02*
X14450658Y-13724650D01*
X14450658Y-13724650D02*
X14431610Y-13734174D01*
X14431610Y-13734174D02*
X14422087Y-13743698D01*
X14631610Y-13857984D02*
X14612563Y-13848460D01*
X14612563Y-13848460D02*
X14603039Y-13838936D01*
X14603039Y-13838936D02*
X14593515Y-13819888D01*
X14593515Y-13819888D02*
X14593515Y-13762746D01*
X14593515Y-13762746D02*
X14603039Y-13743698D01*
X14603039Y-13743698D02*
X14612563Y-13734174D01*
X14612563Y-13734174D02*
X14631610Y-13724650D01*
X14631610Y-13724650D02*
X14660182Y-13724650D01*
X14660182Y-13724650D02*
X14679230Y-13734174D01*
X14679230Y-13734174D02*
X14688753Y-13743698D01*
X14688753Y-13743698D02*
X14698277Y-13762746D01*
X14698277Y-13762746D02*
X14698277Y-13819888D01*
X14698277Y-13819888D02*
X14688753Y-13838936D01*
X14688753Y-13838936D02*
X14679230Y-13848460D01*
X14679230Y-13848460D02*
X14660182Y-13857984D01*
X14660182Y-13857984D02*
X14631610Y-13857984D01*
X14812563Y-13857984D02*
X14793515Y-13848460D01*
X14793515Y-13848460D02*
X14783991Y-13829412D01*
X14783991Y-13829412D02*
X14783991Y-13657984D01*
X14964944Y-13848460D02*
X14945896Y-13857984D01*
X14945896Y-13857984D02*
X14907801Y-13857984D01*
X14907801Y-13857984D02*
X14888753Y-13848460D01*
X14888753Y-13848460D02*
X14879230Y-13829412D01*
X14879230Y-13829412D02*
X14879230Y-13753222D01*
X14879230Y-13753222D02*
X14888753Y-13734174D01*
X14888753Y-13734174D02*
X14907801Y-13724650D01*
X14907801Y-13724650D02*
X14945896Y-13724650D01*
X14945896Y-13724650D02*
X14964944Y-13734174D01*
X14964944Y-13734174D02*
X14974468Y-13753222D01*
X14974468Y-13753222D02*
X14974468Y-13772269D01*
X14974468Y-13772269D02*
X14879230Y-13791317D01*
X15050658Y-13848460D02*
X15069706Y-13857984D01*
X15069706Y-13857984D02*
X15107801Y-13857984D01*
X15107801Y-13857984D02*
X15126849Y-13848460D01*
X15126849Y-13848460D02*
X15136372Y-13829412D01*
X15136372Y-13829412D02*
X15136372Y-13819888D01*
X15136372Y-13819888D02*
X15126849Y-13800841D01*
X15126849Y-13800841D02*
X15107801Y-13791317D01*
X15107801Y-13791317D02*
X15079230Y-13791317D01*
X15079230Y-13791317D02*
X15060182Y-13781793D01*
X15060182Y-13781793D02*
X15050658Y-13762746D01*
X15050658Y-13762746D02*
X15050658Y-13753222D01*
X15050658Y-13753222D02*
X15060182Y-13734174D01*
X15060182Y-13734174D02*
X15079230Y-13724650D01*
X15079230Y-13724650D02*
X15107801Y-13724650D01*
X15107801Y-13724650D02*
X15126849Y-13734174D01*
X15203039Y-13934174D02*
X15212563Y-13924650D01*
X15212563Y-13924650D02*
X15231611Y-13896079D01*
X15231611Y-13896079D02*
X15241134Y-13877031D01*
X15241134Y-13877031D02*
X15250658Y-13848460D01*
X15250658Y-13848460D02*
X15260182Y-13800841D01*
X15260182Y-13800841D02*
X15260182Y-13762746D01*
X15260182Y-13762746D02*
X15250658Y-13715127D01*
X15250658Y-13715127D02*
X15241134Y-13686555D01*
X15241134Y-13686555D02*
X15231611Y-13667508D01*
X15231611Y-13667508D02*
X15212563Y-13638936D01*
X15212563Y-13638936D02*
X15203039Y-13629412D01*
D13*
X10172500Y-13965500D02*
X10172500Y-14095500D01*
X10107500Y-14030500D02*
X10237500Y-14030500D01*
D11*
X10603039Y-14121984D02*
X10488753Y-14121984D01*
X10545896Y-14121984D02*
X10545896Y-13921984D01*
X10545896Y-13921984D02*
X10526848Y-13950555D01*
X10526848Y-13950555D02*
X10507801Y-13969603D01*
X10507801Y-13969603D02*
X10488753Y-13979127D01*
X10688753Y-14102936D02*
X10698277Y-14112460D01*
X10698277Y-14112460D02*
X10688753Y-14121984D01*
X10688753Y-14121984D02*
X10679229Y-14112460D01*
X10679229Y-14112460D02*
X10688753Y-14102936D01*
X10688753Y-14102936D02*
X10688753Y-14121984D01*
X10764944Y-13921984D02*
X10888753Y-13921984D01*
X10888753Y-13921984D02*
X10822086Y-13998174D01*
X10822086Y-13998174D02*
X10850658Y-13998174D01*
X10850658Y-13998174D02*
X10869705Y-14007698D01*
X10869705Y-14007698D02*
X10879229Y-14017222D01*
X10879229Y-14017222D02*
X10888753Y-14036269D01*
X10888753Y-14036269D02*
X10888753Y-14083888D01*
X10888753Y-14083888D02*
X10879229Y-14102936D01*
X10879229Y-14102936D02*
X10869705Y-14112460D01*
X10869705Y-14112460D02*
X10850658Y-14121984D01*
X10850658Y-14121984D02*
X10793515Y-14121984D01*
X10793515Y-14121984D02*
X10774467Y-14112460D01*
X10774467Y-14112460D02*
X10764944Y-14102936D01*
X11012563Y-13921984D02*
X11031610Y-13921984D01*
X11031610Y-13921984D02*
X11050658Y-13931508D01*
X11050658Y-13931508D02*
X11060182Y-13941031D01*
X11060182Y-13941031D02*
X11069705Y-13960079D01*
X11069705Y-13960079D02*
X11079229Y-13998174D01*
X11079229Y-13998174D02*
X11079229Y-14045793D01*
X11079229Y-14045793D02*
X11069705Y-14083888D01*
X11069705Y-14083888D02*
X11060182Y-14102936D01*
X11060182Y-14102936D02*
X11050658Y-14112460D01*
X11050658Y-14112460D02*
X11031610Y-14121984D01*
X11031610Y-14121984D02*
X11012563Y-14121984D01*
X11012563Y-14121984D02*
X10993515Y-14112460D01*
X10993515Y-14112460D02*
X10983991Y-14102936D01*
X10983991Y-14102936D02*
X10974467Y-14083888D01*
X10974467Y-14083888D02*
X10964944Y-14045793D01*
X10964944Y-14045793D02*
X10964944Y-13998174D01*
X10964944Y-13998174D02*
X10974467Y-13960079D01*
X10974467Y-13960079D02*
X10983991Y-13941031D01*
X10983991Y-13941031D02*
X10993515Y-13931508D01*
X10993515Y-13931508D02*
X11012563Y-13921984D01*
X11203039Y-13921984D02*
X11222086Y-13921984D01*
X11222086Y-13921984D02*
X11241134Y-13931508D01*
X11241134Y-13931508D02*
X11250658Y-13941031D01*
X11250658Y-13941031D02*
X11260182Y-13960079D01*
X11260182Y-13960079D02*
X11269705Y-13998174D01*
X11269705Y-13998174D02*
X11269705Y-14045793D01*
X11269705Y-14045793D02*
X11260182Y-14083888D01*
X11260182Y-14083888D02*
X11250658Y-14102936D01*
X11250658Y-14102936D02*
X11241134Y-14112460D01*
X11241134Y-14112460D02*
X11222086Y-14121984D01*
X11222086Y-14121984D02*
X11203039Y-14121984D01*
X11203039Y-14121984D02*
X11183991Y-14112460D01*
X11183991Y-14112460D02*
X11174467Y-14102936D01*
X11174467Y-14102936D02*
X11164944Y-14083888D01*
X11164944Y-14083888D02*
X11155420Y-14045793D01*
X11155420Y-14045793D02*
X11155420Y-13998174D01*
X11155420Y-13998174D02*
X11164944Y-13960079D01*
X11164944Y-13960079D02*
X11174467Y-13941031D01*
X11174467Y-13941031D02*
X11183991Y-13931508D01*
X11183991Y-13931508D02*
X11203039Y-13921984D01*
X11355420Y-14121984D02*
X11355420Y-13988650D01*
X11355420Y-14007698D02*
X11364943Y-13998174D01*
X11364943Y-13998174D02*
X11383991Y-13988650D01*
X11383991Y-13988650D02*
X11412563Y-13988650D01*
X11412563Y-13988650D02*
X11431610Y-13998174D01*
X11431610Y-13998174D02*
X11441134Y-14017222D01*
X11441134Y-14017222D02*
X11441134Y-14121984D01*
X11441134Y-14017222D02*
X11450658Y-13998174D01*
X11450658Y-13998174D02*
X11469705Y-13988650D01*
X11469705Y-13988650D02*
X11498277Y-13988650D01*
X11498277Y-13988650D02*
X11517324Y-13998174D01*
X11517324Y-13998174D02*
X11526848Y-14017222D01*
X11526848Y-14017222D02*
X11526848Y-14121984D01*
X11622086Y-14121984D02*
X11622086Y-13988650D01*
X11622086Y-14007698D02*
X11631610Y-13998174D01*
X11631610Y-13998174D02*
X11650658Y-13988650D01*
X11650658Y-13988650D02*
X11679229Y-13988650D01*
X11679229Y-13988650D02*
X11698277Y-13998174D01*
X11698277Y-13998174D02*
X11707801Y-14017222D01*
X11707801Y-14017222D02*
X11707801Y-14121984D01*
X11707801Y-14017222D02*
X11717324Y-13998174D01*
X11717324Y-13998174D02*
X11736372Y-13988650D01*
X11736372Y-13988650D02*
X11764943Y-13988650D01*
X11764943Y-13988650D02*
X11783991Y-13998174D01*
X11783991Y-13998174D02*
X11793515Y-14017222D01*
X11793515Y-14017222D02*
X11793515Y-14121984D01*
X12183991Y-13912460D02*
X12012563Y-14169603D01*
X12441134Y-13921984D02*
X12460182Y-13921984D01*
X12460182Y-13921984D02*
X12479229Y-13931508D01*
X12479229Y-13931508D02*
X12488753Y-13941031D01*
X12488753Y-13941031D02*
X12498277Y-13960079D01*
X12498277Y-13960079D02*
X12507801Y-13998174D01*
X12507801Y-13998174D02*
X12507801Y-14045793D01*
X12507801Y-14045793D02*
X12498277Y-14083888D01*
X12498277Y-14083888D02*
X12488753Y-14102936D01*
X12488753Y-14102936D02*
X12479229Y-14112460D01*
X12479229Y-14112460D02*
X12460182Y-14121984D01*
X12460182Y-14121984D02*
X12441134Y-14121984D01*
X12441134Y-14121984D02*
X12422086Y-14112460D01*
X12422086Y-14112460D02*
X12412563Y-14102936D01*
X12412563Y-14102936D02*
X12403039Y-14083888D01*
X12403039Y-14083888D02*
X12393515Y-14045793D01*
X12393515Y-14045793D02*
X12393515Y-13998174D01*
X12393515Y-13998174D02*
X12403039Y-13960079D01*
X12403039Y-13960079D02*
X12412563Y-13941031D01*
X12412563Y-13941031D02*
X12422086Y-13931508D01*
X12422086Y-13931508D02*
X12441134Y-13921984D01*
X12593515Y-14102936D02*
X12603039Y-14112460D01*
X12603039Y-14112460D02*
X12593515Y-14121984D01*
X12593515Y-14121984D02*
X12583991Y-14112460D01*
X12583991Y-14112460D02*
X12593515Y-14102936D01*
X12593515Y-14102936D02*
X12593515Y-14121984D01*
X12726848Y-13921984D02*
X12745896Y-13921984D01*
X12745896Y-13921984D02*
X12764944Y-13931508D01*
X12764944Y-13931508D02*
X12774467Y-13941031D01*
X12774467Y-13941031D02*
X12783991Y-13960079D01*
X12783991Y-13960079D02*
X12793515Y-13998174D01*
X12793515Y-13998174D02*
X12793515Y-14045793D01*
X12793515Y-14045793D02*
X12783991Y-14083888D01*
X12783991Y-14083888D02*
X12774467Y-14102936D01*
X12774467Y-14102936D02*
X12764944Y-14112460D01*
X12764944Y-14112460D02*
X12745896Y-14121984D01*
X12745896Y-14121984D02*
X12726848Y-14121984D01*
X12726848Y-14121984D02*
X12707801Y-14112460D01*
X12707801Y-14112460D02*
X12698277Y-14102936D01*
X12698277Y-14102936D02*
X12688753Y-14083888D01*
X12688753Y-14083888D02*
X12679229Y-14045793D01*
X12679229Y-14045793D02*
X12679229Y-13998174D01*
X12679229Y-13998174D02*
X12688753Y-13960079D01*
X12688753Y-13960079D02*
X12698277Y-13941031D01*
X12698277Y-13941031D02*
X12707801Y-13931508D01*
X12707801Y-13931508D02*
X12726848Y-13921984D01*
X12974467Y-13921984D02*
X12879229Y-13921984D01*
X12879229Y-13921984D02*
X12869706Y-14017222D01*
X12869706Y-14017222D02*
X12879229Y-14007698D01*
X12879229Y-14007698D02*
X12898277Y-13998174D01*
X12898277Y-13998174D02*
X12945896Y-13998174D01*
X12945896Y-13998174D02*
X12964944Y-14007698D01*
X12964944Y-14007698D02*
X12974467Y-14017222D01*
X12974467Y-14017222D02*
X12983991Y-14036269D01*
X12983991Y-14036269D02*
X12983991Y-14083888D01*
X12983991Y-14083888D02*
X12974467Y-14102936D01*
X12974467Y-14102936D02*
X12964944Y-14112460D01*
X12964944Y-14112460D02*
X12945896Y-14121984D01*
X12945896Y-14121984D02*
X12898277Y-14121984D01*
X12898277Y-14121984D02*
X12879229Y-14112460D01*
X12879229Y-14112460D02*
X12869706Y-14102936D01*
X13174467Y-14121984D02*
X13060182Y-14121984D01*
X13117325Y-14121984D02*
X13117325Y-13921984D01*
X13117325Y-13921984D02*
X13098277Y-13950555D01*
X13098277Y-13950555D02*
X13079229Y-13969603D01*
X13079229Y-13969603D02*
X13060182Y-13979127D01*
X13250658Y-13941031D02*
X13260182Y-13931508D01*
X13260182Y-13931508D02*
X13279229Y-13921984D01*
X13279229Y-13921984D02*
X13326848Y-13921984D01*
X13326848Y-13921984D02*
X13345896Y-13931508D01*
X13345896Y-13931508D02*
X13355420Y-13941031D01*
X13355420Y-13941031D02*
X13364944Y-13960079D01*
X13364944Y-13960079D02*
X13364944Y-13979127D01*
X13364944Y-13979127D02*
X13355420Y-14007698D01*
X13355420Y-14007698D02*
X13241134Y-14121984D01*
X13241134Y-14121984D02*
X13364944Y-14121984D01*
X13441134Y-13921984D02*
X13441134Y-13960079D01*
X13517325Y-13921984D02*
X13517325Y-13960079D01*
X13812563Y-14198174D02*
X13803039Y-14188650D01*
X13803039Y-14188650D02*
X13783991Y-14160079D01*
X13783991Y-14160079D02*
X13774468Y-14141031D01*
X13774468Y-14141031D02*
X13764944Y-14112460D01*
X13764944Y-14112460D02*
X13755420Y-14064841D01*
X13755420Y-14064841D02*
X13755420Y-14026746D01*
X13755420Y-14026746D02*
X13764944Y-13979127D01*
X13764944Y-13979127D02*
X13774468Y-13950555D01*
X13774468Y-13950555D02*
X13783991Y-13931508D01*
X13783991Y-13931508D02*
X13803039Y-13902936D01*
X13803039Y-13902936D02*
X13812563Y-13893412D01*
X13869706Y-13921984D02*
X14003039Y-13921984D01*
X14003039Y-13921984D02*
X13917325Y-14121984D01*
X14231610Y-14121984D02*
X14231610Y-13921984D01*
X14317325Y-14121984D02*
X14317325Y-14017222D01*
X14317325Y-14017222D02*
X14307801Y-13998174D01*
X14307801Y-13998174D02*
X14288753Y-13988650D01*
X14288753Y-13988650D02*
X14260182Y-13988650D01*
X14260182Y-13988650D02*
X14241134Y-13998174D01*
X14241134Y-13998174D02*
X14231610Y-14007698D01*
X14441134Y-14121984D02*
X14422087Y-14112460D01*
X14422087Y-14112460D02*
X14412563Y-14102936D01*
X14412563Y-14102936D02*
X14403039Y-14083888D01*
X14403039Y-14083888D02*
X14403039Y-14026746D01*
X14403039Y-14026746D02*
X14412563Y-14007698D01*
X14412563Y-14007698D02*
X14422087Y-13998174D01*
X14422087Y-13998174D02*
X14441134Y-13988650D01*
X14441134Y-13988650D02*
X14469706Y-13988650D01*
X14469706Y-13988650D02*
X14488753Y-13998174D01*
X14488753Y-13998174D02*
X14498277Y-14007698D01*
X14498277Y-14007698D02*
X14507801Y-14026746D01*
X14507801Y-14026746D02*
X14507801Y-14083888D01*
X14507801Y-14083888D02*
X14498277Y-14102936D01*
X14498277Y-14102936D02*
X14488753Y-14112460D01*
X14488753Y-14112460D02*
X14469706Y-14121984D01*
X14469706Y-14121984D02*
X14441134Y-14121984D01*
X14622087Y-14121984D02*
X14603039Y-14112460D01*
X14603039Y-14112460D02*
X14593515Y-14093412D01*
X14593515Y-14093412D02*
X14593515Y-13921984D01*
X14774468Y-14112460D02*
X14755420Y-14121984D01*
X14755420Y-14121984D02*
X14717325Y-14121984D01*
X14717325Y-14121984D02*
X14698277Y-14112460D01*
X14698277Y-14112460D02*
X14688753Y-14093412D01*
X14688753Y-14093412D02*
X14688753Y-14017222D01*
X14688753Y-14017222D02*
X14698277Y-13998174D01*
X14698277Y-13998174D02*
X14717325Y-13988650D01*
X14717325Y-13988650D02*
X14755420Y-13988650D01*
X14755420Y-13988650D02*
X14774468Y-13998174D01*
X14774468Y-13998174D02*
X14783991Y-14017222D01*
X14783991Y-14017222D02*
X14783991Y-14036269D01*
X14783991Y-14036269D02*
X14688753Y-14055317D01*
X14860182Y-14112460D02*
X14879230Y-14121984D01*
X14879230Y-14121984D02*
X14917325Y-14121984D01*
X14917325Y-14121984D02*
X14936372Y-14112460D01*
X14936372Y-14112460D02*
X14945896Y-14093412D01*
X14945896Y-14093412D02*
X14945896Y-14083888D01*
X14945896Y-14083888D02*
X14936372Y-14064841D01*
X14936372Y-14064841D02*
X14917325Y-14055317D01*
X14917325Y-14055317D02*
X14888753Y-14055317D01*
X14888753Y-14055317D02*
X14869706Y-14045793D01*
X14869706Y-14045793D02*
X14860182Y-14026746D01*
X14860182Y-14026746D02*
X14860182Y-14017222D01*
X14860182Y-14017222D02*
X14869706Y-13998174D01*
X14869706Y-13998174D02*
X14888753Y-13988650D01*
X14888753Y-13988650D02*
X14917325Y-13988650D01*
X14917325Y-13988650D02*
X14936372Y-13998174D01*
X15012563Y-14198174D02*
X15022087Y-14188650D01*
X15022087Y-14188650D02*
X15041134Y-14160079D01*
X15041134Y-14160079D02*
X15050658Y-14141031D01*
X15050658Y-14141031D02*
X15060182Y-14112460D01*
X15060182Y-14112460D02*
X15069706Y-14064841D01*
X15069706Y-14064841D02*
X15069706Y-14026746D01*
X15069706Y-14026746D02*
X15060182Y-13979127D01*
X15060182Y-13979127D02*
X15050658Y-13950555D01*
X15050658Y-13950555D02*
X15041134Y-13931508D01*
X15041134Y-13931508D02*
X15022087Y-13902936D01*
X15022087Y-13902936D02*
X15012563Y-13893412D01*
M02*
