%TF.GenerationSoftware,KiCad,Pcbnew,9.0.7*%
%TF.CreationDate,2026-03-14T20:39:31+05:30*%
%TF.ProjectId,Instrumentation_Amplifier_LM741,496e7374-7275-46d6-956e-746174696f6e,rev?*%
%TF.SameCoordinates,Original*%
%TF.FileFunction,Soldermask,Bot*%
%TF.FilePolarity,Negative*%
%FSLAX46Y46*%
G04 Gerber Fmt 4.6, Leading zero omitted, Abs format (unit mm)*
G04 Created by KiCad (PCBNEW 9.0.7) date 2026-03-14 20:39:31*
%MOMM*%
%LPD*%
G01*
G04 APERTURE LIST*
G04 Aperture macros list*
%AMRoundRect*
0 Rectangle with rounded corners*
0 $1 Rounding radius*
0 $2 $3 $4 $5 $6 $7 $8 $9 X,Y pos of 4 corners*
0 Add a 4 corners polygon primitive as box body*
4,1,4,$2,$3,$4,$5,$6,$7,$8,$9,$2,$3,0*
0 Add four circle primitives for the rounded corners*
1,1,$1+$1,$2,$3*
1,1,$1+$1,$4,$5*
1,1,$1+$1,$6,$7*
1,1,$1+$1,$8,$9*
0 Add four rect primitives between the rounded corners*
20,1,$1+$1,$2,$3,$4,$5,0*
20,1,$1+$1,$4,$5,$6,$7,0*
20,1,$1+$1,$6,$7,$8,$9,0*
20,1,$1+$1,$8,$9,$2,$3,0*%
G04 Aperture macros list end*
%ADD10C,1.600000*%
%ADD11RoundRect,0.102000X-0.570000X0.570000X-0.570000X-0.570000X0.570000X-0.570000X0.570000X0.570000X0*%
%ADD12C,1.344000*%
%ADD13RoundRect,0.250000X-1.050000X1.050000X-1.050000X-1.050000X1.050000X-1.050000X1.050000X1.050000X0*%
%ADD14C,2.600000*%
%ADD15RoundRect,0.250000X-1.050000X-1.050000X1.050000X-1.050000X1.050000X1.050000X-1.050000X1.050000X0*%
%ADD16RoundRect,0.102000X0.570000X-0.570000X0.570000X0.570000X-0.570000X0.570000X-0.570000X-0.570000X0*%
%TA.AperFunction,Profile*%
%ADD17C,0.050000*%
%TD*%
G04 APERTURE END LIST*
D10*
%TO.C,R7*%
X136000000Y-101400000D03*
X125840000Y-101400000D03*
%TD*%
D11*
%TO.C,U3*%
X144810000Y-89630000D03*
D12*
X142270000Y-89630000D03*
X139730000Y-89630000D03*
X137190000Y-89630000D03*
X137190000Y-97570000D03*
X139730000Y-97570000D03*
X142270000Y-97570000D03*
X144810000Y-97570000D03*
%TD*%
D13*
%TO.C,J3*%
X111350000Y-76150000D03*
D14*
X111350000Y-81150000D03*
%TD*%
D10*
%TO.C,R2*%
X136080000Y-105800000D03*
X125920000Y-105800000D03*
%TD*%
%TO.C,R4*%
X141600000Y-76920000D03*
X141600000Y-87080000D03*
%TD*%
%TO.C,R5*%
X125920000Y-110600000D03*
X136080000Y-110600000D03*
%TD*%
%TO.C,R6*%
X140200000Y-110880000D03*
X140200000Y-100720000D03*
%TD*%
D13*
%TO.C,J1*%
X111600000Y-88150000D03*
D14*
X111600000Y-93150000D03*
X111600000Y-98150000D03*
%TD*%
D15*
%TO.C,J2*%
X128800000Y-120200000D03*
D14*
X133800000Y-120200000D03*
%TD*%
D11*
%TO.C,U2*%
X128400000Y-90060000D03*
D12*
X125860000Y-90060000D03*
X123320000Y-90060000D03*
X120780000Y-90060000D03*
X120780000Y-98000000D03*
X123320000Y-98000000D03*
X125860000Y-98000000D03*
X128400000Y-98000000D03*
%TD*%
D10*
%TO.C,R1*%
X121600000Y-76320000D03*
X121600000Y-86480000D03*
%TD*%
%TO.C,R3*%
X125440000Y-86400000D03*
X135600000Y-86400000D03*
%TD*%
D16*
%TO.C,U1*%
X126590000Y-81770000D03*
D12*
X129130000Y-81770000D03*
X131670000Y-81770000D03*
X134210000Y-81770000D03*
X134210000Y-73830000D03*
X131670000Y-73830000D03*
X129130000Y-73830000D03*
X126590000Y-73830000D03*
%TD*%
D17*
X102400000Y-68400000D02*
X148600000Y-68400000D01*
X148600000Y-128600000D01*
X102400000Y-128600000D01*
X102400000Y-68400000D01*
M02*
