%TF.GenerationSoftware,KiCad,Pcbnew,9.0.7*%
%TF.CreationDate,2026-03-14T20:39:30+05:30*%
%TF.ProjectId,Instrumentation_Amplifier_LM741,496e7374-7275-46d6-956e-746174696f6e,rev?*%
%TF.SameCoordinates,Original*%
%TF.FileFunction,Copper,L2,Bot*%
%TF.FilePolarity,Positive*%
%FSLAX46Y46*%
G04 Gerber Fmt 4.6, Leading zero omitted, Abs format (unit mm)*
G04 Created by KiCad (PCBNEW 9.0.7) date 2026-03-14 20:39:30*
%MOMM*%
%LPD*%
G01*
G04 APERTURE LIST*
G04 Aperture macros list*
%AMRoundRect*
0 Rectangle with rounded corners*
0 $1 Rounding radius*
0 $2 $3 $4 $5 $6 $7 $8 $9 X,Y pos of 4 corners*
0 Add a 4 corners polygon primitive as box body*
4,1,4,$2,$3,$4,$5,$6,$7,$8,$9,$2,$3,0*
0 Add four circle primitives for the rounded corners*
1,1,$1+$1,$2,$3*
1,1,$1+$1,$4,$5*
1,1,$1+$1,$6,$7*
1,1,$1+$1,$8,$9*
0 Add four rect primitives between the rounded corners*
20,1,$1+$1,$2,$3,$4,$5,0*
20,1,$1+$1,$4,$5,$6,$7,0*
20,1,$1+$1,$6,$7,$8,$9,0*
20,1,$1+$1,$8,$9,$2,$3,0*%
G04 Aperture macros list end*
%TA.AperFunction,ComponentPad*%
%ADD10C,1.600000*%
%TD*%
%TA.AperFunction,ComponentPad*%
%ADD11R,1.140000X1.140000*%
%TD*%
%TA.AperFunction,ComponentPad*%
%ADD12C,1.140000*%
%TD*%
%TA.AperFunction,ComponentPad*%
%ADD13RoundRect,0.250000X-1.050000X1.050000X-1.050000X-1.050000X1.050000X-1.050000X1.050000X1.050000X0*%
%TD*%
%TA.AperFunction,ComponentPad*%
%ADD14C,2.600000*%
%TD*%
%TA.AperFunction,ComponentPad*%
%ADD15RoundRect,0.250000X-1.050000X-1.050000X1.050000X-1.050000X1.050000X1.050000X-1.050000X1.050000X0*%
%TD*%
%TA.AperFunction,Conductor*%
%ADD16C,0.200000*%
%TD*%
%TA.AperFunction,Profile*%
%ADD17C,0.050000*%
%TD*%
G04 APERTURE END LIST*
D10*
%TO.P,R7,1*%
%TO.N,Net-(U3-+)*%
X136000000Y-101400000D03*
%TO.P,R7,2*%
%TO.N,GND*%
X125840000Y-101400000D03*
%TD*%
D11*
%TO.P,U3,1,NULL*%
%TO.N,unconnected-(U3-NULL-Pad1)*%
X144810000Y-89630000D03*
D12*
%TO.P,U3,2,-*%
%TO.N,Net-(U3--)*%
X142270000Y-89630000D03*
%TO.P,U3,3,+*%
%TO.N,Net-(U3-+)*%
X139730000Y-89630000D03*
%TO.P,U3,4,V-*%
%TO.N,Net-(J1-Pin_1)*%
X137190000Y-89630000D03*
%TO.P,U3,5,NULL*%
%TO.N,unconnected-(U3-NULL-Pad5)*%
X137190000Y-97570000D03*
%TO.P,U3,6*%
%TO.N,/Vout*%
X139730000Y-97570000D03*
%TO.P,U3,7,V+*%
%TO.N,Net-(J1-Pin_3)*%
X142270000Y-97570000D03*
%TO.P,U3,8,NC*%
%TO.N,unconnected-(U3-NC-Pad8)*%
X144810000Y-97570000D03*
%TD*%
D13*
%TO.P,J3,1,Pin_1*%
%TO.N,/V1*%
X111350000Y-76150000D03*
D14*
%TO.P,J3,2,Pin_2*%
%TO.N,/V2*%
X111350000Y-81150000D03*
%TD*%
D10*
%TO.P,R2,1*%
%TO.N,Net-(U2--)*%
X136080000Y-105800000D03*
%TO.P,R2,2*%
%TO.N,Net-(R2-Pad2)*%
X125920000Y-105800000D03*
%TD*%
%TO.P,R4,1*%
%TO.N,Net-(R1-Pad1)*%
X141600000Y-76920000D03*
%TO.P,R4,2*%
%TO.N,Net-(U3-+)*%
X141600000Y-87080000D03*
%TD*%
%TO.P,R5,1*%
%TO.N,Net-(R2-Pad2)*%
X125920000Y-110600000D03*
%TO.P,R5,2*%
%TO.N,Net-(U3--)*%
X136080000Y-110600000D03*
%TD*%
%TO.P,R6,1*%
%TO.N,Net-(U3--)*%
X140200000Y-110880000D03*
%TO.P,R6,2*%
%TO.N,/Vout*%
X140200000Y-100720000D03*
%TD*%
D13*
%TO.P,J1,1,Pin_1*%
%TO.N,Net-(J1-Pin_1)*%
X111600000Y-88150000D03*
D14*
%TO.P,J1,2,Pin_2*%
%TO.N,GND*%
X111600000Y-93150000D03*
%TO.P,J1,3,Pin_3*%
%TO.N,Net-(J1-Pin_3)*%
X111600000Y-98150000D03*
%TD*%
D15*
%TO.P,J2,1,Pin_1*%
%TO.N,/Vout*%
X128800000Y-120200000D03*
D14*
%TO.P,J2,2,Pin_2*%
%TO.N,GND*%
X133800000Y-120200000D03*
%TD*%
D11*
%TO.P,U2,1,NULL*%
%TO.N,unconnected-(U2-NULL-Pad1)*%
X128400000Y-90060000D03*
D12*
%TO.P,U2,2,-*%
%TO.N,Net-(U2--)*%
X125860000Y-90060000D03*
%TO.P,U2,3,+*%
%TO.N,/V2*%
X123320000Y-90060000D03*
%TO.P,U2,4,V-*%
%TO.N,Net-(J1-Pin_1)*%
X120780000Y-90060000D03*
%TO.P,U2,5,NULL*%
%TO.N,unconnected-(U2-NULL-Pad5)*%
X120780000Y-98000000D03*
%TO.P,U2,6*%
%TO.N,Net-(R2-Pad2)*%
X123320000Y-98000000D03*
%TO.P,U2,7,V+*%
%TO.N,Net-(J1-Pin_3)*%
X125860000Y-98000000D03*
%TO.P,U2,8,NC*%
%TO.N,unconnected-(U2-NC-Pad8)*%
X128400000Y-98000000D03*
%TD*%
D10*
%TO.P,R1,1*%
%TO.N,Net-(R1-Pad1)*%
X121600000Y-76320000D03*
%TO.P,R1,2*%
%TO.N,Net-(U1--)*%
X121600000Y-86480000D03*
%TD*%
%TO.P,R3,1*%
%TO.N,Net-(U1--)*%
X125440000Y-86400000D03*
%TO.P,R3,2*%
%TO.N,Net-(U2--)*%
X135600000Y-86400000D03*
%TD*%
D11*
%TO.P,U1,1,NULL*%
%TO.N,unconnected-(U1-NULL-Pad1)*%
X126590000Y-81770000D03*
D12*
%TO.P,U1,2,-*%
%TO.N,Net-(U1--)*%
X129130000Y-81770000D03*
%TO.P,U1,3,+*%
%TO.N,/V1*%
X131670000Y-81770000D03*
%TO.P,U1,4,V-*%
%TO.N,Net-(J1-Pin_1)*%
X134210000Y-81770000D03*
%TO.P,U1,5,NULL*%
%TO.N,unconnected-(U1-NULL-Pad5)*%
X134210000Y-73830000D03*
%TO.P,U1,6*%
%TO.N,Net-(R1-Pad1)*%
X131670000Y-73830000D03*
%TO.P,U1,7,V+*%
%TO.N,Net-(J1-Pin_3)*%
X129130000Y-73830000D03*
%TO.P,U1,8,NC*%
%TO.N,unconnected-(U1-NC-Pad8)*%
X126590000Y-73830000D03*
%TD*%
D16*
%TO.N,Net-(J1-Pin_3)*%
X129130000Y-73830000D02*
X138061000Y-82761000D01*
X126731000Y-98871000D02*
X125860000Y-98000000D01*
X138061000Y-89990781D02*
X130922781Y-97129000D01*
X140969000Y-98871000D02*
X126731000Y-98871000D01*
X130922781Y-97129000D02*
X126731000Y-97129000D01*
X126731000Y-97129000D02*
X125860000Y-98000000D01*
X124710000Y-96850000D02*
X125860000Y-98000000D01*
X138061000Y-82761000D02*
X138061000Y-89990781D01*
X111600000Y-98150000D02*
X112900000Y-96850000D01*
X112900000Y-96850000D02*
X124710000Y-96850000D01*
X142270000Y-97570000D02*
X140969000Y-98871000D01*
%TO.N,Net-(J1-Pin_1)*%
X118870000Y-88150000D02*
X120780000Y-90060000D01*
X121651000Y-90931000D02*
X135889000Y-90931000D01*
X120780000Y-90060000D02*
X121651000Y-90931000D01*
X111600000Y-88150000D02*
X118870000Y-88150000D01*
X135889000Y-90931000D02*
X137190000Y-89630000D01*
X137190000Y-84750000D02*
X134210000Y-81770000D01*
X137190000Y-89630000D02*
X137190000Y-84750000D01*
%TO.N,GND*%
X112585844Y-101400000D02*
X125840000Y-101400000D01*
X133800000Y-109360000D02*
X133800000Y-120200000D01*
X109999000Y-98813156D02*
X112585844Y-101400000D01*
X111600000Y-93150000D02*
X109999000Y-94751000D01*
X109999000Y-94751000D02*
X109999000Y-98813156D01*
X125840000Y-101400000D02*
X133800000Y-109360000D01*
%TO.N,/V1*%
X129300000Y-79400000D02*
X131670000Y-81770000D01*
X111350000Y-76150000D02*
X112531000Y-74969000D01*
X114600000Y-79400000D02*
X129300000Y-79400000D01*
X111350000Y-76150000D02*
X114600000Y-79400000D01*
X111350000Y-76150000D02*
X112281000Y-75219000D01*
%TO.N,/V2*%
X114410000Y-81150000D02*
X123320000Y-90060000D01*
X111350000Y-81150000D02*
X114410000Y-81150000D01*
%TD*%
%TA.AperFunction,Conductor*%
%TO.N,GND*%
G36*
X148042539Y-68920185D02*
G01*
X148088294Y-68972989D01*
X148099500Y-69024500D01*
X148099500Y-127975500D01*
X148079815Y-128042539D01*
X148027011Y-128088294D01*
X147975500Y-128099500D01*
X103024500Y-128099500D01*
X102957461Y-128079815D01*
X102911706Y-128027011D01*
X102900500Y-127975500D01*
X102900500Y-119099983D01*
X126999500Y-119099983D01*
X126999500Y-121300001D01*
X126999501Y-121300018D01*
X127010000Y-121402796D01*
X127010001Y-121402799D01*
X127058885Y-121550319D01*
X127065186Y-121569334D01*
X127157288Y-121718656D01*
X127281344Y-121842712D01*
X127430666Y-121934814D01*
X127597203Y-121989999D01*
X127699991Y-122000500D01*
X129900008Y-122000499D01*
X130002797Y-121989999D01*
X130169334Y-121934814D01*
X130318656Y-121842712D01*
X130442712Y-121718656D01*
X130534814Y-121569334D01*
X130589999Y-121402797D01*
X130600500Y-121300009D01*
X130600499Y-120082014D01*
X132000000Y-120082014D01*
X132000000Y-120317985D01*
X132030799Y-120551914D01*
X132091870Y-120779837D01*
X132182160Y-120997819D01*
X132182165Y-120997828D01*
X132300144Y-121202171D01*
X132300145Y-121202172D01*
X132362721Y-121283723D01*
X133198958Y-120447487D01*
X133223978Y-120507890D01*
X133295112Y-120614351D01*
X133385649Y-120704888D01*
X133492110Y-120776022D01*
X133552511Y-120801041D01*
X132716275Y-121637277D01*
X132797827Y-121699854D01*
X132797828Y-121699855D01*
X133002171Y-121817834D01*
X133002180Y-121817839D01*
X133220163Y-121908129D01*
X133220161Y-121908129D01*
X133448085Y-121969200D01*
X133682014Y-121999999D01*
X133682029Y-122000000D01*
X133917971Y-122000000D01*
X133917985Y-121999999D01*
X134151914Y-121969200D01*
X134379837Y-121908129D01*
X134597819Y-121817839D01*
X134597828Y-121817834D01*
X134802181Y-121699850D01*
X134883723Y-121637279D01*
X134883723Y-121637276D01*
X134047487Y-120801041D01*
X134107890Y-120776022D01*
X134214351Y-120704888D01*
X134304888Y-120614351D01*
X134376022Y-120507890D01*
X134401041Y-120447487D01*
X135237276Y-121283723D01*
X135237279Y-121283723D01*
X135299850Y-121202181D01*
X135417834Y-120997828D01*
X135417839Y-120997819D01*
X135508129Y-120779837D01*
X135569200Y-120551914D01*
X135599999Y-120317985D01*
X135600000Y-120317971D01*
X135600000Y-120082028D01*
X135599999Y-120082014D01*
X135569200Y-119848085D01*
X135508129Y-119620162D01*
X135417839Y-119402180D01*
X135417834Y-119402171D01*
X135299855Y-119197828D01*
X135299854Y-119197827D01*
X135237277Y-119116275D01*
X134401041Y-119952511D01*
X134376022Y-119892110D01*
X134304888Y-119785649D01*
X134214351Y-119695112D01*
X134107890Y-119623978D01*
X134047488Y-119598958D01*
X134883723Y-118762721D01*
X134802172Y-118700145D01*
X134802171Y-118700144D01*
X134597828Y-118582165D01*
X134597819Y-118582160D01*
X134379836Y-118491870D01*
X134379838Y-118491870D01*
X134151914Y-118430799D01*
X133917985Y-118400000D01*
X133682014Y-118400000D01*
X133448085Y-118430799D01*
X133220162Y-118491870D01*
X133002180Y-118582160D01*
X133002171Y-118582165D01*
X132797828Y-118700144D01*
X132797818Y-118700150D01*
X132716275Y-118762720D01*
X132716275Y-118762721D01*
X133552512Y-119598958D01*
X133492110Y-119623978D01*
X133385649Y-119695112D01*
X133295112Y-119785649D01*
X133223978Y-119892110D01*
X133198958Y-119952512D01*
X132362721Y-119116275D01*
X132362720Y-119116275D01*
X132300150Y-119197818D01*
X132300144Y-119197828D01*
X132182165Y-119402171D01*
X132182160Y-119402180D01*
X132091870Y-119620162D01*
X132030799Y-119848085D01*
X132000000Y-120082014D01*
X130600499Y-120082014D01*
X130600499Y-119099992D01*
X130589999Y-118997203D01*
X130534814Y-118830666D01*
X130442712Y-118681344D01*
X130318656Y-118557288D01*
X130169334Y-118465186D01*
X130002797Y-118410001D01*
X130002795Y-118410000D01*
X129900010Y-118399500D01*
X127699998Y-118399500D01*
X127699981Y-118399501D01*
X127597203Y-118410000D01*
X127597200Y-118410001D01*
X127430668Y-118465185D01*
X127430663Y-118465187D01*
X127281342Y-118557289D01*
X127157289Y-118681342D01*
X127065187Y-118830663D01*
X127065185Y-118830668D01*
X127058886Y-118849678D01*
X127010001Y-118997203D01*
X127010001Y-118997204D01*
X127010000Y-118997204D01*
X126999500Y-119099983D01*
X102900500Y-119099983D01*
X102900500Y-110497648D01*
X124619500Y-110497648D01*
X124619500Y-110702351D01*
X124651522Y-110904534D01*
X124714781Y-111099223D01*
X124807715Y-111281613D01*
X124928028Y-111447213D01*
X125072786Y-111591971D01*
X125227749Y-111704556D01*
X125238390Y-111712287D01*
X125354607Y-111771503D01*
X125420776Y-111805218D01*
X125420778Y-111805218D01*
X125420781Y-111805220D01*
X125525137Y-111839127D01*
X125615465Y-111868477D01*
X125716557Y-111884488D01*
X125817648Y-111900500D01*
X125817649Y-111900500D01*
X126022351Y-111900500D01*
X126022352Y-111900500D01*
X126224534Y-111868477D01*
X126419219Y-111805220D01*
X126601610Y-111712287D01*
X126694590Y-111644732D01*
X126767213Y-111591971D01*
X126767215Y-111591968D01*
X126767219Y-111591966D01*
X126911966Y-111447219D01*
X126911968Y-111447215D01*
X126911971Y-111447213D01*
X126964732Y-111374590D01*
X127032287Y-111281610D01*
X127125220Y-111099219D01*
X127188477Y-110904534D01*
X127220500Y-110702352D01*
X127220500Y-110497648D01*
X134779500Y-110497648D01*
X134779500Y-110702351D01*
X134811522Y-110904534D01*
X134874781Y-111099223D01*
X134967715Y-111281613D01*
X135088028Y-111447213D01*
X135232786Y-111591971D01*
X135387749Y-111704556D01*
X135398390Y-111712287D01*
X135514607Y-111771503D01*
X135580776Y-111805218D01*
X135580778Y-111805218D01*
X135580781Y-111805220D01*
X135685137Y-111839127D01*
X135775465Y-111868477D01*
X135876557Y-111884488D01*
X135977648Y-111900500D01*
X135977649Y-111900500D01*
X136182351Y-111900500D01*
X136182352Y-111900500D01*
X136384534Y-111868477D01*
X136579219Y-111805220D01*
X136761610Y-111712287D01*
X136854590Y-111644732D01*
X136927213Y-111591971D01*
X136927215Y-111591968D01*
X136927219Y-111591966D01*
X137071966Y-111447219D01*
X137071968Y-111447215D01*
X137071971Y-111447213D01*
X137124732Y-111374590D01*
X137192287Y-111281610D01*
X137285220Y-111099219D01*
X137348477Y-110904534D01*
X137368574Y-110777648D01*
X138899500Y-110777648D01*
X138899500Y-110982351D01*
X138931522Y-111184534D01*
X138994781Y-111379223D01*
X139087715Y-111561613D01*
X139208028Y-111727213D01*
X139352786Y-111871971D01*
X139507749Y-111984556D01*
X139518390Y-111992287D01*
X139634607Y-112051503D01*
X139700776Y-112085218D01*
X139700778Y-112085218D01*
X139700781Y-112085220D01*
X139805137Y-112119127D01*
X139895465Y-112148477D01*
X139996557Y-112164488D01*
X140097648Y-112180500D01*
X140097649Y-112180500D01*
X140302351Y-112180500D01*
X140302352Y-112180500D01*
X140504534Y-112148477D01*
X140699219Y-112085220D01*
X140881610Y-111992287D01*
X141007945Y-111900500D01*
X141047213Y-111871971D01*
X141047215Y-111871968D01*
X141047219Y-111871966D01*
X141191966Y-111727219D01*
X141191968Y-111727215D01*
X141191971Y-111727213D01*
X141244732Y-111654590D01*
X141312287Y-111561610D01*
X141405220Y-111379219D01*
X141468477Y-111184534D01*
X141500500Y-110982352D01*
X141500500Y-110777648D01*
X141468477Y-110575466D01*
X141405220Y-110380781D01*
X141405218Y-110380778D01*
X141405218Y-110380776D01*
X141361749Y-110295465D01*
X141312287Y-110198390D01*
X141304556Y-110187749D01*
X141191971Y-110032786D01*
X141047213Y-109888028D01*
X140881613Y-109767715D01*
X140881612Y-109767714D01*
X140881610Y-109767713D01*
X140824653Y-109738691D01*
X140699223Y-109674781D01*
X140504534Y-109611522D01*
X140329995Y-109583878D01*
X140302352Y-109579500D01*
X140097648Y-109579500D01*
X140073329Y-109583351D01*
X139895465Y-109611522D01*
X139700776Y-109674781D01*
X139518386Y-109767715D01*
X139352786Y-109888028D01*
X139208028Y-110032786D01*
X139087715Y-110198386D01*
X138994781Y-110380776D01*
X138931522Y-110575465D01*
X138899500Y-110777648D01*
X137368574Y-110777648D01*
X137380500Y-110702352D01*
X137380500Y-110497648D01*
X137348477Y-110295466D01*
X137285220Y-110100781D01*
X137285218Y-110100778D01*
X137285218Y-110100776D01*
X137250572Y-110032781D01*
X137192287Y-109918390D01*
X137170228Y-109888028D01*
X137071971Y-109752786D01*
X136927213Y-109608028D01*
X136761613Y-109487715D01*
X136761612Y-109487714D01*
X136761610Y-109487713D01*
X136704653Y-109458691D01*
X136579223Y-109394781D01*
X136384534Y-109331522D01*
X136209995Y-109303878D01*
X136182352Y-109299500D01*
X135977648Y-109299500D01*
X135953329Y-109303351D01*
X135775465Y-109331522D01*
X135580776Y-109394781D01*
X135398386Y-109487715D01*
X135232786Y-109608028D01*
X135088028Y-109752786D01*
X134967715Y-109918386D01*
X134874781Y-110100776D01*
X134811522Y-110295465D01*
X134779500Y-110497648D01*
X127220500Y-110497648D01*
X127188477Y-110295466D01*
X127125220Y-110100781D01*
X127125218Y-110100778D01*
X127125218Y-110100776D01*
X127090572Y-110032781D01*
X127032287Y-109918390D01*
X127010228Y-109888028D01*
X126911971Y-109752786D01*
X126767213Y-109608028D01*
X126601613Y-109487715D01*
X126601612Y-109487714D01*
X126601610Y-109487713D01*
X126544653Y-109458691D01*
X126419223Y-109394781D01*
X126224534Y-109331522D01*
X126049995Y-109303878D01*
X126022352Y-109299500D01*
X125817648Y-109299500D01*
X125793329Y-109303351D01*
X125615465Y-109331522D01*
X125420776Y-109394781D01*
X125238386Y-109487715D01*
X125072786Y-109608028D01*
X124928028Y-109752786D01*
X124807715Y-109918386D01*
X124714781Y-110100776D01*
X124651522Y-110295465D01*
X124619500Y-110497648D01*
X102900500Y-110497648D01*
X102900500Y-105697648D01*
X124619500Y-105697648D01*
X124619500Y-105902351D01*
X124651522Y-106104534D01*
X124714781Y-106299223D01*
X124807715Y-106481613D01*
X124928028Y-106647213D01*
X125072786Y-106791971D01*
X125227749Y-106904556D01*
X125238390Y-106912287D01*
X125354607Y-106971503D01*
X125420776Y-107005218D01*
X125420778Y-107005218D01*
X125420781Y-107005220D01*
X125525137Y-107039127D01*
X125615465Y-107068477D01*
X125716557Y-107084488D01*
X125817648Y-107100500D01*
X125817649Y-107100500D01*
X126022351Y-107100500D01*
X126022352Y-107100500D01*
X126224534Y-107068477D01*
X126419219Y-107005220D01*
X126601610Y-106912287D01*
X126694590Y-106844732D01*
X126767213Y-106791971D01*
X126767215Y-106791968D01*
X126767219Y-106791966D01*
X126911966Y-106647219D01*
X126911968Y-106647215D01*
X126911971Y-106647213D01*
X126964732Y-106574590D01*
X127032287Y-106481610D01*
X127125220Y-106299219D01*
X127188477Y-106104534D01*
X127220500Y-105902352D01*
X127220500Y-105697648D01*
X134779500Y-105697648D01*
X134779500Y-105902351D01*
X134811522Y-106104534D01*
X134874781Y-106299223D01*
X134967715Y-106481613D01*
X135088028Y-106647213D01*
X135232786Y-106791971D01*
X135387749Y-106904556D01*
X135398390Y-106912287D01*
X135514607Y-106971503D01*
X135580776Y-107005218D01*
X135580778Y-107005218D01*
X135580781Y-107005220D01*
X135685137Y-107039127D01*
X135775465Y-107068477D01*
X135876557Y-107084488D01*
X135977648Y-107100500D01*
X135977649Y-107100500D01*
X136182351Y-107100500D01*
X136182352Y-107100500D01*
X136384534Y-107068477D01*
X136579219Y-107005220D01*
X136761610Y-106912287D01*
X136854590Y-106844732D01*
X136927213Y-106791971D01*
X136927215Y-106791968D01*
X136927219Y-106791966D01*
X137071966Y-106647219D01*
X137071968Y-106647215D01*
X137071971Y-106647213D01*
X137124732Y-106574590D01*
X137192287Y-106481610D01*
X137285220Y-106299219D01*
X137348477Y-106104534D01*
X137380500Y-105902352D01*
X137380500Y-105697648D01*
X137348477Y-105495466D01*
X137285220Y-105300781D01*
X137285218Y-105300778D01*
X137285218Y-105300776D01*
X137251503Y-105234607D01*
X137192287Y-105118390D01*
X137184556Y-105107749D01*
X137071971Y-104952786D01*
X136927213Y-104808028D01*
X136761613Y-104687715D01*
X136761612Y-104687714D01*
X136761610Y-104687713D01*
X136704653Y-104658691D01*
X136579223Y-104594781D01*
X136384534Y-104531522D01*
X136209995Y-104503878D01*
X136182352Y-104499500D01*
X135977648Y-104499500D01*
X135953329Y-104503351D01*
X135775465Y-104531522D01*
X135580776Y-104594781D01*
X135398386Y-104687715D01*
X135232786Y-104808028D01*
X135088028Y-104952786D01*
X134967715Y-105118386D01*
X134874781Y-105300776D01*
X134811522Y-105495465D01*
X134779500Y-105697648D01*
X127220500Y-105697648D01*
X127188477Y-105495466D01*
X127125220Y-105300781D01*
X127125218Y-105300778D01*
X127125218Y-105300776D01*
X127091503Y-105234607D01*
X127032287Y-105118390D01*
X127024556Y-105107749D01*
X126911971Y-104952786D01*
X126767213Y-104808028D01*
X126601613Y-104687715D01*
X126601612Y-104687714D01*
X126601610Y-104687713D01*
X126544653Y-104658691D01*
X126419223Y-104594781D01*
X126224534Y-104531522D01*
X126049995Y-104503878D01*
X126022352Y-104499500D01*
X125817648Y-104499500D01*
X125793329Y-104503351D01*
X125615465Y-104531522D01*
X125420776Y-104594781D01*
X125238386Y-104687715D01*
X125072786Y-104808028D01*
X124928028Y-104952786D01*
X124807715Y-105118386D01*
X124714781Y-105300776D01*
X124651522Y-105495465D01*
X124619500Y-105697648D01*
X102900500Y-105697648D01*
X102900500Y-101297682D01*
X124540000Y-101297682D01*
X124540000Y-101502317D01*
X124572009Y-101704417D01*
X124635244Y-101899031D01*
X124728141Y-102081350D01*
X124728147Y-102081359D01*
X124760523Y-102125921D01*
X124760524Y-102125922D01*
X125440000Y-101446446D01*
X125440000Y-101452661D01*
X125467259Y-101554394D01*
X125519920Y-101645606D01*
X125594394Y-101720080D01*
X125685606Y-101772741D01*
X125787339Y-101800000D01*
X125793553Y-101800000D01*
X125114076Y-102479474D01*
X125158650Y-102511859D01*
X125340968Y-102604755D01*
X125535582Y-102667990D01*
X125737683Y-102700000D01*
X125942317Y-102700000D01*
X126144417Y-102667990D01*
X126339031Y-102604755D01*
X126521349Y-102511859D01*
X126565921Y-102479474D01*
X125886447Y-101800000D01*
X125892661Y-101800000D01*
X125994394Y-101772741D01*
X126085606Y-101720080D01*
X126160080Y-101645606D01*
X126212741Y-101554394D01*
X126240000Y-101452661D01*
X126240000Y-101446447D01*
X126919474Y-102125921D01*
X126951859Y-102081349D01*
X127044755Y-101899031D01*
X127107990Y-101704417D01*
X127140000Y-101502317D01*
X127140000Y-101297682D01*
X127139995Y-101297648D01*
X134699500Y-101297648D01*
X134699500Y-101502351D01*
X134731522Y-101704534D01*
X134794781Y-101899223D01*
X134840259Y-101988477D01*
X134887585Y-102081359D01*
X134887715Y-102081613D01*
X135008028Y-102247213D01*
X135152786Y-102391971D01*
X135273226Y-102479474D01*
X135318390Y-102512287D01*
X135434607Y-102571503D01*
X135500776Y-102605218D01*
X135500778Y-102605218D01*
X135500781Y-102605220D01*
X135605137Y-102639127D01*
X135695465Y-102668477D01*
X135796557Y-102684488D01*
X135897648Y-102700500D01*
X135897649Y-102700500D01*
X136102351Y-102700500D01*
X136102352Y-102700500D01*
X136304534Y-102668477D01*
X136499219Y-102605220D01*
X136681610Y-102512287D01*
X136774590Y-102444732D01*
X136847213Y-102391971D01*
X136847215Y-102391968D01*
X136847219Y-102391966D01*
X136991966Y-102247219D01*
X136991968Y-102247215D01*
X136991971Y-102247213D01*
X137044732Y-102174590D01*
X137112287Y-102081610D01*
X137205220Y-101899219D01*
X137268477Y-101704534D01*
X137300500Y-101502352D01*
X137300500Y-101297648D01*
X137292257Y-101245606D01*
X137268477Y-101095465D01*
X137237458Y-101000000D01*
X137205220Y-100900781D01*
X137205218Y-100900778D01*
X137205218Y-100900776D01*
X137112419Y-100718650D01*
X137112287Y-100718390D01*
X137080092Y-100674077D01*
X136991971Y-100552786D01*
X136847213Y-100408028D01*
X136681613Y-100287715D01*
X136681612Y-100287714D01*
X136681610Y-100287713D01*
X136624653Y-100258691D01*
X136499223Y-100194781D01*
X136304534Y-100131522D01*
X136129995Y-100103878D01*
X136102352Y-100099500D01*
X135897648Y-100099500D01*
X135873329Y-100103351D01*
X135695465Y-100131522D01*
X135500776Y-100194781D01*
X135318386Y-100287715D01*
X135152786Y-100408028D01*
X135008028Y-100552786D01*
X134887715Y-100718386D01*
X134794781Y-100900776D01*
X134731522Y-101095465D01*
X134699500Y-101297648D01*
X127139995Y-101297648D01*
X127107990Y-101095582D01*
X127044755Y-100900968D01*
X126951859Y-100718650D01*
X126919474Y-100674077D01*
X126919474Y-100674076D01*
X126240000Y-101353551D01*
X126240000Y-101347339D01*
X126212741Y-101245606D01*
X126160080Y-101154394D01*
X126085606Y-101079920D01*
X125994394Y-101027259D01*
X125892661Y-101000000D01*
X125886446Y-101000000D01*
X126565922Y-100320524D01*
X126565921Y-100320523D01*
X126521359Y-100288147D01*
X126521350Y-100288141D01*
X126339031Y-100195244D01*
X126144417Y-100132009D01*
X125942317Y-100100000D01*
X125737683Y-100100000D01*
X125535582Y-100132009D01*
X125340968Y-100195244D01*
X125158644Y-100288143D01*
X125114077Y-100320523D01*
X125114077Y-100320524D01*
X125793554Y-101000000D01*
X125787339Y-101000000D01*
X125685606Y-101027259D01*
X125594394Y-101079920D01*
X125519920Y-101154394D01*
X125467259Y-101245606D01*
X125440000Y-101347339D01*
X125440000Y-101353553D01*
X124760524Y-100674077D01*
X124760523Y-100674077D01*
X124728143Y-100718644D01*
X124635244Y-100900968D01*
X124572009Y-101095582D01*
X124540000Y-101297682D01*
X102900500Y-101297682D01*
X102900500Y-93032014D01*
X109800000Y-93032014D01*
X109800000Y-93267985D01*
X109830799Y-93501914D01*
X109891870Y-93729837D01*
X109982160Y-93947819D01*
X109982165Y-93947828D01*
X110100144Y-94152171D01*
X110100145Y-94152172D01*
X110162721Y-94233723D01*
X110998958Y-93397487D01*
X111023978Y-93457890D01*
X111095112Y-93564351D01*
X111185649Y-93654888D01*
X111292110Y-93726022D01*
X111352511Y-93751041D01*
X110516275Y-94587277D01*
X110597827Y-94649854D01*
X110597828Y-94649855D01*
X110802171Y-94767834D01*
X110802180Y-94767839D01*
X111020163Y-94858129D01*
X111020161Y-94858129D01*
X111248085Y-94919200D01*
X111482014Y-94949999D01*
X111482029Y-94950000D01*
X111717971Y-94950000D01*
X111717985Y-94949999D01*
X111951914Y-94919200D01*
X112179837Y-94858129D01*
X112397819Y-94767839D01*
X112397828Y-94767834D01*
X112602181Y-94649850D01*
X112683723Y-94587279D01*
X112683723Y-94587276D01*
X111847487Y-93751041D01*
X111907890Y-93726022D01*
X112014351Y-93654888D01*
X112104888Y-93564351D01*
X112176022Y-93457890D01*
X112201041Y-93397487D01*
X113037276Y-94233723D01*
X113037279Y-94233723D01*
X113099850Y-94152181D01*
X113217834Y-93947828D01*
X113217839Y-93947819D01*
X113308129Y-93729837D01*
X113369200Y-93501914D01*
X113399999Y-93267985D01*
X113400000Y-93267971D01*
X113400000Y-93032028D01*
X113399999Y-93032014D01*
X113369200Y-92798085D01*
X113308129Y-92570162D01*
X113217839Y-92352180D01*
X113217834Y-92352171D01*
X113099855Y-92147828D01*
X113099854Y-92147827D01*
X113037277Y-92066275D01*
X112201041Y-92902511D01*
X112176022Y-92842110D01*
X112104888Y-92735649D01*
X112014351Y-92645112D01*
X111907890Y-92573978D01*
X111847488Y-92548958D01*
X112683723Y-91712721D01*
X112602172Y-91650145D01*
X112602171Y-91650144D01*
X112397828Y-91532165D01*
X112397819Y-91532160D01*
X112179836Y-91441870D01*
X112179838Y-91441870D01*
X111951914Y-91380799D01*
X111717985Y-91350000D01*
X111482014Y-91350000D01*
X111248085Y-91380799D01*
X111020162Y-91441870D01*
X110802180Y-91532160D01*
X110802171Y-91532165D01*
X110597828Y-91650144D01*
X110597818Y-91650150D01*
X110516275Y-91712720D01*
X110516275Y-91712721D01*
X111352512Y-92548958D01*
X111292110Y-92573978D01*
X111185649Y-92645112D01*
X111095112Y-92735649D01*
X111023978Y-92842110D01*
X110998958Y-92902511D01*
X110162721Y-92066275D01*
X110162720Y-92066275D01*
X110100150Y-92147818D01*
X110100144Y-92147828D01*
X109982165Y-92352171D01*
X109982160Y-92352180D01*
X109891870Y-92570162D01*
X109830799Y-92798085D01*
X109800000Y-93032014D01*
X102900500Y-93032014D01*
X102900500Y-81031995D01*
X109549500Y-81031995D01*
X109549500Y-81268004D01*
X109549501Y-81268020D01*
X109580306Y-81502010D01*
X109641394Y-81729993D01*
X109731714Y-81948045D01*
X109731719Y-81948056D01*
X109802677Y-82070957D01*
X109849727Y-82152450D01*
X109849729Y-82152453D01*
X109849730Y-82152454D01*
X109993406Y-82339697D01*
X109993412Y-82339704D01*
X110160295Y-82506587D01*
X110160301Y-82506592D01*
X110347550Y-82650273D01*
X110466010Y-82718666D01*
X110551943Y-82768280D01*
X110551948Y-82768282D01*
X110551951Y-82768284D01*
X110770007Y-82858606D01*
X110997986Y-82919693D01*
X111231989Y-82950500D01*
X111231996Y-82950500D01*
X111468004Y-82950500D01*
X111468011Y-82950500D01*
X111702014Y-82919693D01*
X111929993Y-82858606D01*
X112148049Y-82768284D01*
X112352450Y-82650273D01*
X112539699Y-82506592D01*
X112706592Y-82339699D01*
X112850273Y-82152450D01*
X112968284Y-81948049D01*
X113018405Y-81827047D01*
X113062246Y-81772644D01*
X113128540Y-81750579D01*
X113132966Y-81750500D01*
X114109903Y-81750500D01*
X114176942Y-81770185D01*
X114197584Y-81786819D01*
X121247486Y-88836721D01*
X121280971Y-88898044D01*
X121275987Y-88967736D01*
X121234115Y-89023669D01*
X121168651Y-89048086D01*
X121112354Y-89038964D01*
X121107258Y-89036853D01*
X121092253Y-89030638D01*
X121092249Y-89030637D01*
X121092245Y-89030636D01*
X120885439Y-88989500D01*
X120885435Y-88989500D01*
X120674565Y-88989500D01*
X120642955Y-88995787D01*
X120573363Y-88989558D01*
X120531085Y-88961850D01*
X119357590Y-87788355D01*
X119357588Y-87788352D01*
X119238717Y-87669481D01*
X119238716Y-87669480D01*
X119151904Y-87619360D01*
X119151904Y-87619359D01*
X119151900Y-87619358D01*
X119101785Y-87590423D01*
X118949057Y-87549499D01*
X118790943Y-87549499D01*
X118783347Y-87549499D01*
X118783331Y-87549500D01*
X113524499Y-87549500D01*
X113457460Y-87529815D01*
X113411705Y-87477011D01*
X113400499Y-87425500D01*
X113400499Y-87049998D01*
X113400498Y-87049981D01*
X113389999Y-86947203D01*
X113389998Y-86947200D01*
X113374100Y-86899223D01*
X113334814Y-86780666D01*
X113242712Y-86631344D01*
X113118656Y-86507288D01*
X112969334Y-86415186D01*
X112802797Y-86360001D01*
X112802795Y-86360000D01*
X112700010Y-86349500D01*
X110499998Y-86349500D01*
X110499981Y-86349501D01*
X110397203Y-86360000D01*
X110397200Y-86360001D01*
X110230668Y-86415185D01*
X110230663Y-86415187D01*
X110081342Y-86507289D01*
X109957289Y-86631342D01*
X109865187Y-86780663D01*
X109865186Y-86780666D01*
X109810001Y-86947203D01*
X109810001Y-86947204D01*
X109810000Y-86947204D01*
X109799500Y-87049983D01*
X109799500Y-89250001D01*
X109799501Y-89250018D01*
X109810000Y-89352796D01*
X109810001Y-89352799D01*
X109865185Y-89519331D01*
X109865187Y-89519336D01*
X109885907Y-89552928D01*
X109957288Y-89668656D01*
X110081344Y-89792712D01*
X110230666Y-89884814D01*
X110397203Y-89939999D01*
X110499991Y-89950500D01*
X112700008Y-89950499D01*
X112802797Y-89939999D01*
X112969334Y-89884814D01*
X113118656Y-89792712D01*
X113242712Y-89668656D01*
X113334814Y-89519334D01*
X113389999Y-89352797D01*
X113400500Y-89250009D01*
X113400500Y-88874500D01*
X113420185Y-88807461D01*
X113472989Y-88761706D01*
X113524500Y-88750500D01*
X118569903Y-88750500D01*
X118636942Y-88770185D01*
X118657584Y-88786819D01*
X119681850Y-89811085D01*
X119715335Y-89872408D01*
X119715787Y-89922955D01*
X119709500Y-89954564D01*
X119709500Y-90165439D01*
X119750636Y-90372245D01*
X119750638Y-90372253D01*
X119831333Y-90567069D01*
X119831338Y-90567078D01*
X119948487Y-90742403D01*
X119948490Y-90742407D01*
X120097592Y-90891509D01*
X120097596Y-90891512D01*
X120272921Y-91008661D01*
X120272927Y-91008664D01*
X120272928Y-91008665D01*
X120467747Y-91089362D01*
X120632566Y-91122146D01*
X120674560Y-91130499D01*
X120674564Y-91130500D01*
X120674565Y-91130500D01*
X120885436Y-91130500D01*
X120903314Y-91126943D01*
X120917040Y-91124213D01*
X120924948Y-91124920D01*
X120932387Y-91122146D01*
X120959246Y-91127989D01*
X120986631Y-91130439D01*
X120994641Y-91135688D01*
X121000660Y-91136998D01*
X121028914Y-91158149D01*
X121166139Y-91295374D01*
X121166149Y-91295385D01*
X121170479Y-91299715D01*
X121170480Y-91299716D01*
X121282284Y-91411520D01*
X121369095Y-91461639D01*
X121369097Y-91461641D01*
X121407151Y-91483611D01*
X121419215Y-91490577D01*
X121571943Y-91531501D01*
X121571946Y-91531501D01*
X121737653Y-91531501D01*
X121737669Y-91531500D01*
X135371684Y-91531500D01*
X135438723Y-91551185D01*
X135484478Y-91603989D01*
X135494422Y-91673147D01*
X135465397Y-91736703D01*
X135459365Y-91743181D01*
X130710365Y-96492181D01*
X130649042Y-96525666D01*
X130622684Y-96528500D01*
X126817669Y-96528500D01*
X126817653Y-96528499D01*
X126810057Y-96528499D01*
X126651943Y-96528499D01*
X126544587Y-96557265D01*
X126499210Y-96569424D01*
X126499209Y-96569425D01*
X126449096Y-96598359D01*
X126449095Y-96598360D01*
X126409304Y-96621333D01*
X126362285Y-96648479D01*
X126362282Y-96648481D01*
X126250480Y-96760283D01*
X126250480Y-96760284D01*
X126250478Y-96760286D01*
X126123172Y-96887592D01*
X126108913Y-96901851D01*
X126047590Y-96935335D01*
X125997042Y-96935787D01*
X125965435Y-96929500D01*
X125754565Y-96929500D01*
X125722955Y-96935787D01*
X125653363Y-96929558D01*
X125611085Y-96901850D01*
X125197590Y-96488355D01*
X125197588Y-96488352D01*
X125078717Y-96369481D01*
X125078716Y-96369480D01*
X124991904Y-96319360D01*
X124991904Y-96319359D01*
X124991900Y-96319358D01*
X124941785Y-96290423D01*
X124789057Y-96249499D01*
X124630943Y-96249499D01*
X124623347Y-96249499D01*
X124623331Y-96249500D01*
X112986670Y-96249500D01*
X112986654Y-96249499D01*
X112979058Y-96249499D01*
X112820943Y-96249499D01*
X112744579Y-96269961D01*
X112668214Y-96290423D01*
X112668209Y-96290426D01*
X112531290Y-96369475D01*
X112531282Y-96369481D01*
X112436127Y-96464635D01*
X112374804Y-96498119D01*
X112305112Y-96493134D01*
X112300994Y-96491514D01*
X112179997Y-96441395D01*
X111952010Y-96380306D01*
X111718020Y-96349501D01*
X111718017Y-96349500D01*
X111718011Y-96349500D01*
X111481989Y-96349500D01*
X111481983Y-96349500D01*
X111481979Y-96349501D01*
X111247989Y-96380306D01*
X111020006Y-96441394D01*
X110801954Y-96531714D01*
X110801943Y-96531719D01*
X110597545Y-96649730D01*
X110410302Y-96793406D01*
X110410295Y-96793412D01*
X110243412Y-96960295D01*
X110243406Y-96960302D01*
X110099730Y-97147545D01*
X109981719Y-97351943D01*
X109981714Y-97351954D01*
X109891394Y-97570006D01*
X109830306Y-97797989D01*
X109799501Y-98031979D01*
X109799500Y-98031995D01*
X109799500Y-98268004D01*
X109799501Y-98268020D01*
X109817075Y-98401509D01*
X109830307Y-98502014D01*
X109891394Y-98729993D01*
X109981714Y-98948045D01*
X109981719Y-98948056D01*
X110050963Y-99067989D01*
X110099727Y-99152450D01*
X110099729Y-99152453D01*
X110099730Y-99152454D01*
X110243406Y-99339697D01*
X110243412Y-99339704D01*
X110410295Y-99506587D01*
X110410301Y-99506592D01*
X110597550Y-99650273D01*
X110728918Y-99726118D01*
X110801943Y-99768280D01*
X110801948Y-99768282D01*
X110801951Y-99768284D01*
X111020007Y-99858606D01*
X111247986Y-99919693D01*
X111481989Y-99950500D01*
X111481996Y-99950500D01*
X111718004Y-99950500D01*
X111718011Y-99950500D01*
X111952014Y-99919693D01*
X112179993Y-99858606D01*
X112398049Y-99768284D01*
X112602450Y-99650273D01*
X112789699Y-99506592D01*
X112956592Y-99339699D01*
X113100273Y-99152450D01*
X113218284Y-98948049D01*
X113308606Y-98729993D01*
X113369693Y-98502014D01*
X113400500Y-98268011D01*
X113400500Y-98031989D01*
X113369693Y-97797986D01*
X113318409Y-97606592D01*
X113320072Y-97536744D01*
X113359234Y-97478881D01*
X113423463Y-97451377D01*
X113438184Y-97450500D01*
X119663330Y-97450500D01*
X119730369Y-97470185D01*
X119776124Y-97522989D01*
X119786068Y-97592147D01*
X119777891Y-97621953D01*
X119750638Y-97687746D01*
X119750636Y-97687754D01*
X119709500Y-97894560D01*
X119709500Y-98105439D01*
X119750636Y-98312245D01*
X119750638Y-98312253D01*
X119831333Y-98507069D01*
X119831338Y-98507078D01*
X119948487Y-98682403D01*
X119948490Y-98682407D01*
X120097592Y-98831509D01*
X120097596Y-98831512D01*
X120272921Y-98948661D01*
X120272927Y-98948664D01*
X120272928Y-98948665D01*
X120467747Y-99029362D01*
X120632566Y-99062146D01*
X120674560Y-99070499D01*
X120674564Y-99070500D01*
X120674565Y-99070500D01*
X120885436Y-99070500D01*
X120885437Y-99070499D01*
X121092253Y-99029362D01*
X121287072Y-98948665D01*
X121462404Y-98831512D01*
X121611512Y-98682404D01*
X121728665Y-98507072D01*
X121809362Y-98312253D01*
X121850500Y-98105435D01*
X121850500Y-97894565D01*
X121850499Y-97894562D01*
X121850499Y-97894560D01*
X121834158Y-97812408D01*
X121809362Y-97687747D01*
X121782108Y-97621952D01*
X121774640Y-97552483D01*
X121805915Y-97490004D01*
X121866004Y-97454352D01*
X121896670Y-97450500D01*
X122203330Y-97450500D01*
X122270369Y-97470185D01*
X122316124Y-97522989D01*
X122326068Y-97592147D01*
X122317891Y-97621953D01*
X122290638Y-97687746D01*
X122290636Y-97687754D01*
X122249500Y-97894560D01*
X122249500Y-98105439D01*
X122290636Y-98312245D01*
X122290638Y-98312253D01*
X122371333Y-98507069D01*
X122371338Y-98507078D01*
X122488487Y-98682403D01*
X122488490Y-98682407D01*
X122637592Y-98831509D01*
X122637596Y-98831512D01*
X122812921Y-98948661D01*
X122812927Y-98948664D01*
X122812928Y-98948665D01*
X123007747Y-99029362D01*
X123172566Y-99062146D01*
X123214560Y-99070499D01*
X123214564Y-99070500D01*
X123214565Y-99070500D01*
X123425436Y-99070500D01*
X123425437Y-99070499D01*
X123632253Y-99029362D01*
X123827072Y-98948665D01*
X124002404Y-98831512D01*
X124151512Y-98682404D01*
X124268665Y-98507072D01*
X124349362Y-98312253D01*
X124390500Y-98105435D01*
X124390500Y-97894565D01*
X124390499Y-97894562D01*
X124390499Y-97894560D01*
X124374158Y-97812408D01*
X124349362Y-97687747D01*
X124341035Y-97667646D01*
X124333567Y-97598178D01*
X124364842Y-97535699D01*
X124424931Y-97500046D01*
X124494756Y-97502539D01*
X124543278Y-97532513D01*
X124761850Y-97751085D01*
X124795335Y-97812408D01*
X124795787Y-97862955D01*
X124789500Y-97894564D01*
X124789500Y-98105439D01*
X124830636Y-98312245D01*
X124830638Y-98312253D01*
X124911333Y-98507069D01*
X124911338Y-98507078D01*
X125028487Y-98682403D01*
X125028490Y-98682407D01*
X125177592Y-98831509D01*
X125177596Y-98831512D01*
X125352921Y-98948661D01*
X125352927Y-98948664D01*
X125352928Y-98948665D01*
X125547747Y-99029362D01*
X125712566Y-99062146D01*
X125754560Y-99070499D01*
X125754564Y-99070500D01*
X125754565Y-99070500D01*
X125965436Y-99070500D01*
X125983314Y-99066943D01*
X125997040Y-99064213D01*
X126004948Y-99064920D01*
X126012387Y-99062146D01*
X126039246Y-99067989D01*
X126066631Y-99070439D01*
X126074641Y-99075688D01*
X126080660Y-99076998D01*
X126108914Y-99098149D01*
X126246139Y-99235374D01*
X126246149Y-99235385D01*
X126250479Y-99239715D01*
X126250480Y-99239716D01*
X126362284Y-99351520D01*
X126449095Y-99401639D01*
X126449097Y-99401641D01*
X126487151Y-99423611D01*
X126499215Y-99430577D01*
X126651943Y-99471501D01*
X126651946Y-99471501D01*
X126817653Y-99471501D01*
X126817669Y-99471500D01*
X139324237Y-99471500D01*
X139391276Y-99491185D01*
X139437031Y-99543989D01*
X139446975Y-99613147D01*
X139417950Y-99676703D01*
X139397121Y-99695819D01*
X139352784Y-99728030D01*
X139208028Y-99872786D01*
X139087715Y-100038386D01*
X138994781Y-100220776D01*
X138931522Y-100415465D01*
X138899500Y-100617648D01*
X138899500Y-100822351D01*
X138931522Y-101024534D01*
X138994781Y-101219223D01*
X139034759Y-101297682D01*
X139086893Y-101400001D01*
X139087715Y-101401613D01*
X139208028Y-101567213D01*
X139352786Y-101711971D01*
X139473950Y-101800000D01*
X139518390Y-101832287D01*
X139634607Y-101891503D01*
X139700776Y-101925218D01*
X139700778Y-101925218D01*
X139700781Y-101925220D01*
X139805137Y-101959127D01*
X139895465Y-101988477D01*
X139996557Y-102004488D01*
X140097648Y-102020500D01*
X140097649Y-102020500D01*
X140302351Y-102020500D01*
X140302352Y-102020500D01*
X140504534Y-101988477D01*
X140699219Y-101925220D01*
X140881610Y-101832287D01*
X140989979Y-101753553D01*
X141047213Y-101711971D01*
X141047215Y-101711968D01*
X141047219Y-101711966D01*
X141191966Y-101567219D01*
X141191968Y-101567215D01*
X141191971Y-101567213D01*
X141244732Y-101494590D01*
X141312287Y-101401610D01*
X141405220Y-101219219D01*
X141468477Y-101024534D01*
X141500500Y-100822352D01*
X141500500Y-100617648D01*
X141468477Y-100415466D01*
X141466060Y-100408028D01*
X141437628Y-100320523D01*
X141405220Y-100220781D01*
X141405218Y-100220778D01*
X141405218Y-100220776D01*
X141359740Y-100131522D01*
X141312287Y-100038390D01*
X141248432Y-99950500D01*
X141191971Y-99872786D01*
X141047217Y-99728032D01*
X141047212Y-99728028D01*
X140999812Y-99693590D01*
X140957146Y-99638260D01*
X140951167Y-99568647D01*
X140983772Y-99506852D01*
X141040604Y-99473497D01*
X141048053Y-99471501D01*
X141048057Y-99471501D01*
X141200785Y-99430577D01*
X141250904Y-99401639D01*
X141337716Y-99351520D01*
X141449520Y-99239716D01*
X141449520Y-99239714D01*
X141459728Y-99229507D01*
X141459730Y-99229504D01*
X142021086Y-98668147D01*
X142082407Y-98634664D01*
X142132957Y-98634213D01*
X142164562Y-98640500D01*
X142164565Y-98640500D01*
X142375436Y-98640500D01*
X142375437Y-98640499D01*
X142582253Y-98599362D01*
X142777072Y-98518665D01*
X142952404Y-98401512D01*
X143101512Y-98252404D01*
X143218665Y-98077072D01*
X143299362Y-97882253D01*
X143340500Y-97675435D01*
X143340500Y-97464565D01*
X143340499Y-97464560D01*
X143739500Y-97464560D01*
X143739500Y-97675439D01*
X143780636Y-97882245D01*
X143780638Y-97882253D01*
X143861333Y-98077069D01*
X143861338Y-98077078D01*
X143978487Y-98252403D01*
X143978490Y-98252407D01*
X144127592Y-98401509D01*
X144127596Y-98401512D01*
X144302921Y-98518661D01*
X144302927Y-98518664D01*
X144302928Y-98518665D01*
X144497747Y-98599362D01*
X144672958Y-98634213D01*
X144704560Y-98640499D01*
X144704564Y-98640500D01*
X144704565Y-98640500D01*
X144915436Y-98640500D01*
X144915437Y-98640499D01*
X145122253Y-98599362D01*
X145317072Y-98518665D01*
X145492404Y-98401512D01*
X145641512Y-98252404D01*
X145758665Y-98077072D01*
X145839362Y-97882253D01*
X145880500Y-97675435D01*
X145880500Y-97464565D01*
X145839362Y-97257747D01*
X145758665Y-97062928D01*
X145758664Y-97062927D01*
X145758661Y-97062921D01*
X145641512Y-96887596D01*
X145641509Y-96887592D01*
X145492407Y-96738490D01*
X145492403Y-96738487D01*
X145317078Y-96621338D01*
X145317069Y-96621333D01*
X145122253Y-96540638D01*
X145122245Y-96540636D01*
X144915439Y-96499500D01*
X144915435Y-96499500D01*
X144704565Y-96499500D01*
X144704560Y-96499500D01*
X144497754Y-96540636D01*
X144497746Y-96540638D01*
X144302930Y-96621333D01*
X144302921Y-96621338D01*
X144127596Y-96738487D01*
X144127592Y-96738490D01*
X143978490Y-96887592D01*
X143978487Y-96887596D01*
X143861338Y-97062921D01*
X143861333Y-97062930D01*
X143780638Y-97257746D01*
X143780636Y-97257754D01*
X143739500Y-97464560D01*
X143340499Y-97464560D01*
X143299362Y-97257747D01*
X143218665Y-97062928D01*
X143218664Y-97062927D01*
X143218661Y-97062921D01*
X143101512Y-96887596D01*
X143101509Y-96887592D01*
X142952407Y-96738490D01*
X142952403Y-96738487D01*
X142777078Y-96621338D01*
X142777069Y-96621333D01*
X142582253Y-96540638D01*
X142582245Y-96540636D01*
X142375439Y-96499500D01*
X142375435Y-96499500D01*
X142164565Y-96499500D01*
X142164560Y-96499500D01*
X141957754Y-96540636D01*
X141957746Y-96540638D01*
X141762930Y-96621333D01*
X141762921Y-96621338D01*
X141587596Y-96738487D01*
X141587592Y-96738490D01*
X141438490Y-96887592D01*
X141438487Y-96887596D01*
X141321338Y-97062921D01*
X141321333Y-97062930D01*
X141240638Y-97257746D01*
X141240636Y-97257754D01*
X141199500Y-97464560D01*
X141199500Y-97464564D01*
X141199500Y-97464565D01*
X141199500Y-97675435D01*
X141202114Y-97688575D01*
X141205787Y-97707042D01*
X141199558Y-97776633D01*
X141171850Y-97818913D01*
X140953278Y-98037485D01*
X140891955Y-98070970D01*
X140822263Y-98065986D01*
X140766330Y-98024114D01*
X140741913Y-97958650D01*
X140751036Y-97902353D01*
X140759362Y-97882253D01*
X140800500Y-97675435D01*
X140800500Y-97464565D01*
X140759362Y-97257747D01*
X140678665Y-97062928D01*
X140678664Y-97062927D01*
X140678661Y-97062921D01*
X140561512Y-96887596D01*
X140561509Y-96887592D01*
X140412407Y-96738490D01*
X140412403Y-96738487D01*
X140237078Y-96621338D01*
X140237069Y-96621333D01*
X140042253Y-96540638D01*
X140042245Y-96540636D01*
X139835439Y-96499500D01*
X139835435Y-96499500D01*
X139624565Y-96499500D01*
X139624560Y-96499500D01*
X139417754Y-96540636D01*
X139417746Y-96540638D01*
X139222930Y-96621333D01*
X139222921Y-96621338D01*
X139047596Y-96738487D01*
X139047592Y-96738490D01*
X138898490Y-96887592D01*
X138898487Y-96887596D01*
X138781338Y-97062921D01*
X138781333Y-97062930D01*
X138700638Y-97257746D01*
X138700636Y-97257754D01*
X138659500Y-97464560D01*
X138659500Y-97675439D01*
X138700636Y-97882245D01*
X138700638Y-97882253D01*
X138781333Y-98077069D01*
X138781340Y-98077081D01*
X138781694Y-98077611D01*
X138781794Y-98077930D01*
X138784208Y-98082447D01*
X138783351Y-98082904D01*
X138802571Y-98144289D01*
X138784085Y-98211669D01*
X138732106Y-98258358D01*
X138678591Y-98270500D01*
X138241409Y-98270500D01*
X138174370Y-98250815D01*
X138128615Y-98198011D01*
X138118671Y-98128853D01*
X138136340Y-98082740D01*
X138135792Y-98082447D01*
X138138126Y-98078078D01*
X138138306Y-98077611D01*
X138138659Y-98077081D01*
X138138661Y-98077078D01*
X138138665Y-98077072D01*
X138219362Y-97882253D01*
X138260500Y-97675435D01*
X138260500Y-97464565D01*
X138219362Y-97257747D01*
X138138665Y-97062928D01*
X138138664Y-97062927D01*
X138138661Y-97062921D01*
X138021512Y-96887596D01*
X138021509Y-96887592D01*
X137872407Y-96738490D01*
X137872403Y-96738487D01*
X137697078Y-96621338D01*
X137697069Y-96621333D01*
X137502253Y-96540638D01*
X137502245Y-96540636D01*
X137295439Y-96499500D01*
X137295435Y-96499500D01*
X137084565Y-96499500D01*
X137084560Y-96499500D01*
X136877754Y-96540636D01*
X136877746Y-96540638D01*
X136682930Y-96621333D01*
X136682921Y-96621338D01*
X136507596Y-96738487D01*
X136507592Y-96738490D01*
X136358490Y-96887592D01*
X136358487Y-96887596D01*
X136241338Y-97062921D01*
X136241333Y-97062930D01*
X136160638Y-97257746D01*
X136160636Y-97257754D01*
X136119500Y-97464560D01*
X136119500Y-97675439D01*
X136160636Y-97882245D01*
X136160638Y-97882253D01*
X136241333Y-98077069D01*
X136241340Y-98077081D01*
X136241694Y-98077611D01*
X136241794Y-98077930D01*
X136244208Y-98082447D01*
X136243351Y-98082904D01*
X136262571Y-98144289D01*
X136244085Y-98211669D01*
X136192106Y-98258358D01*
X136138591Y-98270500D01*
X129588761Y-98270500D01*
X129521722Y-98250815D01*
X129475967Y-98198011D01*
X129466023Y-98128853D01*
X129467144Y-98122309D01*
X129470499Y-98105438D01*
X129470500Y-98105437D01*
X129470500Y-98105435D01*
X129470500Y-97894565D01*
X129468050Y-97882249D01*
X129467144Y-97877691D01*
X129473371Y-97808100D01*
X129516234Y-97752922D01*
X129582124Y-97729678D01*
X129588761Y-97729500D01*
X130836112Y-97729500D01*
X130836128Y-97729501D01*
X130843724Y-97729501D01*
X131001835Y-97729501D01*
X131001838Y-97729501D01*
X131154566Y-97688577D01*
X131223016Y-97649057D01*
X131291497Y-97609520D01*
X131403301Y-97497716D01*
X131403301Y-97497714D01*
X131413505Y-97487511D01*
X131413509Y-97487506D01*
X138419506Y-90481509D01*
X138419511Y-90481505D01*
X138429714Y-90471301D01*
X138429716Y-90471301D01*
X138541520Y-90359497D01*
X138615996Y-90230500D01*
X138620577Y-90222566D01*
X138620577Y-90222562D01*
X138621877Y-90220313D01*
X138672450Y-90172104D01*
X138741059Y-90158889D01*
X138805920Y-90184865D01*
X138832359Y-90213435D01*
X138898487Y-90312404D01*
X139047592Y-90461509D01*
X139047596Y-90461512D01*
X139222921Y-90578661D01*
X139222927Y-90578664D01*
X139222928Y-90578665D01*
X139417747Y-90659362D01*
X139624555Y-90700498D01*
X139624560Y-90700499D01*
X139624564Y-90700500D01*
X139624565Y-90700500D01*
X139835436Y-90700500D01*
X139835437Y-90700499D01*
X140042253Y-90659362D01*
X140237072Y-90578665D01*
X140412404Y-90461512D01*
X140561512Y-90312404D01*
X140678665Y-90137072D01*
X140759362Y-89942253D01*
X140800500Y-89735435D01*
X140800500Y-89524565D01*
X140800499Y-89524560D01*
X141199500Y-89524560D01*
X141199500Y-89735439D01*
X141240636Y-89942245D01*
X141240638Y-89942253D01*
X141321333Y-90137069D01*
X141321338Y-90137078D01*
X141438487Y-90312403D01*
X141438490Y-90312407D01*
X141587592Y-90461509D01*
X141587596Y-90461512D01*
X141762921Y-90578661D01*
X141762927Y-90578664D01*
X141762928Y-90578665D01*
X141957747Y-90659362D01*
X142164555Y-90700498D01*
X142164560Y-90700499D01*
X142164564Y-90700500D01*
X142164565Y-90700500D01*
X142375436Y-90700500D01*
X142375437Y-90700499D01*
X142582253Y-90659362D01*
X142777072Y-90578665D01*
X142952404Y-90461512D01*
X143101512Y-90312404D01*
X143218665Y-90137072D01*
X143299362Y-89942253D01*
X143340500Y-89735435D01*
X143340500Y-89524565D01*
X143299362Y-89317747D01*
X143218665Y-89122928D01*
X143218664Y-89122927D01*
X143218661Y-89122921D01*
X143188443Y-89077697D01*
X143144636Y-89012135D01*
X143739500Y-89012135D01*
X143739500Y-90247870D01*
X143739501Y-90247876D01*
X143745908Y-90307483D01*
X143796202Y-90442328D01*
X143796206Y-90442335D01*
X143882452Y-90557544D01*
X143882455Y-90557547D01*
X143997664Y-90643793D01*
X143997671Y-90643797D01*
X144132517Y-90694091D01*
X144132516Y-90694091D01*
X144139444Y-90694835D01*
X144192127Y-90700500D01*
X145427872Y-90700499D01*
X145487483Y-90694091D01*
X145622331Y-90643796D01*
X145737546Y-90557546D01*
X145823796Y-90442331D01*
X145874091Y-90307483D01*
X145880500Y-90247873D01*
X145880499Y-89012128D01*
X145874091Y-88952517D01*
X145864313Y-88926302D01*
X145823797Y-88817671D01*
X145823793Y-88817664D01*
X145737547Y-88702455D01*
X145737544Y-88702452D01*
X145622335Y-88616206D01*
X145622328Y-88616202D01*
X145487482Y-88565908D01*
X145487483Y-88565908D01*
X145427883Y-88559501D01*
X145427881Y-88559500D01*
X145427873Y-88559500D01*
X145427864Y-88559500D01*
X144192129Y-88559500D01*
X144192123Y-88559501D01*
X144132516Y-88565908D01*
X143997671Y-88616202D01*
X143997664Y-88616206D01*
X143882455Y-88702452D01*
X143882452Y-88702455D01*
X143796206Y-88817664D01*
X143796202Y-88817671D01*
X143745908Y-88952517D01*
X143739501Y-89012116D01*
X143739501Y-89012123D01*
X143739500Y-89012135D01*
X143144636Y-89012135D01*
X143101512Y-88947596D01*
X143101509Y-88947592D01*
X142952407Y-88798490D01*
X142952403Y-88798487D01*
X142777078Y-88681338D01*
X142777069Y-88681333D01*
X142582253Y-88600638D01*
X142582245Y-88600636D01*
X142375439Y-88559500D01*
X142375435Y-88559500D01*
X142164565Y-88559500D01*
X142164560Y-88559500D01*
X141957754Y-88600636D01*
X141957746Y-88600638D01*
X141762930Y-88681333D01*
X141762921Y-88681338D01*
X141587596Y-88798487D01*
X141587592Y-88798490D01*
X141438490Y-88947592D01*
X141438487Y-88947596D01*
X141321338Y-89122921D01*
X141321333Y-89122930D01*
X141240638Y-89317746D01*
X141240636Y-89317754D01*
X141199500Y-89524560D01*
X140800499Y-89524560D01*
X140759362Y-89317747D01*
X140678665Y-89122928D01*
X140678664Y-89122927D01*
X140678661Y-89122921D01*
X140561512Y-88947596D01*
X140561509Y-88947592D01*
X140412407Y-88798490D01*
X140412403Y-88798487D01*
X140237078Y-88681338D01*
X140237069Y-88681333D01*
X140042253Y-88600638D01*
X140042245Y-88600636D01*
X139835439Y-88559500D01*
X139835435Y-88559500D01*
X139624565Y-88559500D01*
X139624560Y-88559500D01*
X139417754Y-88600636D01*
X139417746Y-88600638D01*
X139222930Y-88681333D01*
X139222921Y-88681338D01*
X139047596Y-88798487D01*
X139047592Y-88798490D01*
X138898488Y-88947594D01*
X138888601Y-88962392D01*
X138834987Y-89007196D01*
X138765662Y-89015902D01*
X138702635Y-88985746D01*
X138665918Y-88926302D01*
X138661500Y-88893499D01*
X138661500Y-86977648D01*
X140299500Y-86977648D01*
X140299500Y-87182351D01*
X140331522Y-87384534D01*
X140394781Y-87579223D01*
X140440259Y-87668477D01*
X140484283Y-87754879D01*
X140487715Y-87761613D01*
X140608028Y-87927213D01*
X140752786Y-88071971D01*
X140907749Y-88184556D01*
X140918390Y-88192287D01*
X141034607Y-88251503D01*
X141100776Y-88285218D01*
X141100778Y-88285218D01*
X141100781Y-88285220D01*
X141205137Y-88319127D01*
X141295465Y-88348477D01*
X141396557Y-88364488D01*
X141497648Y-88380500D01*
X141497649Y-88380500D01*
X141702351Y-88380500D01*
X141702352Y-88380500D01*
X141904534Y-88348477D01*
X142099219Y-88285220D01*
X142281610Y-88192287D01*
X142374590Y-88124732D01*
X142447213Y-88071971D01*
X142447215Y-88071968D01*
X142447219Y-88071966D01*
X142591966Y-87927219D01*
X142591968Y-87927215D01*
X142591971Y-87927213D01*
X142654085Y-87841719D01*
X142712287Y-87761610D01*
X142805220Y-87579219D01*
X142868477Y-87384534D01*
X142900500Y-87182352D01*
X142900500Y-86977648D01*
X142895677Y-86947200D01*
X142868477Y-86775465D01*
X142805218Y-86580776D01*
X142765258Y-86502351D01*
X142712287Y-86398390D01*
X142684396Y-86360001D01*
X142591971Y-86232786D01*
X142447213Y-86088028D01*
X142281613Y-85967715D01*
X142281612Y-85967714D01*
X142281610Y-85967713D01*
X142224653Y-85938691D01*
X142099223Y-85874781D01*
X141904534Y-85811522D01*
X141729995Y-85783878D01*
X141702352Y-85779500D01*
X141497648Y-85779500D01*
X141473329Y-85783351D01*
X141295465Y-85811522D01*
X141100776Y-85874781D01*
X140918386Y-85967715D01*
X140752786Y-86088028D01*
X140608028Y-86232786D01*
X140487715Y-86398386D01*
X140394781Y-86580776D01*
X140331522Y-86775465D01*
X140299500Y-86977648D01*
X138661500Y-86977648D01*
X138661500Y-82681945D01*
X138661500Y-82681943D01*
X138620577Y-82529216D01*
X138576230Y-82452404D01*
X138541524Y-82392290D01*
X138541521Y-82392286D01*
X138541520Y-82392284D01*
X138429716Y-82280480D01*
X138429715Y-82280479D01*
X138425385Y-82276149D01*
X138425374Y-82276139D01*
X132966883Y-76817648D01*
X140299500Y-76817648D01*
X140299500Y-77022351D01*
X140331522Y-77224534D01*
X140394781Y-77419223D01*
X140445791Y-77519334D01*
X140481021Y-77588477D01*
X140487715Y-77601613D01*
X140608028Y-77767213D01*
X140752786Y-77911971D01*
X140907749Y-78024556D01*
X140918390Y-78032287D01*
X141034607Y-78091503D01*
X141100776Y-78125218D01*
X141100778Y-78125218D01*
X141100781Y-78125220D01*
X141205137Y-78159127D01*
X141295465Y-78188477D01*
X141396557Y-78204488D01*
X141497648Y-78220500D01*
X141497649Y-78220500D01*
X141702351Y-78220500D01*
X141702352Y-78220500D01*
X141904534Y-78188477D01*
X142099219Y-78125220D01*
X142281610Y-78032287D01*
X142394181Y-77950500D01*
X142447213Y-77911971D01*
X142447215Y-77911968D01*
X142447219Y-77911966D01*
X142591966Y-77767219D01*
X142591968Y-77767215D01*
X142591971Y-77767213D01*
X142663575Y-77668657D01*
X142712287Y-77601610D01*
X142805220Y-77419219D01*
X142868477Y-77224534D01*
X142900500Y-77022352D01*
X142900500Y-76817648D01*
X142868477Y-76615466D01*
X142805220Y-76420781D01*
X142805218Y-76420778D01*
X142805218Y-76420776D01*
X142771503Y-76354607D01*
X142712287Y-76238390D01*
X142697217Y-76217648D01*
X142591971Y-76072786D01*
X142447213Y-75928028D01*
X142281613Y-75807715D01*
X142281612Y-75807714D01*
X142281610Y-75807713D01*
X142224653Y-75778691D01*
X142099223Y-75714781D01*
X141904534Y-75651522D01*
X141729995Y-75623878D01*
X141702352Y-75619500D01*
X141497648Y-75619500D01*
X141473329Y-75623351D01*
X141295465Y-75651522D01*
X141100776Y-75714781D01*
X140918386Y-75807715D01*
X140752786Y-75928028D01*
X140608028Y-76072786D01*
X140487715Y-76238386D01*
X140394781Y-76420776D01*
X140331522Y-76615465D01*
X140299500Y-76817648D01*
X132966883Y-76817648D01*
X131202513Y-75053278D01*
X131169028Y-74991955D01*
X131174012Y-74922263D01*
X131215884Y-74866330D01*
X131281348Y-74841913D01*
X131337645Y-74851035D01*
X131357747Y-74859362D01*
X131511491Y-74889943D01*
X131564560Y-74900499D01*
X131564564Y-74900500D01*
X131564565Y-74900500D01*
X131775436Y-74900500D01*
X131775437Y-74900499D01*
X131982253Y-74859362D01*
X132177072Y-74778665D01*
X132352404Y-74661512D01*
X132501512Y-74512404D01*
X132618665Y-74337072D01*
X132699362Y-74142253D01*
X132740500Y-73935435D01*
X132740500Y-73724565D01*
X132740499Y-73724560D01*
X133139500Y-73724560D01*
X133139500Y-73935439D01*
X133180636Y-74142245D01*
X133180638Y-74142253D01*
X133261333Y-74337069D01*
X133261338Y-74337078D01*
X133378487Y-74512403D01*
X133378490Y-74512407D01*
X133527592Y-74661509D01*
X133527596Y-74661512D01*
X133702921Y-74778661D01*
X133702930Y-74778666D01*
X133747063Y-74796946D01*
X133897747Y-74859362D01*
X134051491Y-74889943D01*
X134104560Y-74900499D01*
X134104564Y-74900500D01*
X134104565Y-74900500D01*
X134315436Y-74900500D01*
X134315437Y-74900499D01*
X134522253Y-74859362D01*
X134717072Y-74778665D01*
X134892404Y-74661512D01*
X135041512Y-74512404D01*
X135158665Y-74337072D01*
X135239362Y-74142253D01*
X135280500Y-73935435D01*
X135280500Y-73724565D01*
X135239362Y-73517747D01*
X135158665Y-73322928D01*
X135158664Y-73322927D01*
X135158661Y-73322921D01*
X135041512Y-73147596D01*
X135041509Y-73147592D01*
X134892407Y-72998490D01*
X134892403Y-72998487D01*
X134717078Y-72881338D01*
X134717069Y-72881333D01*
X134522253Y-72800638D01*
X134522245Y-72800636D01*
X134315439Y-72759500D01*
X134315435Y-72759500D01*
X134104565Y-72759500D01*
X134104560Y-72759500D01*
X133897754Y-72800636D01*
X133897746Y-72800638D01*
X133702930Y-72881333D01*
X133702921Y-72881338D01*
X133527596Y-72998487D01*
X133527592Y-72998490D01*
X133378490Y-73147592D01*
X133378487Y-73147596D01*
X133261338Y-73322921D01*
X133261333Y-73322930D01*
X133180638Y-73517746D01*
X133180636Y-73517754D01*
X133139500Y-73724560D01*
X132740499Y-73724560D01*
X132699362Y-73517747D01*
X132618665Y-73322928D01*
X132618664Y-73322927D01*
X132618661Y-73322921D01*
X132501512Y-73147596D01*
X132501509Y-73147592D01*
X132352407Y-72998490D01*
X132352403Y-72998487D01*
X132177078Y-72881338D01*
X132177069Y-72881333D01*
X131982253Y-72800638D01*
X131982245Y-72800636D01*
X131775439Y-72759500D01*
X131775435Y-72759500D01*
X131564565Y-72759500D01*
X131564560Y-72759500D01*
X131357754Y-72800636D01*
X131357746Y-72800638D01*
X131162930Y-72881333D01*
X131162921Y-72881338D01*
X130987596Y-72998487D01*
X130987592Y-72998490D01*
X130838490Y-73147592D01*
X130838487Y-73147596D01*
X130721338Y-73322921D01*
X130721333Y-73322930D01*
X130640638Y-73517746D01*
X130640636Y-73517754D01*
X130599500Y-73724560D01*
X130599500Y-73935439D01*
X130640636Y-74142245D01*
X130640638Y-74142252D01*
X130648964Y-74162354D01*
X130656431Y-74231824D01*
X130625156Y-74294302D01*
X130565066Y-74329954D01*
X130495241Y-74327459D01*
X130446721Y-74297486D01*
X130228149Y-74078914D01*
X130194664Y-74017591D01*
X130194213Y-73967040D01*
X130200500Y-73935435D01*
X130200500Y-73724564D01*
X130200499Y-73724560D01*
X130159363Y-73517754D01*
X130159362Y-73517747D01*
X130078665Y-73322928D01*
X130078664Y-73322927D01*
X130078661Y-73322921D01*
X129961512Y-73147596D01*
X129961509Y-73147592D01*
X129812407Y-72998490D01*
X129812403Y-72998487D01*
X129637078Y-72881338D01*
X129637069Y-72881333D01*
X129442253Y-72800638D01*
X129442245Y-72800636D01*
X129235439Y-72759500D01*
X129235435Y-72759500D01*
X129024565Y-72759500D01*
X129024560Y-72759500D01*
X128817754Y-72800636D01*
X128817746Y-72800638D01*
X128622930Y-72881333D01*
X128622921Y-72881338D01*
X128447596Y-72998487D01*
X128447592Y-72998490D01*
X128298490Y-73147592D01*
X128298487Y-73147596D01*
X128181338Y-73322921D01*
X128181333Y-73322930D01*
X128100638Y-73517746D01*
X128100636Y-73517754D01*
X128059500Y-73724560D01*
X128059500Y-73935439D01*
X128100636Y-74142245D01*
X128100638Y-74142253D01*
X128181333Y-74337069D01*
X128181338Y-74337078D01*
X128298487Y-74512403D01*
X128298490Y-74512407D01*
X128447592Y-74661509D01*
X128447596Y-74661512D01*
X128622921Y-74778661D01*
X128622930Y-74778666D01*
X128667063Y-74796946D01*
X128817747Y-74859362D01*
X128971491Y-74889943D01*
X129024560Y-74900499D01*
X129024564Y-74900500D01*
X129024565Y-74900500D01*
X129235436Y-74900500D01*
X129253314Y-74896943D01*
X129267040Y-74894213D01*
X129336631Y-74900439D01*
X129378914Y-74928149D01*
X137424181Y-82973416D01*
X137457666Y-83034739D01*
X137460500Y-83061097D01*
X137460500Y-83871903D01*
X137440815Y-83938942D01*
X137388011Y-83984697D01*
X137318853Y-83994641D01*
X137255297Y-83965616D01*
X137248819Y-83959584D01*
X135308149Y-82018914D01*
X135274664Y-81957591D01*
X135274213Y-81907040D01*
X135280500Y-81875435D01*
X135280500Y-81664564D01*
X135280499Y-81664560D01*
X135261283Y-81567952D01*
X135239362Y-81457747D01*
X135162646Y-81272539D01*
X135158666Y-81262930D01*
X135158661Y-81262921D01*
X135041512Y-81087596D01*
X135041509Y-81087592D01*
X134892407Y-80938490D01*
X134892403Y-80938487D01*
X134717078Y-80821338D01*
X134717069Y-80821333D01*
X134522253Y-80740638D01*
X134522245Y-80740636D01*
X134315439Y-80699500D01*
X134315435Y-80699500D01*
X134104565Y-80699500D01*
X134104560Y-80699500D01*
X133897754Y-80740636D01*
X133897746Y-80740638D01*
X133702930Y-80821333D01*
X133702921Y-80821338D01*
X133527596Y-80938487D01*
X133527592Y-80938490D01*
X133378490Y-81087592D01*
X133378487Y-81087596D01*
X133261338Y-81262921D01*
X133261333Y-81262930D01*
X133180638Y-81457746D01*
X133180636Y-81457754D01*
X133139500Y-81664560D01*
X133139500Y-81875439D01*
X133180636Y-82082245D01*
X133180638Y-82082253D01*
X133261333Y-82277069D01*
X133261338Y-82277078D01*
X133378487Y-82452403D01*
X133378490Y-82452407D01*
X133527592Y-82601509D01*
X133527596Y-82601512D01*
X133702921Y-82718661D01*
X133702927Y-82718664D01*
X133702928Y-82718665D01*
X133897747Y-82799362D01*
X134072958Y-82834213D01*
X134104560Y-82840499D01*
X134104564Y-82840500D01*
X134104565Y-82840500D01*
X134315436Y-82840500D01*
X134333314Y-82836943D01*
X134347040Y-82834213D01*
X134416631Y-82840439D01*
X134458914Y-82868149D01*
X136553181Y-84962416D01*
X136567884Y-84989343D01*
X136584477Y-85015162D01*
X136585368Y-85021362D01*
X136586666Y-85023739D01*
X136589500Y-85050097D01*
X136589500Y-85268043D01*
X136569815Y-85335082D01*
X136517011Y-85380837D01*
X136447853Y-85390781D01*
X136392615Y-85368362D01*
X136281609Y-85287712D01*
X136099223Y-85194781D01*
X135904534Y-85131522D01*
X135729995Y-85103878D01*
X135702352Y-85099500D01*
X135497648Y-85099500D01*
X135473329Y-85103351D01*
X135295465Y-85131522D01*
X135100776Y-85194781D01*
X134918386Y-85287715D01*
X134752786Y-85408028D01*
X134608028Y-85552786D01*
X134487715Y-85718386D01*
X134394781Y-85900776D01*
X134331522Y-86095465D01*
X134299500Y-86297648D01*
X134299500Y-86502351D01*
X134331522Y-86704534D01*
X134394781Y-86899223D01*
X134487715Y-87081613D01*
X134608028Y-87247213D01*
X134752786Y-87391971D01*
X134869836Y-87477011D01*
X134918390Y-87512287D01*
X134991423Y-87549499D01*
X135100776Y-87605218D01*
X135100778Y-87605218D01*
X135100781Y-87605220D01*
X135205137Y-87639127D01*
X135295465Y-87668477D01*
X135396557Y-87684488D01*
X135497648Y-87700500D01*
X135497649Y-87700500D01*
X135702351Y-87700500D01*
X135702352Y-87700500D01*
X135904534Y-87668477D01*
X136099219Y-87605220D01*
X136281610Y-87512287D01*
X136392615Y-87431638D01*
X136458421Y-87408158D01*
X136526475Y-87423984D01*
X136575170Y-87474089D01*
X136589500Y-87531956D01*
X136589500Y-88677481D01*
X136569815Y-88744520D01*
X136534393Y-88780582D01*
X136507594Y-88798488D01*
X136358490Y-88947592D01*
X136358487Y-88947596D01*
X136241338Y-89122921D01*
X136241333Y-89122930D01*
X136160638Y-89317746D01*
X136160636Y-89317754D01*
X136119500Y-89524560D01*
X136119500Y-89524564D01*
X136119500Y-89524565D01*
X136119500Y-89735435D01*
X136125787Y-89767042D01*
X136119558Y-89836633D01*
X136091850Y-89878913D01*
X135676584Y-90294181D01*
X135615261Y-90327666D01*
X135588903Y-90330500D01*
X129594500Y-90330500D01*
X129527461Y-90310815D01*
X129481706Y-90258011D01*
X129470500Y-90206500D01*
X129470499Y-89442129D01*
X129470498Y-89442123D01*
X129470497Y-89442116D01*
X129464091Y-89382517D01*
X129453006Y-89352797D01*
X129413797Y-89247671D01*
X129413793Y-89247664D01*
X129327547Y-89132455D01*
X129327544Y-89132452D01*
X129212335Y-89046206D01*
X129212328Y-89046202D01*
X129077482Y-88995908D01*
X129077483Y-88995908D01*
X129017883Y-88989501D01*
X129017881Y-88989500D01*
X129017873Y-88989500D01*
X129017864Y-88989500D01*
X127782129Y-88989500D01*
X127782123Y-88989501D01*
X127722516Y-88995908D01*
X127587671Y-89046202D01*
X127587664Y-89046206D01*
X127472455Y-89132452D01*
X127472452Y-89132455D01*
X127386206Y-89247664D01*
X127386202Y-89247671D01*
X127335908Y-89382517D01*
X127329501Y-89442116D01*
X127329500Y-89442127D01*
X127329500Y-89884814D01*
X127329501Y-90206500D01*
X127326950Y-90215186D01*
X127328239Y-90224147D01*
X127317261Y-90248183D01*
X127309817Y-90273539D01*
X127302974Y-90279467D01*
X127299214Y-90287703D01*
X127276982Y-90301989D01*
X127257013Y-90319294D01*
X127246497Y-90321581D01*
X127240436Y-90325477D01*
X127205501Y-90330500D01*
X127048761Y-90330500D01*
X126981722Y-90310815D01*
X126935967Y-90258011D01*
X126926023Y-90188853D01*
X126927144Y-90182309D01*
X126930499Y-90165438D01*
X126930500Y-90165437D01*
X126930500Y-90165435D01*
X126930500Y-89954565D01*
X126889362Y-89747747D01*
X126812646Y-89562539D01*
X126808666Y-89552930D01*
X126808661Y-89552921D01*
X126691512Y-89377596D01*
X126691509Y-89377592D01*
X126542407Y-89228490D01*
X126542403Y-89228487D01*
X126367078Y-89111338D01*
X126367069Y-89111333D01*
X126172253Y-89030638D01*
X126172245Y-89030636D01*
X125965439Y-88989500D01*
X125965435Y-88989500D01*
X125754565Y-88989500D01*
X125754560Y-88989500D01*
X125547754Y-89030636D01*
X125547746Y-89030638D01*
X125352930Y-89111333D01*
X125352921Y-89111338D01*
X125177596Y-89228487D01*
X125177592Y-89228490D01*
X125028490Y-89377592D01*
X125028487Y-89377596D01*
X124911338Y-89552921D01*
X124911333Y-89552930D01*
X124830638Y-89747746D01*
X124830636Y-89747754D01*
X124789500Y-89954560D01*
X124789500Y-90165438D01*
X124792856Y-90182309D01*
X124790978Y-90203292D01*
X124793977Y-90224147D01*
X124787926Y-90237394D01*
X124786629Y-90251900D01*
X124773704Y-90268538D01*
X124764952Y-90287703D01*
X124752700Y-90295576D01*
X124743766Y-90307078D01*
X124723897Y-90314087D01*
X124706174Y-90325477D01*
X124681590Y-90329011D01*
X124677876Y-90330322D01*
X124671239Y-90330500D01*
X124508761Y-90330500D01*
X124441722Y-90310815D01*
X124395967Y-90258011D01*
X124386023Y-90188853D01*
X124387144Y-90182309D01*
X124390499Y-90165438D01*
X124390500Y-90165437D01*
X124390500Y-90165435D01*
X124390500Y-89954565D01*
X124349362Y-89747747D01*
X124272646Y-89562539D01*
X124268666Y-89552930D01*
X124268661Y-89552921D01*
X124151512Y-89377596D01*
X124151509Y-89377592D01*
X124002407Y-89228490D01*
X124002403Y-89228487D01*
X123827078Y-89111338D01*
X123827069Y-89111333D01*
X123632253Y-89030638D01*
X123632245Y-89030636D01*
X123425439Y-88989500D01*
X123425435Y-88989500D01*
X123214565Y-88989500D01*
X123182955Y-88995787D01*
X123113363Y-88989558D01*
X123071085Y-88961850D01*
X122012277Y-87903042D01*
X121978792Y-87841719D01*
X121983776Y-87772027D01*
X122025648Y-87716094D01*
X122061636Y-87697431D01*
X122099219Y-87685220D01*
X122281610Y-87592287D01*
X122374590Y-87524732D01*
X122447213Y-87471971D01*
X122447215Y-87471968D01*
X122447219Y-87471966D01*
X122591966Y-87327219D01*
X122591968Y-87327215D01*
X122591971Y-87327213D01*
X122697217Y-87182352D01*
X122712287Y-87161610D01*
X122805220Y-86979219D01*
X122868477Y-86784534D01*
X122900500Y-86582352D01*
X122900500Y-86377648D01*
X122887829Y-86297648D01*
X124139500Y-86297648D01*
X124139500Y-86502351D01*
X124171522Y-86704534D01*
X124234781Y-86899223D01*
X124327715Y-87081613D01*
X124448028Y-87247213D01*
X124592786Y-87391971D01*
X124709836Y-87477011D01*
X124758390Y-87512287D01*
X124831423Y-87549499D01*
X124940776Y-87605218D01*
X124940778Y-87605218D01*
X124940781Y-87605220D01*
X125045137Y-87639127D01*
X125135465Y-87668477D01*
X125236557Y-87684488D01*
X125337648Y-87700500D01*
X125337649Y-87700500D01*
X125542351Y-87700500D01*
X125542352Y-87700500D01*
X125744534Y-87668477D01*
X125939219Y-87605220D01*
X126121610Y-87512287D01*
X126243150Y-87423984D01*
X126287213Y-87391971D01*
X126287215Y-87391968D01*
X126287219Y-87391966D01*
X126431966Y-87247219D01*
X126431968Y-87247215D01*
X126431971Y-87247213D01*
X126494164Y-87161610D01*
X126552287Y-87081610D01*
X126645220Y-86899219D01*
X126708477Y-86704534D01*
X126740500Y-86502352D01*
X126740500Y-86297648D01*
X126721148Y-86175465D01*
X126708477Y-86095465D01*
X126679127Y-86005137D01*
X126645220Y-85900781D01*
X126645218Y-85900778D01*
X126645218Y-85900776D01*
X126583424Y-85779500D01*
X126552287Y-85718390D01*
X126490093Y-85632786D01*
X126431971Y-85552786D01*
X126287213Y-85408028D01*
X126121613Y-85287715D01*
X126121612Y-85287714D01*
X126121610Y-85287713D01*
X126064653Y-85258691D01*
X125939223Y-85194781D01*
X125744534Y-85131522D01*
X125569995Y-85103878D01*
X125542352Y-85099500D01*
X125337648Y-85099500D01*
X125313329Y-85103351D01*
X125135465Y-85131522D01*
X124940776Y-85194781D01*
X124758386Y-85287715D01*
X124592786Y-85408028D01*
X124448028Y-85552786D01*
X124327715Y-85718386D01*
X124234781Y-85900776D01*
X124171522Y-86095465D01*
X124139500Y-86297648D01*
X122887829Y-86297648D01*
X122868477Y-86175466D01*
X122805220Y-85980781D01*
X122805218Y-85980778D01*
X122805218Y-85980776D01*
X122751210Y-85874781D01*
X122712287Y-85798390D01*
X122698563Y-85779500D01*
X122591971Y-85632786D01*
X122447213Y-85488028D01*
X122281613Y-85367715D01*
X122281612Y-85367714D01*
X122281610Y-85367713D01*
X122217568Y-85335082D01*
X122099223Y-85274781D01*
X121904534Y-85211522D01*
X121729995Y-85183878D01*
X121702352Y-85179500D01*
X121497648Y-85179500D01*
X121473329Y-85183351D01*
X121295465Y-85211522D01*
X121100776Y-85274781D01*
X120918386Y-85367715D01*
X120752786Y-85488028D01*
X120608028Y-85632786D01*
X120487715Y-85798386D01*
X120394781Y-85980776D01*
X120382570Y-86018361D01*
X120343132Y-86076036D01*
X120278773Y-86103234D01*
X120209927Y-86091319D01*
X120176958Y-86067723D01*
X115261370Y-81152135D01*
X125519500Y-81152135D01*
X125519500Y-82387870D01*
X125519501Y-82387876D01*
X125525908Y-82447483D01*
X125576202Y-82582328D01*
X125576206Y-82582335D01*
X125662452Y-82697544D01*
X125662455Y-82697547D01*
X125777664Y-82783793D01*
X125777671Y-82783797D01*
X125912517Y-82834091D01*
X125912516Y-82834091D01*
X125919444Y-82834835D01*
X125972127Y-82840500D01*
X127207872Y-82840499D01*
X127267483Y-82834091D01*
X127402331Y-82783796D01*
X127517546Y-82697546D01*
X127603796Y-82582331D01*
X127654091Y-82447483D01*
X127660500Y-82387873D01*
X127660499Y-81152128D01*
X127654091Y-81092517D01*
X127603796Y-80957669D01*
X127603795Y-80957668D01*
X127603793Y-80957664D01*
X127517547Y-80842455D01*
X127517544Y-80842452D01*
X127402335Y-80756206D01*
X127402328Y-80756202D01*
X127267482Y-80705908D01*
X127267483Y-80705908D01*
X127207883Y-80699501D01*
X127207881Y-80699500D01*
X127207873Y-80699500D01*
X127207864Y-80699500D01*
X125972129Y-80699500D01*
X125972123Y-80699501D01*
X125912516Y-80705908D01*
X125777671Y-80756202D01*
X125777664Y-80756206D01*
X125662455Y-80842452D01*
X125662452Y-80842455D01*
X125576206Y-80957664D01*
X125576202Y-80957671D01*
X125525908Y-81092517D01*
X125519501Y-81152116D01*
X125519501Y-81152123D01*
X125519500Y-81152135D01*
X115261370Y-81152135D01*
X114897590Y-80788355D01*
X114897588Y-80788352D01*
X114778717Y-80669481D01*
X114778716Y-80669480D01*
X114691904Y-80619360D01*
X114691904Y-80619359D01*
X114691900Y-80619358D01*
X114641785Y-80590423D01*
X114489057Y-80549499D01*
X114330943Y-80549499D01*
X114323347Y-80549499D01*
X114323331Y-80549500D01*
X113132966Y-80549500D01*
X113065927Y-80529815D01*
X113020172Y-80477011D01*
X113018405Y-80472953D01*
X112968285Y-80351954D01*
X112968280Y-80351943D01*
X112926118Y-80278918D01*
X112850273Y-80147550D01*
X112706592Y-79960301D01*
X112706587Y-79960295D01*
X112539704Y-79793412D01*
X112539697Y-79793406D01*
X112352454Y-79649730D01*
X112352453Y-79649729D01*
X112352450Y-79649727D01*
X112270957Y-79602677D01*
X112148056Y-79531719D01*
X112148045Y-79531714D01*
X111929993Y-79441394D01*
X111702010Y-79380306D01*
X111468020Y-79349501D01*
X111468017Y-79349500D01*
X111468011Y-79349500D01*
X111231989Y-79349500D01*
X111231983Y-79349500D01*
X111231979Y-79349501D01*
X110997989Y-79380306D01*
X110770006Y-79441394D01*
X110551954Y-79531714D01*
X110551943Y-79531719D01*
X110347545Y-79649730D01*
X110160302Y-79793406D01*
X110160295Y-79793412D01*
X109993412Y-79960295D01*
X109993406Y-79960302D01*
X109849730Y-80147545D01*
X109731719Y-80351943D01*
X109731714Y-80351954D01*
X109641394Y-80570006D01*
X109580306Y-80797989D01*
X109549501Y-81031979D01*
X109549500Y-81031995D01*
X102900500Y-81031995D01*
X102900500Y-75049983D01*
X109549500Y-75049983D01*
X109549500Y-77250001D01*
X109549501Y-77250018D01*
X109560000Y-77352796D01*
X109560001Y-77352799D01*
X109582011Y-77419219D01*
X109615186Y-77519334D01*
X109707288Y-77668656D01*
X109831344Y-77792712D01*
X109980666Y-77884814D01*
X110147203Y-77939999D01*
X110249991Y-77950500D01*
X112249902Y-77950499D01*
X112316941Y-77970184D01*
X112337583Y-77986818D01*
X114115139Y-79764374D01*
X114115149Y-79764385D01*
X114119479Y-79768715D01*
X114119480Y-79768716D01*
X114231284Y-79880520D01*
X114318095Y-79930639D01*
X114318097Y-79930641D01*
X114356151Y-79952611D01*
X114368215Y-79959577D01*
X114520943Y-80000500D01*
X114679057Y-80000500D01*
X128999903Y-80000500D01*
X129066942Y-80020185D01*
X129087584Y-80036819D01*
X129597486Y-80546721D01*
X129630971Y-80608044D01*
X129625987Y-80677736D01*
X129584115Y-80733669D01*
X129518651Y-80758086D01*
X129462354Y-80748964D01*
X129457258Y-80746853D01*
X129442253Y-80740638D01*
X129442249Y-80740637D01*
X129442245Y-80740636D01*
X129235439Y-80699500D01*
X129235435Y-80699500D01*
X129024565Y-80699500D01*
X129024560Y-80699500D01*
X128817754Y-80740636D01*
X128817746Y-80740638D01*
X128622930Y-80821333D01*
X128622921Y-80821338D01*
X128447596Y-80938487D01*
X128447592Y-80938490D01*
X128298490Y-81087592D01*
X128298487Y-81087596D01*
X128181338Y-81262921D01*
X128181333Y-81262930D01*
X128100638Y-81457746D01*
X128100636Y-81457754D01*
X128059500Y-81664560D01*
X128059500Y-81875439D01*
X128100636Y-82082245D01*
X128100638Y-82082253D01*
X128181333Y-82277069D01*
X128181338Y-82277078D01*
X128298487Y-82452403D01*
X128298490Y-82452407D01*
X128447592Y-82601509D01*
X128447596Y-82601512D01*
X128622921Y-82718661D01*
X128622927Y-82718664D01*
X128622928Y-82718665D01*
X128817747Y-82799362D01*
X128992958Y-82834213D01*
X129024560Y-82840499D01*
X129024564Y-82840500D01*
X129024565Y-82840500D01*
X129235436Y-82840500D01*
X129235437Y-82840499D01*
X129442253Y-82799362D01*
X129637072Y-82718665D01*
X129812404Y-82601512D01*
X129961512Y-82452404D01*
X130078665Y-82277072D01*
X130159362Y-82082253D01*
X130200500Y-81875435D01*
X130200500Y-81664565D01*
X130159362Y-81457747D01*
X130151035Y-81437646D01*
X130143567Y-81368178D01*
X130174842Y-81305699D01*
X130234931Y-81270046D01*
X130304756Y-81272539D01*
X130353278Y-81302513D01*
X130571850Y-81521085D01*
X130605335Y-81582408D01*
X130605787Y-81632955D01*
X130599500Y-81664564D01*
X130599500Y-81875439D01*
X130640636Y-82082245D01*
X130640638Y-82082253D01*
X130721333Y-82277069D01*
X130721338Y-82277078D01*
X130838487Y-82452403D01*
X130838490Y-82452407D01*
X130987592Y-82601509D01*
X130987596Y-82601512D01*
X131162921Y-82718661D01*
X131162927Y-82718664D01*
X131162928Y-82718665D01*
X131357747Y-82799362D01*
X131532958Y-82834213D01*
X131564560Y-82840499D01*
X131564564Y-82840500D01*
X131564565Y-82840500D01*
X131775436Y-82840500D01*
X131775437Y-82840499D01*
X131982253Y-82799362D01*
X132177072Y-82718665D01*
X132352404Y-82601512D01*
X132501512Y-82452404D01*
X132618665Y-82277072D01*
X132699362Y-82082253D01*
X132740500Y-81875435D01*
X132740500Y-81664565D01*
X132699362Y-81457747D01*
X132622646Y-81272539D01*
X132618666Y-81262930D01*
X132618661Y-81262921D01*
X132501512Y-81087596D01*
X132501509Y-81087592D01*
X132352407Y-80938490D01*
X132352403Y-80938487D01*
X132177078Y-80821338D01*
X132177069Y-80821333D01*
X131982253Y-80740638D01*
X131982245Y-80740636D01*
X131775439Y-80699500D01*
X131775435Y-80699500D01*
X131564565Y-80699500D01*
X131532955Y-80705787D01*
X131463363Y-80699558D01*
X131421085Y-80671850D01*
X129787590Y-79038355D01*
X129787588Y-79038352D01*
X129668717Y-78919481D01*
X129668716Y-78919480D01*
X129581904Y-78869360D01*
X129581904Y-78869359D01*
X129581900Y-78869358D01*
X129531785Y-78840423D01*
X129379057Y-78799499D01*
X129220943Y-78799499D01*
X129213347Y-78799499D01*
X129213331Y-78799500D01*
X114900097Y-78799500D01*
X114833058Y-78779815D01*
X114812416Y-78763181D01*
X113186818Y-77137583D01*
X113153333Y-77076260D01*
X113150499Y-77049902D01*
X113150499Y-76217648D01*
X120299500Y-76217648D01*
X120299500Y-76422351D01*
X120331522Y-76624534D01*
X120394781Y-76819223D01*
X120487715Y-77001613D01*
X120608028Y-77167213D01*
X120752786Y-77311971D01*
X120900403Y-77419219D01*
X120918390Y-77432287D01*
X121034607Y-77491503D01*
X121100776Y-77525218D01*
X121100778Y-77525218D01*
X121100781Y-77525220D01*
X121205137Y-77559127D01*
X121295465Y-77588477D01*
X121378383Y-77601610D01*
X121497648Y-77620500D01*
X121497649Y-77620500D01*
X121702351Y-77620500D01*
X121702352Y-77620500D01*
X121904534Y-77588477D01*
X122099219Y-77525220D01*
X122281610Y-77432287D01*
X122391017Y-77352799D01*
X122447213Y-77311971D01*
X122447215Y-77311968D01*
X122447219Y-77311966D01*
X122591966Y-77167219D01*
X122591968Y-77167215D01*
X122591971Y-77167213D01*
X122697217Y-77022352D01*
X122712287Y-77001610D01*
X122805220Y-76819219D01*
X122868477Y-76624534D01*
X122900500Y-76422352D01*
X122900500Y-76217648D01*
X122868477Y-76015466D01*
X122805220Y-75820781D01*
X122805218Y-75820778D01*
X122805218Y-75820776D01*
X122751210Y-75714781D01*
X122712287Y-75638390D01*
X122698563Y-75619500D01*
X122591971Y-75472786D01*
X122447213Y-75328028D01*
X122281613Y-75207715D01*
X122281612Y-75207714D01*
X122281610Y-75207713D01*
X122224653Y-75178691D01*
X122099223Y-75114781D01*
X121904534Y-75051522D01*
X121729995Y-75023878D01*
X121702352Y-75019500D01*
X121497648Y-75019500D01*
X121473329Y-75023351D01*
X121295465Y-75051522D01*
X121100776Y-75114781D01*
X120918386Y-75207715D01*
X120752786Y-75328028D01*
X120608028Y-75472786D01*
X120487715Y-75638386D01*
X120394781Y-75820776D01*
X120331522Y-76015465D01*
X120299500Y-76217648D01*
X113150499Y-76217648D01*
X113150499Y-75049998D01*
X113150498Y-75049981D01*
X113139999Y-74947204D01*
X113137793Y-74940546D01*
X113131500Y-74901544D01*
X113131500Y-74889945D01*
X113131500Y-74889943D01*
X113090577Y-74737216D01*
X113046867Y-74661509D01*
X113011521Y-74600287D01*
X113011516Y-74600281D01*
X112899718Y-74488483D01*
X112899712Y-74488478D01*
X112762786Y-74409424D01*
X112762785Y-74409423D01*
X112762784Y-74409423D01*
X112610057Y-74368500D01*
X112610056Y-74368500D01*
X112598454Y-74368500D01*
X112559452Y-74362206D01*
X112555855Y-74361014D01*
X112552798Y-74360001D01*
X112552791Y-74360000D01*
X112450010Y-74349500D01*
X110249998Y-74349500D01*
X110249981Y-74349501D01*
X110147203Y-74360000D01*
X110147200Y-74360001D01*
X109980668Y-74415185D01*
X109980663Y-74415187D01*
X109831342Y-74507289D01*
X109707289Y-74631342D01*
X109615187Y-74780663D01*
X109615186Y-74780666D01*
X109560001Y-74947203D01*
X109560001Y-74947204D01*
X109560000Y-74947204D01*
X109549500Y-75049983D01*
X102900500Y-75049983D01*
X102900500Y-73724560D01*
X125519500Y-73724560D01*
X125519500Y-73935439D01*
X125560636Y-74142245D01*
X125560638Y-74142253D01*
X125641333Y-74337069D01*
X125641338Y-74337078D01*
X125758487Y-74512403D01*
X125758490Y-74512407D01*
X125907592Y-74661509D01*
X125907596Y-74661512D01*
X126082921Y-74778661D01*
X126082930Y-74778666D01*
X126127063Y-74796946D01*
X126277747Y-74859362D01*
X126431491Y-74889943D01*
X126484560Y-74900499D01*
X126484564Y-74900500D01*
X126484565Y-74900500D01*
X126695436Y-74900500D01*
X126695437Y-74900499D01*
X126902253Y-74859362D01*
X127097072Y-74778665D01*
X127272404Y-74661512D01*
X127421512Y-74512404D01*
X127538665Y-74337072D01*
X127619362Y-74142253D01*
X127660500Y-73935435D01*
X127660500Y-73724565D01*
X127619362Y-73517747D01*
X127538665Y-73322928D01*
X127538664Y-73322927D01*
X127538661Y-73322921D01*
X127421512Y-73147596D01*
X127421509Y-73147592D01*
X127272407Y-72998490D01*
X127272403Y-72998487D01*
X127097078Y-72881338D01*
X127097069Y-72881333D01*
X126902253Y-72800638D01*
X126902245Y-72800636D01*
X126695439Y-72759500D01*
X126695435Y-72759500D01*
X126484565Y-72759500D01*
X126484560Y-72759500D01*
X126277754Y-72800636D01*
X126277746Y-72800638D01*
X126082930Y-72881333D01*
X126082921Y-72881338D01*
X125907596Y-72998487D01*
X125907592Y-72998490D01*
X125758490Y-73147592D01*
X125758487Y-73147596D01*
X125641338Y-73322921D01*
X125641333Y-73322930D01*
X125560638Y-73517746D01*
X125560636Y-73517754D01*
X125519500Y-73724560D01*
X102900500Y-73724560D01*
X102900500Y-69024500D01*
X102920185Y-68957461D01*
X102972989Y-68911706D01*
X103024500Y-68900500D01*
X147975500Y-68900500D01*
X148042539Y-68920185D01*
G37*
%TD.AperFunction*%
%TD*%
D17*
X102400000Y-68400000D02*
X148600000Y-68400000D01*
X148600000Y-128600000D01*
X102400000Y-128600000D01*
X102400000Y-68400000D01*
M02*
