%TF.GenerationSoftware,KiCad,Pcbnew,9.0.7*%
%TF.CreationDate,2026-03-14T20:27:04+05:30*%
%TF.ProjectId,full_wave_rectifier,66756c6c-5f77-4617-9665-5f7265637469,rev?*%
%TF.SameCoordinates,Original*%
%TF.FileFunction,Drillmap*%
%TF.FilePolarity,Positive*%
%FSLAX45Y45*%
G04 Gerber Fmt 4.5, Leading zero omitted, Abs format (unit mm)*
G04 Created by KiCad (PCBNEW 9.0.7) date 2026-03-14 20:27:04*
%MOMM*%
%LPD*%
G01*
G04 APERTURE LIST*
%ADD10C,0.050000*%
%ADD11C,0.200000*%
G04 APERTURE END LIST*
D10*
X15120000Y-8520000D02*
X19920000Y-8520000D01*
X19920000Y-11000000D01*
X15120000Y-11000000D01*
X15120000Y-8520000D01*
D11*
X15378277Y-11313984D02*
X15378277Y-11113984D01*
X15378277Y-11113984D02*
X15425896Y-11113984D01*
X15425896Y-11113984D02*
X15454467Y-11123508D01*
X15454467Y-11123508D02*
X15473515Y-11142555D01*
X15473515Y-11142555D02*
X15483039Y-11161603D01*
X15483039Y-11161603D02*
X15492562Y-11199698D01*
X15492562Y-11199698D02*
X15492562Y-11228269D01*
X15492562Y-11228269D02*
X15483039Y-11266365D01*
X15483039Y-11266365D02*
X15473515Y-11285412D01*
X15473515Y-11285412D02*
X15454467Y-11304460D01*
X15454467Y-11304460D02*
X15425896Y-11313984D01*
X15425896Y-11313984D02*
X15378277Y-11313984D01*
X15578277Y-11313984D02*
X15578277Y-11180650D01*
X15578277Y-11218746D02*
X15587801Y-11199698D01*
X15587801Y-11199698D02*
X15597324Y-11190174D01*
X15597324Y-11190174D02*
X15616372Y-11180650D01*
X15616372Y-11180650D02*
X15635420Y-11180650D01*
X15702086Y-11313984D02*
X15702086Y-11180650D01*
X15702086Y-11113984D02*
X15692562Y-11123508D01*
X15692562Y-11123508D02*
X15702086Y-11133031D01*
X15702086Y-11133031D02*
X15711610Y-11123508D01*
X15711610Y-11123508D02*
X15702086Y-11113984D01*
X15702086Y-11113984D02*
X15702086Y-11133031D01*
X15825896Y-11313984D02*
X15806848Y-11304460D01*
X15806848Y-11304460D02*
X15797324Y-11285412D01*
X15797324Y-11285412D02*
X15797324Y-11113984D01*
X15930658Y-11313984D02*
X15911610Y-11304460D01*
X15911610Y-11304460D02*
X15902086Y-11285412D01*
X15902086Y-11285412D02*
X15902086Y-11113984D01*
X16159229Y-11313984D02*
X16159229Y-11113984D01*
X16159229Y-11113984D02*
X16225896Y-11256841D01*
X16225896Y-11256841D02*
X16292562Y-11113984D01*
X16292562Y-11113984D02*
X16292562Y-11313984D01*
X16473515Y-11313984D02*
X16473515Y-11209222D01*
X16473515Y-11209222D02*
X16463991Y-11190174D01*
X16463991Y-11190174D02*
X16444943Y-11180650D01*
X16444943Y-11180650D02*
X16406848Y-11180650D01*
X16406848Y-11180650D02*
X16387801Y-11190174D01*
X16473515Y-11304460D02*
X16454467Y-11313984D01*
X16454467Y-11313984D02*
X16406848Y-11313984D01*
X16406848Y-11313984D02*
X16387801Y-11304460D01*
X16387801Y-11304460D02*
X16378277Y-11285412D01*
X16378277Y-11285412D02*
X16378277Y-11266365D01*
X16378277Y-11266365D02*
X16387801Y-11247317D01*
X16387801Y-11247317D02*
X16406848Y-11237793D01*
X16406848Y-11237793D02*
X16454467Y-11237793D01*
X16454467Y-11237793D02*
X16473515Y-11228269D01*
X16568753Y-11180650D02*
X16568753Y-11380650D01*
X16568753Y-11190174D02*
X16587801Y-11180650D01*
X16587801Y-11180650D02*
X16625896Y-11180650D01*
X16625896Y-11180650D02*
X16644943Y-11190174D01*
X16644943Y-11190174D02*
X16654467Y-11199698D01*
X16654467Y-11199698D02*
X16663991Y-11218746D01*
X16663991Y-11218746D02*
X16663991Y-11275888D01*
X16663991Y-11275888D02*
X16654467Y-11294936D01*
X16654467Y-11294936D02*
X16644943Y-11304460D01*
X16644943Y-11304460D02*
X16625896Y-11313984D01*
X16625896Y-11313984D02*
X16587801Y-11313984D01*
X16587801Y-11313984D02*
X16568753Y-11304460D01*
X16749705Y-11294936D02*
X16759229Y-11304460D01*
X16759229Y-11304460D02*
X16749705Y-11313984D01*
X16749705Y-11313984D02*
X16740182Y-11304460D01*
X16740182Y-11304460D02*
X16749705Y-11294936D01*
X16749705Y-11294936D02*
X16749705Y-11313984D01*
X16749705Y-11190174D02*
X16759229Y-11199698D01*
X16759229Y-11199698D02*
X16749705Y-11209222D01*
X16749705Y-11209222D02*
X16740182Y-11199698D01*
X16740182Y-11199698D02*
X16749705Y-11190174D01*
X16749705Y-11190174D02*
X16749705Y-11209222D01*
M02*
