%TF.GenerationSoftware,KiCad,Pcbnew,9.0.7*%
%TF.CreationDate,2026-03-14T20:27:04+05:30*%
%TF.ProjectId,full_wave_rectifier,66756c6c-5f77-4617-9665-5f7265637469,rev?*%
%TF.SameCoordinates,Original*%
%TF.FileFunction,Drillmap*%
%TF.FilePolarity,Positive*%
%FSLAX45Y45*%
G04 Gerber Fmt 4.5, Leading zero omitted, Abs format (unit mm)*
G04 Created by KiCad (PCBNEW 9.0.7) date 2026-03-14 20:27:04*
%MOMM*%
%LPD*%
G01*
G04 APERTURE LIST*
%ADD10C,0.050000*%
%ADD11C,0.200000*%
%ADD12C,0.100000*%
%ADD13C,0.120000*%
%ADD14C,0.130000*%
G04 APERTURE END LIST*
D10*
X15120000Y-8520000D02*
X19920000Y-8520000D01*
X19920000Y-11000000D01*
X15120000Y-11000000D01*
X15120000Y-8520000D01*
D11*
D12*
X16839000Y-9740000D02*
X16919000Y-9820000D01*
X16919000Y-9740000D02*
X16839000Y-9820000D01*
X17601000Y-9740000D02*
X17681000Y-9820000D01*
X17681000Y-9740000D02*
X17601000Y-9820000D01*
D13*
X16965000Y-10520000D02*
G75*
G02*
X16845000Y-10520000I-60000J0D01*
G01*
X16845000Y-10520000D02*
G75*
G02*
X16965000Y-10520000I60000J0D01*
G01*
X16980000Y-8980000D02*
G75*
G02*
X16860000Y-8980000I-60000J0D01*
G01*
X16860000Y-8980000D02*
G75*
G02*
X16980000Y-8980000I60000J0D01*
G01*
X18235000Y-10520000D02*
G75*
G02*
X18115000Y-10520000I-60000J0D01*
G01*
X18115000Y-10520000D02*
G75*
G02*
X18235000Y-10520000I60000J0D01*
G01*
X18250000Y-8980000D02*
G75*
G02*
X18130000Y-8980000I-60000J0D01*
G01*
X18130000Y-8980000D02*
G75*
G02*
X18250000Y-8980000I60000J0D01*
G01*
D14*
X15902750Y-9135000D02*
X15902750Y-9265000D01*
X15837750Y-9200000D02*
X15967750Y-9200000D01*
X15902750Y-9635000D02*
X15902750Y-9765000D01*
X15837750Y-9700000D02*
X15967750Y-9700000D01*
X15902750Y-10135000D02*
X15902750Y-10265000D01*
X15837750Y-10200000D02*
X15967750Y-10200000D01*
X19177250Y-9565000D02*
X19177250Y-9695000D01*
X19112250Y-9630000D02*
X19242250Y-9630000D01*
X19177250Y-10065000D02*
X19177250Y-10195000D01*
X19112250Y-10130000D02*
X19242250Y-10130000D01*
D11*
X15378277Y-11313984D02*
X15378277Y-11113984D01*
X15378277Y-11113984D02*
X15425896Y-11113984D01*
X15425896Y-11113984D02*
X15454467Y-11123508D01*
X15454467Y-11123508D02*
X15473515Y-11142555D01*
X15473515Y-11142555D02*
X15483039Y-11161603D01*
X15483039Y-11161603D02*
X15492562Y-11199698D01*
X15492562Y-11199698D02*
X15492562Y-11228269D01*
X15492562Y-11228269D02*
X15483039Y-11266365D01*
X15483039Y-11266365D02*
X15473515Y-11285412D01*
X15473515Y-11285412D02*
X15454467Y-11304460D01*
X15454467Y-11304460D02*
X15425896Y-11313984D01*
X15425896Y-11313984D02*
X15378277Y-11313984D01*
X15578277Y-11313984D02*
X15578277Y-11180650D01*
X15578277Y-11218746D02*
X15587801Y-11199698D01*
X15587801Y-11199698D02*
X15597324Y-11190174D01*
X15597324Y-11190174D02*
X15616372Y-11180650D01*
X15616372Y-11180650D02*
X15635420Y-11180650D01*
X15702086Y-11313984D02*
X15702086Y-11180650D01*
X15702086Y-11113984D02*
X15692562Y-11123508D01*
X15692562Y-11123508D02*
X15702086Y-11133031D01*
X15702086Y-11133031D02*
X15711610Y-11123508D01*
X15711610Y-11123508D02*
X15702086Y-11113984D01*
X15702086Y-11113984D02*
X15702086Y-11133031D01*
X15825896Y-11313984D02*
X15806848Y-11304460D01*
X15806848Y-11304460D02*
X15797324Y-11285412D01*
X15797324Y-11285412D02*
X15797324Y-11113984D01*
X15930658Y-11313984D02*
X15911610Y-11304460D01*
X15911610Y-11304460D02*
X15902086Y-11285412D01*
X15902086Y-11285412D02*
X15902086Y-11113984D01*
X16159229Y-11313984D02*
X16159229Y-11113984D01*
X16159229Y-11113984D02*
X16225896Y-11256841D01*
X16225896Y-11256841D02*
X16292562Y-11113984D01*
X16292562Y-11113984D02*
X16292562Y-11313984D01*
X16473515Y-11313984D02*
X16473515Y-11209222D01*
X16473515Y-11209222D02*
X16463991Y-11190174D01*
X16463991Y-11190174D02*
X16444943Y-11180650D01*
X16444943Y-11180650D02*
X16406848Y-11180650D01*
X16406848Y-11180650D02*
X16387801Y-11190174D01*
X16473515Y-11304460D02*
X16454467Y-11313984D01*
X16454467Y-11313984D02*
X16406848Y-11313984D01*
X16406848Y-11313984D02*
X16387801Y-11304460D01*
X16387801Y-11304460D02*
X16378277Y-11285412D01*
X16378277Y-11285412D02*
X16378277Y-11266365D01*
X16378277Y-11266365D02*
X16387801Y-11247317D01*
X16387801Y-11247317D02*
X16406848Y-11237793D01*
X16406848Y-11237793D02*
X16454467Y-11237793D01*
X16454467Y-11237793D02*
X16473515Y-11228269D01*
X16568753Y-11180650D02*
X16568753Y-11380650D01*
X16568753Y-11190174D02*
X16587801Y-11180650D01*
X16587801Y-11180650D02*
X16625896Y-11180650D01*
X16625896Y-11180650D02*
X16644943Y-11190174D01*
X16644943Y-11190174D02*
X16654467Y-11199698D01*
X16654467Y-11199698D02*
X16663991Y-11218746D01*
X16663991Y-11218746D02*
X16663991Y-11275888D01*
X16663991Y-11275888D02*
X16654467Y-11294936D01*
X16654467Y-11294936D02*
X16644943Y-11304460D01*
X16644943Y-11304460D02*
X16625896Y-11313984D01*
X16625896Y-11313984D02*
X16587801Y-11313984D01*
X16587801Y-11313984D02*
X16568753Y-11304460D01*
X16749705Y-11294936D02*
X16759229Y-11304460D01*
X16759229Y-11304460D02*
X16749705Y-11313984D01*
X16749705Y-11313984D02*
X16740182Y-11304460D01*
X16740182Y-11304460D02*
X16749705Y-11294936D01*
X16749705Y-11294936D02*
X16749705Y-11313984D01*
X16749705Y-11190174D02*
X16759229Y-11199698D01*
X16759229Y-11199698D02*
X16749705Y-11209222D01*
X16749705Y-11209222D02*
X16740182Y-11199698D01*
X16740182Y-11199698D02*
X16749705Y-11190174D01*
X16749705Y-11190174D02*
X16749705Y-11209222D01*
D12*
X15037500Y-11602500D02*
X15117500Y-11682500D01*
X15117500Y-11602500D02*
X15037500Y-11682500D01*
D11*
X15416372Y-11533984D02*
X15435420Y-11533984D01*
X15435420Y-11533984D02*
X15454467Y-11543508D01*
X15454467Y-11543508D02*
X15463991Y-11553031D01*
X15463991Y-11553031D02*
X15473515Y-11572079D01*
X15473515Y-11572079D02*
X15483039Y-11610174D01*
X15483039Y-11610174D02*
X15483039Y-11657793D01*
X15483039Y-11657793D02*
X15473515Y-11695888D01*
X15473515Y-11695888D02*
X15463991Y-11714936D01*
X15463991Y-11714936D02*
X15454467Y-11724460D01*
X15454467Y-11724460D02*
X15435420Y-11733984D01*
X15435420Y-11733984D02*
X15416372Y-11733984D01*
X15416372Y-11733984D02*
X15397324Y-11724460D01*
X15397324Y-11724460D02*
X15387801Y-11714936D01*
X15387801Y-11714936D02*
X15378277Y-11695888D01*
X15378277Y-11695888D02*
X15368753Y-11657793D01*
X15368753Y-11657793D02*
X15368753Y-11610174D01*
X15368753Y-11610174D02*
X15378277Y-11572079D01*
X15378277Y-11572079D02*
X15387801Y-11553031D01*
X15387801Y-11553031D02*
X15397324Y-11543508D01*
X15397324Y-11543508D02*
X15416372Y-11533984D01*
X15568753Y-11714936D02*
X15578277Y-11724460D01*
X15578277Y-11724460D02*
X15568753Y-11733984D01*
X15568753Y-11733984D02*
X15559229Y-11724460D01*
X15559229Y-11724460D02*
X15568753Y-11714936D01*
X15568753Y-11714936D02*
X15568753Y-11733984D01*
X15692562Y-11619698D02*
X15673515Y-11610174D01*
X15673515Y-11610174D02*
X15663991Y-11600650D01*
X15663991Y-11600650D02*
X15654467Y-11581603D01*
X15654467Y-11581603D02*
X15654467Y-11572079D01*
X15654467Y-11572079D02*
X15663991Y-11553031D01*
X15663991Y-11553031D02*
X15673515Y-11543508D01*
X15673515Y-11543508D02*
X15692562Y-11533984D01*
X15692562Y-11533984D02*
X15730658Y-11533984D01*
X15730658Y-11533984D02*
X15749705Y-11543508D01*
X15749705Y-11543508D02*
X15759229Y-11553031D01*
X15759229Y-11553031D02*
X15768753Y-11572079D01*
X15768753Y-11572079D02*
X15768753Y-11581603D01*
X15768753Y-11581603D02*
X15759229Y-11600650D01*
X15759229Y-11600650D02*
X15749705Y-11610174D01*
X15749705Y-11610174D02*
X15730658Y-11619698D01*
X15730658Y-11619698D02*
X15692562Y-11619698D01*
X15692562Y-11619698D02*
X15673515Y-11629222D01*
X15673515Y-11629222D02*
X15663991Y-11638746D01*
X15663991Y-11638746D02*
X15654467Y-11657793D01*
X15654467Y-11657793D02*
X15654467Y-11695888D01*
X15654467Y-11695888D02*
X15663991Y-11714936D01*
X15663991Y-11714936D02*
X15673515Y-11724460D01*
X15673515Y-11724460D02*
X15692562Y-11733984D01*
X15692562Y-11733984D02*
X15730658Y-11733984D01*
X15730658Y-11733984D02*
X15749705Y-11724460D01*
X15749705Y-11724460D02*
X15759229Y-11714936D01*
X15759229Y-11714936D02*
X15768753Y-11695888D01*
X15768753Y-11695888D02*
X15768753Y-11657793D01*
X15768753Y-11657793D02*
X15759229Y-11638746D01*
X15759229Y-11638746D02*
X15749705Y-11629222D01*
X15749705Y-11629222D02*
X15730658Y-11619698D01*
X15892562Y-11533984D02*
X15911610Y-11533984D01*
X15911610Y-11533984D02*
X15930658Y-11543508D01*
X15930658Y-11543508D02*
X15940182Y-11553031D01*
X15940182Y-11553031D02*
X15949705Y-11572079D01*
X15949705Y-11572079D02*
X15959229Y-11610174D01*
X15959229Y-11610174D02*
X15959229Y-11657793D01*
X15959229Y-11657793D02*
X15949705Y-11695888D01*
X15949705Y-11695888D02*
X15940182Y-11714936D01*
X15940182Y-11714936D02*
X15930658Y-11724460D01*
X15930658Y-11724460D02*
X15911610Y-11733984D01*
X15911610Y-11733984D02*
X15892562Y-11733984D01*
X15892562Y-11733984D02*
X15873515Y-11724460D01*
X15873515Y-11724460D02*
X15863991Y-11714936D01*
X15863991Y-11714936D02*
X15854467Y-11695888D01*
X15854467Y-11695888D02*
X15844943Y-11657793D01*
X15844943Y-11657793D02*
X15844943Y-11610174D01*
X15844943Y-11610174D02*
X15854467Y-11572079D01*
X15854467Y-11572079D02*
X15863991Y-11553031D01*
X15863991Y-11553031D02*
X15873515Y-11543508D01*
X15873515Y-11543508D02*
X15892562Y-11533984D01*
X16083039Y-11533984D02*
X16102086Y-11533984D01*
X16102086Y-11533984D02*
X16121134Y-11543508D01*
X16121134Y-11543508D02*
X16130658Y-11553031D01*
X16130658Y-11553031D02*
X16140182Y-11572079D01*
X16140182Y-11572079D02*
X16149705Y-11610174D01*
X16149705Y-11610174D02*
X16149705Y-11657793D01*
X16149705Y-11657793D02*
X16140182Y-11695888D01*
X16140182Y-11695888D02*
X16130658Y-11714936D01*
X16130658Y-11714936D02*
X16121134Y-11724460D01*
X16121134Y-11724460D02*
X16102086Y-11733984D01*
X16102086Y-11733984D02*
X16083039Y-11733984D01*
X16083039Y-11733984D02*
X16063991Y-11724460D01*
X16063991Y-11724460D02*
X16054467Y-11714936D01*
X16054467Y-11714936D02*
X16044943Y-11695888D01*
X16044943Y-11695888D02*
X16035420Y-11657793D01*
X16035420Y-11657793D02*
X16035420Y-11610174D01*
X16035420Y-11610174D02*
X16044943Y-11572079D01*
X16044943Y-11572079D02*
X16054467Y-11553031D01*
X16054467Y-11553031D02*
X16063991Y-11543508D01*
X16063991Y-11543508D02*
X16083039Y-11533984D01*
X16235420Y-11733984D02*
X16235420Y-11600650D01*
X16235420Y-11619698D02*
X16244943Y-11610174D01*
X16244943Y-11610174D02*
X16263991Y-11600650D01*
X16263991Y-11600650D02*
X16292563Y-11600650D01*
X16292563Y-11600650D02*
X16311610Y-11610174D01*
X16311610Y-11610174D02*
X16321134Y-11629222D01*
X16321134Y-11629222D02*
X16321134Y-11733984D01*
X16321134Y-11629222D02*
X16330658Y-11610174D01*
X16330658Y-11610174D02*
X16349705Y-11600650D01*
X16349705Y-11600650D02*
X16378277Y-11600650D01*
X16378277Y-11600650D02*
X16397324Y-11610174D01*
X16397324Y-11610174D02*
X16406848Y-11629222D01*
X16406848Y-11629222D02*
X16406848Y-11733984D01*
X16502086Y-11733984D02*
X16502086Y-11600650D01*
X16502086Y-11619698D02*
X16511610Y-11610174D01*
X16511610Y-11610174D02*
X16530658Y-11600650D01*
X16530658Y-11600650D02*
X16559229Y-11600650D01*
X16559229Y-11600650D02*
X16578277Y-11610174D01*
X16578277Y-11610174D02*
X16587801Y-11629222D01*
X16587801Y-11629222D02*
X16587801Y-11733984D01*
X16587801Y-11629222D02*
X16597324Y-11610174D01*
X16597324Y-11610174D02*
X16616372Y-11600650D01*
X16616372Y-11600650D02*
X16644943Y-11600650D01*
X16644943Y-11600650D02*
X16663991Y-11610174D01*
X16663991Y-11610174D02*
X16673515Y-11629222D01*
X16673515Y-11629222D02*
X16673515Y-11733984D01*
X17063991Y-11524460D02*
X16892563Y-11781603D01*
X17321134Y-11533984D02*
X17340182Y-11533984D01*
X17340182Y-11533984D02*
X17359229Y-11543508D01*
X17359229Y-11543508D02*
X17368753Y-11553031D01*
X17368753Y-11553031D02*
X17378277Y-11572079D01*
X17378277Y-11572079D02*
X17387801Y-11610174D01*
X17387801Y-11610174D02*
X17387801Y-11657793D01*
X17387801Y-11657793D02*
X17378277Y-11695888D01*
X17378277Y-11695888D02*
X17368753Y-11714936D01*
X17368753Y-11714936D02*
X17359229Y-11724460D01*
X17359229Y-11724460D02*
X17340182Y-11733984D01*
X17340182Y-11733984D02*
X17321134Y-11733984D01*
X17321134Y-11733984D02*
X17302087Y-11724460D01*
X17302087Y-11724460D02*
X17292563Y-11714936D01*
X17292563Y-11714936D02*
X17283039Y-11695888D01*
X17283039Y-11695888D02*
X17273515Y-11657793D01*
X17273515Y-11657793D02*
X17273515Y-11610174D01*
X17273515Y-11610174D02*
X17283039Y-11572079D01*
X17283039Y-11572079D02*
X17292563Y-11553031D01*
X17292563Y-11553031D02*
X17302087Y-11543508D01*
X17302087Y-11543508D02*
X17321134Y-11533984D01*
X17473515Y-11714936D02*
X17483039Y-11724460D01*
X17483039Y-11724460D02*
X17473515Y-11733984D01*
X17473515Y-11733984D02*
X17463991Y-11724460D01*
X17463991Y-11724460D02*
X17473515Y-11714936D01*
X17473515Y-11714936D02*
X17473515Y-11733984D01*
X17606848Y-11533984D02*
X17625896Y-11533984D01*
X17625896Y-11533984D02*
X17644944Y-11543508D01*
X17644944Y-11543508D02*
X17654468Y-11553031D01*
X17654468Y-11553031D02*
X17663991Y-11572079D01*
X17663991Y-11572079D02*
X17673515Y-11610174D01*
X17673515Y-11610174D02*
X17673515Y-11657793D01*
X17673515Y-11657793D02*
X17663991Y-11695888D01*
X17663991Y-11695888D02*
X17654468Y-11714936D01*
X17654468Y-11714936D02*
X17644944Y-11724460D01*
X17644944Y-11724460D02*
X17625896Y-11733984D01*
X17625896Y-11733984D02*
X17606848Y-11733984D01*
X17606848Y-11733984D02*
X17587801Y-11724460D01*
X17587801Y-11724460D02*
X17578277Y-11714936D01*
X17578277Y-11714936D02*
X17568753Y-11695888D01*
X17568753Y-11695888D02*
X17559229Y-11657793D01*
X17559229Y-11657793D02*
X17559229Y-11610174D01*
X17559229Y-11610174D02*
X17568753Y-11572079D01*
X17568753Y-11572079D02*
X17578277Y-11553031D01*
X17578277Y-11553031D02*
X17587801Y-11543508D01*
X17587801Y-11543508D02*
X17606848Y-11533984D01*
X17740182Y-11533984D02*
X17863991Y-11533984D01*
X17863991Y-11533984D02*
X17797325Y-11610174D01*
X17797325Y-11610174D02*
X17825896Y-11610174D01*
X17825896Y-11610174D02*
X17844944Y-11619698D01*
X17844944Y-11619698D02*
X17854468Y-11629222D01*
X17854468Y-11629222D02*
X17863991Y-11648269D01*
X17863991Y-11648269D02*
X17863991Y-11695888D01*
X17863991Y-11695888D02*
X17854468Y-11714936D01*
X17854468Y-11714936D02*
X17844944Y-11724460D01*
X17844944Y-11724460D02*
X17825896Y-11733984D01*
X17825896Y-11733984D02*
X17768753Y-11733984D01*
X17768753Y-11733984D02*
X17749706Y-11724460D01*
X17749706Y-11724460D02*
X17740182Y-11714936D01*
X18054468Y-11733984D02*
X17940182Y-11733984D01*
X17997325Y-11733984D02*
X17997325Y-11533984D01*
X17997325Y-11533984D02*
X17978277Y-11562555D01*
X17978277Y-11562555D02*
X17959229Y-11581603D01*
X17959229Y-11581603D02*
X17940182Y-11591127D01*
X18235420Y-11533984D02*
X18140182Y-11533984D01*
X18140182Y-11533984D02*
X18130658Y-11629222D01*
X18130658Y-11629222D02*
X18140182Y-11619698D01*
X18140182Y-11619698D02*
X18159229Y-11610174D01*
X18159229Y-11610174D02*
X18206849Y-11610174D01*
X18206849Y-11610174D02*
X18225896Y-11619698D01*
X18225896Y-11619698D02*
X18235420Y-11629222D01*
X18235420Y-11629222D02*
X18244944Y-11648269D01*
X18244944Y-11648269D02*
X18244944Y-11695888D01*
X18244944Y-11695888D02*
X18235420Y-11714936D01*
X18235420Y-11714936D02*
X18225896Y-11724460D01*
X18225896Y-11724460D02*
X18206849Y-11733984D01*
X18206849Y-11733984D02*
X18159229Y-11733984D01*
X18159229Y-11733984D02*
X18140182Y-11724460D01*
X18140182Y-11724460D02*
X18130658Y-11714936D01*
X18321134Y-11533984D02*
X18321134Y-11572079D01*
X18397325Y-11533984D02*
X18397325Y-11572079D01*
X18692563Y-11810174D02*
X18683039Y-11800650D01*
X18683039Y-11800650D02*
X18663991Y-11772079D01*
X18663991Y-11772079D02*
X18654468Y-11753031D01*
X18654468Y-11753031D02*
X18644944Y-11724460D01*
X18644944Y-11724460D02*
X18635420Y-11676841D01*
X18635420Y-11676841D02*
X18635420Y-11638746D01*
X18635420Y-11638746D02*
X18644944Y-11591127D01*
X18644944Y-11591127D02*
X18654468Y-11562555D01*
X18654468Y-11562555D02*
X18663991Y-11543508D01*
X18663991Y-11543508D02*
X18683039Y-11514936D01*
X18683039Y-11514936D02*
X18692563Y-11505412D01*
X18759230Y-11553031D02*
X18768753Y-11543508D01*
X18768753Y-11543508D02*
X18787801Y-11533984D01*
X18787801Y-11533984D02*
X18835420Y-11533984D01*
X18835420Y-11533984D02*
X18854468Y-11543508D01*
X18854468Y-11543508D02*
X18863991Y-11553031D01*
X18863991Y-11553031D02*
X18873515Y-11572079D01*
X18873515Y-11572079D02*
X18873515Y-11591127D01*
X18873515Y-11591127D02*
X18863991Y-11619698D01*
X18863991Y-11619698D02*
X18749706Y-11733984D01*
X18749706Y-11733984D02*
X18873515Y-11733984D01*
X19111611Y-11733984D02*
X19111611Y-11533984D01*
X19197325Y-11733984D02*
X19197325Y-11629222D01*
X19197325Y-11629222D02*
X19187801Y-11610174D01*
X19187801Y-11610174D02*
X19168753Y-11600650D01*
X19168753Y-11600650D02*
X19140182Y-11600650D01*
X19140182Y-11600650D02*
X19121134Y-11610174D01*
X19121134Y-11610174D02*
X19111611Y-11619698D01*
X19321134Y-11733984D02*
X19302087Y-11724460D01*
X19302087Y-11724460D02*
X19292563Y-11714936D01*
X19292563Y-11714936D02*
X19283039Y-11695888D01*
X19283039Y-11695888D02*
X19283039Y-11638746D01*
X19283039Y-11638746D02*
X19292563Y-11619698D01*
X19292563Y-11619698D02*
X19302087Y-11610174D01*
X19302087Y-11610174D02*
X19321134Y-11600650D01*
X19321134Y-11600650D02*
X19349706Y-11600650D01*
X19349706Y-11600650D02*
X19368753Y-11610174D01*
X19368753Y-11610174D02*
X19378277Y-11619698D01*
X19378277Y-11619698D02*
X19387801Y-11638746D01*
X19387801Y-11638746D02*
X19387801Y-11695888D01*
X19387801Y-11695888D02*
X19378277Y-11714936D01*
X19378277Y-11714936D02*
X19368753Y-11724460D01*
X19368753Y-11724460D02*
X19349706Y-11733984D01*
X19349706Y-11733984D02*
X19321134Y-11733984D01*
X19502087Y-11733984D02*
X19483039Y-11724460D01*
X19483039Y-11724460D02*
X19473515Y-11705412D01*
X19473515Y-11705412D02*
X19473515Y-11533984D01*
X19654468Y-11724460D02*
X19635420Y-11733984D01*
X19635420Y-11733984D02*
X19597325Y-11733984D01*
X19597325Y-11733984D02*
X19578277Y-11724460D01*
X19578277Y-11724460D02*
X19568753Y-11705412D01*
X19568753Y-11705412D02*
X19568753Y-11629222D01*
X19568753Y-11629222D02*
X19578277Y-11610174D01*
X19578277Y-11610174D02*
X19597325Y-11600650D01*
X19597325Y-11600650D02*
X19635420Y-11600650D01*
X19635420Y-11600650D02*
X19654468Y-11610174D01*
X19654468Y-11610174D02*
X19663992Y-11629222D01*
X19663992Y-11629222D02*
X19663992Y-11648269D01*
X19663992Y-11648269D02*
X19568753Y-11667317D01*
X19740182Y-11724460D02*
X19759230Y-11733984D01*
X19759230Y-11733984D02*
X19797325Y-11733984D01*
X19797325Y-11733984D02*
X19816373Y-11724460D01*
X19816373Y-11724460D02*
X19825896Y-11705412D01*
X19825896Y-11705412D02*
X19825896Y-11695888D01*
X19825896Y-11695888D02*
X19816373Y-11676841D01*
X19816373Y-11676841D02*
X19797325Y-11667317D01*
X19797325Y-11667317D02*
X19768753Y-11667317D01*
X19768753Y-11667317D02*
X19749706Y-11657793D01*
X19749706Y-11657793D02*
X19740182Y-11638746D01*
X19740182Y-11638746D02*
X19740182Y-11629222D01*
X19740182Y-11629222D02*
X19749706Y-11610174D01*
X19749706Y-11610174D02*
X19768753Y-11600650D01*
X19768753Y-11600650D02*
X19797325Y-11600650D01*
X19797325Y-11600650D02*
X19816373Y-11610174D01*
X19892563Y-11810174D02*
X19902087Y-11800650D01*
X19902087Y-11800650D02*
X19921134Y-11772079D01*
X19921134Y-11772079D02*
X19930658Y-11753031D01*
X19930658Y-11753031D02*
X19940182Y-11724460D01*
X19940182Y-11724460D02*
X19949706Y-11676841D01*
X19949706Y-11676841D02*
X19949706Y-11638746D01*
X19949706Y-11638746D02*
X19940182Y-11591127D01*
X19940182Y-11591127D02*
X19930658Y-11562555D01*
X19930658Y-11562555D02*
X19921134Y-11543508D01*
X19921134Y-11543508D02*
X19902087Y-11514936D01*
X19902087Y-11514936D02*
X19892563Y-11505412D01*
D13*
X15117500Y-11906500D02*
G75*
G02*
X14997500Y-11906500I-60000J0D01*
G01*
X14997500Y-11906500D02*
G75*
G02*
X15117500Y-11906500I60000J0D01*
G01*
D11*
X15483039Y-11997984D02*
X15368753Y-11997984D01*
X15425896Y-11997984D02*
X15425896Y-11797984D01*
X15425896Y-11797984D02*
X15406848Y-11826555D01*
X15406848Y-11826555D02*
X15387801Y-11845603D01*
X15387801Y-11845603D02*
X15368753Y-11855127D01*
X15568753Y-11978936D02*
X15578277Y-11988460D01*
X15578277Y-11988460D02*
X15568753Y-11997984D01*
X15568753Y-11997984D02*
X15559229Y-11988460D01*
X15559229Y-11988460D02*
X15568753Y-11978936D01*
X15568753Y-11978936D02*
X15568753Y-11997984D01*
X15654467Y-11817031D02*
X15663991Y-11807508D01*
X15663991Y-11807508D02*
X15683039Y-11797984D01*
X15683039Y-11797984D02*
X15730658Y-11797984D01*
X15730658Y-11797984D02*
X15749705Y-11807508D01*
X15749705Y-11807508D02*
X15759229Y-11817031D01*
X15759229Y-11817031D02*
X15768753Y-11836079D01*
X15768753Y-11836079D02*
X15768753Y-11855127D01*
X15768753Y-11855127D02*
X15759229Y-11883698D01*
X15759229Y-11883698D02*
X15644943Y-11997984D01*
X15644943Y-11997984D02*
X15768753Y-11997984D01*
X15892562Y-11797984D02*
X15911610Y-11797984D01*
X15911610Y-11797984D02*
X15930658Y-11807508D01*
X15930658Y-11807508D02*
X15940182Y-11817031D01*
X15940182Y-11817031D02*
X15949705Y-11836079D01*
X15949705Y-11836079D02*
X15959229Y-11874174D01*
X15959229Y-11874174D02*
X15959229Y-11921793D01*
X15959229Y-11921793D02*
X15949705Y-11959888D01*
X15949705Y-11959888D02*
X15940182Y-11978936D01*
X15940182Y-11978936D02*
X15930658Y-11988460D01*
X15930658Y-11988460D02*
X15911610Y-11997984D01*
X15911610Y-11997984D02*
X15892562Y-11997984D01*
X15892562Y-11997984D02*
X15873515Y-11988460D01*
X15873515Y-11988460D02*
X15863991Y-11978936D01*
X15863991Y-11978936D02*
X15854467Y-11959888D01*
X15854467Y-11959888D02*
X15844943Y-11921793D01*
X15844943Y-11921793D02*
X15844943Y-11874174D01*
X15844943Y-11874174D02*
X15854467Y-11836079D01*
X15854467Y-11836079D02*
X15863991Y-11817031D01*
X15863991Y-11817031D02*
X15873515Y-11807508D01*
X15873515Y-11807508D02*
X15892562Y-11797984D01*
X16083039Y-11797984D02*
X16102086Y-11797984D01*
X16102086Y-11797984D02*
X16121134Y-11807508D01*
X16121134Y-11807508D02*
X16130658Y-11817031D01*
X16130658Y-11817031D02*
X16140182Y-11836079D01*
X16140182Y-11836079D02*
X16149705Y-11874174D01*
X16149705Y-11874174D02*
X16149705Y-11921793D01*
X16149705Y-11921793D02*
X16140182Y-11959888D01*
X16140182Y-11959888D02*
X16130658Y-11978936D01*
X16130658Y-11978936D02*
X16121134Y-11988460D01*
X16121134Y-11988460D02*
X16102086Y-11997984D01*
X16102086Y-11997984D02*
X16083039Y-11997984D01*
X16083039Y-11997984D02*
X16063991Y-11988460D01*
X16063991Y-11988460D02*
X16054467Y-11978936D01*
X16054467Y-11978936D02*
X16044943Y-11959888D01*
X16044943Y-11959888D02*
X16035420Y-11921793D01*
X16035420Y-11921793D02*
X16035420Y-11874174D01*
X16035420Y-11874174D02*
X16044943Y-11836079D01*
X16044943Y-11836079D02*
X16054467Y-11817031D01*
X16054467Y-11817031D02*
X16063991Y-11807508D01*
X16063991Y-11807508D02*
X16083039Y-11797984D01*
X16235420Y-11997984D02*
X16235420Y-11864650D01*
X16235420Y-11883698D02*
X16244943Y-11874174D01*
X16244943Y-11874174D02*
X16263991Y-11864650D01*
X16263991Y-11864650D02*
X16292563Y-11864650D01*
X16292563Y-11864650D02*
X16311610Y-11874174D01*
X16311610Y-11874174D02*
X16321134Y-11893222D01*
X16321134Y-11893222D02*
X16321134Y-11997984D01*
X16321134Y-11893222D02*
X16330658Y-11874174D01*
X16330658Y-11874174D02*
X16349705Y-11864650D01*
X16349705Y-11864650D02*
X16378277Y-11864650D01*
X16378277Y-11864650D02*
X16397324Y-11874174D01*
X16397324Y-11874174D02*
X16406848Y-11893222D01*
X16406848Y-11893222D02*
X16406848Y-11997984D01*
X16502086Y-11997984D02*
X16502086Y-11864650D01*
X16502086Y-11883698D02*
X16511610Y-11874174D01*
X16511610Y-11874174D02*
X16530658Y-11864650D01*
X16530658Y-11864650D02*
X16559229Y-11864650D01*
X16559229Y-11864650D02*
X16578277Y-11874174D01*
X16578277Y-11874174D02*
X16587801Y-11893222D01*
X16587801Y-11893222D02*
X16587801Y-11997984D01*
X16587801Y-11893222D02*
X16597324Y-11874174D01*
X16597324Y-11874174D02*
X16616372Y-11864650D01*
X16616372Y-11864650D02*
X16644943Y-11864650D01*
X16644943Y-11864650D02*
X16663991Y-11874174D01*
X16663991Y-11874174D02*
X16673515Y-11893222D01*
X16673515Y-11893222D02*
X16673515Y-11997984D01*
X17063991Y-11788460D02*
X16892563Y-12045603D01*
X17321134Y-11797984D02*
X17340182Y-11797984D01*
X17340182Y-11797984D02*
X17359229Y-11807508D01*
X17359229Y-11807508D02*
X17368753Y-11817031D01*
X17368753Y-11817031D02*
X17378277Y-11836079D01*
X17378277Y-11836079D02*
X17387801Y-11874174D01*
X17387801Y-11874174D02*
X17387801Y-11921793D01*
X17387801Y-11921793D02*
X17378277Y-11959888D01*
X17378277Y-11959888D02*
X17368753Y-11978936D01*
X17368753Y-11978936D02*
X17359229Y-11988460D01*
X17359229Y-11988460D02*
X17340182Y-11997984D01*
X17340182Y-11997984D02*
X17321134Y-11997984D01*
X17321134Y-11997984D02*
X17302087Y-11988460D01*
X17302087Y-11988460D02*
X17292563Y-11978936D01*
X17292563Y-11978936D02*
X17283039Y-11959888D01*
X17283039Y-11959888D02*
X17273515Y-11921793D01*
X17273515Y-11921793D02*
X17273515Y-11874174D01*
X17273515Y-11874174D02*
X17283039Y-11836079D01*
X17283039Y-11836079D02*
X17292563Y-11817031D01*
X17292563Y-11817031D02*
X17302087Y-11807508D01*
X17302087Y-11807508D02*
X17321134Y-11797984D01*
X17473515Y-11978936D02*
X17483039Y-11988460D01*
X17483039Y-11988460D02*
X17473515Y-11997984D01*
X17473515Y-11997984D02*
X17463991Y-11988460D01*
X17463991Y-11988460D02*
X17473515Y-11978936D01*
X17473515Y-11978936D02*
X17473515Y-11997984D01*
X17606848Y-11797984D02*
X17625896Y-11797984D01*
X17625896Y-11797984D02*
X17644944Y-11807508D01*
X17644944Y-11807508D02*
X17654468Y-11817031D01*
X17654468Y-11817031D02*
X17663991Y-11836079D01*
X17663991Y-11836079D02*
X17673515Y-11874174D01*
X17673515Y-11874174D02*
X17673515Y-11921793D01*
X17673515Y-11921793D02*
X17663991Y-11959888D01*
X17663991Y-11959888D02*
X17654468Y-11978936D01*
X17654468Y-11978936D02*
X17644944Y-11988460D01*
X17644944Y-11988460D02*
X17625896Y-11997984D01*
X17625896Y-11997984D02*
X17606848Y-11997984D01*
X17606848Y-11997984D02*
X17587801Y-11988460D01*
X17587801Y-11988460D02*
X17578277Y-11978936D01*
X17578277Y-11978936D02*
X17568753Y-11959888D01*
X17568753Y-11959888D02*
X17559229Y-11921793D01*
X17559229Y-11921793D02*
X17559229Y-11874174D01*
X17559229Y-11874174D02*
X17568753Y-11836079D01*
X17568753Y-11836079D02*
X17578277Y-11817031D01*
X17578277Y-11817031D02*
X17587801Y-11807508D01*
X17587801Y-11807508D02*
X17606848Y-11797984D01*
X17844944Y-11864650D02*
X17844944Y-11997984D01*
X17797325Y-11788460D02*
X17749706Y-11931317D01*
X17749706Y-11931317D02*
X17873515Y-11931317D01*
X17930658Y-11797984D02*
X18063991Y-11797984D01*
X18063991Y-11797984D02*
X17978277Y-11997984D01*
X18130658Y-11817031D02*
X18140182Y-11807508D01*
X18140182Y-11807508D02*
X18159229Y-11797984D01*
X18159229Y-11797984D02*
X18206849Y-11797984D01*
X18206849Y-11797984D02*
X18225896Y-11807508D01*
X18225896Y-11807508D02*
X18235420Y-11817031D01*
X18235420Y-11817031D02*
X18244944Y-11836079D01*
X18244944Y-11836079D02*
X18244944Y-11855127D01*
X18244944Y-11855127D02*
X18235420Y-11883698D01*
X18235420Y-11883698D02*
X18121134Y-11997984D01*
X18121134Y-11997984D02*
X18244944Y-11997984D01*
X18321134Y-11797984D02*
X18321134Y-11836079D01*
X18397325Y-11797984D02*
X18397325Y-11836079D01*
X18692563Y-12074174D02*
X18683039Y-12064650D01*
X18683039Y-12064650D02*
X18663991Y-12036079D01*
X18663991Y-12036079D02*
X18654468Y-12017031D01*
X18654468Y-12017031D02*
X18644944Y-11988460D01*
X18644944Y-11988460D02*
X18635420Y-11940841D01*
X18635420Y-11940841D02*
X18635420Y-11902746D01*
X18635420Y-11902746D02*
X18644944Y-11855127D01*
X18644944Y-11855127D02*
X18654468Y-11826555D01*
X18654468Y-11826555D02*
X18663991Y-11807508D01*
X18663991Y-11807508D02*
X18683039Y-11778936D01*
X18683039Y-11778936D02*
X18692563Y-11769412D01*
X18854468Y-11864650D02*
X18854468Y-11997984D01*
X18806849Y-11788460D02*
X18759230Y-11931317D01*
X18759230Y-11931317D02*
X18883039Y-11931317D01*
X19111611Y-11997984D02*
X19111611Y-11797984D01*
X19197325Y-11997984D02*
X19197325Y-11893222D01*
X19197325Y-11893222D02*
X19187801Y-11874174D01*
X19187801Y-11874174D02*
X19168753Y-11864650D01*
X19168753Y-11864650D02*
X19140182Y-11864650D01*
X19140182Y-11864650D02*
X19121134Y-11874174D01*
X19121134Y-11874174D02*
X19111611Y-11883698D01*
X19321134Y-11997984D02*
X19302087Y-11988460D01*
X19302087Y-11988460D02*
X19292563Y-11978936D01*
X19292563Y-11978936D02*
X19283039Y-11959888D01*
X19283039Y-11959888D02*
X19283039Y-11902746D01*
X19283039Y-11902746D02*
X19292563Y-11883698D01*
X19292563Y-11883698D02*
X19302087Y-11874174D01*
X19302087Y-11874174D02*
X19321134Y-11864650D01*
X19321134Y-11864650D02*
X19349706Y-11864650D01*
X19349706Y-11864650D02*
X19368753Y-11874174D01*
X19368753Y-11874174D02*
X19378277Y-11883698D01*
X19378277Y-11883698D02*
X19387801Y-11902746D01*
X19387801Y-11902746D02*
X19387801Y-11959888D01*
X19387801Y-11959888D02*
X19378277Y-11978936D01*
X19378277Y-11978936D02*
X19368753Y-11988460D01*
X19368753Y-11988460D02*
X19349706Y-11997984D01*
X19349706Y-11997984D02*
X19321134Y-11997984D01*
X19502087Y-11997984D02*
X19483039Y-11988460D01*
X19483039Y-11988460D02*
X19473515Y-11969412D01*
X19473515Y-11969412D02*
X19473515Y-11797984D01*
X19654468Y-11988460D02*
X19635420Y-11997984D01*
X19635420Y-11997984D02*
X19597325Y-11997984D01*
X19597325Y-11997984D02*
X19578277Y-11988460D01*
X19578277Y-11988460D02*
X19568753Y-11969412D01*
X19568753Y-11969412D02*
X19568753Y-11893222D01*
X19568753Y-11893222D02*
X19578277Y-11874174D01*
X19578277Y-11874174D02*
X19597325Y-11864650D01*
X19597325Y-11864650D02*
X19635420Y-11864650D01*
X19635420Y-11864650D02*
X19654468Y-11874174D01*
X19654468Y-11874174D02*
X19663992Y-11893222D01*
X19663992Y-11893222D02*
X19663992Y-11912269D01*
X19663992Y-11912269D02*
X19568753Y-11931317D01*
X19740182Y-11988460D02*
X19759230Y-11997984D01*
X19759230Y-11997984D02*
X19797325Y-11997984D01*
X19797325Y-11997984D02*
X19816373Y-11988460D01*
X19816373Y-11988460D02*
X19825896Y-11969412D01*
X19825896Y-11969412D02*
X19825896Y-11959888D01*
X19825896Y-11959888D02*
X19816373Y-11940841D01*
X19816373Y-11940841D02*
X19797325Y-11931317D01*
X19797325Y-11931317D02*
X19768753Y-11931317D01*
X19768753Y-11931317D02*
X19749706Y-11921793D01*
X19749706Y-11921793D02*
X19740182Y-11902746D01*
X19740182Y-11902746D02*
X19740182Y-11893222D01*
X19740182Y-11893222D02*
X19749706Y-11874174D01*
X19749706Y-11874174D02*
X19768753Y-11864650D01*
X19768753Y-11864650D02*
X19797325Y-11864650D01*
X19797325Y-11864650D02*
X19816373Y-11874174D01*
X19892563Y-12074174D02*
X19902087Y-12064650D01*
X19902087Y-12064650D02*
X19921134Y-12036079D01*
X19921134Y-12036079D02*
X19930658Y-12017031D01*
X19930658Y-12017031D02*
X19940182Y-11988460D01*
X19940182Y-11988460D02*
X19949706Y-11940841D01*
X19949706Y-11940841D02*
X19949706Y-11902746D01*
X19949706Y-11902746D02*
X19940182Y-11855127D01*
X19940182Y-11855127D02*
X19930658Y-11826555D01*
X19930658Y-11826555D02*
X19921134Y-11807508D01*
X19921134Y-11807508D02*
X19902087Y-11778936D01*
X19902087Y-11778936D02*
X19892563Y-11769412D01*
D14*
X15052500Y-12105500D02*
X15052500Y-12235500D01*
X14987500Y-12170500D02*
X15117500Y-12170500D01*
D11*
X15483039Y-12261984D02*
X15368753Y-12261984D01*
X15425896Y-12261984D02*
X15425896Y-12061984D01*
X15425896Y-12061984D02*
X15406848Y-12090555D01*
X15406848Y-12090555D02*
X15387801Y-12109603D01*
X15387801Y-12109603D02*
X15368753Y-12119127D01*
X15568753Y-12242936D02*
X15578277Y-12252460D01*
X15578277Y-12252460D02*
X15568753Y-12261984D01*
X15568753Y-12261984D02*
X15559229Y-12252460D01*
X15559229Y-12252460D02*
X15568753Y-12242936D01*
X15568753Y-12242936D02*
X15568753Y-12261984D01*
X15644943Y-12061984D02*
X15768753Y-12061984D01*
X15768753Y-12061984D02*
X15702086Y-12138174D01*
X15702086Y-12138174D02*
X15730658Y-12138174D01*
X15730658Y-12138174D02*
X15749705Y-12147698D01*
X15749705Y-12147698D02*
X15759229Y-12157222D01*
X15759229Y-12157222D02*
X15768753Y-12176269D01*
X15768753Y-12176269D02*
X15768753Y-12223888D01*
X15768753Y-12223888D02*
X15759229Y-12242936D01*
X15759229Y-12242936D02*
X15749705Y-12252460D01*
X15749705Y-12252460D02*
X15730658Y-12261984D01*
X15730658Y-12261984D02*
X15673515Y-12261984D01*
X15673515Y-12261984D02*
X15654467Y-12252460D01*
X15654467Y-12252460D02*
X15644943Y-12242936D01*
X15892562Y-12061984D02*
X15911610Y-12061984D01*
X15911610Y-12061984D02*
X15930658Y-12071508D01*
X15930658Y-12071508D02*
X15940182Y-12081031D01*
X15940182Y-12081031D02*
X15949705Y-12100079D01*
X15949705Y-12100079D02*
X15959229Y-12138174D01*
X15959229Y-12138174D02*
X15959229Y-12185793D01*
X15959229Y-12185793D02*
X15949705Y-12223888D01*
X15949705Y-12223888D02*
X15940182Y-12242936D01*
X15940182Y-12242936D02*
X15930658Y-12252460D01*
X15930658Y-12252460D02*
X15911610Y-12261984D01*
X15911610Y-12261984D02*
X15892562Y-12261984D01*
X15892562Y-12261984D02*
X15873515Y-12252460D01*
X15873515Y-12252460D02*
X15863991Y-12242936D01*
X15863991Y-12242936D02*
X15854467Y-12223888D01*
X15854467Y-12223888D02*
X15844943Y-12185793D01*
X15844943Y-12185793D02*
X15844943Y-12138174D01*
X15844943Y-12138174D02*
X15854467Y-12100079D01*
X15854467Y-12100079D02*
X15863991Y-12081031D01*
X15863991Y-12081031D02*
X15873515Y-12071508D01*
X15873515Y-12071508D02*
X15892562Y-12061984D01*
X16083039Y-12061984D02*
X16102086Y-12061984D01*
X16102086Y-12061984D02*
X16121134Y-12071508D01*
X16121134Y-12071508D02*
X16130658Y-12081031D01*
X16130658Y-12081031D02*
X16140182Y-12100079D01*
X16140182Y-12100079D02*
X16149705Y-12138174D01*
X16149705Y-12138174D02*
X16149705Y-12185793D01*
X16149705Y-12185793D02*
X16140182Y-12223888D01*
X16140182Y-12223888D02*
X16130658Y-12242936D01*
X16130658Y-12242936D02*
X16121134Y-12252460D01*
X16121134Y-12252460D02*
X16102086Y-12261984D01*
X16102086Y-12261984D02*
X16083039Y-12261984D01*
X16083039Y-12261984D02*
X16063991Y-12252460D01*
X16063991Y-12252460D02*
X16054467Y-12242936D01*
X16054467Y-12242936D02*
X16044943Y-12223888D01*
X16044943Y-12223888D02*
X16035420Y-12185793D01*
X16035420Y-12185793D02*
X16035420Y-12138174D01*
X16035420Y-12138174D02*
X16044943Y-12100079D01*
X16044943Y-12100079D02*
X16054467Y-12081031D01*
X16054467Y-12081031D02*
X16063991Y-12071508D01*
X16063991Y-12071508D02*
X16083039Y-12061984D01*
X16235420Y-12261984D02*
X16235420Y-12128650D01*
X16235420Y-12147698D02*
X16244943Y-12138174D01*
X16244943Y-12138174D02*
X16263991Y-12128650D01*
X16263991Y-12128650D02*
X16292563Y-12128650D01*
X16292563Y-12128650D02*
X16311610Y-12138174D01*
X16311610Y-12138174D02*
X16321134Y-12157222D01*
X16321134Y-12157222D02*
X16321134Y-12261984D01*
X16321134Y-12157222D02*
X16330658Y-12138174D01*
X16330658Y-12138174D02*
X16349705Y-12128650D01*
X16349705Y-12128650D02*
X16378277Y-12128650D01*
X16378277Y-12128650D02*
X16397324Y-12138174D01*
X16397324Y-12138174D02*
X16406848Y-12157222D01*
X16406848Y-12157222D02*
X16406848Y-12261984D01*
X16502086Y-12261984D02*
X16502086Y-12128650D01*
X16502086Y-12147698D02*
X16511610Y-12138174D01*
X16511610Y-12138174D02*
X16530658Y-12128650D01*
X16530658Y-12128650D02*
X16559229Y-12128650D01*
X16559229Y-12128650D02*
X16578277Y-12138174D01*
X16578277Y-12138174D02*
X16587801Y-12157222D01*
X16587801Y-12157222D02*
X16587801Y-12261984D01*
X16587801Y-12157222D02*
X16597324Y-12138174D01*
X16597324Y-12138174D02*
X16616372Y-12128650D01*
X16616372Y-12128650D02*
X16644943Y-12128650D01*
X16644943Y-12128650D02*
X16663991Y-12138174D01*
X16663991Y-12138174D02*
X16673515Y-12157222D01*
X16673515Y-12157222D02*
X16673515Y-12261984D01*
X17063991Y-12052460D02*
X16892563Y-12309603D01*
X17321134Y-12061984D02*
X17340182Y-12061984D01*
X17340182Y-12061984D02*
X17359229Y-12071508D01*
X17359229Y-12071508D02*
X17368753Y-12081031D01*
X17368753Y-12081031D02*
X17378277Y-12100079D01*
X17378277Y-12100079D02*
X17387801Y-12138174D01*
X17387801Y-12138174D02*
X17387801Y-12185793D01*
X17387801Y-12185793D02*
X17378277Y-12223888D01*
X17378277Y-12223888D02*
X17368753Y-12242936D01*
X17368753Y-12242936D02*
X17359229Y-12252460D01*
X17359229Y-12252460D02*
X17340182Y-12261984D01*
X17340182Y-12261984D02*
X17321134Y-12261984D01*
X17321134Y-12261984D02*
X17302087Y-12252460D01*
X17302087Y-12252460D02*
X17292563Y-12242936D01*
X17292563Y-12242936D02*
X17283039Y-12223888D01*
X17283039Y-12223888D02*
X17273515Y-12185793D01*
X17273515Y-12185793D02*
X17273515Y-12138174D01*
X17273515Y-12138174D02*
X17283039Y-12100079D01*
X17283039Y-12100079D02*
X17292563Y-12081031D01*
X17292563Y-12081031D02*
X17302087Y-12071508D01*
X17302087Y-12071508D02*
X17321134Y-12061984D01*
X17473515Y-12242936D02*
X17483039Y-12252460D01*
X17483039Y-12252460D02*
X17473515Y-12261984D01*
X17473515Y-12261984D02*
X17463991Y-12252460D01*
X17463991Y-12252460D02*
X17473515Y-12242936D01*
X17473515Y-12242936D02*
X17473515Y-12261984D01*
X17606848Y-12061984D02*
X17625896Y-12061984D01*
X17625896Y-12061984D02*
X17644944Y-12071508D01*
X17644944Y-12071508D02*
X17654468Y-12081031D01*
X17654468Y-12081031D02*
X17663991Y-12100079D01*
X17663991Y-12100079D02*
X17673515Y-12138174D01*
X17673515Y-12138174D02*
X17673515Y-12185793D01*
X17673515Y-12185793D02*
X17663991Y-12223888D01*
X17663991Y-12223888D02*
X17654468Y-12242936D01*
X17654468Y-12242936D02*
X17644944Y-12252460D01*
X17644944Y-12252460D02*
X17625896Y-12261984D01*
X17625896Y-12261984D02*
X17606848Y-12261984D01*
X17606848Y-12261984D02*
X17587801Y-12252460D01*
X17587801Y-12252460D02*
X17578277Y-12242936D01*
X17578277Y-12242936D02*
X17568753Y-12223888D01*
X17568753Y-12223888D02*
X17559229Y-12185793D01*
X17559229Y-12185793D02*
X17559229Y-12138174D01*
X17559229Y-12138174D02*
X17568753Y-12100079D01*
X17568753Y-12100079D02*
X17578277Y-12081031D01*
X17578277Y-12081031D02*
X17587801Y-12071508D01*
X17587801Y-12071508D02*
X17606848Y-12061984D01*
X17854468Y-12061984D02*
X17759229Y-12061984D01*
X17759229Y-12061984D02*
X17749706Y-12157222D01*
X17749706Y-12157222D02*
X17759229Y-12147698D01*
X17759229Y-12147698D02*
X17778277Y-12138174D01*
X17778277Y-12138174D02*
X17825896Y-12138174D01*
X17825896Y-12138174D02*
X17844944Y-12147698D01*
X17844944Y-12147698D02*
X17854468Y-12157222D01*
X17854468Y-12157222D02*
X17863991Y-12176269D01*
X17863991Y-12176269D02*
X17863991Y-12223888D01*
X17863991Y-12223888D02*
X17854468Y-12242936D01*
X17854468Y-12242936D02*
X17844944Y-12252460D01*
X17844944Y-12252460D02*
X17825896Y-12261984D01*
X17825896Y-12261984D02*
X17778277Y-12261984D01*
X17778277Y-12261984D02*
X17759229Y-12252460D01*
X17759229Y-12252460D02*
X17749706Y-12242936D01*
X18054468Y-12261984D02*
X17940182Y-12261984D01*
X17997325Y-12261984D02*
X17997325Y-12061984D01*
X17997325Y-12061984D02*
X17978277Y-12090555D01*
X17978277Y-12090555D02*
X17959229Y-12109603D01*
X17959229Y-12109603D02*
X17940182Y-12119127D01*
X18130658Y-12081031D02*
X18140182Y-12071508D01*
X18140182Y-12071508D02*
X18159229Y-12061984D01*
X18159229Y-12061984D02*
X18206849Y-12061984D01*
X18206849Y-12061984D02*
X18225896Y-12071508D01*
X18225896Y-12071508D02*
X18235420Y-12081031D01*
X18235420Y-12081031D02*
X18244944Y-12100079D01*
X18244944Y-12100079D02*
X18244944Y-12119127D01*
X18244944Y-12119127D02*
X18235420Y-12147698D01*
X18235420Y-12147698D02*
X18121134Y-12261984D01*
X18121134Y-12261984D02*
X18244944Y-12261984D01*
X18321134Y-12061984D02*
X18321134Y-12100079D01*
X18397325Y-12061984D02*
X18397325Y-12100079D01*
X18692563Y-12338174D02*
X18683039Y-12328650D01*
X18683039Y-12328650D02*
X18663991Y-12300079D01*
X18663991Y-12300079D02*
X18654468Y-12281031D01*
X18654468Y-12281031D02*
X18644944Y-12252460D01*
X18644944Y-12252460D02*
X18635420Y-12204841D01*
X18635420Y-12204841D02*
X18635420Y-12166746D01*
X18635420Y-12166746D02*
X18644944Y-12119127D01*
X18644944Y-12119127D02*
X18654468Y-12090555D01*
X18654468Y-12090555D02*
X18663991Y-12071508D01*
X18663991Y-12071508D02*
X18683039Y-12042936D01*
X18683039Y-12042936D02*
X18692563Y-12033412D01*
X18863991Y-12061984D02*
X18768753Y-12061984D01*
X18768753Y-12061984D02*
X18759230Y-12157222D01*
X18759230Y-12157222D02*
X18768753Y-12147698D01*
X18768753Y-12147698D02*
X18787801Y-12138174D01*
X18787801Y-12138174D02*
X18835420Y-12138174D01*
X18835420Y-12138174D02*
X18854468Y-12147698D01*
X18854468Y-12147698D02*
X18863991Y-12157222D01*
X18863991Y-12157222D02*
X18873515Y-12176269D01*
X18873515Y-12176269D02*
X18873515Y-12223888D01*
X18873515Y-12223888D02*
X18863991Y-12242936D01*
X18863991Y-12242936D02*
X18854468Y-12252460D01*
X18854468Y-12252460D02*
X18835420Y-12261984D01*
X18835420Y-12261984D02*
X18787801Y-12261984D01*
X18787801Y-12261984D02*
X18768753Y-12252460D01*
X18768753Y-12252460D02*
X18759230Y-12242936D01*
X19111611Y-12261984D02*
X19111611Y-12061984D01*
X19197325Y-12261984D02*
X19197325Y-12157222D01*
X19197325Y-12157222D02*
X19187801Y-12138174D01*
X19187801Y-12138174D02*
X19168753Y-12128650D01*
X19168753Y-12128650D02*
X19140182Y-12128650D01*
X19140182Y-12128650D02*
X19121134Y-12138174D01*
X19121134Y-12138174D02*
X19111611Y-12147698D01*
X19321134Y-12261984D02*
X19302087Y-12252460D01*
X19302087Y-12252460D02*
X19292563Y-12242936D01*
X19292563Y-12242936D02*
X19283039Y-12223888D01*
X19283039Y-12223888D02*
X19283039Y-12166746D01*
X19283039Y-12166746D02*
X19292563Y-12147698D01*
X19292563Y-12147698D02*
X19302087Y-12138174D01*
X19302087Y-12138174D02*
X19321134Y-12128650D01*
X19321134Y-12128650D02*
X19349706Y-12128650D01*
X19349706Y-12128650D02*
X19368753Y-12138174D01*
X19368753Y-12138174D02*
X19378277Y-12147698D01*
X19378277Y-12147698D02*
X19387801Y-12166746D01*
X19387801Y-12166746D02*
X19387801Y-12223888D01*
X19387801Y-12223888D02*
X19378277Y-12242936D01*
X19378277Y-12242936D02*
X19368753Y-12252460D01*
X19368753Y-12252460D02*
X19349706Y-12261984D01*
X19349706Y-12261984D02*
X19321134Y-12261984D01*
X19502087Y-12261984D02*
X19483039Y-12252460D01*
X19483039Y-12252460D02*
X19473515Y-12233412D01*
X19473515Y-12233412D02*
X19473515Y-12061984D01*
X19654468Y-12252460D02*
X19635420Y-12261984D01*
X19635420Y-12261984D02*
X19597325Y-12261984D01*
X19597325Y-12261984D02*
X19578277Y-12252460D01*
X19578277Y-12252460D02*
X19568753Y-12233412D01*
X19568753Y-12233412D02*
X19568753Y-12157222D01*
X19568753Y-12157222D02*
X19578277Y-12138174D01*
X19578277Y-12138174D02*
X19597325Y-12128650D01*
X19597325Y-12128650D02*
X19635420Y-12128650D01*
X19635420Y-12128650D02*
X19654468Y-12138174D01*
X19654468Y-12138174D02*
X19663992Y-12157222D01*
X19663992Y-12157222D02*
X19663992Y-12176269D01*
X19663992Y-12176269D02*
X19568753Y-12195317D01*
X19740182Y-12252460D02*
X19759230Y-12261984D01*
X19759230Y-12261984D02*
X19797325Y-12261984D01*
X19797325Y-12261984D02*
X19816373Y-12252460D01*
X19816373Y-12252460D02*
X19825896Y-12233412D01*
X19825896Y-12233412D02*
X19825896Y-12223888D01*
X19825896Y-12223888D02*
X19816373Y-12204841D01*
X19816373Y-12204841D02*
X19797325Y-12195317D01*
X19797325Y-12195317D02*
X19768753Y-12195317D01*
X19768753Y-12195317D02*
X19749706Y-12185793D01*
X19749706Y-12185793D02*
X19740182Y-12166746D01*
X19740182Y-12166746D02*
X19740182Y-12157222D01*
X19740182Y-12157222D02*
X19749706Y-12138174D01*
X19749706Y-12138174D02*
X19768753Y-12128650D01*
X19768753Y-12128650D02*
X19797325Y-12128650D01*
X19797325Y-12128650D02*
X19816373Y-12138174D01*
X19892563Y-12338174D02*
X19902087Y-12328650D01*
X19902087Y-12328650D02*
X19921134Y-12300079D01*
X19921134Y-12300079D02*
X19930658Y-12281031D01*
X19930658Y-12281031D02*
X19940182Y-12252460D01*
X19940182Y-12252460D02*
X19949706Y-12204841D01*
X19949706Y-12204841D02*
X19949706Y-12166746D01*
X19949706Y-12166746D02*
X19940182Y-12119127D01*
X19940182Y-12119127D02*
X19930658Y-12090555D01*
X19930658Y-12090555D02*
X19921134Y-12071508D01*
X19921134Y-12071508D02*
X19902087Y-12042936D01*
X19902087Y-12042936D02*
X19892563Y-12033412D01*
M02*
